<?xml version="1.0" encoding="UTF-8" standalone="no"?>
<!DOCTYPE svg PUBLIC "-//W3C//DTD SVG 1.1//EN"
 "http://www.w3.org/Graphics/SVG/1.1/DTD/svg11.dtd">
<!-- Generated by graphviz version 2.38.0 (20140413.2041)
 -->
<!-- Title: Call graph Pages: 1 -->
<svg width="598pt" height="726pt"
 viewBox="0.00 0.00 598.00 725.68" xmlns="http://www.w3.org/2000/svg" xmlns:xlink="http://www.w3.org/1999/xlink">
<g id="graph0" class="graph" transform="scale(0.621299 0.621299) rotate(0) translate(4 1164)">
<title>Call graph</title>
<polygon fill="white" stroke="none" points="-4,4 -4,-1164 958.5,-1164 958.5,4 -4,4"/>
<text text-anchor="start" x="475.75" y="-147.2" font-family="Times New Roman,serif" font-size="16.00"> </text>
<text text-anchor="start" x="475.75" y="-125.2" font-family="Times New Roman,serif" font-size="16.00"> </text>
<text text-anchor="start" x="247.75" y="-100" font-family="Times New Roman,serif" font-size="20.00">Call graph of modules involved with OrientAL Software</text>
<text text-anchor="start" x="333.75" y="-77.2" font-family="Times New Roman,serif" font-size="16.00">green border: modules accessible from Python</text>
<text text-anchor="start" x="340.75" y="-55.2" font-family="Times New Roman,serif" font-size="16.00">yellow fill: modules accessible from C/C++</text>
<text text-anchor="start" x="378.75" y="-33.2" font-family="Times New Roman,serif" font-size="16.00">dashed edges: optional modules</text>
<text text-anchor="start" x="223.25" y="-11.2" font-family="Times New Roman,serif" font-size="16.00">Callbacks: on iteration finished, evaluate custom cost&#45; and loss functions, logging</text>
<!-- IPython -->
<g id="node1" class="node"><title>IPython</title>
<g id="a_node1"><a xlink:href="http://ipython.org/" xlink:title="&lt;TABLE&gt;" target="_blank">
<path fill="none" stroke="darkgreen" stroke-width="2" d="M459.5,-1160C459.5,-1160 374.5,-1160 374.5,-1160 368.5,-1160 362.5,-1154 362.5,-1148 362.5,-1148 362.5,-1123 362.5,-1123 362.5,-1117 368.5,-1111 374.5,-1111 374.5,-1111 459.5,-1111 459.5,-1111 465.5,-1111 471.5,-1117 471.5,-1123 471.5,-1123 471.5,-1148 471.5,-1148 471.5,-1154 465.5,-1160 459.5,-1160"/>
<text text-anchor="start" x="393" y="-1140.7" font-family="Times New Roman,serif" font-size="16.00">IPython</text>
<text text-anchor="start" x="373" y="-1121.3" font-family="Times New Roman,serif" font-style="italic" font-size="14.00">grid computing</text>
</a>
</g>
</g>
<!-- Python -->
<g id="node3" class="node"><title>Python</title>
<g id="a_node3"><a xlink:href="http://www.python.org/" xlink:title="&lt;TABLE&gt;" target="_blank">
<path fill="#fff68f" stroke="darkgreen" stroke-width="2" d="M485,-1074C485,-1074 349,-1074 349,-1074 343,-1074 337,-1068 337,-1062 337,-1062 337,-1037 337,-1037 337,-1031 343,-1025 349,-1025 349,-1025 485,-1025 485,-1025 491,-1025 497,-1031 497,-1037 497,-1037 497,-1062 497,-1062 497,-1068 491,-1074 485,-1074"/>
<text text-anchor="start" x="361" y="-1054.7" font-family="Times New Roman,serif" font-size="16.00">Python Interpreter</text>
<text text-anchor="start" x="347" y="-1035.3" font-family="Times New Roman,serif" font-style="italic" font-size="14.00">scripting, interactive use</text>
</a>
</g>
</g>
<!-- IPython&#45;&gt;Python -->
<g id="edge1" class="edge"><title>IPython&#45;&gt;Python</title>
<path fill="none" stroke="black" stroke-dasharray="5,2" d="M417,-1110.65C417,-1102.43 417,-1093.05 417,-1084.18"/>
<polygon fill="black" stroke="black" points="420.5,-1084.12 417,-1074.12 413.5,-1084.12 420.5,-1084.12"/>
</g>
<!-- PythonIDE -->
<g id="node2" class="node"><title>PythonIDE</title>
<g id="a_node2"><a xlink:href="http://code.google.com/p/pyscripter" xlink:title="&lt;TABLE&gt;" target="_blank">
<path fill="none" stroke="darkgreen" stroke-width="2" d="M685.5,-1074C685.5,-1074 544.5,-1074 544.5,-1074 538.5,-1074 532.5,-1068 532.5,-1062 532.5,-1062 532.5,-1037 532.5,-1037 532.5,-1031 538.5,-1025 544.5,-1025 544.5,-1025 685.5,-1025 685.5,-1025 691.5,-1025 697.5,-1031 697.5,-1037 697.5,-1037 697.5,-1062 697.5,-1062 697.5,-1068 691.5,-1074 685.5,-1074"/>
<text text-anchor="start" x="579" y="-1054.7" font-family="Times New Roman,serif" font-size="16.00">Python IDE</text>
<text text-anchor="start" x="543" y="-1035.3" font-family="Times New Roman,serif" font-style="italic" font-size="14.00">Development, debugging</text>
</a>
</g>
</g>
<!-- Python&#45;&gt;PythonIDE -->
<g id="edge3" class="edge"><title>Python&#45;&gt;PythonIDE</title>
<path fill="none" stroke="black" stroke-dasharray="5,2" d="M507.173,-1049.5C515.471,-1049.5 523.769,-1049.5 532.067,-1049.5"/>
<polygon fill="black" stroke="black" points="507.051,-1046 497.051,-1049.5 507.051,-1053 507.051,-1046"/>
</g>
<!-- oriental_py -->
<g id="node4" class="node"><title>oriental_py</title>
<path fill="none" stroke="darkgreen" stroke-width="2" d="M461.5,-988C461.5,-988 372.5,-988 372.5,-988 366.5,-988 360.5,-982 360.5,-976 360.5,-976 360.5,-934 360.5,-934 360.5,-928 366.5,-922 372.5,-922 372.5,-922 461.5,-922 461.5,-922 467.5,-922 473.5,-928 473.5,-934 473.5,-934 473.5,-976 473.5,-976 473.5,-982 467.5,-988 461.5,-988"/>
<text text-anchor="start" x="391.5" y="-970.2" font-family="Times New Roman,serif" font-weight="bold" font-size="16.00">oriental</text>
<text text-anchor="start" x="384.5" y="-948.2" font-family="Times New Roman,serif" font-weight="bold" font-style="italic" font-size="16.00">high&#45;level</text>
<text text-anchor="start" x="371" y="-932.2" font-family="Times New Roman,serif" font-weight="bold" font-style="italic" font-size="16.00">Python scripts</text>
</g>
<!-- Python&#45;&gt;oriental_py -->
<g id="edge2" class="edge"><title>Python&#45;&gt;oriental_py</title>
<path fill="none" stroke="black" stroke-width="2" d="M417,-1024.68C417,-1016.59 417,-1007.29 417,-998.204"/>
<polygon fill="black" stroke="black" stroke-width="2" points="420.5,-998.109 417,-988.109 413.5,-998.109 420.5,-998.109"/>
</g>
<!-- boost::python -->
<g id="node6" class="node"><title>boost::python</title>
<g id="a_node6"><a xlink:href="http://www.boost.org/doc/libs/1_53_0/libs/python/doc/index.html" xlink:title="&lt;TABLE&gt;" target="_blank">
<path fill="#fff68f" stroke="darkgreen" stroke-width="2" d="M460.5,-871C460.5,-871 373.5,-871 373.5,-871 367.5,-871 361.5,-865 361.5,-859 361.5,-859 361.5,-821 361.5,-821 361.5,-815 367.5,-809 373.5,-809 373.5,-809 460.5,-809 460.5,-809 466.5,-809 472.5,-815 472.5,-821 472.5,-821 472.5,-859 472.5,-859 472.5,-865 466.5,-871 460.5,-871"/>
<text text-anchor="start" x="374.5" y="-852.2" font-family="Times New Roman,serif" font-size="16.00">boost::python</text>
<text text-anchor="start" x="372" y="-832.8" font-family="Times New Roman,serif" font-style="italic" font-size="14.00">C++ extensions</text>
<text text-anchor="start" x="387" y="-818.8" font-family="Times New Roman,serif" font-style="italic" font-size="14.00">for Python</text>
</a>
</g>
</g>
<!-- oriental_py&#45;&gt;boost::python -->
<g id="edge5" class="edge"><title>oriental_py&#45;&gt;boost::python</title>
<path fill="none" stroke="black" stroke-width="2" d="M417,-921.921C417,-909.358 417,-894.801 417,-881.526"/>
<polygon fill="black" stroke="black" stroke-width="2" points="420.5,-881.217 417,-871.217 413.5,-881.217 420.5,-881.217"/>
</g>
<!-- NumPy -->
<g id="node9" class="node"><title>NumPy</title>
<g id="a_node9"><a xlink:href="http://www.numpy.org/" xlink:title="&lt;TABLE&gt;" target="_blank">
<path fill="#fff68f" stroke="darkgreen" stroke-width="2" d="M742,-756C742,-756 602,-756 602,-756 596,-756 590,-750 590,-744 590,-744 590,-706 590,-706 590,-700 596,-694 602,-694 602,-694 742,-694 742,-694 748,-694 754,-700 754,-706 754,-706 754,-744 754,-744 754,-750 748,-756 742,-756"/>
<text text-anchor="start" x="648" y="-737.2" font-family="Times New Roman,serif" font-size="16.00">NumPy</text>
<text text-anchor="start" x="600" y="-717.8" font-family="Times New Roman,serif" font-style="italic" font-size="14.00">multidimensional arrays,</text>
<text text-anchor="start" x="630.5" y="-703.8" font-family="Times New Roman,serif" font-style="italic" font-size="14.00">linear algebra</text>
</a>
</g>
</g>
<!-- oriental_py&#45;&gt;NumPy -->
<g id="edge15" class="edge"><title>oriental_py&#45;&gt;NumPy</title>
<path fill="none" stroke="black" stroke-width="2" d="M473.56,-946.997C506.449,-940.477 546.998,-927.958 576,-904 619.888,-867.746 646.691,-806.017 660.446,-765.622"/>
<polygon fill="black" stroke="black" stroke-width="2" points="663.781,-766.685 663.585,-756.092 657.132,-764.495 663.781,-766.685"/>
</g>
<!-- matplotlib -->
<g id="node11" class="node"><title>matplotlib</title>
<g id="a_node11"><a xlink:href="http://matplotlib.org/" xlink:title="&lt;TABLE&gt;" target="_blank">
<path fill="none" stroke="darkgreen" stroke-width="2" d="M804.5,-632.5C804.5,-632.5 737.5,-632.5 737.5,-632.5 731.5,-632.5 725.5,-626.5 725.5,-620.5 725.5,-620.5 725.5,-595.5 725.5,-595.5 725.5,-589.5 731.5,-583.5 737.5,-583.5 737.5,-583.5 804.5,-583.5 804.5,-583.5 810.5,-583.5 816.5,-589.5 816.5,-595.5 816.5,-595.5 816.5,-620.5 816.5,-620.5 816.5,-626.5 810.5,-632.5 804.5,-632.5"/>
<text text-anchor="start" x="739" y="-613.2" font-family="Times New Roman,serif" font-size="16.00">matplotlib</text>
<text text-anchor="start" x="736" y="-593.8" font-family="Times New Roman,serif" font-style="italic" font-size="14.00">2D/3D plots</text>
</a>
</g>
</g>
<!-- oriental_py&#45;&gt;matplotlib -->
<g id="edge20" class="edge"><title>oriental_py&#45;&gt;matplotlib</title>
<path fill="none" stroke="black" stroke-dasharray="5,2" d="M473.834,-944.502C510.641,-936.88 558.834,-924.074 598,-904 647.123,-878.823 742.803,-800.601 763,-758 780.349,-721.407 779.492,-673.943 776.196,-642.531"/>
<polygon fill="black" stroke="black" points="779.663,-642.049 775.007,-632.532 772.712,-642.875 779.663,-642.049"/>
</g>
<!-- SQLite -->
<g id="node14" class="node"><title>SQLite</title>
<g id="a_node14"><a xlink:href="http://www.sqlite.org/" xlink:title="&lt;TABLE&gt;" target="_blank">
<path fill="#fff68f" stroke="darkgreen" stroke-width="2" d="M565.5,-517C565.5,-517 474.5,-517 474.5,-517 468.5,-517 462.5,-511 462.5,-505 462.5,-505 462.5,-453 462.5,-453 462.5,-447 468.5,-441 474.5,-441 474.5,-441 565.5,-441 565.5,-441 571.5,-441 577.5,-447 577.5,-453 577.5,-453 577.5,-505 577.5,-505 577.5,-511 571.5,-517 565.5,-517"/>
<text text-anchor="start" x="498" y="-498.2" font-family="Times New Roman,serif" font-size="16.00">SQLite</text>
<text text-anchor="start" x="473" y="-478.8" font-family="Times New Roman,serif" font-style="italic" font-size="14.00">ACID&#45;compliant</text>
<text text-anchor="start" x="491.5" y="-464.8" font-family="Times New Roman,serif" font-style="italic" font-size="14.00">in&#45;process</text>
<text text-anchor="start" x="496" y="-450.8" font-family="Times New Roman,serif" font-style="italic" font-size="14.00">RDBMS</text>
</a>
</g>
</g>
<!-- oriental_py&#45;&gt;SQLite -->
<g id="edge19" class="edge"><title>oriental_py&#45;&gt;SQLite</title>
<path fill="none" stroke="black" stroke-width="2" d="M448.044,-921.769C460.228,-907.325 473.149,-889.411 481,-871 530.39,-755.181 528.835,-603.124 524.121,-527.286"/>
<polygon fill="black" stroke="black" stroke-width="2" points="527.6,-526.846 523.44,-517.102 520.615,-527.313 527.6,-526.846"/>
</g>
<!-- GDAL -->
<g id="node15" class="node"><title>GDAL</title>
<g id="a_node15"><a xlink:href="http://www.gdal.org/" xlink:title="&lt;TABLE&gt;" target="_blank">
<path fill="#fff68f" stroke="darkgreen" stroke-width="2" d="M748.5,-510C748.5,-510 607.5,-510 607.5,-510 601.5,-510 595.5,-504 595.5,-498 595.5,-498 595.5,-460 595.5,-460 595.5,-454 601.5,-448 607.5,-448 607.5,-448 748.5,-448 748.5,-448 754.5,-448 760.5,-454 760.5,-460 760.5,-460 760.5,-498 760.5,-498 760.5,-504 754.5,-510 748.5,-510"/>
<text text-anchor="start" x="657" y="-491.2" font-family="Times New Roman,serif" font-size="16.00">GDAL</text>
<text text-anchor="start" x="606" y="-471.8" font-family="Times New Roman,serif" font-style="italic" font-size="14.00">georeferenced image I/O,</text>
<text text-anchor="start" x="628.5" y="-457.8" font-family="Times New Roman,serif" font-style="italic" font-size="14.00">image processing</text>
</a>
</g>
</g>
<!-- oriental_py&#45;&gt;GDAL -->
<g id="edge17" class="edge"><title>oriental_py&#45;&gt;GDAL</title>
<path fill="none" stroke="black" stroke-width="2" d="M473.892,-935.327C514.514,-918.004 562,-887.756 562,-841 562,-841 562,-841 562,-607 562,-569.469 589.96,-538.178 618.426,-516.047"/>
<polygon fill="black" stroke="black" stroke-width="2" points="620.533,-518.842 626.445,-510.05 616.341,-513.236 620.533,-518.842"/>
</g>
<!-- OpenCV -->
<g id="node16" class="node"><title>OpenCV</title>
<g id="a_node16"><a xlink:href="http://opencv.org/" xlink:title="&lt;TABLE&gt;" target="_blank">
<path fill="#fff68f" stroke="darkgreen" stroke-width="2" d="M892,-524C892,-524 792,-524 792,-524 786,-524 780,-518 780,-512 780,-512 780,-446 780,-446 780,-440 786,-434 792,-434 792,-434 892,-434 892,-434 898,-434 904,-440 904,-446 904,-446 904,-512 904,-512 904,-518 898,-524 892,-524"/>
<text text-anchor="start" x="814.5" y="-505.2" font-family="Times New Roman,serif" font-size="16.00">OpenCV</text>
<text text-anchor="start" x="811" y="-485.8" font-family="Times New Roman,serif" font-style="italic" font-size="14.00">image I/O,</text>
<text text-anchor="start" x="790" y="-471.8" font-family="Times New Roman,serif" font-style="italic" font-size="14.00">image processing,</text>
<text text-anchor="start" x="816.5" y="-457.8" font-family="Times New Roman,serif" font-style="italic" font-size="14.00">analysis,</text>
<text text-anchor="start" x="799.5" y="-443.8" font-family="Times New Roman,serif" font-style="italic" font-size="14.00">understanding</text>
</a>
</g>
</g>
<!-- oriental_py&#45;&gt;OpenCV -->
<g id="edge18" class="edge"><title>oriental_py&#45;&gt;OpenCV</title>
<path fill="none" stroke="black" stroke-width="2" d="M473.835,-950.883C590.259,-942.941 845,-916.891 845,-841 845,-841 845,-841 845,-607 845,-583.093 844.462,-556.662 843.842,-534.13"/>
<polygon fill="black" stroke="black" stroke-width="2" points="847.339,-533.97 843.553,-524.075 840.342,-534.172 847.339,-533.97"/>
</g>
<!-- boost::numpy -->
<g id="node5" class="node"><title>boost::numpy</title>
<g id="a_node5"><a xlink:href="https://github.com/ndarray/Boost.NumPy" xlink:title="&lt;TABLE&gt;" target="_blank">
<path fill="#fff68f" stroke="none" stroke-width="2" d="M313.5,-871C313.5,-871 218.5,-871 218.5,-871 212.5,-871 206.5,-865 206.5,-859 206.5,-859 206.5,-821 206.5,-821 206.5,-815 212.5,-809 218.5,-809 218.5,-809 313.5,-809 313.5,-809 319.5,-809 325.5,-815 325.5,-821 325.5,-821 325.5,-859 325.5,-859 325.5,-865 319.5,-871 313.5,-871"/>
<text text-anchor="start" x="223.5" y="-852.2" font-family="Times New Roman,serif" font-size="16.00">boost::numpy</text>
<text text-anchor="start" x="217" y="-832.8" font-family="Times New Roman,serif" font-style="italic" font-size="14.00">reference NumPy</text>
<text text-anchor="start" x="224" y="-818.8" font-family="Times New Roman,serif" font-style="italic" font-size="14.00">arrays in C++</text>
</a>
</g>
</g>
<!-- boost::numpy&#45;&gt;boost::python -->
<g id="edge4" class="edge"><title>boost::numpy&#45;&gt;boost::python</title>
<path fill="none" stroke="black" stroke-width="2" d="M335.619,-840C344.175,-840 352.731,-840 361.287,-840"/>
<polygon fill="black" stroke="black" stroke-width="2" points="335.574,-836.5 325.574,-840 335.574,-843.5 335.574,-836.5"/>
</g>
<!-- boost::python&#45;&gt;oriental_py -->
<g id="edge13" class="edge"><title>boost::python&#45;&gt;oriental_py</title>
<path fill="none" stroke="black" stroke-width="2" stroke-dasharray="1,5" d="M367.277,-871.002C357.816,-880.598 352.393,-891.899 358,-904 359.589,-907.43 361.543,-910.711 363.761,-913.833"/>
<polygon fill="black" stroke="black" stroke-width="2" points="361.155,-916.176 370.183,-921.722 366.584,-911.757 361.155,-916.176"/>
<text text-anchor="middle" x="385.5" y="-892.8" font-family="Times New Roman,serif" font-size="14.00">Callbacks</text>
</g>
<!-- boost::python&#45;&gt;NumPy -->
<g id="edge14" class="edge"><title>boost::python&#45;&gt;NumPy</title>
<path fill="none" stroke="black" stroke-width="2" d="M472.646,-814.341C508.462,-798.47 555.511,-777.621 594.907,-760.163"/>
<polygon fill="black" stroke="black" stroke-width="2" points="596.5,-763.285 604.224,-756.034 593.664,-756.885 596.5,-763.285"/>
</g>
<!-- oriental.adjust -->
<g id="node10" class="node"><title>oriental.adjust</title>
<path fill="#fff68f" stroke="darkgreen" stroke-width="2" d="M477.5,-758C477.5,-758 356.5,-758 356.5,-758 350.5,-758 344.5,-752 344.5,-746 344.5,-746 344.5,-704 344.5,-704 344.5,-698 350.5,-692 356.5,-692 356.5,-692 477.5,-692 477.5,-692 483.5,-692 489.5,-698 489.5,-704 489.5,-704 489.5,-746 489.5,-746 489.5,-752 483.5,-758 477.5,-758"/>
<text text-anchor="start" x="369.5" y="-740.2" font-family="Times New Roman,serif" font-weight="bold" font-size="16.00">oriental.adjust</text>
<text text-anchor="start" x="365.5" y="-718.2" font-family="Times New Roman,serif" font-weight="bold" font-style="italic" font-size="16.00">Python&#45;binding</text>
<text text-anchor="start" x="355" y="-702.2" font-family="Times New Roman,serif" font-weight="bold" font-style="italic" font-size="16.00">for oriental::adjust</text>
</g>
<!-- boost::python&#45;&gt;oriental.adjust -->
<g id="edge7" class="edge"><title>boost::python&#45;&gt;oriental.adjust</title>
<path fill="none" stroke="black" stroke-width="2" d="M417,-808.718C417,-796.441 417,-782.041 417,-768.728"/>
<polygon fill="black" stroke="black" stroke-width="2" points="420.5,-768.346 417,-758.346 413.5,-768.346 420.5,-768.346"/>
</g>
<!-- oriental -->
<g id="node7" class="node"><title>oriental</title>
<path fill="#fff68f" stroke="none" stroke-width="2" d="M297,-641C297,-641 177,-641 177,-641 171,-641 165,-635 165,-629 165,-629 165,-587 165,-587 165,-581 171,-575 177,-575 177,-575 297,-575 297,-575 303,-575 309,-581 309,-587 309,-587 309,-629 309,-629 309,-635 303,-641 297,-641"/>
<text text-anchor="start" x="211" y="-623.2" font-family="Times New Roman,serif" font-weight="bold" font-size="16.00">oriental</text>
<text text-anchor="start" x="175" y="-601.2" font-family="Times New Roman,serif" font-weight="bold" font-style="italic" font-size="16.00">common structures</text>
<text text-anchor="start" x="197.5" y="-585.2" font-family="Times New Roman,serif" font-weight="bold" font-style="italic" font-size="16.00">and utilities</text>
</g>
<!-- oriental::adjust -->
<g id="node8" class="node"><title>oriental::adjust</title>
<path fill="#fff68f" stroke="none" stroke-width="2" d="M477.5,-641C477.5,-641 356.5,-641 356.5,-641 350.5,-641 344.5,-635 344.5,-629 344.5,-629 344.5,-587 344.5,-587 344.5,-581 350.5,-575 356.5,-575 356.5,-575 477.5,-575 477.5,-575 483.5,-575 489.5,-581 489.5,-587 489.5,-587 489.5,-629 489.5,-629 489.5,-635 483.5,-641 477.5,-641"/>
<text text-anchor="start" x="366" y="-623.2" font-family="Times New Roman,serif" font-weight="bold" font-size="16.00">oriental::adjust</text>
<text text-anchor="start" x="394.5" y="-601.2" font-family="Times New Roman,serif" font-weight="bold" font-style="italic" font-size="16.00">central</text>
<text text-anchor="start" x="355" y="-585.2" font-family="Times New Roman,serif" font-weight="bold" font-style="italic" font-size="16.00">adjustment module</text>
</g>
<!-- oriental&#45;&gt;oriental::adjust -->
<g id="edge6" class="edge"><title>oriental&#45;&gt;oriental::adjust</title>
<path fill="none" stroke="black" stroke-width="2" d="M319.307,-608C327.7,-608 336.092,-608 344.485,-608"/>
<polygon fill="black" stroke="black" stroke-width="2" points="319.07,-604.5 309.07,-608 319.07,-611.5 319.07,-604.5"/>
</g>
<!-- oriental::adjust&#45;&gt;oriental.adjust -->
<g id="edge11" class="edge"><title>oriental::adjust&#45;&gt;oriental.adjust</title>
<path fill="none" stroke="black" stroke-width="2" stroke-dasharray="1,5" d="M366.212,-641.189C357.34,-650.87 352.49,-662.108 358,-674 359.589,-677.43 361.543,-680.711 363.761,-683.833"/>
<polygon fill="black" stroke="black" stroke-width="2" points="361.155,-686.176 370.183,-691.722 366.584,-681.757 361.155,-686.176"/>
<text text-anchor="middle" x="385.5" y="-662.8" font-family="Times New Roman,serif" font-size="14.00">Callbacks</text>
</g>
<!-- Ceres -->
<g id="node12" class="node"><title>Ceres</title>
<g id="a_node12"><a xlink:href="http://code.google.com/p/ceres-solver/" xlink:title="&lt;TABLE&gt;" target="_blank">
<path fill="#fff68f" stroke="none" stroke-width="2" d="M274.5,-510C274.5,-510 139.5,-510 139.5,-510 133.5,-510 127.5,-504 127.5,-498 127.5,-498 127.5,-460 127.5,-460 127.5,-454 133.5,-448 139.5,-448 139.5,-448 274.5,-448 274.5,-448 280.5,-448 286.5,-454 286.5,-460 286.5,-460 286.5,-498 286.5,-498 286.5,-504 280.5,-510 274.5,-510"/>
<text text-anchor="start" x="189.5" y="-491.2" font-family="Times New Roman,serif" font-size="16.00">Ceres</text>
<text text-anchor="start" x="138" y="-471.8" font-family="Times New Roman,serif" font-style="italic" font-size="14.00">non&#45;linear least squares</text>
<text text-anchor="start" x="162.5" y="-457.8" font-family="Times New Roman,serif" font-style="italic" font-size="14.00">problems solver</text>
</a>
</g>
</g>
<!-- oriental::adjust&#45;&gt;Ceres -->
<g id="edge9" class="edge"><title>oriental::adjust&#45;&gt;Ceres</title>
<path fill="none" stroke="black" stroke-width="2" d="M344.271,-579.361C329.566,-572.754 314.489,-565.208 301,-557 282.106,-545.503 262.921,-530.508 246.853,-516.809"/>
<polygon fill="black" stroke="black" stroke-width="2" points="249.081,-514.108 239.23,-510.208 244.499,-519.4 249.081,-514.108"/>
</g>
<!-- oriental::adjust&#45;&gt;SQLite -->
<g id="edge31" class="edge"><title>oriental::adjust&#45;&gt;SQLite</title>
<path fill="none" stroke="black" stroke-width="2" d="M442.991,-574.953C455.18,-559.923 469.92,-541.749 483.227,-525.341"/>
<polygon fill="black" stroke="black" stroke-width="2" points="486.047,-527.421 489.628,-517.449 480.61,-523.012 486.047,-527.421"/>
</g>
<!-- boost -->
<g id="node17" class="node"><title>boost</title>
<g id="a_node17"><a xlink:href="http://www.boost.org/" xlink:title="&lt;TABLE&gt;" target="_blank">
<path fill="#fff68f" stroke="none" stroke-width="2" d="M434,-369C434,-369 380,-369 380,-369 374,-369 368,-363 368,-357 368,-357 368,-305 368,-305 368,-299 374,-293 380,-293 380,-293 434,-293 434,-293 440,-293 446,-299 446,-305 446,-305 446,-357 446,-357 446,-363 440,-369 434,-369"/>
<text text-anchor="start" x="389.5" y="-350.2" font-family="Times New Roman,serif" font-size="16.00">boost</text>
<text text-anchor="start" x="385.5" y="-330.8" font-family="Times New Roman,serif" font-style="italic" font-size="14.00">various</text>
<text text-anchor="start" x="390" y="-316.8" font-family="Times New Roman,serif" font-style="italic" font-size="14.00">useful</text>
<text text-anchor="start" x="378" y="-302.8" font-family="Times New Roman,serif" font-style="italic" font-size="14.00">C++ libs.</text>
</a>
</g>
</g>
<!-- oriental::adjust&#45;&gt;boost -->
<g id="edge24" class="edge"><title>oriental::adjust&#45;&gt;boost</title>
<path fill="none" stroke="black" stroke-width="2" d="M372.543,-574.673C357.329,-560.95 342.11,-543.58 334,-524 318.693,-487.045 321.775,-472.086 334,-434 335.111,-430.539 354.929,-402.931 373.634,-377.311"/>
<polygon fill="black" stroke="black" stroke-width="2" points="376.564,-379.234 379.642,-369.096 370.914,-375.101 376.564,-379.234"/>
</g>
<!-- Eigen -->
<g id="node19" class="node"><title>Eigen</title>
<g id="a_node19"><a xlink:href="eigen.tuxfamily.org/" xlink:title="&lt;TABLE&gt;" target="_blank">
<path fill="#fff68f" stroke="none" stroke-width="2" d="M126,-369C126,-369 12,-369 12,-369 6,-369 0,-363 0,-357 0,-357 0,-305 0,-305 0,-299 6,-293 12,-293 12,-293 126,-293 126,-293 132,-293 138,-299 138,-305 138,-305 138,-357 138,-357 138,-363 132,-369 126,-369"/>
<text text-anchor="start" x="50.5" y="-350.2" font-family="Times New Roman,serif" font-size="16.00">Eigen</text>
<text text-anchor="start" x="27.5" y="-330.8" font-family="Times New Roman,serif" font-style="italic" font-size="14.00">linear algebra</text>
<text text-anchor="start" x="45.5" y="-316.8" font-family="Times New Roman,serif" font-style="italic" font-size="14.00">by C++</text>
<text text-anchor="start" x="10" y="-302.8" font-family="Times New Roman,serif" font-style="italic" font-size="14.00">template expressions</text>
</a>
</g>
</g>
<!-- oriental::adjust&#45;&gt;Eigen -->
<g id="edge30" class="edge"><title>oriental::adjust&#45;&gt;Eigen</title>
<path fill="none" stroke="black" stroke-width="2" d="M344.369,-582.139C335.541,-579.529 326.604,-577.075 318,-575 228.824,-553.489 179.365,-592.186 118,-524 82.2829,-484.313 71.8635,-422.177 69.1957,-379.399"/>
<polygon fill="black" stroke="black" stroke-width="2" points="72.6825,-379.047 68.6841,-369.236 65.6914,-379.399 72.6825,-379.047"/>
</g>
<!-- NumPy&#45;&gt;matplotlib -->
<g id="edge21" class="edge"><title>NumPy&#45;&gt;matplotlib</title>
<path fill="none" stroke="black" stroke-dasharray="5,2" d="M698.011,-693.785C712.092,-677.429 729.473,-657.238 743.742,-640.663"/>
<polygon fill="black" stroke="black" points="746.597,-642.712 750.468,-632.85 741.292,-638.145 746.597,-642.712"/>
</g>
<!-- NumPy&#45;&gt;GDAL -->
<g id="edge16" class="edge"><title>NumPy&#45;&gt;GDAL</title>
<path fill="none" stroke="black" stroke-width="2" d="M672.748,-693.591C673.825,-649.792 675.814,-568.879 677.012,-520.195"/>
<polygon fill="black" stroke="black" stroke-width="2" points="680.515,-520.109 677.262,-510.026 673.517,-519.937 680.515,-520.109"/>
</g>
<!-- NumPy&#45;&gt;OpenCV -->
<g id="edge22" class="edge"><title>NumPy&#45;&gt;OpenCV</title>
<path fill="none" stroke="black" stroke-width="2" d="M678.537,-693.868C687.111,-656.191 702.635,-594.288 716,-575 724.271,-563.064 747.3,-544.721 771.446,-527.325"/>
<polygon fill="black" stroke="black" stroke-width="2" points="773.545,-530.127 779.658,-521.473 769.483,-524.427 773.545,-530.127"/>
</g>
<!-- oriental.adjust&#45;&gt;boost::python -->
<g id="edge12" class="edge"><title>oriental.adjust&#45;&gt;boost::python</title>
<path fill="none" stroke="black" stroke-width="2" stroke-dasharray="1,5" d="M370.183,-758.278C365.273,-763.617 360.992,-769.543 358,-776 353.883,-784.887 355.713,-793.342 360.724,-801.007"/>
<polygon fill="black" stroke="black" stroke-width="2" points="358.229,-803.485 367.277,-808.998 363.642,-799.046 358.229,-803.485"/>
<text text-anchor="middle" x="385.5" y="-779.8" font-family="Times New Roman,serif" font-size="14.00">Callbacks</text>
</g>
<!-- oriental.adjust&#45;&gt;oriental::adjust -->
<g id="edge8" class="edge"><title>oriental.adjust&#45;&gt;oriental::adjust</title>
<path fill="none" stroke="black" stroke-width="2" d="M417,-691.966C417,-679.485 417,-664.998 417,-651.656"/>
<polygon fill="black" stroke="black" stroke-width="2" points="420.5,-651.261 417,-641.261 413.5,-651.261 420.5,-651.261"/>
</g>
<!-- Ceres&#45;&gt;oriental::adjust -->
<g id="edge10" class="edge"><title>Ceres&#45;&gt;oriental::adjust</title>
<path fill="none" stroke="black" stroke-width="2" stroke-dasharray="1,5" d="M204.383,-510.372C204.725,-526.29 208.104,-544.931 220,-557 251.087,-588.538 275.061,-564.167 318,-575 323.364,-576.353 328.861,-577.841 334.383,-579.411"/>
<polygon fill="black" stroke="black" stroke-width="2" points="333.746,-582.871 344.326,-582.315 335.708,-576.152 333.746,-582.871"/>
<text text-anchor="middle" x="247.5" y="-545.8" font-family="Times New Roman,serif" font-size="14.00">Callbacks</text>
</g>
<!-- Ceres&#45;&gt;boost -->
<g id="edge25" class="edge"><title>Ceres&#45;&gt;boost</title>
<path fill="none" stroke="black" stroke-width="2" d="M246.645,-447.705C262.864,-436.321 282.21,-423.977 301,-415 325.354,-403.365 336.999,-412.635 359,-397 366.558,-391.629 373.413,-384.699 379.424,-377.373"/>
<polygon fill="black" stroke="black" stroke-width="2" points="382.292,-379.385 385.608,-369.322 376.74,-375.12 382.292,-379.385"/>
</g>
<!-- SuiteSparse -->
<g id="node18" class="node"><title>SuiteSparse</title>
<g id="a_node18"><a xlink:href="http://www.cise.ufl.edu/research/sparse/SuiteSparse/" xlink:title="&lt;TABLE&gt;" target="_blank">
<path fill="#fff68f" stroke="none" stroke-width="2" d="M338,-397C338,-397 206,-397 206,-397 200,-397 194,-391 194,-385 194,-385 194,-277 194,-277 194,-271 200,-265 206,-265 206,-265 338,-265 338,-265 344,-265 350,-271 350,-277 350,-277 350,-385 350,-385 350,-391 344,-397 338,-397"/>
<text text-anchor="start" x="235.5" y="-378.2" font-family="Times New Roman,serif" font-size="16.00">SuiteSparse</text>
<text text-anchor="start" x="256" y="-358.8" font-family="Times New Roman,serif" font-size="14.00">AMD</text>
<text text-anchor="start" x="251" y="-344.8" font-family="Times New Roman,serif" font-size="14.00">CAMD</text>
<text text-anchor="start" x="237" y="-330.8" font-family="Times New Roman,serif" font-size="14.00">CCOLAMD</text>
<text text-anchor="start" x="236.5" y="-316.8" font-family="Times New Roman,serif" font-size="14.00">CHOLMOD</text>
<text text-anchor="start" x="241.5" y="-302.8" font-family="Times New Roman,serif" font-size="14.00">COLAMD</text>
<text text-anchor="start" x="235.5" y="-288.8" font-family="Times New Roman,serif" font-size="14.00">CXSPARSE</text>
<text text-anchor="start" x="204" y="-274.8" font-family="Times New Roman,serif" font-style="italic" font-size="14.00">sparse numerical solver</text>
</a>
</g>
</g>
<!-- Ceres&#45;&gt;SuiteSparse -->
<g id="edge26" class="edge"><title>Ceres&#45;&gt;SuiteSparse</title>
<path fill="none" stroke="black" stroke-dasharray="5,2" d="M220.468,-447.749C225.837,-435.69 232.275,-421.228 238.753,-406.678"/>
<polygon fill="black" stroke="black" points="242.135,-407.686 243.005,-397.127 235.74,-404.839 242.135,-407.686"/>
</g>
<!-- Ceres&#45;&gt;Eigen -->
<g id="edge28" class="edge"><title>Ceres&#45;&gt;Eigen</title>
<path fill="none" stroke="black" stroke-width="2" d="M178.406,-447.749C158.958,-427.173 132.898,-399.603 111.091,-376.531"/>
<polygon fill="black" stroke="black" stroke-width="2" points="113.586,-374.076 104.173,-369.212 108.499,-378.884 113.586,-374.076"/>
</g>
<!-- OpenMP -->
<g id="node20" class="node"><title>OpenMP</title>
<g id="a_node20"><a xlink:href="http://openmp.org/" xlink:title="&lt;TABLE&gt;" target="_blank">
<path fill="#fff68f" stroke="none" stroke-width="2" d="M246.5,-228C246.5,-228 85.5,-228 85.5,-228 79.5,-228 73.5,-222 73.5,-216 73.5,-216 73.5,-178 73.5,-178 73.5,-172 79.5,-166 85.5,-166 85.5,-166 246.5,-166 246.5,-166 252.5,-166 258.5,-172 258.5,-178 258.5,-178 258.5,-216 258.5,-216 258.5,-222 252.5,-228 246.5,-228"/>
<text text-anchor="start" x="138.5" y="-209.2" font-family="Times New Roman,serif" font-size="16.00">OpenMP</text>
<text text-anchor="start" x="84" y="-189.8" font-family="Times New Roman,serif" font-style="italic" font-size="14.00">open API for shared memory</text>
<text text-anchor="start" x="93.5" y="-175.8" font-family="Times New Roman,serif" font-style="italic" font-size="14.00">multi&#45;processing on CPU</text>
</a>
</g>
</g>
<!-- Ceres&#45;&gt;OpenMP -->
<g id="edge29" class="edge"><title>Ceres&#45;&gt;OpenMP</title>
<path fill="none" stroke="black" stroke-dasharray="5,2" d="M197.512,-447.893C193.08,-432.762 188.108,-414.06 185,-397 175.072,-342.504 170.138,-278.608 167.83,-238.216"/>
<polygon fill="black" stroke="black" points="171.325,-238.019 167.286,-228.224 164.335,-238.4 171.325,-238.019"/>
</g>
<!-- SpatiaLite -->
<g id="node13" class="node"><title>SpatiaLite</title>
<g id="a_node13"><a xlink:href="https://www.gaia-gis.it/fossil/libspatialite/index" xlink:title="&lt;TABLE&gt;" target="_blank">
<path fill="#fff68f" stroke="none" stroke-width="2" d="M415,-517C415,-517 355,-517 355,-517 349,-517 343,-511 343,-505 343,-505 343,-453 343,-453 343,-447 349,-441 355,-441 355,-441 415,-441 415,-441 421,-441 427,-447 427,-453 427,-453 427,-505 427,-505 427,-511 421,-517 415,-517"/>
<text text-anchor="start" x="353" y="-498.2" font-family="Times New Roman,serif" font-size="16.00">SpatiaLite</text>
<text text-anchor="start" x="364" y="-478.8" font-family="Times New Roman,serif" font-style="italic" font-size="14.00">Spatial</text>
<text text-anchor="start" x="358.5" y="-464.8" font-family="Times New Roman,serif" font-style="italic" font-size="14.00">extension</text>
<text text-anchor="start" x="355" y="-450.8" font-family="Times New Roman,serif" font-style="italic" font-size="14.00">for SQLite</text>
</a>
</g>
</g>
<!-- SpatiaLite&#45;&gt;SQLite -->
<g id="edge32" class="edge"><title>SpatiaLite&#45;&gt;SQLite</title>
<path fill="none" stroke="black" stroke-width="2" d="M437.353,-479C445.687,-479 454.021,-479 462.355,-479"/>
<polygon fill="black" stroke="black" stroke-width="2" points="437.188,-475.5 427.188,-479 437.187,-482.5 437.188,-475.5"/>
</g>
<!-- OpenCL -->
<g id="node22" class="node"><title>OpenCL</title>
<g id="a_node22"><a xlink:href="http://www.khronos.org/opencl/" xlink:title="&lt;TABLE&gt;" target="_blank">
<path fill="#fff68f" stroke="none" stroke-width="2" d="M942.5,-228C942.5,-228 741.5,-228 741.5,-228 735.5,-228 729.5,-222 729.5,-216 729.5,-216 729.5,-178 729.5,-178 729.5,-172 735.5,-166 741.5,-166 741.5,-166 942.5,-166 942.5,-166 948.5,-166 954.5,-172 954.5,-178 954.5,-178 954.5,-216 954.5,-216 954.5,-222 948.5,-228 942.5,-228"/>
<text text-anchor="start" x="816" y="-209.2" font-family="Times New Roman,serif" font-size="16.00">OpenCL</text>
<text text-anchor="start" x="740" y="-189.8" font-family="Times New Roman,serif" font-style="italic" font-size="14.00">open API for parallel programming</text>
<text text-anchor="start" x="788.5" y="-175.8" font-family="Times New Roman,serif" font-style="italic" font-size="14.00">on CPU and GPU</text>
</a>
</g>
</g>
<!-- OpenCV&#45;&gt;OpenCL -->
<g id="edge23" class="edge"><title>OpenCV&#45;&gt;OpenCL</title>
<path fill="none" stroke="black" stroke-dasharray="5,2" d="M842,-433.942C842,-380.2 842,-290.114 842,-238.19"/>
<polygon fill="black" stroke="black" points="845.5,-238.026 842,-228.026 838.5,-238.026 845.5,-238.026"/>
</g>
<!-- OpenBLAS -->
<g id="node21" class="node"><title>OpenBLAS</title>
<g id="a_node21"><a xlink:href="http://xianyi.github.com/OpenBLAS/" xlink:title="&lt;TABLE&gt;" target="_blank">
<path fill="#fff68f" stroke="none" stroke-width="2" d="M451,-228C451,-228 289,-228 289,-228 283,-228 277,-222 277,-216 277,-216 277,-178 277,-178 277,-172 283,-166 289,-166 289,-166 451,-166 451,-166 457,-166 463,-172 463,-178 463,-178 463,-216 463,-216 463,-222 457,-228 451,-228"/>
<text text-anchor="start" x="334" y="-209.2" font-family="Times New Roman,serif" font-size="16.00">OpenBLAS</text>
<text text-anchor="start" x="302.5" y="-189.8" font-family="Times New Roman,serif" font-style="italic" font-size="14.00">open implementation of</text>
<text text-anchor="start" x="287" y="-175.8" font-family="Times New Roman,serif" font-style="italic" font-size="14.00">BLAS and LAPACK routines</text>
</a>
</g>
</g>
<!-- SuiteSparse&#45;&gt;OpenBLAS -->
<g id="edge27" class="edge"><title>SuiteSparse&#45;&gt;OpenBLAS</title>
<path fill="none" stroke="black" stroke-width="2" d="M320.426,-264.773C327.661,-255.027 334.914,-245.259 341.552,-236.318"/>
<polygon fill="black" stroke="black" stroke-width="2" points="344.556,-238.143 347.707,-228.028 338.936,-233.97 344.556,-238.143"/>
</g>
</g>
</svg>
