<?xml version="1.0" encoding="UTF-8" standalone="no"?>
<!DOCTYPE svg PUBLIC "-//W3C//DTD SVG 1.1//EN"
 "http://www.w3.org/Graphics/SVG/1.1/DTD/svg11.dtd">
<!-- Generated by graphviz version 2.38.0 (20140413.2041)
 -->
<!-- Title: inheritance3f19f49f2c Pages: 1 -->
<svg width="576pt" height="133pt"
 viewBox="0.00 0.00 576.00 133.07" xmlns="http://www.w3.org/2000/svg" xmlns:xlink="http://www.w3.org/1999/xlink">
<g id="graph0" class="graph" transform="scale(0.971332 0.971332) rotate(0) translate(4 133)">
<title>inheritance3f19f49f2c</title>
<!-- HomogeneousVector -->
<g id="node1" class="node"><title>HomogeneousVector</title>
<g id="a_node1"><a xlink:href="../oriental/adjust/localParameterization.html#oriental.adjust.local_parameterization._local_parameterization.HomogeneousVector" xlink:title="HomogeneousVector" target="_top">
<polygon fill="white" stroke="black" stroke-width="0.5" points="119,-19 -7.10543e-015,-19 -7.10543e-015,-0 119,-0 119,-19"/>
<text text-anchor="middle" x="59.5" y="-7" font-family="Vera Sans, DejaVu Sans, Liberation Sans, Arial, Helvetica, sans" font-size="10.00">HomogeneousVector</text>
</a>
</g>
</g>
<!-- LocalParameterizationBase -->
<g id="node2" class="node"><title>LocalParameterizationBase</title>
<g id="a_node2"><a xlink:href="../oriental/adjust/localParameterization.html#oriental.adjust.local_parameterization._local_parameterization.LocalParameterizationBase" xlink:title="LocalParameterizationBase" target="_top">
<polygon fill="white" stroke="black" stroke-width="0.5" points="390.5,-74 242.5,-74 242.5,-55 390.5,-55 390.5,-74"/>
<text text-anchor="middle" x="316.5" y="-62" font-family="Vera Sans, DejaVu Sans, Liberation Sans, Arial, Helvetica, sans" font-size="10.00">LocalParameterizationBase</text>
</a>
</g>
</g>
<!-- LocalParameterizationBase&#45;&gt;HomogeneousVector -->
<g id="edge1" class="edge"><title>LocalParameterizationBase&#45;&gt;HomogeneousVector</title>
<path fill="none" stroke="black" stroke-width="0.5" d="M275.209,-54.9846C229.072,-45.4702 154.539,-30.0994 106.283,-20.1478"/>
<polygon fill="black" stroke="black" stroke-width="0.5" points="106.366,-18.3781 101.115,-19.0821 105.659,-21.806 106.366,-18.3781"/>
</g>
<!-- Identity -->
<g id="node3" class="node"><title>Identity</title>
<g id="a_node3"><a xlink:href="../oriental/adjust/localParameterization.html#oriental.adjust.local_parameterization._local_parameterization.Identity" xlink:title="Identity" target="_top">
<polygon fill="white" stroke="black" stroke-width="0.5" points="191.5,-19 137.5,-19 137.5,-0 191.5,-0 191.5,-19"/>
<text text-anchor="middle" x="164.5" y="-7" font-family="Vera Sans, DejaVu Sans, Liberation Sans, Arial, Helvetica, sans" font-size="10.00">Identity</text>
</a>
</g>
</g>
<!-- LocalParameterizationBase&#45;&gt;Identity -->
<g id="edge2" class="edge"><title>LocalParameterizationBase&#45;&gt;Identity</title>
<path fill="none" stroke="black" stroke-width="0.5" d="M292.079,-54.9846C265.344,-45.6628 222.487,-30.7193 193.921,-20.7587"/>
<polygon fill="black" stroke="black" stroke-width="0.5" points="194.41,-19.076 189.113,-19.0821 193.258,-22.3808 194.41,-19.076"/>
</g>
<!-- Product -->
<g id="node5" class="node"><title>Product</title>
<g id="a_node5"><a xlink:href="../oriental/adjust/localParameterization.html#oriental.adjust.local_parameterization._local_parameterization.Product" xlink:title="Product" target="_top">
<polygon fill="white" stroke="black" stroke-width="0.5" points="263.5,-19 209.5,-19 209.5,-0 263.5,-0 263.5,-19"/>
<text text-anchor="middle" x="236.5" y="-7" font-family="Vera Sans, DejaVu Sans, Liberation Sans, Arial, Helvetica, sans" font-size="10.00">Product</text>
</a>
</g>
</g>
<!-- LocalParameterizationBase&#45;&gt;Product -->
<g id="edge4" class="edge"><title>LocalParameterizationBase&#45;&gt;Product</title>
<path fill="none" stroke="black" stroke-width="0.5" d="M303.647,-54.9846C290.197,-46.0745 268.996,-32.0284 254.02,-22.1068"/>
<polygon fill="black" stroke="black" stroke-width="0.5" points="254.722,-20.4729 249.587,-19.1703 252.789,-23.3907 254.722,-20.4729"/>
</g>
<!-- Quaternion -->
<g id="node6" class="node"><title>Quaternion</title>
<g id="a_node6"><a xlink:href="../oriental/adjust/localParameterization.html#oriental.adjust.local_parameterization._local_parameterization.Quaternion" xlink:title="Quaternion" target="_top">
<polygon fill="white" stroke="black" stroke-width="0.5" points="351.5,-19 281.5,-19 281.5,-0 351.5,-0 351.5,-19"/>
<text text-anchor="middle" x="316.5" y="-7" font-family="Vera Sans, DejaVu Sans, Liberation Sans, Arial, Helvetica, sans" font-size="10.00">Quaternion</text>
</a>
</g>
</g>
<!-- LocalParameterizationBase&#45;&gt;Quaternion -->
<g id="edge5" class="edge"><title>LocalParameterizationBase&#45;&gt;Quaternion</title>
<path fill="none" stroke="black" stroke-width="0.5" d="M316.5,-54.7481C316.5,-46.4128 316.5,-33.7419 316.5,-24.0924"/>
<polygon fill="black" stroke="black" stroke-width="0.5" points="318.25,-24.089 316.5,-19.089 314.75,-24.0891 318.25,-24.089"/>
</g>
<!-- Sphere -->
<g id="node7" class="node"><title>Sphere</title>
<g id="a_node7"><a xlink:href="../oriental/adjust/localParameterization.html#oriental.adjust.local_parameterization._local_parameterization.Sphere" xlink:title="Keep the Euclidean norm of the 3&#45;dimensional parameter block to the given length. Reduce the number of unknowns by 1." target="_top">
<polygon fill="white" stroke="black" stroke-width="0.5" points="423.5,-19 369.5,-19 369.5,-0 423.5,-0 423.5,-19"/>
<text text-anchor="middle" x="396.5" y="-7" font-family="Vera Sans, DejaVu Sans, Liberation Sans, Arial, Helvetica, sans" font-size="10.00">Sphere</text>
</a>
</g>
</g>
<!-- LocalParameterizationBase&#45;&gt;Sphere -->
<g id="edge6" class="edge"><title>LocalParameterizationBase&#45;&gt;Sphere</title>
<path fill="none" stroke="black" stroke-width="0.5" d="M329.353,-54.9846C342.803,-46.0745 364.004,-32.0284 378.98,-22.1068"/>
<polygon fill="black" stroke="black" stroke-width="0.5" points="380.211,-23.3907 383.413,-19.1703 378.278,-20.4729 380.211,-23.3907"/>
</g>
<!-- Subset -->
<g id="node8" class="node"><title>Subset</title>
<g id="a_node8"><a xlink:href="../oriental/adjust/localParameterization.html#oriental.adjust.local_parameterization._local_parameterization.Subset" xlink:title="Allows for dynamically setting parameters constant or variable. After changes, must call :func:`~oriental.adjust._adjust.Problem.ParameterizationLocalSizeChanged`!" target="_top">
<polygon fill="white" stroke="black" stroke-width="0.5" points="495.5,-19 441.5,-19 441.5,-0 495.5,-0 495.5,-19"/>
<text text-anchor="middle" x="468.5" y="-7" font-family="Vera Sans, DejaVu Sans, Liberation Sans, Arial, Helvetica, sans" font-size="10.00">Subset</text>
</a>
</g>
</g>
<!-- LocalParameterizationBase&#45;&gt;Subset -->
<g id="edge7" class="edge"><title>LocalParameterizationBase&#45;&gt;Subset</title>
<path fill="none" stroke="black" stroke-width="0.5" d="M340.921,-54.9846C367.656,-45.6628 410.513,-30.7193 439.079,-20.7587"/>
<polygon fill="black" stroke="black" stroke-width="0.5" points="439.742,-22.3808 443.887,-19.0821 438.59,-19.076 439.742,-22.3808"/>
</g>
<!-- UnitSphere -->
<g id="node9" class="node"><title>UnitSphere</title>
<g id="a_node9"><a xlink:href="../oriental/adjust/localParameterization.html#oriental.adjust.local_parameterization._local_parameterization.UnitSphere" xlink:title="Keep the Euclidean norm of the 3&#45;dimensional parameter block to 1. Reduce the number of unknowns by 1." target="_top">
<polygon fill="white" stroke="black" stroke-width="0.5" points="585,-19 514,-19 514,-0 585,-0 585,-19"/>
<text text-anchor="middle" x="549.5" y="-7" font-family="Vera Sans, DejaVu Sans, Liberation Sans, Arial, Helvetica, sans" font-size="10.00">UnitSphere</text>
</a>
</g>
</g>
<!-- LocalParameterizationBase&#45;&gt;UnitSphere -->
<g id="edge8" class="edge"><title>LocalParameterizationBase&#45;&gt;UnitSphere</title>
<path fill="none" stroke="black" stroke-width="0.5" d="M353.935,-54.9846C396.298,-45.3486 465.068,-29.7055 508.752,-19.7689"/>
<polygon fill="black" stroke="black" stroke-width="0.5" points="509.201,-21.4616 513.688,-18.6461 508.424,-18.0488 509.201,-21.4616"/>
</g>
<!-- instance -->
<g id="node4" class="node"><title>instance</title>
<polygon fill="white" stroke="black" stroke-width="0.5" points="345,-129 288,-129 288,-110 345,-110 345,-129"/>
<text text-anchor="middle" x="316.5" y="-117" font-family="Vera Sans, DejaVu Sans, Liberation Sans, Arial, Helvetica, sans" font-size="10.00">instance</text>
</g>
<!-- instance&#45;&gt;LocalParameterizationBase -->
<g id="edge3" class="edge"><title>instance&#45;&gt;LocalParameterizationBase</title>
<path fill="none" stroke="black" stroke-width="0.5" d="M316.5,-109.748C316.5,-101.413 316.5,-88.7419 316.5,-79.0924"/>
<polygon fill="black" stroke="black" stroke-width="0.5" points="318.25,-79.089 316.5,-74.089 314.75,-79.0891 318.25,-79.089"/>
</g>
</g>
</svg>
