<?xml version="1.0" encoding="UTF-8" standalone="no"?>
<!DOCTYPE svg PUBLIC "-//W3C//DTD SVG 1.1//EN"
 "http://www.w3.org/Graphics/SVG/1.1/DTD/svg11.dtd">
<!-- Generated by graphviz version 2.38.0 (20140413.2041)
 -->
<!-- Title: inheritance64397b6ad2 Pages: 1 -->
<svg width="162pt" height="82pt"
 viewBox="0.00 0.00 161.50 82.00" xmlns="http://www.w3.org/2000/svg" xmlns:xlink="http://www.w3.org/1999/xlink">
<g id="graph0" class="graph" transform="scale(1 1) rotate(0) translate(4 78)">
<title>inheritance64397b6ad2</title>
<!-- ExcInternal -->
<g id="node1" class="node"><title>ExcInternal</title>
<g id="a_node1"><a xlink:href="../oriental.html#oriental._oriental.ExcInternal" xlink:title="Exception class indicating an internal error of oriental" target="_top">
<polygon fill="white" stroke="black" stroke-width="0.5" points="69,-19 0,-19 0,-0 69,-0 69,-19"/>
<text text-anchor="middle" x="34.5" y="-7" font-family="Vera Sans, DejaVu Sans, Liberation Sans, Arial, Helvetica, sans" font-size="10.00">ExcInternal</text>
</a>
</g>
</g>
<!-- Exception -->
<g id="node2" class="node"><title>Exception</title>
<g id="a_node2"><a xlink:href="../oriental.html#oriental._oriental.Exception" xlink:title="Base class for all exceptions raised by oriental" target="_top">
<polygon fill="white" stroke="black" stroke-width="0.5" points="109,-74 46,-74 46,-55 109,-55 109,-74"/>
<text text-anchor="middle" x="77.5" y="-62" font-family="Vera Sans, DejaVu Sans, Liberation Sans, Arial, Helvetica, sans" font-size="10.00">Exception</text>
</a>
</g>
</g>
<!-- Exception&#45;&gt;ExcInternal -->
<g id="edge1" class="edge"><title>Exception&#45;&gt;ExcInternal</title>
<path fill="none" stroke="black" stroke-width="0.5" d="M70.3994,-54.7481C63.3864,-46.1041 52.5904,-32.7974 44.6683,-23.033"/>
<polygon fill="black" stroke="black" stroke-width="0.5" points="45.9777,-21.8693 41.4685,-19.089 43.2597,-24.0744 45.9777,-21.8693"/>
</g>
<!-- ExcPython -->
<g id="node3" class="node"><title>ExcPython</title>
<g id="a_node3"><a xlink:href="../oriental.html#oriental._oriental.ExcPython" xlink:title="Exception class indicating an error during a call of oriental back to the Python interpreter" target="_top">
<polygon fill="white" stroke="black" stroke-width="0.5" points="153.5,-19 87.5,-19 87.5,-0 153.5,-0 153.5,-19"/>
<text text-anchor="middle" x="120.5" y="-7" font-family="Vera Sans, DejaVu Sans, Liberation Sans, Arial, Helvetica, sans" font-size="10.00">ExcPython</text>
</a>
</g>
</g>
<!-- Exception&#45;&gt;ExcPython -->
<g id="edge2" class="edge"><title>Exception&#45;&gt;ExcPython</title>
<path fill="none" stroke="black" stroke-width="0.5" d="M84.6006,-54.7481C91.6136,-46.1041 102.41,-32.7974 110.332,-23.033"/>
<polygon fill="black" stroke="black" stroke-width="0.5" points="111.74,-24.0744 113.532,-19.089 109.022,-21.8693 111.74,-24.0744"/>
</g>
</g>
</svg>
