<?xml version="1.0" encoding="UTF-8" standalone="no"?>
<!DOCTYPE svg PUBLIC "-//W3C//DTD SVG 1.1//EN"
 "http://www.w3.org/Graphics/SVG/1.1/DTD/svg11.dtd">
<!-- Generated by graphviz version 2.38.0 (20140413.2041)
 -->
<!-- Title: inheritance72a325bd1a Pages: 1 -->
<svg width="576pt" height="99pt"
 viewBox="0.00 0.00 576.00 98.78" xmlns="http://www.w3.org/2000/svg" xmlns:xlink="http://www.w3.org/1999/xlink">
<g id="graph0" class="graph" transform="scale(0.514503 0.514503) rotate(0) translate(4 188)">
<title>inheritance72a325bd1a</title>
<!-- AnalyticDiff -->
<g id="node1" class="node"><title>AnalyticDiff</title>
<g id="a_node1"><a xlink:href="../oriental/adjust/cost.html#oriental.adjust.cost._cost.AnalyticDiff" xlink:title="Derivatives computed analytically by user" target="_top">
<polygon fill="white" stroke="black" stroke-width="0.5" points="87.9053,-74 17.9053,-74 17.9053,-55 87.9053,-55 87.9053,-74"/>
<text text-anchor="middle" x="52.9053" y="-62" font-family="Vera Sans, DejaVu Sans, Liberation Sans, Arial, Helvetica, sans" font-size="10.00">AnalyticDiff</text>
</a>
</g>
</g>
<!-- CostBase -->
<g id="node2" class="node"><title>CostBase</title>
<g id="a_node2"><a xlink:href="../oriental/adjust/cost.html#oriental.adjust.cost._cost.CostBase" xlink:title="CostBase" target="_top">
<polygon fill="white" stroke="black" stroke-width="0.5" points="518.905,-129 456.905,-129 456.905,-110 518.905,-110 518.905,-129"/>
<text text-anchor="middle" x="487.905" y="-117" font-family="Vera Sans, DejaVu Sans, Liberation Sans, Arial, Helvetica, sans" font-size="10.00">CostBase</text>
</a>
</g>
</g>
<!-- CostBase&#45;&gt;AnalyticDiff -->
<g id="edge1" class="edge"><title>CostBase&#45;&gt;AnalyticDiff</title>
<path fill="none" stroke="black" stroke-width="0.5" d="M456.807,-115.522C391.113,-109.098 233.436,-92.9742 101.905,-74 99.0746,-73.5916 96.156,-73.1467 93.2197,-72.6814"/>
<polygon fill="black" stroke="black" stroke-width="0.5" points="93.1458,-70.8967 87.9305,-71.8254 92.5867,-74.3517 93.1458,-70.8967"/>
</g>
<!-- AutoDiff -->
<g id="node3" class="node"><title>AutoDiff</title>
<g id="a_node3"><a xlink:href="../oriental/adjust/cost.html#oriental.adjust.cost._cost.AutoDiff" xlink:title="AutoDiff" target="_top">
<polygon fill="white" stroke="black" stroke-width="0.5" points="205.405,-19 150.405,-19 150.405,-0 205.405,-0 205.405,-19"/>
<text text-anchor="middle" x="177.905" y="-7" font-family="Vera Sans, DejaVu Sans, Liberation Sans, Arial, Helvetica, sans" font-size="10.00">AutoDiff</text>
</a>
</g>
</g>
<!-- CostBase&#45;&gt;AutoDiff -->
<g id="edge3" class="edge"><title>CostBase&#45;&gt;AutoDiff</title>
<path fill="none" stroke="black" stroke-width="0.5" d="M456.601,-117.98C354.974,-115.974 39.0738,-107.101 8.90528,-74 -31.8786,-29.2516 85.1106,-15.8794 144.993,-12.011"/>
<polygon fill="black" stroke="black" stroke-width="0.5" points="145.37,-13.7411 150.253,-11.6861 145.154,-10.2478 145.37,-13.7411"/>
</g>
<!-- IDeactivate -->
<g id="node4" class="node"><title>IDeactivate</title>
<g id="a_node4"><a xlink:href="../oriental/adjust/cost.html#oriental.adjust.cost._cost.IDeactivate" xlink:title="Selectively deactivate certain residuals by their (zero&#45;based) index." target="_top">
<polygon fill="white" stroke="black" stroke-width="0.5" points="491.405,-74 420.405,-74 420.405,-55 491.405,-55 491.405,-74"/>
<text text-anchor="middle" x="455.905" y="-62" font-family="Vera Sans, DejaVu Sans, Liberation Sans, Arial, Helvetica, sans" font-size="10.00">IDeactivate</text>
</a>
</g>
</g>
<!-- CostBase&#45;&gt;IDeactivate -->
<g id="edge11" class="edge"><title>CostBase&#45;&gt;IDeactivate</title>
<path fill="none" stroke="black" stroke-width="0.5" d="M482.621,-109.748C477.495,-101.258 469.654,-88.2712 463.79,-78.5594"/>
<polygon fill="black" stroke="black" stroke-width="0.5" points="465.174,-77.4648 461.091,-74.089 462.177,-79.2739 465.174,-77.4648"/>
</g>
<!-- CameraRig -->
<g id="node5" class="node"><title>CameraRig</title>
<g id="a_node5"><a xlink:href="../oriental/adjust/cost.html#oriental.adjust.cost._cost.CameraRig" xlink:title="Observe zero&#45;differences between the positions and rotations of 2 cameras and respective offset and rotation parameters." target="_top">
<polygon fill="white" stroke="black" stroke-width="0.5" points="570.405,-19 501.405,-19 501.405,-0 570.405,-0 570.405,-19"/>
<text text-anchor="middle" x="535.905" y="-7" font-family="Vera Sans, DejaVu Sans, Liberation Sans, Arial, Helvetica, sans" font-size="10.00">CameraRig</text>
</a>
</g>
</g>
<!-- CostBase&#45;&gt;CameraRig -->
<g id="edge6" class="edge"><title>CostBase&#45;&gt;CameraRig</title>
<path fill="none" stroke="black" stroke-width="0.5" d="M491.833,-109.662C500.243,-90.7402 520.031,-46.2166 529.978,-23.8357"/>
<polygon fill="black" stroke="black" stroke-width="0.5" points="531.626,-24.4382 532.057,-19.1584 528.427,-23.0167 531.626,-24.4382"/>
</g>
<!-- Conditioned -->
<g id="node7" class="node"><title>Conditioned</title>
<g id="a_node7"><a xlink:href="../oriental/adjust/cost.html#oriental.adjust.cost._cost.Conditioned" xlink:title="Conditioned" target="_top">
<polygon fill="white" stroke="black" stroke-width="0.5" points="217.905,-74 143.905,-74 143.905,-55 217.905,-55 217.905,-74"/>
<text text-anchor="middle" x="180.905" y="-62" font-family="Vera Sans, DejaVu Sans, Liberation Sans, Arial, Helvetica, sans" font-size="10.00">Conditioned</text>
</a>
</g>
</g>
<!-- CostBase&#45;&gt;Conditioned -->
<g id="edge7" class="edge"><title>CostBase&#45;&gt;Conditioned</title>
<path fill="none" stroke="black" stroke-width="0.5" d="M456.544,-113.297C407.511,-105.13 309.727,-88.7118 226.905,-74 225.646,-73.7763 224.367,-73.5479 223.077,-73.3164"/>
<polygon fill="black" stroke="black" stroke-width="0.5" points="223.286,-71.5759 218.054,-72.4101 222.664,-75.0202 223.286,-71.5759"/>
</g>
<!-- Conditioner -->
<g id="node8" class="node"><title>Conditioner</title>
<g id="a_node8"><a xlink:href="../oriental/adjust/cost.html#oriental.adjust.cost._cost.Conditioner" xlink:title="Conditioner" target="_top">
<polygon fill="white" stroke="black" stroke-width="0.5" points="307.405,-74 236.405,-74 236.405,-55 307.405,-55 307.405,-74"/>
<text text-anchor="middle" x="271.905" y="-62" font-family="Vera Sans, DejaVu Sans, Liberation Sans, Arial, Helvetica, sans" font-size="10.00">Conditioner</text>
</a>
</g>
</g>
<!-- CostBase&#45;&gt;Conditioner -->
<g id="edge8" class="edge"><title>CostBase&#45;&gt;Conditioner</title>
<path fill="none" stroke="black" stroke-width="0.5" d="M456.497,-110.793C418.157,-101.386 353.283,-85.4677 311.543,-75.226"/>
<polygon fill="black" stroke="black" stroke-width="0.5" points="311.844,-73.4979 306.571,-74.0059 311.01,-76.8971 311.844,-73.4979"/>
</g>
<!-- FreeNetwork -->
<g id="node10" class="node"><title>FreeNetwork</title>
<g id="a_node10"><a xlink:href="../oriental/adjust/cost.html#oriental.adjust.cost._cost.FreeNetwork" xlink:title="free network adjustment with 3d points" target="_top">
<polygon fill="white" stroke="black" stroke-width="0.5" points="402.405,-74 325.405,-74 325.405,-55 402.405,-55 402.405,-74"/>
<text text-anchor="middle" x="363.905" y="-62" font-family="Vera Sans, DejaVu Sans, Liberation Sans, Arial, Helvetica, sans" font-size="10.00">FreeNetwork</text>
</a>
</g>
</g>
<!-- CostBase&#45;&gt;FreeNetwork -->
<g id="edge10" class="edge"><title>CostBase&#45;&gt;FreeNetwork</title>
<path fill="none" stroke="black" stroke-width="0.5" d="M467.983,-109.985C446.507,-100.806 412.28,-86.1761 388.987,-76.2202"/>
<polygon fill="black" stroke="black" stroke-width="0.5" points="389.476,-74.5263 384.191,-74.1703 388.1,-77.7447 389.476,-74.5263"/>
</g>
<!-- LeverArm -->
<g id="node12" class="node"><title>LeverArm</title>
<g id="a_node12"><a xlink:href="../oriental/adjust/cost.html#oriental.adjust.cost._cost.LeverArm" xlink:title="Observe zero&#45;differences between the lever arm and the GPS antenna center transformed into the camera CS." target="_top">
<polygon fill="white" stroke="black" stroke-width="0.5" points="1056.41,-74 993.405,-74 993.405,-55 1056.41,-55 1056.41,-74"/>
<text text-anchor="middle" x="1024.91" y="-62" font-family="Vera Sans, DejaVu Sans, Liberation Sans, Arial, Helvetica, sans" font-size="10.00">LeverArm</text>
</a>
</g>
</g>
<!-- CostBase&#45;&gt;LeverArm -->
<g id="edge14" class="edge"><title>CostBase&#45;&gt;LeverArm</title>
<path fill="none" stroke="black" stroke-width="0.5" d="M519.101,-116.95C597.543,-112.781 809.22,-99.8563 983.905,-74 985.321,-73.7904 986.761,-73.5629 988.215,-73.3212"/>
<polygon fill="black" stroke="black" stroke-width="0.5" points="988.562,-75.0371 993.185,-72.4515 987.959,-71.5895 988.562,-75.0371"/>
</g>
<!-- NormalPrior -->
<g id="node13" class="node"><title>NormalPrior</title>
<g id="a_node13"><a xlink:href="../oriental/adjust/cost.html#oriental.adjust.cost._cost.NormalPrior" xlink:title="NormalPrior" target="_top">
<polygon fill="white" stroke="black" stroke-width="0.5" points="621.905,-74 547.905,-74 547.905,-55 621.905,-55 621.905,-74"/>
<text text-anchor="middle" x="584.905" y="-62" font-family="Vera Sans, DejaVu Sans, Liberation Sans, Arial, Helvetica, sans" font-size="10.00">NormalPrior</text>
</a>
</g>
</g>
<!-- CostBase&#45;&gt;NormalPrior -->
<g id="edge16" class="edge"><title>CostBase&#45;&gt;NormalPrior</title>
<path fill="none" stroke="black" stroke-width="0.5" d="M503.49,-109.985C520.078,-100.921 546.394,-86.5425 564.595,-76.5973"/>
<polygon fill="black" stroke="black" stroke-width="0.5" points="565.488,-78.1035 569.037,-74.1703 563.81,-75.0321 565.488,-78.1035"/>
</g>
<!-- ObservedUnknown -->
<g id="node14" class="node"><title>ObservedUnknown</title>
<g id="a_node14"><a xlink:href="../oriental/adjust/cost.html#oriental.adjust.cost._cost.ObservedUnknown" xlink:title="Observe zero&#45;differences between the current and the observed values, optionally weighted" target="_top">
<polygon fill="white" stroke="black" stroke-width="0.5" points="745.905,-74 639.905,-74 639.905,-55 745.905,-55 745.905,-74"/>
<text text-anchor="middle" x="692.905" y="-62" font-family="Vera Sans, DejaVu Sans, Liberation Sans, Arial, Helvetica, sans" font-size="10.00">ObservedUnknown</text>
</a>
</g>
</g>
<!-- CostBase&#45;&gt;ObservedUnknown -->
<g id="edge18" class="edge"><title>CostBase&#45;&gt;ObservedUnknown</title>
<path fill="none" stroke="black" stroke-width="0.5" d="M519.04,-110.45C555.38,-101.055 615.476,-85.5182 654.631,-75.3952"/>
<polygon fill="black" stroke="black" stroke-width="0.5" points="655.372,-77.0114 659.775,-74.0655 654.496,-73.6228 655.372,-77.0114"/>
</g>
<!-- ObservedVectorDiff -->
<g id="node15" class="node"><title>ObservedVectorDiff</title>
<g id="a_node15"><a xlink:href="../oriental/adjust/cost.html#oriental.adjust.cost._cost.ObservedVectorDiff" xlink:title="Observe the difference between 2 vectors, optionally weighted" target="_top">
<polygon fill="white" stroke="black" stroke-width="0.5" points="873.905,-74 763.905,-74 763.905,-55 873.905,-55 873.905,-74"/>
<text text-anchor="middle" x="818.905" y="-62" font-family="Vera Sans, DejaVu Sans, Liberation Sans, Arial, Helvetica, sans" font-size="10.00">ObservedVectorDiff</text>
</a>
</g>
</g>
<!-- CostBase&#45;&gt;ObservedVectorDiff -->
<g id="edge20" class="edge"><title>CostBase&#45;&gt;ObservedVectorDiff</title>
<path fill="none" stroke="black" stroke-width="0.5" d="M519.045,-113.514C574.287,-104.668 690.238,-86.1023 760.666,-74.8254"/>
<polygon fill="black" stroke="black" stroke-width="0.5" points="760.996,-76.5449 765.656,-74.0263 760.442,-73.0889 760.996,-76.5449"/>
</g>
<!-- PhotoOpenCV -->
<g id="node16" class="node"><title>PhotoOpenCV</title>
<g id="a_node16"><a xlink:href="../oriental/adjust/cost.html#oriental.adjust.cost._cost.PhotoOpenCV" xlink:title="An image observation class that follows the OpenCV model with 4 distortion parameters: k1, k2, p1, p2." target="_top">
<polygon fill="white" stroke="black" stroke-width="0.5" points="975.405,-74 892.405,-74 892.405,-55 975.405,-55 975.405,-74"/>
<text text-anchor="middle" x="933.905" y="-62" font-family="Vera Sans, DejaVu Sans, Liberation Sans, Arial, Helvetica, sans" font-size="10.00">PhotoOpenCV</text>
</a>
</g>
</g>
<!-- CostBase&#45;&gt;PhotoOpenCV -->
<g id="edge21" class="edge"><title>CostBase&#45;&gt;PhotoOpenCV</title>
<path fill="none" stroke="black" stroke-width="0.5" d="M518.958,-115.566C585.703,-109.137 747.748,-92.863 882.905,-74 884.322,-73.8023 885.76,-73.5962 887.211,-73.3836"/>
<polygon fill="black" stroke="black" stroke-width="0.5" points="887.499,-75.1102 892.184,-72.6383 886.98,-71.6488 887.499,-75.1102"/>
</g>
<!-- PhotoTorlegard -->
<g id="node17" class="node"><title>PhotoTorlegard</title>
<g id="a_node17"><a xlink:href="../oriental/adjust/cost.html#oriental.adjust.cost._cost.PhotoTorlegard" xlink:title="An image observation class considering :class:`~oriental.adjust._adjust.PhotoDistortion`." target="_top">
<polygon fill="white" stroke="black" stroke-width="0.5" points="483.405,-19 394.405,-19 394.405,-0 483.405,-0 483.405,-19"/>
<text text-anchor="middle" x="438.905" y="-7" font-family="Vera Sans, DejaVu Sans, Liberation Sans, Arial, Helvetica, sans" font-size="10.00">PhotoTorlegard</text>
</a>
</g>
</g>
<!-- CostBase&#45;&gt;PhotoTorlegard -->
<g id="edge25" class="edge"><title>CostBase&#45;&gt;PhotoTorlegard</title>
<path fill="none" stroke="black" stroke-width="0.5" d="M456.681,-116.885C374.325,-112.308 156.073,-98.0041 134.905,-74 129.32,-67.6665 129.383,-61.3889 134.905,-55 167.158,-17.6826 311.465,-11.0587 389.094,-10.2568"/>
<polygon fill="black" stroke="black" stroke-width="0.5" points="389.125,-12.0067 394.109,-10.2121 389.093,-8.50679 389.125,-12.0067"/>
</g>
<!-- IDeactivate&#45;&gt;AutoDiff -->
<g id="edge2" class="edge"><title>IDeactivate&#45;&gt;AutoDiff</title>
<path fill="none" stroke="black" stroke-width="0.5" d="M420.131,-56.6797C365.72,-46.3064 262.965,-26.7164 210.507,-16.7154"/>
<polygon fill="black" stroke="black" stroke-width="0.5" points="210.83,-14.9955 205.59,-15.7781 210.174,-18.4336 210.83,-14.9955"/>
</g>
<!-- IDeactivate&#45;&gt;CameraRig -->
<g id="edge4" class="edge"><title>IDeactivate&#45;&gt;CameraRig</title>
<path fill="none" stroke="black" stroke-width="0.5" d="M468.759,-54.9846C482.208,-46.0745 503.41,-32.0284 518.386,-22.1068"/>
<polygon fill="black" stroke="black" stroke-width="0.5" points="519.616,-23.3907 522.818,-19.1703 517.683,-20.4729 519.616,-23.3907"/>
</g>
<!-- IDeactivate&#45;&gt;PhotoTorlegard -->
<g id="edge23" class="edge"><title>IDeactivate&#45;&gt;PhotoTorlegard</title>
<path fill="none" stroke="black" stroke-width="0.5" d="M453.098,-54.7481C450.424,-46.4128 446.36,-33.7419 443.265,-24.0924"/>
<polygon fill="black" stroke="black" stroke-width="0.5" points="444.854,-23.3156 441.66,-19.089 441.521,-24.3846 444.854,-23.3156"/>
</g>
<!-- UserData -->
<g id="node6" class="node"><title>UserData</title>
<g id="a_node6"><a xlink:href="../oriental/adjust/cost.html#oriental.adjust.cost._cost.UserData" xlink:title="Store arbitrary user&#45;defined data." target="_top">
<polygon fill="white" stroke="black" stroke-width="0.5" points="906.905,-129 844.905,-129 844.905,-110 906.905,-110 906.905,-129"/>
<text text-anchor="middle" x="875.905" y="-117" font-family="Vera Sans, DejaVu Sans, Liberation Sans, Arial, Helvetica, sans" font-size="10.00">UserData</text>
</a>
</g>
</g>
<!-- UserData&#45;&gt;CameraRig -->
<g id="edge5" class="edge"><title>UserData&#45;&gt;CameraRig</title>
<path fill="none" stroke="black" stroke-width="0.5" d="M907.339,-111.773C910.234,-111.168 913.123,-110.569 915.905,-110 999.109,-92.9767 1156.54,-117.374 1098.91,-55 1063.54,-16.7286 698.66,-11.3328 575.931,-10.6033"/>
<polygon fill="black" stroke="black" stroke-width="0.5" points="575.629,-8.85173 570.62,-10.5738 575.61,-12.3517 575.629,-8.85173"/>
</g>
<!-- UserData&#45;&gt;LeverArm -->
<g id="edge13" class="edge"><title>UserData&#45;&gt;LeverArm</title>
<path fill="none" stroke="black" stroke-width="0.5" d="M899.845,-109.985C925.974,-100.69 967.813,-85.8079 995.815,-75.8475"/>
<polygon fill="black" stroke="black" stroke-width="0.5" points="996.406,-77.4948 1000.53,-74.1703 995.233,-74.1972 996.406,-77.4948"/>
</g>
<!-- UserData&#45;&gt;NormalPrior -->
<g id="edge15" class="edge"><title>UserData&#45;&gt;NormalPrior</title>
<path fill="none" stroke="black" stroke-width="0.5" d="M844.573,-112.841C797.976,-104.417 707.659,-88.0619 630.905,-74 629.647,-73.7695 628.37,-73.5352 627.08,-73.2984"/>
<polygon fill="black" stroke="black" stroke-width="0.5" points="627.295,-71.5586 622.061,-72.3757 626.662,-75.0009 627.295,-71.5586"/>
</g>
<!-- UserData&#45;&gt;ObservedUnknown -->
<g id="edge17" class="edge"><title>UserData&#45;&gt;ObservedUnknown</title>
<path fill="none" stroke="black" stroke-width="0.5" d="M846.503,-109.985C814.05,-100.586 761.865,-85.4719 727.478,-75.5128"/>
<polygon fill="black" stroke="black" stroke-width="0.5" points="727.827,-73.7922 722.538,-74.0821 726.854,-77.154 727.827,-73.7922"/>
</g>
<!-- UserData&#45;&gt;ObservedVectorDiff -->
<g id="edge19" class="edge"><title>UserData&#45;&gt;ObservedVectorDiff</title>
<path fill="none" stroke="black" stroke-width="0.5" d="M866.747,-109.985C857.33,-101.228 842.578,-87.5112 831.944,-77.6236"/>
<polygon fill="black" stroke="black" stroke-width="0.5" points="833.083,-76.2935 828.23,-74.1703 830.7,-78.8567 833.083,-76.2935"/>
</g>
<!-- UserData&#45;&gt;PhotoOpenCV -->
<g id="edge22" class="edge"><title>UserData&#45;&gt;PhotoOpenCV</title>
<path fill="none" stroke="black" stroke-width="0.5" d="M885.224,-109.985C894.807,-101.228 909.818,-87.5112 920.638,-77.6236"/>
<polygon fill="black" stroke="black" stroke-width="0.5" points="921.906,-78.8351 924.417,-74.1703 919.545,-76.2513 921.906,-78.8351"/>
</g>
<!-- UserData&#45;&gt;PhotoTorlegard -->
<g id="edge24" class="edge"><title>UserData&#45;&gt;PhotoTorlegard</title>
<path fill="none" stroke="black" stroke-width="0.5" d="M907.202,-111.688C960.5,-100.017 1063.41,-77.1442 1065.91,-74 1071.15,-67.383 1071.69,-61.1552 1065.91,-55 1022.16,-8.42094 555.416,-26.0679 491.905,-19 490.898,-18.8879 489.881,-18.77 488.856,-18.647"/>
<polygon fill="black" stroke="black" stroke-width="0.5" points="488.864,-16.8841 483.683,-17.9924 488.424,-20.3564 488.864,-16.8841"/>
</g>
<!-- instance -->
<g id="node9" class="node"><title>instance</title>
<polygon fill="white" stroke="black" stroke-width="0.5" points="904.405,-184 847.405,-184 847.405,-165 904.405,-165 904.405,-184"/>
<text text-anchor="middle" x="875.905" y="-172" font-family="Vera Sans, DejaVu Sans, Liberation Sans, Arial, Helvetica, sans" font-size="10.00">instance</text>
</g>
<!-- instance&#45;&gt;CostBase -->
<g id="edge9" class="edge"><title>instance&#45;&gt;CostBase</title>
<path fill="none" stroke="black" stroke-width="0.5" d="M847.375,-169.603C778.158,-160.148 601.375,-136 524.514,-125.501"/>
<polygon fill="black" stroke="black" stroke-width="0.5" points="524.346,-123.712 519.156,-124.769 523.873,-127.179 524.346,-123.712"/>
</g>
<!-- instance&#45;&gt;UserData -->
<g id="edge26" class="edge"><title>instance&#45;&gt;UserData</title>
<path fill="none" stroke="black" stroke-width="0.5" d="M875.905,-164.748C875.905,-156.413 875.905,-143.742 875.905,-134.092"/>
<polygon fill="black" stroke="black" stroke-width="0.5" points="877.655,-134.089 875.905,-129.089 874.155,-134.089 877.655,-134.089"/>
</g>
<!-- Jet -->
<g id="node11" class="node"><title>Jet</title>
<g id="a_node11"><a xlink:href="../oriental/adjust/cost.html#oriental.adjust.cost._cost.Jet" xlink:title="Jet" target="_top">
<polygon fill="white" stroke="black" stroke-width="0.5" points="978.905,-129 924.905,-129 924.905,-110 978.905,-110 978.905,-129"/>
<text text-anchor="middle" x="951.905" y="-117" font-family="Vera Sans, DejaVu Sans, Liberation Sans, Arial, Helvetica, sans" font-size="10.00">Jet</text>
</a>
</g>
</g>
<!-- instance&#45;&gt;Jet -->
<g id="edge12" class="edge"><title>instance&#45;&gt;Jet</title>
<path fill="none" stroke="black" stroke-width="0.5" d="M888.116,-164.985C900.893,-156.075 921.034,-142.028 935.262,-132.107"/>
<polygon fill="black" stroke="black" stroke-width="0.5" points="936.372,-133.466 939.472,-129.17 934.37,-130.595 936.372,-133.466"/>
</g>
</g>
</svg>
