<?xml version="1.0" encoding="UTF-8" standalone="no"?>
<!DOCTYPE svg PUBLIC "-//W3C//DTD SVG 1.1//EN"
 "http://www.w3.org/Graphics/SVG/1.1/DTD/svg11.dtd">
<!-- Generated by graphviz version 2.38.0 (20140413.2041)
 -->
<!-- Title: inheritance3e344ab59b Pages: 1 -->
<svg width="269pt" height="137pt"
 viewBox="0.00 0.00 269.00 137.00" xmlns="http://www.w3.org/2000/svg" xmlns:xlink="http://www.w3.org/1999/xlink">
<g id="graph0" class="graph" transform="scale(1 1) rotate(0) translate(4 133)">
<title>inheritance3e344ab59b</title>
<!-- AkazeOptions -->
<g id="node1" class="node"><title>AkazeOptions</title>
<g id="a_node1"><a xlink:href="../oriental/match.html#oriental.match._match.AkazeOptions" xlink:title="AkazeOptions" target="_top">
<polygon fill="white" stroke="black" stroke-width="0.5" points="83,-19 0,-19 0,-0 83,-0 83,-19"/>
<text text-anchor="middle" x="41.5" y="-7" font-family="Vera Sans, DejaVu Sans, Liberation Sans, Arial, Helvetica, sans" font-size="10.00">AkazeOptions</text>
</a>
</g>
</g>
<!-- FeatureDetectOpts -->
<g id="node2" class="node"><title>FeatureDetectOpts</title>
<g id="a_node2"><a xlink:href="../oriental/match.html#oriental.match._match.FeatureDetectOpts" xlink:title="FeatureDetectOpts" target="_top">
<polygon fill="white" stroke="black" stroke-width="0.5" points="189.5,-74 81.5,-74 81.5,-55 189.5,-55 189.5,-74"/>
<text text-anchor="middle" x="135.5" y="-62" font-family="Vera Sans, DejaVu Sans, Liberation Sans, Arial, Helvetica, sans" font-size="10.00">FeatureDetectOpts</text>
</a>
</g>
</g>
<!-- FeatureDetectOpts&#45;&gt;AkazeOptions -->
<g id="edge1" class="edge"><title>FeatureDetectOpts&#45;&gt;AkazeOptions</title>
<path fill="none" stroke="black" stroke-width="0.5" d="M120.397,-54.9846C104.458,-45.9977 79.2522,-31.7858 61.6321,-21.8511"/>
<polygon fill="black" stroke="black" stroke-width="0.5" points="62.0924,-20.1017 56.8775,-19.1703 60.3734,-23.1505 62.0924,-20.1017"/>
</g>
<!-- SiftOptions -->
<g id="node4" class="node"><title>SiftOptions</title>
<g id="a_node4"><a xlink:href="../oriental/match.html#oriental.match._match.SiftOptions" xlink:title="SiftOptions" target="_top">
<polygon fill="white" stroke="black" stroke-width="0.5" points="170,-19 101,-19 101,-0 170,-0 170,-19"/>
<text text-anchor="middle" x="135.5" y="-7" font-family="Vera Sans, DejaVu Sans, Liberation Sans, Arial, Helvetica, sans" font-size="10.00">SiftOptions</text>
</a>
</g>
</g>
<!-- FeatureDetectOpts&#45;&gt;SiftOptions -->
<g id="edge3" class="edge"><title>FeatureDetectOpts&#45;&gt;SiftOptions</title>
<path fill="none" stroke="black" stroke-width="0.5" d="M135.5,-54.7481C135.5,-46.4128 135.5,-33.7419 135.5,-24.0924"/>
<polygon fill="black" stroke="black" stroke-width="0.5" points="137.25,-24.089 135.5,-19.089 133.75,-24.0891 137.25,-24.089"/>
</g>
<!-- SurfOptions -->
<g id="node5" class="node"><title>SurfOptions</title>
<g id="a_node5"><a xlink:href="../oriental/match.html#oriental.match._match.SurfOptions" xlink:title="SurfOptions" target="_top">
<polygon fill="white" stroke="black" stroke-width="0.5" points="261,-19 188,-19 188,-0 261,-0 261,-19"/>
<text text-anchor="middle" x="224.5" y="-7" font-family="Vera Sans, DejaVu Sans, Liberation Sans, Arial, Helvetica, sans" font-size="10.00">SurfOptions</text>
</a>
</g>
</g>
<!-- FeatureDetectOpts&#45;&gt;SurfOptions -->
<g id="edge4" class="edge"><title>FeatureDetectOpts&#45;&gt;SurfOptions</title>
<path fill="none" stroke="black" stroke-width="0.5" d="M149.799,-54.9846C164.891,-45.9977 188.756,-31.7858 205.439,-21.8511"/>
<polygon fill="black" stroke="black" stroke-width="0.5" points="206.54,-23.2322 209.94,-19.1703 204.749,-20.225 206.54,-23.2322"/>
</g>
<!-- instance -->
<g id="node3" class="node"><title>instance</title>
<polygon fill="white" stroke="black" stroke-width="0.5" points="164,-129 107,-129 107,-110 164,-110 164,-129"/>
<text text-anchor="middle" x="135.5" y="-117" font-family="Vera Sans, DejaVu Sans, Liberation Sans, Arial, Helvetica, sans" font-size="10.00">instance</text>
</g>
<!-- instance&#45;&gt;FeatureDetectOpts -->
<g id="edge2" class="edge"><title>instance&#45;&gt;FeatureDetectOpts</title>
<path fill="none" stroke="black" stroke-width="0.5" d="M135.5,-109.748C135.5,-101.413 135.5,-88.7419 135.5,-79.0924"/>
<polygon fill="black" stroke="black" stroke-width="0.5" points="137.25,-79.089 135.5,-74.089 133.75,-79.0891 137.25,-79.089"/>
</g>
</g>
</svg>
