<?xml version="1.0" encoding="UTF-8" standalone="no"?>
<!DOCTYPE svg PUBLIC "-//W3C//DTD SVG 1.1//EN"
 "http://www.w3.org/Graphics/SVG/1.1/DTD/svg11.dtd">
<!-- Generated by graphviz version 2.38.0 (20140413.2041)
 -->
<!-- Title: inheritance7842783d91 Pages: 1 -->
<svg width="576pt" height="208pt"
 viewBox="0.00 0.00 576.00 208.00" xmlns="http://www.w3.org/2000/svg" xmlns:xlink="http://www.w3.org/1999/xlink">
<g id="graph0" class="graph" transform="scale(0.842105 0.842105) rotate(0) translate(4 243)">
<title>inheritance7842783d91</title>
<!-- ADP -->
<g id="node1" class="node"><title>ADP</title>
<g id="a_node1"><a xlink:href="../oriental/adjust/parameters.html#oriental.adjust.parameters.ADP" xlink:title="9&#45;element vector marking the parameter block as camera distortion." target="_top">
<polygon fill="white" stroke="black" stroke-width="0.5" points="58,-74 4,-74 4,-55 58,-55 58,-74"/>
<text text-anchor="middle" x="31" y="-62" font-family="Vera Sans, DejaVu Sans, Liberation Sans, Arial, Helvetica, sans" font-size="10.00">ADP</text>
</a>
</g>
</g>
<!-- InfoADP -->
<g id="node10" class="node"><title>InfoADP</title>
<g id="a_node10"><a xlink:href="../oriental/adjust/parameters.html#oriental.adjust.parameters.InfoADP" xlink:title="InfoADP" target="_top">
<polygon fill="white" stroke="black" stroke-width="0.5" points="54,-19 0,-19 0,-0 54,-0 54,-19"/>
<text text-anchor="middle" x="27" y="-7" font-family="Vera Sans, DejaVu Sans, Liberation Sans, Arial, Helvetica, sans" font-size="10.00">InfoADP</text>
</a>
</g>
</g>
<!-- ADP&#45;&gt;InfoADP -->
<g id="edge6" class="edge"><title>ADP&#45;&gt;InfoADP</title>
<path fill="none" stroke="black" stroke-width="0.5" d="M30.3395,-54.7481C29.7104,-46.4128 28.7541,-33.7419 28.0258,-24.0924"/>
<polygon fill="black" stroke="black" stroke-width="0.5" points="29.7696,-23.9431 27.6482,-19.089 26.2796,-24.2066 29.7696,-23.9431"/>
</g>
<!-- ParPar -->
<g id="node2" class="node"><title>ParPar</title>
<g id="a_node2"><a xlink:href="../oriental/adjust/parameters.html#oriental.adjust.parameters.ParPar" xlink:title="A :class:`numpy.ndarray` with the additional dict&#45;attribute :attr:`parpar`." target="_top">
<polygon fill="white" stroke="black" stroke-width="0.5" points="144,-129 90,-129 90,-110 144,-110 144,-129"/>
<text text-anchor="middle" x="117" y="-117" font-family="Vera Sans, DejaVu Sans, Liberation Sans, Arial, Helvetica, sans" font-size="10.00">ParPar</text>
</a>
</g>
</g>
<!-- ParPar&#45;&gt;ADP -->
<g id="edge1" class="edge"><title>ParPar&#45;&gt;ADP</title>
<path fill="none" stroke="black" stroke-width="0.5" d="M103.183,-109.985C88.6,-100.998 65.5392,-86.7858 49.4187,-76.8511"/>
<polygon fill="black" stroke="black" stroke-width="0.5" points="50.2436,-75.3038 45.0688,-74.1703 48.4073,-78.2834 50.2436,-75.3038"/>
</g>
<!-- EulerAngles -->
<g id="node8" class="node"><title>EulerAngles</title>
<g id="a_node8"><a xlink:href="../oriental/adjust/parameters.html#oriental.adjust.parameters.EulerAngles" xlink:title="3&#45;element vector marking the parameter block as rotation angles." target="_top">
<polygon fill="white" stroke="black" stroke-width="0.5" points="153.5,-74 80.5,-74 80.5,-55 153.5,-55 153.5,-74"/>
<text text-anchor="middle" x="117" y="-62" font-family="Vera Sans, DejaVu Sans, Liberation Sans, Arial, Helvetica, sans" font-size="10.00">EulerAngles</text>
</a>
</g>
</g>
<!-- ParPar&#45;&gt;EulerAngles -->
<g id="edge5" class="edge"><title>ParPar&#45;&gt;EulerAngles</title>
<path fill="none" stroke="black" stroke-width="0.5" d="M117,-109.748C117,-101.413 117,-88.7419 117,-79.0924"/>
<polygon fill="black" stroke="black" stroke-width="0.5" points="118.75,-79.089 117,-74.089 115.25,-79.0891 118.75,-79.089"/>
</g>
<!-- Array -->
<g id="node3" class="node"><title>Array</title>
<g id="a_node3"><a xlink:href="../oriental/adjust/parameters.html#oriental.adjust.parameters.Array" xlink:title="Sub&#45;class of :class:`numpy.ndarray` that can be constructed using the signature of :func:`numpy.array`" target="_top">
<polygon fill="white" stroke="black" stroke-width="0.5" points="502,-184 448,-184 448,-165 502,-165 502,-184"/>
<text text-anchor="middle" x="475" y="-172" font-family="Vera Sans, DejaVu Sans, Liberation Sans, Arial, Helvetica, sans" font-size="10.00">Array</text>
</a>
</g>
</g>
<!-- Array&#45;&gt;ParPar -->
<g id="edge16" class="edge"><title>Array&#45;&gt;ParPar</title>
<path fill="none" stroke="black" stroke-width="0.5" d="M447.798,-169.473C382.914,-159.867 219.285,-135.643 149.426,-125.301"/>
<polygon fill="black" stroke="black" stroke-width="0.5" points="149.363,-123.522 144.161,-124.521 148.85,-126.984 149.363,-123.522"/>
</g>
<!-- ObjectPoint -->
<g id="node6" class="node"><title>ObjectPoint</title>
<g id="a_node6"><a xlink:href="../oriental/adjust/parameters.html#oriental.adjust.parameters.ObjectPoint" xlink:title="3&#45;element vector marking the parameter block as object point." target="_top">
<polygon fill="white" stroke="black" stroke-width="0.5" points="450.5,-129 379.5,-129 379.5,-110 450.5,-110 450.5,-129"/>
<text text-anchor="middle" x="415" y="-117" font-family="Vera Sans, DejaVu Sans, Liberation Sans, Arial, Helvetica, sans" font-size="10.00">ObjectPoint</text>
</a>
</g>
</g>
<!-- Array&#45;&gt;ObjectPoint -->
<g id="edge15" class="edge"><title>Array&#45;&gt;ObjectPoint</title>
<path fill="none" stroke="black" stroke-width="0.5" d="M465.36,-164.985C455.447,-156.228 439.918,-142.511 428.725,-132.624"/>
<polygon fill="black" stroke="black" stroke-width="0.5" points="429.721,-131.169 424.815,-129.17 427.404,-133.792 429.721,-131.169"/>
</g>
<!-- Ior -->
<g id="node15" class="node"><title>Ior</title>
<g id="a_node15"><a xlink:href="../oriental/adjust/parameters.html#oriental.adjust.parameters.Ior" xlink:title="3&#45;element vector marking the parameter block as interior orientation." target="_top">
<polygon fill="white" stroke="black" stroke-width="0.5" points="563,-129 509,-129 509,-110 563,-110 563,-129"/>
<text text-anchor="middle" x="536" y="-117" font-family="Vera Sans, DejaVu Sans, Liberation Sans, Arial, Helvetica, sans" font-size="10.00">Ior</text>
</a>
</g>
</g>
<!-- Array&#45;&gt;Ior -->
<g id="edge14" class="edge"><title>Array&#45;&gt;Ior</title>
<path fill="none" stroke="black" stroke-width="0.5" d="M484.801,-164.985C494.879,-156.228 510.666,-142.511 522.046,-132.624"/>
<polygon fill="black" stroke="black" stroke-width="0.5" points="523.394,-133.771 526.021,-129.17 521.099,-131.129 523.394,-133.771"/>
</g>
<!-- Prc -->
<g id="node18" class="node"><title>Prc</title>
<g id="a_node18"><a xlink:href="../oriental/adjust/parameters.html#oriental.adjust.parameters.Prc" xlink:title="3&#45;element vector marking the parameter block as projection center position." target="_top">
<polygon fill="white" stroke="black" stroke-width="0.5" points="655,-129 601,-129 601,-110 655,-110 655,-129"/>
<text text-anchor="middle" x="628" y="-117" font-family="Vera Sans, DejaVu Sans, Liberation Sans, Arial, Helvetica, sans" font-size="10.00">Prc</text>
</a>
</g>
</g>
<!-- Array&#45;&gt;Prc -->
<g id="edge17" class="edge"><title>Array&#45;&gt;Prc</title>
<path fill="none" stroke="black" stroke-width="0.5" d="M499.582,-164.985C526.492,-155.663 569.631,-140.719 598.385,-130.759"/>
<polygon fill="black" stroke="black" stroke-width="0.5" points="599.074,-132.372 603.225,-129.082 597.928,-129.065 599.074,-132.372"/>
</g>
<!-- ndarray -->
<g id="node4" class="node"><title>ndarray</title>
<g id="a_node4"><a xlink:title="ndarray(shape, dtype=float, buffer=None, offset=0,">
<polygon fill="white" stroke="black" stroke-width="0.5" points="502,-239 448,-239 448,-220 502,-220 502,-239"/>
<text text-anchor="middle" x="475" y="-227" font-family="Vera Sans, DejaVu Sans, Liberation Sans, Arial, Helvetica, sans" font-size="10.00">ndarray</text>
</a>
</g>
</g>
<!-- ndarray&#45;&gt;Array -->
<g id="edge2" class="edge"><title>ndarray&#45;&gt;Array</title>
<path fill="none" stroke="black" stroke-width="0.5" d="M475,-219.748C475,-211.413 475,-198.742 475,-189.092"/>
<polygon fill="black" stroke="black" stroke-width="0.5" points="476.75,-189.089 475,-184.089 473.25,-189.089 476.75,-189.089"/>
</g>
<!-- CheckPoint -->
<g id="node5" class="node"><title>CheckPoint</title>
<g id="a_node5"><a xlink:href="../oriental/adjust/parameters.html#oriental.adjust.parameters.CheckPoint" xlink:title="3&#45;element vector marking the parameter block as (ground) check point." target="_top">
<polygon fill="white" stroke="black" stroke-width="0.5" points="259,-74 189,-74 189,-55 259,-55 259,-74"/>
<text text-anchor="middle" x="224" y="-62" font-family="Vera Sans, DejaVu Sans, Liberation Sans, Arial, Helvetica, sans" font-size="10.00">CheckPoint</text>
</a>
</g>
</g>
<!-- InfoCheckPoint -->
<g id="node11" class="node"><title>InfoCheckPoint</title>
<g id="a_node11"><a xlink:href="../oriental/adjust/parameters.html#oriental.adjust.parameters.InfoCheckPoint" xlink:title="InfoCheckPoint" target="_top">
<polygon fill="white" stroke="black" stroke-width="0.5" points="267.5,-19 180.5,-19 180.5,-0 267.5,-0 267.5,-19"/>
<text text-anchor="middle" x="224" y="-7" font-family="Vera Sans, DejaVu Sans, Liberation Sans, Arial, Helvetica, sans" font-size="10.00">InfoCheckPoint</text>
</a>
</g>
</g>
<!-- CheckPoint&#45;&gt;InfoCheckPoint -->
<g id="edge7" class="edge"><title>CheckPoint&#45;&gt;InfoCheckPoint</title>
<path fill="none" stroke="black" stroke-width="0.5" d="M224,-54.7481C224,-46.4128 224,-33.7419 224,-24.0924"/>
<polygon fill="black" stroke="black" stroke-width="0.5" points="225.75,-24.089 224,-19.089 222.25,-24.0891 225.75,-24.089"/>
</g>
<!-- ObjectPoint&#45;&gt;CheckPoint -->
<g id="edge3" class="edge"><title>ObjectPoint&#45;&gt;CheckPoint</title>
<path fill="none" stroke="black" stroke-width="0.5" d="M384.313,-109.985C350.441,-100.586 295.974,-85.4719 260.084,-75.5128"/>
<polygon fill="black" stroke="black" stroke-width="0.5" points="260.214,-73.7328 254.928,-74.0821 259.278,-77.1054 260.214,-73.7328"/>
</g>
<!-- ControlPoint -->
<g id="node7" class="node"><title>ControlPoint</title>
<g id="a_node7"><a xlink:href="../oriental/adjust/parameters.html#oriental.adjust.parameters.ControlPoint" xlink:title="3&#45;element vector marking the parameter block as ground control point." target="_top">
<polygon fill="white" stroke="black" stroke-width="0.5" points="352.5,-74 277.5,-74 277.5,-55 352.5,-55 352.5,-74"/>
<text text-anchor="middle" x="315" y="-62" font-family="Vera Sans, DejaVu Sans, Liberation Sans, Arial, Helvetica, sans" font-size="10.00">ControlPoint</text>
</a>
</g>
</g>
<!-- ObjectPoint&#45;&gt;ControlPoint -->
<g id="edge4" class="edge"><title>ObjectPoint&#45;&gt;ControlPoint</title>
<path fill="none" stroke="black" stroke-width="0.5" d="M398.933,-109.985C381.832,-100.921 354.703,-86.5425 335.938,-76.5973"/>
<polygon fill="black" stroke="black" stroke-width="0.5" points="336.596,-74.9656 331.359,-74.1703 334.957,-78.0581 336.596,-74.9656"/>
</g>
<!-- InfoObjectPoint -->
<g id="node16" class="node"><title>InfoObjectPoint</title>
<g id="a_node16"><a xlink:href="../oriental/adjust/parameters.html#oriental.adjust.parameters.InfoObjectPoint" xlink:title="InfoObjectPoint" target="_top">
<polygon fill="white" stroke="black" stroke-width="0.5" points="459.5,-74 370.5,-74 370.5,-55 459.5,-55 459.5,-74"/>
<text text-anchor="middle" x="415" y="-62" font-family="Vera Sans, DejaVu Sans, Liberation Sans, Arial, Helvetica, sans" font-size="10.00">InfoObjectPoint</text>
</a>
</g>
</g>
<!-- ObjectPoint&#45;&gt;InfoObjectPoint -->
<g id="edge11" class="edge"><title>ObjectPoint&#45;&gt;InfoObjectPoint</title>
<path fill="none" stroke="black" stroke-width="0.5" d="M415,-109.748C415,-101.413 415,-88.7419 415,-79.0924"/>
<polygon fill="black" stroke="black" stroke-width="0.5" points="416.75,-79.089 415,-74.089 413.25,-79.0891 416.75,-79.089"/>
</g>
<!-- TiePoint -->
<g id="node20" class="node"><title>TiePoint</title>
<g id="a_node20"><a xlink:href="../oriental/adjust/parameters.html#oriental.adjust.parameters.TiePoint" xlink:title="3&#45;element vector marking the parameter block as tie object point." target="_top">
<polygon fill="white" stroke="black" stroke-width="0.5" points="532,-74 478,-74 478,-55 532,-55 532,-74"/>
<text text-anchor="middle" x="505" y="-62" font-family="Vera Sans, DejaVu Sans, Liberation Sans, Arial, Helvetica, sans" font-size="10.00">TiePoint</text>
</a>
</g>
</g>
<!-- ObjectPoint&#45;&gt;TiePoint -->
<g id="edge18" class="edge"><title>ObjectPoint&#45;&gt;TiePoint</title>
<path fill="none" stroke="black" stroke-width="0.5" d="M429.46,-109.985C444.721,-100.998 468.854,-86.7858 485.725,-76.8511"/>
<polygon fill="black" stroke="black" stroke-width="0.5" points="486.856,-78.2155 490.277,-74.1703 485.08,-75.1996 486.856,-78.2155"/>
</g>
<!-- InfoControlPoint -->
<g id="node12" class="node"><title>InfoControlPoint</title>
<g id="a_node12"><a xlink:href="../oriental/adjust/parameters.html#oriental.adjust.parameters.InfoControlPoint" xlink:title="InfoControlPoint" target="_top">
<polygon fill="white" stroke="black" stroke-width="0.5" points="378,-19 286,-19 286,-0 378,-0 378,-19"/>
<text text-anchor="middle" x="332" y="-7" font-family="Vera Sans, DejaVu Sans, Liberation Sans, Arial, Helvetica, sans" font-size="10.00">InfoControlPoint</text>
</a>
</g>
</g>
<!-- ControlPoint&#45;&gt;InfoControlPoint -->
<g id="edge8" class="edge"><title>ControlPoint&#45;&gt;InfoControlPoint</title>
<path fill="none" stroke="black" stroke-width="0.5" d="M317.807,-54.7481C320.481,-46.4128 324.545,-33.7419 327.64,-24.0924"/>
<polygon fill="black" stroke="black" stroke-width="0.5" points="329.384,-24.3846 329.245,-19.089 326.051,-23.3156 329.384,-24.3846"/>
</g>
<!-- InfoEulerAngles -->
<g id="node13" class="node"><title>InfoEulerAngles</title>
<g id="a_node13"><a xlink:href="../oriental/adjust/parameters.html#oriental.adjust.parameters.InfoEulerAngles" xlink:title="InfoEulerAngles" target="_top">
<polygon fill="white" stroke="black" stroke-width="0.5" points="162,-19 72,-19 72,-0 162,-0 162,-19"/>
<text text-anchor="middle" x="117" y="-7" font-family="Vera Sans, DejaVu Sans, Liberation Sans, Arial, Helvetica, sans" font-size="10.00">InfoEulerAngles</text>
</a>
</g>
</g>
<!-- EulerAngles&#45;&gt;InfoEulerAngles -->
<g id="edge9" class="edge"><title>EulerAngles&#45;&gt;InfoEulerAngles</title>
<path fill="none" stroke="black" stroke-width="0.5" d="M117,-54.7481C117,-46.4128 117,-33.7419 117,-24.0924"/>
<polygon fill="black" stroke="black" stroke-width="0.5" points="118.75,-24.089 117,-19.089 115.25,-24.0891 118.75,-24.089"/>
</g>
<!-- Info -->
<g id="node9" class="node"><title>Info</title>
<g id="a_node9"><a xlink:href="../oriental/adjust/parameters.html#oriental.adjust.parameters.Info" xlink:title="Meta&#45;class for parameters that adds an additional attribute *info*." target="_top">
<polygon fill="white" stroke="black" stroke-width="0.5" points="574,-239 520,-239 520,-220 574,-220 574,-239"/>
<text text-anchor="middle" x="547" y="-227" font-family="Vera Sans, DejaVu Sans, Liberation Sans, Arial, Helvetica, sans" font-size="10.00">Info</text>
</a>
</g>
</g>
<!-- InfoIor -->
<g id="node14" class="node"><title>InfoIor</title>
<g id="a_node14"><a xlink:href="../oriental/adjust/parameters.html#oriental.adjust.parameters.InfoIor" xlink:title="InfoIor" target="_top">
<polygon fill="white" stroke="black" stroke-width="0.5" points="604,-74 550,-74 550,-55 604,-55 604,-74"/>
<text text-anchor="middle" x="577" y="-62" font-family="Vera Sans, DejaVu Sans, Liberation Sans, Arial, Helvetica, sans" font-size="10.00">InfoIor</text>
</a>
</g>
</g>
<!-- Ior&#45;&gt;InfoIor -->
<g id="edge10" class="edge"><title>Ior&#45;&gt;InfoIor</title>
<path fill="none" stroke="black" stroke-width="0.5" d="M542.77,-109.748C549.397,-101.181 559.568,-88.0347 567.102,-78.2954"/>
<polygon fill="black" stroke="black" stroke-width="0.5" points="568.68,-79.1146 570.356,-74.089 565.912,-76.973 568.68,-79.1146"/>
</g>
<!-- InfoPrc -->
<g id="node17" class="node"><title>InfoPrc</title>
<g id="a_node17"><a xlink:href="../oriental/adjust/parameters.html#oriental.adjust.parameters.InfoPrc" xlink:title="InfoPrc" target="_top">
<polygon fill="white" stroke="black" stroke-width="0.5" points="676,-74 622,-74 622,-55 676,-55 676,-74"/>
<text text-anchor="middle" x="649" y="-62" font-family="Vera Sans, DejaVu Sans, Liberation Sans, Arial, Helvetica, sans" font-size="10.00">InfoPrc</text>
</a>
</g>
</g>
<!-- Prc&#45;&gt;InfoPrc -->
<g id="edge12" class="edge"><title>Prc&#45;&gt;InfoPrc</title>
<path fill="none" stroke="black" stroke-width="0.5" d="M631.468,-109.748C634.801,-101.336 639.884,-88.5069 643.72,-78.8251"/>
<polygon fill="black" stroke="black" stroke-width="0.5" points="645.382,-79.3821 645.597,-74.089 642.128,-78.0928 645.382,-79.3821"/>
</g>
<!-- InfoTiePoint -->
<g id="node19" class="node"><title>InfoTiePoint</title>
<g id="a_node19"><a xlink:href="../oriental/adjust/parameters.html#oriental.adjust.parameters.InfoTiePoint" xlink:title="InfoTiePoint" target="_top">
<polygon fill="white" stroke="black" stroke-width="0.5" points="540.5,-19 469.5,-19 469.5,-0 540.5,-0 540.5,-19"/>
<text text-anchor="middle" x="505" y="-7" font-family="Vera Sans, DejaVu Sans, Liberation Sans, Arial, Helvetica, sans" font-size="10.00">InfoTiePoint</text>
</a>
</g>
</g>
<!-- TiePoint&#45;&gt;InfoTiePoint -->
<g id="edge13" class="edge"><title>TiePoint&#45;&gt;InfoTiePoint</title>
<path fill="none" stroke="black" stroke-width="0.5" d="M505,-54.7481C505,-46.4128 505,-33.7419 505,-24.0924"/>
<polygon fill="black" stroke="black" stroke-width="0.5" points="506.75,-24.089 505,-19.089 503.25,-24.0891 506.75,-24.089"/>
</g>
</g>
</svg>
