<?xml version="1.0" encoding="UTF-8" standalone="no"?>
<!DOCTYPE svg PUBLIC "-//W3C//DTD SVG 1.1//EN"
 "http://www.w3.org/Graphics/SVG/1.1/DTD/svg11.dtd">
<!-- Generated by graphviz version 2.38.0 (20140413.2041)
 -->
<!-- Title: inheritance75fdc14ef1 Pages: 1 -->
<svg width="576pt" height="98pt"
 viewBox="0.00 0.00 576.00 97.66" xmlns="http://www.w3.org/2000/svg" xmlns:xlink="http://www.w3.org/1999/xlink">
<g id="graph0" class="graph" transform="scale(0.712871 0.712871) rotate(0) translate(4 133)">
<title>inheritance75fdc14ef1</title>
<!-- Arctan -->
<g id="node1" class="node"><title>Arctan</title>
<g id="a_node1"><a xlink:href="../oriental/adjust/loss.html#oriental.adjust.loss._loss.Arctan" xlink:title="Arctan" target="_top">
<polygon fill="white" stroke="black" stroke-width="0.5" points="54,-19 0,-19 0,-0 54,-0 54,-19"/>
<text text-anchor="middle" x="27" y="-7" font-family="Vera Sans, DejaVu Sans, Liberation Sans, Arial, Helvetica, sans" font-size="10.00">Arctan</text>
</a>
</g>
</g>
<!-- Base -->
<g id="node2" class="node"><title>Base</title>
<g id="a_node2"><a xlink:href="../oriental/adjust/loss.html#oriental.adjust.loss._loss.Base" xlink:title="Base" target="_top">
<polygon fill="white" stroke="black" stroke-width="0.5" points="428,-74 374,-74 374,-55 428,-55 428,-74"/>
<text text-anchor="middle" x="401" y="-62" font-family="Vera Sans, DejaVu Sans, Liberation Sans, Arial, Helvetica, sans" font-size="10.00">Base</text>
</a>
</g>
</g>
<!-- Base&#45;&gt;Arctan -->
<g id="edge1" class="edge"><title>Base&#45;&gt;Arctan</title>
<path fill="none" stroke="black" stroke-width="0.5" d="M373.691,-60.8501C316.019,-55.047 177.685,-40.0333 63,-19 61.7288,-18.7669 60.435,-18.5179 59.13,-18.2569"/>
<polygon fill="black" stroke="black" stroke-width="0.5" points="59.3172,-16.5083 54.065,-17.1995 58.6019,-19.9345 59.3172,-16.5083"/>
</g>
<!-- Cauchy -->
<g id="node4" class="node"><title>Cauchy</title>
<g id="a_node4"><a xlink:href="../oriental/adjust/loss.html#oriental.adjust.loss._loss.Cauchy" xlink:title="Cauchy" target="_top">
<polygon fill="white" stroke="black" stroke-width="0.5" points="126,-19 72,-19 72,-0 126,-0 126,-19"/>
<text text-anchor="middle" x="99" y="-7" font-family="Vera Sans, DejaVu Sans, Liberation Sans, Arial, Helvetica, sans" font-size="10.00">Cauchy</text>
</a>
</g>
</g>
<!-- Base&#45;&gt;Cauchy -->
<g id="edge3" class="edge"><title>Base&#45;&gt;Cauchy</title>
<path fill="none" stroke="black" stroke-width="0.5" d="M373.703,-59.5427C325.394,-52.4038 221.751,-36.478 135,-19 133.733,-18.7447 132.443,-18.4771 131.141,-18.2006"/>
<polygon fill="black" stroke="black" stroke-width="0.5" points="131.343,-16.4535 126.085,-17.0975 130.597,-19.8731 131.343,-16.4535"/>
</g>
<!-- Composed -->
<g id="node5" class="node"><title>Composed</title>
<g id="a_node5"><a xlink:href="../oriental/adjust/loss.html#oriental.adjust.loss._loss.Composed" xlink:title="Composed" target="_top">
<polygon fill="white" stroke="black" stroke-width="0.5" points="212,-19 144,-19 144,-0 212,-0 212,-19"/>
<text text-anchor="middle" x="178" y="-7" font-family="Vera Sans, DejaVu Sans, Liberation Sans, Arial, Helvetica, sans" font-size="10.00">Composed</text>
</a>
</g>
</g>
<!-- Base&#45;&gt;Composed -->
<g id="edge4" class="edge"><title>Base&#45;&gt;Composed</title>
<path fill="none" stroke="black" stroke-width="0.5" d="M373.656,-57.0012C334.46,-47.6856 262.094,-30.4864 217.206,-19.818"/>
<polygon fill="black" stroke="black" stroke-width="0.5" points="217.411,-18.0681 212.142,-18.6145 216.602,-21.4733 217.411,-18.0681"/>
</g>
<!-- Huber -->
<g id="node6" class="node"><title>Huber</title>
<g id="a_node6"><a xlink:href="../oriental/adjust/loss.html#oriental.adjust.loss._loss.Huber" xlink:title="Huber" target="_top">
<polygon fill="white" stroke="black" stroke-width="0.5" points="284,-19 230,-19 230,-0 284,-0 284,-19"/>
<text text-anchor="middle" x="257" y="-7" font-family="Vera Sans, DejaVu Sans, Liberation Sans, Arial, Helvetica, sans" font-size="10.00">Huber</text>
</a>
</g>
</g>
<!-- Base&#45;&gt;Huber -->
<g id="edge5" class="edge"><title>Base&#45;&gt;Huber</title>
<path fill="none" stroke="black" stroke-width="0.5" d="M377.864,-54.9846C352.716,-45.7289 312.51,-30.9308 285.45,-20.9712"/>
<polygon fill="black" stroke="black" stroke-width="0.5" points="285.854,-19.2551 280.557,-19.1703 284.645,-22.5397 285.854,-19.2551"/>
</g>
<!-- IUser -->
<g id="node7" class="node"><title>IUser</title>
<g id="a_node7"><a xlink:href="../oriental/adjust/loss.html#oriental.adjust.loss._loss.IUser" xlink:title="Loss and its derivatives computed by user" target="_top">
<polygon fill="white" stroke="black" stroke-width="0.5" points="356,-19 302,-19 302,-0 356,-0 356,-19"/>
<text text-anchor="middle" x="329" y="-7" font-family="Vera Sans, DejaVu Sans, Liberation Sans, Arial, Helvetica, sans" font-size="10.00">IUser</text>
</a>
</g>
</g>
<!-- Base&#45;&gt;IUser -->
<g id="edge6" class="edge"><title>Base&#45;&gt;IUser</title>
<path fill="none" stroke="black" stroke-width="0.5" d="M389.432,-54.9846C377.432,-46.1513 358.575,-32.2702 345.117,-22.3643"/>
<polygon fill="black" stroke="black" stroke-width="0.5" points="345.843,-20.7251 340.779,-19.1703 343.768,-23.5438 345.843,-20.7251"/>
</g>
<!-- Scaled -->
<g id="node8" class="node"><title>Scaled</title>
<g id="a_node8"><a xlink:href="../oriental/adjust/loss.html#oriental.adjust.loss._loss.Scaled" xlink:title="Scaled" target="_top">
<polygon fill="white" stroke="black" stroke-width="0.5" points="428,-19 374,-19 374,-0 428,-0 428,-19"/>
<text text-anchor="middle" x="401" y="-7" font-family="Vera Sans, DejaVu Sans, Liberation Sans, Arial, Helvetica, sans" font-size="10.00">Scaled</text>
</a>
</g>
</g>
<!-- Base&#45;&gt;Scaled -->
<g id="edge7" class="edge"><title>Base&#45;&gt;Scaled</title>
<path fill="none" stroke="black" stroke-width="0.5" d="M401,-54.7481C401,-46.4128 401,-33.7419 401,-24.0924"/>
<polygon fill="black" stroke="black" stroke-width="0.5" points="402.75,-24.089 401,-19.089 399.25,-24.0891 402.75,-24.089"/>
</g>
<!-- SoftLOne -->
<g id="node9" class="node"><title>SoftLOne</title>
<g id="a_node9"><a xlink:href="../oriental/adjust/loss.html#oriental.adjust.loss._loss.SoftLOne" xlink:title="SoftLOne" target="_top">
<polygon fill="white" stroke="black" stroke-width="0.5" points="507.5,-19 446.5,-19 446.5,-0 507.5,-0 507.5,-19"/>
<text text-anchor="middle" x="477" y="-7" font-family="Vera Sans, DejaVu Sans, Liberation Sans, Arial, Helvetica, sans" font-size="10.00">SoftLOne</text>
</a>
</g>
</g>
<!-- Base&#45;&gt;SoftLOne -->
<g id="edge8" class="edge"><title>Base&#45;&gt;SoftLOne</title>
<path fill="none" stroke="black" stroke-width="0.5" d="M413.211,-54.9846C425.987,-46.0745 446.129,-32.0284 460.356,-22.1068"/>
<polygon fill="black" stroke="black" stroke-width="0.5" points="461.467,-23.4658 464.567,-19.1703 459.465,-20.595 461.467,-23.4658"/>
</g>
<!-- Tolerant -->
<g id="node10" class="node"><title>Tolerant</title>
<g id="a_node10"><a xlink:href="../oriental/adjust/loss.html#oriental.adjust.loss._loss.Tolerant" xlink:title="Tolerant" target="_top">
<polygon fill="white" stroke="black" stroke-width="0.5" points="582,-19 526,-19 526,-0 582,-0 582,-19"/>
<text text-anchor="middle" x="554" y="-7" font-family="Vera Sans, DejaVu Sans, Liberation Sans, Arial, Helvetica, sans" font-size="10.00">Tolerant</text>
</a>
</g>
</g>
<!-- Base&#45;&gt;Tolerant -->
<g id="edge9" class="edge"><title>Base&#45;&gt;Tolerant</title>
<path fill="none" stroke="black" stroke-width="0.5" d="M425.582,-54.9846C452.492,-45.6628 495.631,-30.7193 524.385,-20.7587"/>
<polygon fill="black" stroke="black" stroke-width="0.5" points="525.074,-22.3724 529.225,-19.0821 523.928,-19.0652 525.074,-22.3724"/>
</g>
<!-- Trivial -->
<g id="node11" class="node"><title>Trivial</title>
<g id="a_node11"><a xlink:href="../oriental/adjust/loss.html#oriental.adjust.loss._loss.Trivial" xlink:title="Trivial" target="_top">
<polygon fill="white" stroke="black" stroke-width="0.5" points="654,-19 600,-19 600,-0 654,-0 654,-19"/>
<text text-anchor="middle" x="627" y="-7" font-family="Vera Sans, DejaVu Sans, Liberation Sans, Arial, Helvetica, sans" font-size="10.00">Trivial</text>
</a>
</g>
</g>
<!-- Base&#45;&gt;Trivial -->
<g id="edge10" class="edge"><title>Base&#45;&gt;Trivial</title>
<path fill="none" stroke="black" stroke-width="0.5" d="M428.063,-57.1778C464.918,-48.5641 532.957,-32.6495 591,-19 592.258,-18.7041 593.541,-18.4023 594.837,-18.0972"/>
<polygon fill="black" stroke="black" stroke-width="0.5" points="595.409,-19.7603 599.874,-16.9102 594.606,-16.3536 595.409,-19.7603"/>
</g>
<!-- Tukey -->
<g id="node12" class="node"><title>Tukey</title>
<g id="a_node12"><a xlink:href="../oriental/adjust/loss.html#oriental.adjust.loss._loss.Tukey" xlink:title="Tukey" target="_top">
<polygon fill="white" stroke="black" stroke-width="0.5" points="726,-19 672,-19 672,-0 726,-0 726,-19"/>
<text text-anchor="middle" x="699" y="-7" font-family="Vera Sans, DejaVu Sans, Liberation Sans, Arial, Helvetica, sans" font-size="10.00">Tukey</text>
</a>
</g>
</g>
<!-- Base&#45;&gt;Tukey -->
<g id="edge11" class="edge"><title>Base&#45;&gt;Tukey</title>
<path fill="none" stroke="black" stroke-width="0.5" d="M428.262,-59.4548C476.001,-52.2409 577.765,-36.2827 663,-19 664.267,-18.7432 665.557,-18.4742 666.858,-18.1966"/>
<polygon fill="black" stroke="black" stroke-width="0.5" points="667.404,-19.8687 671.914,-17.0902 666.655,-16.4497 667.404,-19.8687"/>
</g>
<!-- Wrapper -->
<g id="node13" class="node"><title>Wrapper</title>
<g id="a_node13"><a xlink:href="../oriental/adjust/loss.html#oriental.adjust.loss._loss.Wrapper" xlink:title="Wrapper" target="_top">
<polygon fill="white" stroke="black" stroke-width="0.5" points="800,-19 744,-19 744,-0 800,-0 800,-19"/>
<text text-anchor="middle" x="772" y="-7" font-family="Vera Sans, DejaVu Sans, Liberation Sans, Arial, Helvetica, sans" font-size="10.00">Wrapper</text>
</a>
</g>
</g>
<!-- Base&#45;&gt;Wrapper -->
<g id="edge12" class="edge"><title>Base&#45;&gt;Wrapper</title>
<path fill="none" stroke="black" stroke-width="0.5" d="M428.41,-60.725C485.637,-54.7389 621.89,-39.4813 735,-19 736.248,-18.7739 737.518,-18.5338 738.799,-18.283"/>
<polygon fill="black" stroke="black" stroke-width="0.5" points="739.224,-19.9825 743.774,-17.2699 738.526,-16.5529 739.224,-19.9825"/>
</g>
<!-- instance -->
<g id="node3" class="node"><title>instance</title>
<polygon fill="white" stroke="black" stroke-width="0.5" points="429.5,-129 372.5,-129 372.5,-110 429.5,-110 429.5,-129"/>
<text text-anchor="middle" x="401" y="-117" font-family="Vera Sans, DejaVu Sans, Liberation Sans, Arial, Helvetica, sans" font-size="10.00">instance</text>
</g>
<!-- instance&#45;&gt;Base -->
<g id="edge2" class="edge"><title>instance&#45;&gt;Base</title>
<path fill="none" stroke="black" stroke-width="0.5" d="M401,-109.748C401,-101.413 401,-88.7419 401,-79.0924"/>
<polygon fill="black" stroke="black" stroke-width="0.5" points="402.75,-79.089 401,-74.089 399.25,-79.0891 402.75,-79.089"/>
</g>
</g>
</svg>
