<?xml version="1.0" encoding="UTF-8" standalone="no"?>
<!DOCTYPE svg PUBLIC "-//W3C//DTD SVG 1.1//EN"
 "http://www.w3.org/Graphics/SVG/1.1/DTD/svg11.dtd">
<!-- Generated by graphviz version 2.38.0 (20140413.2041)
 -->
<!-- Title: inheritancece155c1a4d Pages: 1 -->
<svg width="246pt" height="82pt"
 viewBox="0.00 0.00 246.00 82.00" xmlns="http://www.w3.org/2000/svg" xmlns:xlink="http://www.w3.org/1999/xlink">
<g id="graph0" class="graph" transform="scale(1 1) rotate(0) translate(4 78)">
<title>inheritancece155c1a4d</title>
<!-- AffineTransform2D -->
<g id="node1" class="node"><title>AffineTransform2D</title>
<g id="a_node1"><a xlink:href="../oriental/ori/transform.html#oriental.ori.transform.AffineTransform2D" xlink:title="&quot; X_t = A*X_s + t" target="_top">
<polygon fill="white" stroke="black" stroke-width="0.5" points="106,-19 0,-19 0,-0 106,-0 106,-19"/>
<text text-anchor="middle" x="53" y="-7" font-family="Vera Sans, DejaVu Sans, Liberation Sans, Arial, Helvetica, sans" font-size="10.00">AffineTransform2D</text>
</a>
</g>
</g>
<!-- ITransform2D -->
<g id="node2" class="node"><title>ITransform2D</title>
<g id="a_node2"><a xlink:href="../oriental/ori/transform.html#oriental.ori.transform.ITransform2D" xlink:title="ITransform2D" target="_top">
<polygon fill="white" stroke="black" stroke-width="0.5" points="157.5,-74 76.5,-74 76.5,-55 157.5,-55 157.5,-74"/>
<text text-anchor="middle" x="117" y="-62" font-family="Vera Sans, DejaVu Sans, Liberation Sans, Arial, Helvetica, sans" font-size="10.00">ITransform2D</text>
</a>
</g>
</g>
<!-- ITransform2D&#45;&gt;AffineTransform2D -->
<g id="edge1" class="edge"><title>ITransform2D&#45;&gt;AffineTransform2D</title>
<path fill="none" stroke="black" stroke-width="0.5" d="M106.717,-54.9846C96.0507,-46.1513 79.2885,-32.2702 67.3267,-22.3643"/>
<polygon fill="black" stroke="black" stroke-width="0.5" points="68.437,-21.0116 63.4698,-19.1703 66.2046,-23.7073 68.437,-21.0116"/>
</g>
<!-- IdentityTransform2D -->
<g id="node3" class="node"><title>IdentityTransform2D</title>
<g id="a_node3"><a xlink:href="../oriental/ori/transform.html#oriental.ori.transform.IdentityTransform2D" xlink:title="IdentityTransform2D" target="_top">
<polygon fill="white" stroke="black" stroke-width="0.5" points="238,-19 124,-19 124,-0 238,-0 238,-19"/>
<text text-anchor="middle" x="181" y="-7" font-family="Vera Sans, DejaVu Sans, Liberation Sans, Arial, Helvetica, sans" font-size="10.00">IdentityTransform2D</text>
</a>
</g>
</g>
<!-- ITransform2D&#45;&gt;IdentityTransform2D -->
<g id="edge2" class="edge"><title>ITransform2D&#45;&gt;IdentityTransform2D</title>
<path fill="none" stroke="black" stroke-width="0.5" d="M127.283,-54.9846C137.949,-46.1513 154.712,-32.2702 166.673,-22.3643"/>
<polygon fill="black" stroke="black" stroke-width="0.5" points="167.795,-23.7073 170.53,-19.1703 165.563,-21.0116 167.795,-23.7073"/>
</g>
</g>
</svg>
