<?xml version="1.0" encoding="utf-8" standalone="no"?>
<!DOCTYPE svg PUBLIC "-//W3C//DTD SVG 1.1//EN"
  "http://www.w3.org/Graphics/SVG/1.1/DTD/svg11.dtd">
<!-- Created with matplotlib (https://matplotlib.org/) -->
<svg height="345.6pt" version="1.1" viewBox="0 0 460.8 345.6" width="460.8pt" xmlns="http://www.w3.org/2000/svg" xmlns:xlink="http://www.w3.org/1999/xlink">
 <defs>
  <style type="text/css">
*{stroke-linecap:butt;stroke-linejoin:round;}
  </style>
 </defs>
 <g id="figure_1">
  <g id="patch_1">
   <path d="M 0 345.6 
L 460.8 345.6 
L 460.8 0 
L 0 0 
z
" style="fill:#ffffff;"/>
  </g>
  <g id="axes_1">
   <g id="patch_2">
    <path d="M 57.6 307.584 
L 414.72 307.584 
L 414.72 41.472 
L 57.6 41.472 
z
" style="fill:#ffffff;"/>
   </g>
   <g id="matplotlib.axis_1">
    <g id="xtick_1">
     <g id="line2d_1">
      <path clip-path="url(#p5c08897764)" d="M 73.832727 307.584 
L 73.832727 41.472 
" style="fill:none;stroke:#b0b0b0;stroke-linecap:square;stroke-width:0.8;"/>
     </g>
     <g id="line2d_2">
      <defs>
       <path d="M 0 0 
L 0 3.5 
" id="m267cc154c2" style="stroke:#000000;stroke-width:0.8;"/>
      </defs>
      <g>
       <use style="stroke:#000000;stroke-width:0.8;" x="73.832727" xlink:href="#m267cc154c2" y="307.584"/>
      </g>
     </g>
     <g id="text_1">
      <!-- 0.0 -->
      <defs>
       <path d="M 31.78125 66.40625 
Q 24.171875 66.40625 20.328125 58.90625 
Q 16.5 51.421875 16.5 36.375 
Q 16.5 21.390625 20.328125 13.890625 
Q 24.171875 6.390625 31.78125 6.390625 
Q 39.453125 6.390625 43.28125 13.890625 
Q 47.125 21.390625 47.125 36.375 
Q 47.125 51.421875 43.28125 58.90625 
Q 39.453125 66.40625 31.78125 66.40625 
z
M 31.78125 74.21875 
Q 44.046875 74.21875 50.515625 64.515625 
Q 56.984375 54.828125 56.984375 36.375 
Q 56.984375 17.96875 50.515625 8.265625 
Q 44.046875 -1.421875 31.78125 -1.421875 
Q 19.53125 -1.421875 13.0625 8.265625 
Q 6.59375 17.96875 6.59375 36.375 
Q 6.59375 54.828125 13.0625 64.515625 
Q 19.53125 74.21875 31.78125 74.21875 
z
" id="DejaVuSans-48"/>
       <path d="M 10.6875 12.40625 
L 21 12.40625 
L 21 0 
L 10.6875 0 
z
" id="DejaVuSans-46"/>
      </defs>
      <g transform="translate(65.881165 322.182437)scale(0.1 -0.1)">
       <use xlink:href="#DejaVuSans-48"/>
       <use x="63.623047" xlink:href="#DejaVuSans-46"/>
       <use x="95.410156" xlink:href="#DejaVuSans-48"/>
      </g>
     </g>
    </g>
    <g id="xtick_2">
     <g id="line2d_3">
      <path clip-path="url(#p5c08897764)" d="M 127.941818 307.584 
L 127.941818 41.472 
" style="fill:none;stroke:#b0b0b0;stroke-linecap:square;stroke-width:0.8;"/>
     </g>
     <g id="line2d_4">
      <g>
       <use style="stroke:#000000;stroke-width:0.8;" x="127.941818" xlink:href="#m267cc154c2" y="307.584"/>
      </g>
     </g>
     <g id="text_2">
      <!-- 0.5 -->
      <defs>
       <path d="M 10.796875 72.90625 
L 49.515625 72.90625 
L 49.515625 64.59375 
L 19.828125 64.59375 
L 19.828125 46.734375 
Q 21.96875 47.46875 24.109375 47.828125 
Q 26.265625 48.1875 28.421875 48.1875 
Q 40.625 48.1875 47.75 41.5 
Q 54.890625 34.8125 54.890625 23.390625 
Q 54.890625 11.625 47.5625 5.09375 
Q 40.234375 -1.421875 26.90625 -1.421875 
Q 22.3125 -1.421875 17.546875 -0.640625 
Q 12.796875 0.140625 7.71875 1.703125 
L 7.71875 11.625 
Q 12.109375 9.234375 16.796875 8.0625 
Q 21.484375 6.890625 26.703125 6.890625 
Q 35.15625 6.890625 40.078125 11.328125 
Q 45.015625 15.765625 45.015625 23.390625 
Q 45.015625 31 40.078125 35.4375 
Q 35.15625 39.890625 26.703125 39.890625 
Q 22.75 39.890625 18.8125 39.015625 
Q 14.890625 38.140625 10.796875 36.28125 
z
" id="DejaVuSans-53"/>
      </defs>
      <g transform="translate(119.990256 322.182437)scale(0.1 -0.1)">
       <use xlink:href="#DejaVuSans-48"/>
       <use x="63.623047" xlink:href="#DejaVuSans-46"/>
       <use x="95.410156" xlink:href="#DejaVuSans-53"/>
      </g>
     </g>
    </g>
    <g id="xtick_3">
     <g id="line2d_5">
      <path clip-path="url(#p5c08897764)" d="M 182.050909 307.584 
L 182.050909 41.472 
" style="fill:none;stroke:#b0b0b0;stroke-linecap:square;stroke-width:0.8;"/>
     </g>
     <g id="line2d_6">
      <g>
       <use style="stroke:#000000;stroke-width:0.8;" x="182.050909" xlink:href="#m267cc154c2" y="307.584"/>
      </g>
     </g>
     <g id="text_3">
      <!-- 1.0 -->
      <defs>
       <path d="M 12.40625 8.296875 
L 28.515625 8.296875 
L 28.515625 63.921875 
L 10.984375 60.40625 
L 10.984375 69.390625 
L 28.421875 72.90625 
L 38.28125 72.90625 
L 38.28125 8.296875 
L 54.390625 8.296875 
L 54.390625 0 
L 12.40625 0 
z
" id="DejaVuSans-49"/>
      </defs>
      <g transform="translate(174.099347 322.182437)scale(0.1 -0.1)">
       <use xlink:href="#DejaVuSans-49"/>
       <use x="63.623047" xlink:href="#DejaVuSans-46"/>
       <use x="95.410156" xlink:href="#DejaVuSans-48"/>
      </g>
     </g>
    </g>
    <g id="xtick_4">
     <g id="line2d_7">
      <path clip-path="url(#p5c08897764)" d="M 236.16 307.584 
L 236.16 41.472 
" style="fill:none;stroke:#b0b0b0;stroke-linecap:square;stroke-width:0.8;"/>
     </g>
     <g id="line2d_8">
      <g>
       <use style="stroke:#000000;stroke-width:0.8;" x="236.16" xlink:href="#m267cc154c2" y="307.584"/>
      </g>
     </g>
     <g id="text_4">
      <!-- 1.5 -->
      <g transform="translate(228.208438 322.182437)scale(0.1 -0.1)">
       <use xlink:href="#DejaVuSans-49"/>
       <use x="63.623047" xlink:href="#DejaVuSans-46"/>
       <use x="95.410156" xlink:href="#DejaVuSans-53"/>
      </g>
     </g>
    </g>
    <g id="xtick_5">
     <g id="line2d_9">
      <path clip-path="url(#p5c08897764)" d="M 290.269091 307.584 
L 290.269091 41.472 
" style="fill:none;stroke:#b0b0b0;stroke-linecap:square;stroke-width:0.8;"/>
     </g>
     <g id="line2d_10">
      <g>
       <use style="stroke:#000000;stroke-width:0.8;" x="290.269091" xlink:href="#m267cc154c2" y="307.584"/>
      </g>
     </g>
     <g id="text_5">
      <!-- 2.0 -->
      <defs>
       <path d="M 19.1875 8.296875 
L 53.609375 8.296875 
L 53.609375 0 
L 7.328125 0 
L 7.328125 8.296875 
Q 12.9375 14.109375 22.625 23.890625 
Q 32.328125 33.6875 34.8125 36.53125 
Q 39.546875 41.84375 41.421875 45.53125 
Q 43.3125 49.21875 43.3125 52.78125 
Q 43.3125 58.59375 39.234375 62.25 
Q 35.15625 65.921875 28.609375 65.921875 
Q 23.96875 65.921875 18.8125 64.3125 
Q 13.671875 62.703125 7.8125 59.421875 
L 7.8125 69.390625 
Q 13.765625 71.78125 18.9375 73 
Q 24.125 74.21875 28.421875 74.21875 
Q 39.75 74.21875 46.484375 68.546875 
Q 53.21875 62.890625 53.21875 53.421875 
Q 53.21875 48.921875 51.53125 44.890625 
Q 49.859375 40.875 45.40625 35.40625 
Q 44.1875 33.984375 37.640625 27.21875 
Q 31.109375 20.453125 19.1875 8.296875 
z
" id="DejaVuSans-50"/>
      </defs>
      <g transform="translate(282.317528 322.182437)scale(0.1 -0.1)">
       <use xlink:href="#DejaVuSans-50"/>
       <use x="63.623047" xlink:href="#DejaVuSans-46"/>
       <use x="95.410156" xlink:href="#DejaVuSans-48"/>
      </g>
     </g>
    </g>
    <g id="xtick_6">
     <g id="line2d_11">
      <path clip-path="url(#p5c08897764)" d="M 344.378182 307.584 
L 344.378182 41.472 
" style="fill:none;stroke:#b0b0b0;stroke-linecap:square;stroke-width:0.8;"/>
     </g>
     <g id="line2d_12">
      <g>
       <use style="stroke:#000000;stroke-width:0.8;" x="344.378182" xlink:href="#m267cc154c2" y="307.584"/>
      </g>
     </g>
     <g id="text_6">
      <!-- 2.5 -->
      <g transform="translate(336.426619 322.182437)scale(0.1 -0.1)">
       <use xlink:href="#DejaVuSans-50"/>
       <use x="63.623047" xlink:href="#DejaVuSans-46"/>
       <use x="95.410156" xlink:href="#DejaVuSans-53"/>
      </g>
     </g>
    </g>
    <g id="xtick_7">
     <g id="line2d_13">
      <path clip-path="url(#p5c08897764)" d="M 398.487273 307.584 
L 398.487273 41.472 
" style="fill:none;stroke:#b0b0b0;stroke-linecap:square;stroke-width:0.8;"/>
     </g>
     <g id="line2d_14">
      <g>
       <use style="stroke:#000000;stroke-width:0.8;" x="398.487273" xlink:href="#m267cc154c2" y="307.584"/>
      </g>
     </g>
     <g id="text_7">
      <!-- 3.0 -->
      <defs>
       <path d="M 40.578125 39.3125 
Q 47.65625 37.796875 51.625 33 
Q 55.609375 28.21875 55.609375 21.1875 
Q 55.609375 10.40625 48.1875 4.484375 
Q 40.765625 -1.421875 27.09375 -1.421875 
Q 22.515625 -1.421875 17.65625 -0.515625 
Q 12.796875 0.390625 7.625 2.203125 
L 7.625 11.71875 
Q 11.71875 9.328125 16.59375 8.109375 
Q 21.484375 6.890625 26.8125 6.890625 
Q 36.078125 6.890625 40.9375 10.546875 
Q 45.796875 14.203125 45.796875 21.1875 
Q 45.796875 27.640625 41.28125 31.265625 
Q 36.765625 34.90625 28.71875 34.90625 
L 20.21875 34.90625 
L 20.21875 43.015625 
L 29.109375 43.015625 
Q 36.375 43.015625 40.234375 45.921875 
Q 44.09375 48.828125 44.09375 54.296875 
Q 44.09375 59.90625 40.109375 62.90625 
Q 36.140625 65.921875 28.71875 65.921875 
Q 24.65625 65.921875 20.015625 65.03125 
Q 15.375 64.15625 9.8125 62.3125 
L 9.8125 71.09375 
Q 15.4375 72.65625 20.34375 73.4375 
Q 25.25 74.21875 29.59375 74.21875 
Q 40.828125 74.21875 47.359375 69.109375 
Q 53.90625 64.015625 53.90625 55.328125 
Q 53.90625 49.265625 50.4375 45.09375 
Q 46.96875 40.921875 40.578125 39.3125 
z
" id="DejaVuSans-51"/>
      </defs>
      <g transform="translate(390.53571 322.182437)scale(0.1 -0.1)">
       <use xlink:href="#DejaVuSans-51"/>
       <use x="63.623047" xlink:href="#DejaVuSans-46"/>
       <use x="95.410156" xlink:href="#DejaVuSans-48"/>
      </g>
     </g>
    </g>
    <g id="text_8">
     <!-- $\|\vec{r}\|$ -->
     <defs>
      <path d="M 21 76.421875 
L 21 -23.578125 
L 12.703125 -23.578125 
L 12.703125 76.421875 
z
" id="DejaVuSans-124"/>
      <path d="M -47.015625 63.53125 
L -47.015625 68.40625 
L -10.84375 68.40625 
L -17.28125 75.984375 
L -11.140625 75.984375 
L -2.59375 65.96875 
L -11.140625 55.953125 
L -17.28125 55.953125 
L -10.84375 63.53125 
z
" id="DejaVuSans-8407"/>
      <path d="M 44.578125 46.390625 
Q 43.21875 47.125 41.453125 47.515625 
Q 39.703125 47.90625 37.703125 47.90625 
Q 30.515625 47.90625 25.140625 42.453125 
Q 19.78125 37.015625 18.015625 27.875 
L 12.5 0 
L 3.515625 0 
L 14.203125 54.6875 
L 23.1875 54.6875 
L 21.484375 46.1875 
Q 25.046875 50.921875 30 53.453125 
Q 34.96875 56 40.578125 56 
Q 42.046875 56 43.453125 55.828125 
Q 44.875 55.671875 46.296875 55.28125 
z
" id="DejaVuSans-Oblique-114"/>
     </defs>
     <g transform="translate(230.71 337.162125)scale(0.1 -0.1)">
      <use transform="translate(0 0.46875)" xlink:href="#DejaVuSans-124"/>
      <use transform="translate(83.985352 13.015625)" xlink:href="#DejaVuSans-8407"/>
      <use transform="translate(33.691406 0.46875)" xlink:href="#DejaVuSans-Oblique-114"/>
      <use transform="translate(74.804688 0.46875)" xlink:href="#DejaVuSans-124"/>
     </g>
    </g>
   </g>
   <g id="matplotlib.axis_2">
    <g id="ytick_1">
     <g id="line2d_15">
      <path clip-path="url(#p5c08897764)" d="M 57.6 295.488 
L 414.72 295.488 
" style="fill:none;stroke:#b0b0b0;stroke-linecap:square;stroke-width:0.8;"/>
     </g>
     <g id="line2d_16">
      <defs>
       <path d="M 0 0 
L -3.5 0 
" id="mf320227ac0" style="stroke:#000000;stroke-width:0.8;"/>
      </defs>
      <g>
       <use style="stroke:#000000;stroke-width:0.8;" x="57.6" xlink:href="#mf320227ac0" y="295.488"/>
      </g>
     </g>
     <g id="text_9">
      <!-- 0 -->
      <g transform="translate(44.2375 299.287219)scale(0.1 -0.1)">
       <use xlink:href="#DejaVuSans-48"/>
      </g>
     </g>
    </g>
    <g id="ytick_2">
     <g id="line2d_17">
      <path clip-path="url(#p5c08897764)" d="M 57.6 241.728 
L 414.72 241.728 
" style="fill:none;stroke:#b0b0b0;stroke-linecap:square;stroke-width:0.8;"/>
     </g>
     <g id="line2d_18">
      <g>
       <use style="stroke:#000000;stroke-width:0.8;" x="57.6" xlink:href="#mf320227ac0" y="241.728"/>
      </g>
     </g>
     <g id="text_10">
      <!-- 2 -->
      <g transform="translate(44.2375 245.527219)scale(0.1 -0.1)">
       <use xlink:href="#DejaVuSans-50"/>
      </g>
     </g>
    </g>
    <g id="ytick_3">
     <g id="line2d_19">
      <path clip-path="url(#p5c08897764)" d="M 57.6 187.968 
L 414.72 187.968 
" style="fill:none;stroke:#b0b0b0;stroke-linecap:square;stroke-width:0.8;"/>
     </g>
     <g id="line2d_20">
      <g>
       <use style="stroke:#000000;stroke-width:0.8;" x="57.6" xlink:href="#mf320227ac0" y="187.968"/>
      </g>
     </g>
     <g id="text_11">
      <!-- 4 -->
      <defs>
       <path d="M 37.796875 64.3125 
L 12.890625 25.390625 
L 37.796875 25.390625 
z
M 35.203125 72.90625 
L 47.609375 72.90625 
L 47.609375 25.390625 
L 58.015625 25.390625 
L 58.015625 17.1875 
L 47.609375 17.1875 
L 47.609375 0 
L 37.796875 0 
L 37.796875 17.1875 
L 4.890625 17.1875 
L 4.890625 26.703125 
z
" id="DejaVuSans-52"/>
      </defs>
      <g transform="translate(44.2375 191.767219)scale(0.1 -0.1)">
       <use xlink:href="#DejaVuSans-52"/>
      </g>
     </g>
    </g>
    <g id="ytick_4">
     <g id="line2d_21">
      <path clip-path="url(#p5c08897764)" d="M 57.6 134.208 
L 414.72 134.208 
" style="fill:none;stroke:#b0b0b0;stroke-linecap:square;stroke-width:0.8;"/>
     </g>
     <g id="line2d_22">
      <g>
       <use style="stroke:#000000;stroke-width:0.8;" x="57.6" xlink:href="#mf320227ac0" y="134.208"/>
      </g>
     </g>
     <g id="text_12">
      <!-- 6 -->
      <defs>
       <path d="M 33.015625 40.375 
Q 26.375 40.375 22.484375 35.828125 
Q 18.609375 31.296875 18.609375 23.390625 
Q 18.609375 15.53125 22.484375 10.953125 
Q 26.375 6.390625 33.015625 6.390625 
Q 39.65625 6.390625 43.53125 10.953125 
Q 47.40625 15.53125 47.40625 23.390625 
Q 47.40625 31.296875 43.53125 35.828125 
Q 39.65625 40.375 33.015625 40.375 
z
M 52.59375 71.296875 
L 52.59375 62.3125 
Q 48.875 64.0625 45.09375 64.984375 
Q 41.3125 65.921875 37.59375 65.921875 
Q 27.828125 65.921875 22.671875 59.328125 
Q 17.53125 52.734375 16.796875 39.40625 
Q 19.671875 43.65625 24.015625 45.921875 
Q 28.375 48.1875 33.59375 48.1875 
Q 44.578125 48.1875 50.953125 41.515625 
Q 57.328125 34.859375 57.328125 23.390625 
Q 57.328125 12.15625 50.6875 5.359375 
Q 44.046875 -1.421875 33.015625 -1.421875 
Q 20.359375 -1.421875 13.671875 8.265625 
Q 6.984375 17.96875 6.984375 36.375 
Q 6.984375 53.65625 15.1875 63.9375 
Q 23.390625 74.21875 37.203125 74.21875 
Q 40.921875 74.21875 44.703125 73.484375 
Q 48.484375 72.75 52.59375 71.296875 
z
" id="DejaVuSans-54"/>
      </defs>
      <g transform="translate(44.2375 138.007219)scale(0.1 -0.1)">
       <use xlink:href="#DejaVuSans-54"/>
      </g>
     </g>
    </g>
    <g id="ytick_5">
     <g id="line2d_23">
      <path clip-path="url(#p5c08897764)" d="M 57.6 80.448 
L 414.72 80.448 
" style="fill:none;stroke:#b0b0b0;stroke-linecap:square;stroke-width:0.8;"/>
     </g>
     <g id="line2d_24">
      <g>
       <use style="stroke:#000000;stroke-width:0.8;" x="57.6" xlink:href="#mf320227ac0" y="80.448"/>
      </g>
     </g>
     <g id="text_13">
      <!-- 8 -->
      <defs>
       <path d="M 31.78125 34.625 
Q 24.75 34.625 20.71875 30.859375 
Q 16.703125 27.09375 16.703125 20.515625 
Q 16.703125 13.921875 20.71875 10.15625 
Q 24.75 6.390625 31.78125 6.390625 
Q 38.8125 6.390625 42.859375 10.171875 
Q 46.921875 13.96875 46.921875 20.515625 
Q 46.921875 27.09375 42.890625 30.859375 
Q 38.875 34.625 31.78125 34.625 
z
M 21.921875 38.8125 
Q 15.578125 40.375 12.03125 44.71875 
Q 8.5 49.078125 8.5 55.328125 
Q 8.5 64.0625 14.71875 69.140625 
Q 20.953125 74.21875 31.78125 74.21875 
Q 42.671875 74.21875 48.875 69.140625 
Q 55.078125 64.0625 55.078125 55.328125 
Q 55.078125 49.078125 51.53125 44.71875 
Q 48 40.375 41.703125 38.8125 
Q 48.828125 37.15625 52.796875 32.3125 
Q 56.78125 27.484375 56.78125 20.515625 
Q 56.78125 9.90625 50.3125 4.234375 
Q 43.84375 -1.421875 31.78125 -1.421875 
Q 19.734375 -1.421875 13.25 4.234375 
Q 6.78125 9.90625 6.78125 20.515625 
Q 6.78125 27.484375 10.78125 32.3125 
Q 14.796875 37.15625 21.921875 38.8125 
z
M 18.3125 54.390625 
Q 18.3125 48.734375 21.84375 45.5625 
Q 25.390625 42.390625 31.78125 42.390625 
Q 38.140625 42.390625 41.71875 45.5625 
Q 45.3125 48.734375 45.3125 54.390625 
Q 45.3125 60.0625 41.71875 63.234375 
Q 38.140625 66.40625 31.78125 66.40625 
Q 25.390625 66.40625 21.84375 63.234375 
Q 18.3125 60.0625 18.3125 54.390625 
z
" id="DejaVuSans-56"/>
      </defs>
      <g transform="translate(44.2375 84.247219)scale(0.1 -0.1)">
       <use xlink:href="#DejaVuSans-56"/>
      </g>
     </g>
    </g>
    <g id="text_14">
     <!-- $\operatorname{loss}(\|\vec{r}\|^2)$ -->
     <defs>
      <path d="M 9.421875 75.984375 
L 18.40625 75.984375 
L 18.40625 0 
L 9.421875 0 
z
" id="DejaVuSans-108"/>
      <path d="M 30.609375 48.390625 
Q 23.390625 48.390625 19.1875 42.75 
Q 14.984375 37.109375 14.984375 27.296875 
Q 14.984375 17.484375 19.15625 11.84375 
Q 23.34375 6.203125 30.609375 6.203125 
Q 37.796875 6.203125 41.984375 11.859375 
Q 46.1875 17.53125 46.1875 27.296875 
Q 46.1875 37.015625 41.984375 42.703125 
Q 37.796875 48.390625 30.609375 48.390625 
z
M 30.609375 56 
Q 42.328125 56 49.015625 48.375 
Q 55.71875 40.765625 55.71875 27.296875 
Q 55.71875 13.875 49.015625 6.21875 
Q 42.328125 -1.421875 30.609375 -1.421875 
Q 18.84375 -1.421875 12.171875 6.21875 
Q 5.515625 13.875 5.515625 27.296875 
Q 5.515625 40.765625 12.171875 48.375 
Q 18.84375 56 30.609375 56 
z
" id="DejaVuSans-111"/>
      <path d="M 44.28125 53.078125 
L 44.28125 44.578125 
Q 40.484375 46.53125 36.375 47.5 
Q 32.28125 48.484375 27.875 48.484375 
Q 21.1875 48.484375 17.84375 46.4375 
Q 14.5 44.390625 14.5 40.28125 
Q 14.5 37.15625 16.890625 35.375 
Q 19.28125 33.59375 26.515625 31.984375 
L 29.59375 31.296875 
Q 39.15625 29.25 43.1875 25.515625 
Q 47.21875 21.78125 47.21875 15.09375 
Q 47.21875 7.46875 41.1875 3.015625 
Q 35.15625 -1.421875 24.609375 -1.421875 
Q 20.21875 -1.421875 15.453125 -0.5625 
Q 10.6875 0.296875 5.421875 2 
L 5.421875 11.28125 
Q 10.40625 8.6875 15.234375 7.390625 
Q 20.0625 6.109375 24.8125 6.109375 
Q 31.15625 6.109375 34.5625 8.28125 
Q 37.984375 10.453125 37.984375 14.40625 
Q 37.984375 18.0625 35.515625 20.015625 
Q 33.0625 21.96875 24.703125 23.78125 
L 21.578125 24.515625 
Q 13.234375 26.265625 9.515625 29.90625 
Q 5.8125 33.546875 5.8125 39.890625 
Q 5.8125 47.609375 11.28125 51.796875 
Q 16.75 56 26.8125 56 
Q 31.78125 56 36.171875 55.265625 
Q 40.578125 54.546875 44.28125 53.078125 
z
" id="DejaVuSans-115"/>
      <path d="M 31 75.875 
Q 24.46875 64.65625 21.28125 53.65625 
Q 18.109375 42.671875 18.109375 31.390625 
Q 18.109375 20.125 21.3125 9.0625 
Q 24.515625 -2 31 -13.1875 
L 23.1875 -13.1875 
Q 15.875 -1.703125 12.234375 9.375 
Q 8.59375 20.453125 8.59375 31.390625 
Q 8.59375 42.28125 12.203125 53.3125 
Q 15.828125 64.359375 23.1875 75.875 
z
" id="DejaVuSans-40"/>
      <path d="M 8.015625 75.875 
L 15.828125 75.875 
Q 23.140625 64.359375 26.78125 53.3125 
Q 30.421875 42.28125 30.421875 31.390625 
Q 30.421875 20.453125 26.78125 9.375 
Q 23.140625 -1.703125 15.828125 -13.1875 
L 8.015625 -13.1875 
Q 14.5 -2 17.703125 9.0625 
Q 20.90625 20.125 20.90625 31.390625 
Q 20.90625 42.671875 17.703125 53.65625 
Q 14.5 64.65625 8.015625 75.875 
z
" id="DejaVuSans-41"/>
     </defs>
     <g transform="translate(37.8375 195.928)rotate(-90)scale(0.1 -0.1)">
      <use transform="translate(0 0.765625)" xlink:href="#DejaVuSans-108"/>
      <use transform="translate(27.783203 0.765625)" xlink:href="#DejaVuSans-111"/>
      <use transform="translate(88.964844 0.765625)" xlink:href="#DejaVuSans-115"/>
      <use transform="translate(141.064453 0.765625)" xlink:href="#DejaVuSans-115"/>
      <use transform="translate(193.164062 0.765625)" xlink:href="#DejaVuSans-40"/>
      <use transform="translate(232.177734 0.765625)" xlink:href="#DejaVuSans-124"/>
      <use transform="translate(316.163086 13.3125)" xlink:href="#DejaVuSans-8407"/>
      <use transform="translate(265.869141 0.765625)" xlink:href="#DejaVuSans-Oblique-114"/>
      <use transform="translate(306.982422 0.765625)" xlink:href="#DejaVuSans-124"/>
      <use transform="translate(341.630859 39.046875)scale(0.7)" xlink:href="#DejaVuSans-50"/>
      <use transform="translate(388.901367 0.765625)" xlink:href="#DejaVuSans-41"/>
     </g>
    </g>
   </g>
   <g id="line2d_25">
    <path clip-path="url(#p5c08897764)" d="M 73.832727 295.488 
L 77.112066 295.463317 
L 80.391405 295.389267 
L 83.670744 295.265851 
L 86.950083 295.093069 
L 90.229421 294.87092 
L 93.50876 294.599405 
L 96.788099 294.278523 
L 100.067438 293.908275 
L 103.346777 293.488661 
L 106.626116 293.01968 
L 109.905455 292.501333 
L 113.184793 291.93362 
L 116.464132 291.31654 
L 119.743471 290.650094 
L 123.02281 289.934281 
L 126.302149 289.169102 
L 129.581488 288.354556 
L 132.860826 287.490645 
L 136.140165 286.577366 
L 139.419504 285.614722 
L 142.698843 284.602711 
L 145.978182 283.541333 
L 149.257521 282.43059 
L 152.53686 281.270479 
L 155.816198 280.061003 
L 159.095537 278.80216 
L 162.374876 277.49395 
L 165.654215 276.136375 
L 168.933554 274.729433 
L 172.212893 273.273124 
L 175.492231 271.767449 
L 178.77157 270.212408 
L 182.050909 268.608 
L 185.330248 266.954226 
L 188.609587 265.251085 
L 191.888926 263.498579 
L 195.168264 261.696705 
L 198.447603 259.845466 
L 201.726942 257.94486 
L 205.006281 255.994887 
L 208.28562 253.995548 
L 211.564959 251.946843 
L 214.844298 249.848771 
L 218.123636 247.701333 
L 221.402975 245.504529 
L 224.682314 243.258358 
L 227.961653 240.962821 
L 231.240992 238.617917 
L 234.520331 236.223647 
L 237.799669 233.780011 
L 241.079008 231.287008 
L 244.358347 228.744639 
L 247.637686 226.152904 
L 250.917025 223.511802 
L 254.196364 220.821333 
L 257.475702 218.081499 
L 260.755041 215.292298 
L 264.03438 212.45373 
L 267.313719 209.565796 
L 270.593058 206.628496 
L 273.872397 203.641829 
L 277.151736 200.605796 
L 280.431074 197.520397 
L 283.710413 194.385631 
L 286.989752 191.201499 
L 290.269091 187.968 
L 293.54843 184.685135 
L 296.827769 181.352904 
L 300.107107 177.971306 
L 303.386446 174.540342 
L 306.665785 171.060011 
L 309.945124 167.530314 
L 313.224463 163.951251 
L 316.503802 160.322821 
L 319.78314 156.645025 
L 323.062479 152.917862 
L 326.341818 149.141333 
L 329.621157 145.315438 
L 332.900496 141.440176 
L 336.179835 137.515548 
L 339.459174 133.541554 
L 342.738512 129.518193 
L 346.017851 125.445466 
L 349.29719 121.323372 
L 352.576529 117.151912 
L 355.855868 112.931085 
L 359.135207 108.660893 
L 362.414545 104.341333 
L 365.693884 99.972408 
L 368.973223 95.554116 
L 372.252562 91.086457 
L 375.531901 86.569433 
L 378.81124 82.003041 
L 382.090579 77.387284 
L 385.369917 72.72216 
L 388.649256 68.007669 
L 391.928595 63.243813 
L 395.207934 58.43059 
L 398.487273 53.568 
" style="fill:none;stroke:#ff0000;stroke-linecap:square;stroke-width:1.5;"/>
   </g>
   <g id="line2d_26">
    <path clip-path="url(#p5c08897764)" d="M 73.832727 295.488 
L 77.112066 295.485055 
L 80.391405 295.476193 
L 83.670744 295.461326 
L 86.950083 295.440309 
L 90.229421 295.412937 
L 93.50876 295.378941 
L 96.788099 295.337981 
L 100.067438 295.28965 
L 103.346777 295.233459 
L 106.626116 295.168838 
L 109.905455 295.095121 
L 113.184793 295.011545 
L 116.464132 294.917232 
L 119.743471 294.811184 
L 123.02281 294.692268 
L 126.302149 294.559202 
L 129.581488 294.410541 
L 132.860826 294.24466 
L 136.140165 294.059739 
L 139.419504 293.853748 
L 142.698843 293.624425 
L 145.978182 293.369265 
L 149.257521 293.085504 
L 152.53686 292.770107 
L 155.816198 292.419764 
L 159.095537 292.030885 
L 162.374876 291.599612 
L 165.654215 291.121828 
L 168.933554 290.593191 
L 172.212893 290.009172 
L 175.492231 289.365112 
L 178.77157 288.656292 
L 182.050909 287.878014 
L 185.330248 287.025707 
L 188.609587 286.095021 
L 191.888926 285.081949 
L 195.168264 283.982925 
L 198.447603 282.794929 
L 201.726942 281.515567 
L 205.006281 280.14313 
L 208.28562 278.676626 
L 211.564959 277.115784 
L 214.844298 275.461024 
L 218.123636 273.713405 
L 221.402975 271.874543 
L 224.682314 269.946519 
L 227.961653 267.931778 
L 231.240992 265.833023 
L 234.520331 263.653111 
L 237.799669 261.394966 
L 241.079008 259.061495 
L 244.358347 256.655527 
L 247.637686 254.179755 
L 250.917025 251.636704 
L 254.196364 249.028707 
L 257.475702 246.357885 
L 260.755041 243.626153 
L 264.03438 240.835211 
L 267.313719 237.986564 
L 270.593058 235.081525 
L 273.872397 232.121232 
L 277.151736 229.106667 
L 280.431074 226.038668 
L 283.710413 222.917946 
L 286.989752 219.745102 
L 290.269091 216.520639 
L 293.54843 213.244978 
L 296.827769 209.918467 
L 300.107107 206.541393 
L 303.386446 203.113993 
L 306.665785 199.636458 
L 309.945124 196.108947 
L 313.224463 192.531585 
L 316.503802 188.904475 
L 319.78314 185.227698 
L 323.062479 181.50132 
L 326.341818 177.725392 
L 329.621157 173.899956 
L 332.900496 170.025044 
L 336.179835 166.10068 
L 339.459174 162.126886 
L 342.738512 158.103675 
L 346.017851 154.03106 
L 349.29719 149.90905 
L 352.576529 145.737653 
L 355.855868 141.516873 
L 359.135207 137.246714 
L 362.414545 132.92718 
L 365.693884 128.558272 
L 368.973223 124.139994 
L 372.252562 119.672345 
L 375.531901 115.155327 
L 378.81124 110.588941 
L 382.090579 105.973187 
L 385.369917 101.308066 
L 388.649256 96.593577 
L 391.928595 91.829722 
L 395.207934 87.0165 
L 398.487273 82.153911 
" style="fill:none;stroke:#bf00bf;stroke-linecap:square;stroke-width:1.5;"/>
   </g>
   <g id="line2d_27">
    <path clip-path="url(#p5c08897764)" d="M 73.832727 295.488 
L 77.112066 295.463317 
L 80.391405 295.389267 
L 83.670744 295.265851 
L 86.950083 295.093069 
L 90.229421 294.87092 
L 93.50876 294.599405 
L 96.788099 294.278523 
L 100.067438 293.908275 
L 103.346777 293.488661 
L 106.626116 293.01968 
L 109.905455 292.501333 
L 113.184793 291.93362 
L 116.464132 291.31654 
L 119.743471 290.650094 
L 123.02281 289.934281 
L 126.302149 289.169102 
L 129.581488 288.354556 
L 132.860826 287.490645 
L 136.140165 286.577366 
L 139.419504 285.614722 
L 142.698843 284.602711 
L 145.978182 283.541333 
L 149.257521 282.43059 
L 152.53686 281.270479 
L 155.816198 280.061003 
L 159.095537 278.80216 
L 162.374876 277.49395 
L 165.654215 276.136375 
L 168.933554 274.729433 
L 172.212893 273.273124 
L 175.492231 271.767449 
L 178.77157 270.212408 
L 182.050909 268.608 
L 185.330248 266.978909 
L 188.609587 265.349818 
L 191.888926 263.720727 
L 195.168264 262.091636 
L 198.447603 260.462545 
L 201.726942 258.833455 
L 205.006281 257.204364 
L 208.28562 255.575273 
L 211.564959 253.946182 
L 214.844298 252.317091 
L 218.123636 250.688 
L 221.402975 249.058909 
L 224.682314 247.429818 
L 227.961653 245.800727 
L 231.240992 244.171636 
L 234.520331 242.542545 
L 237.799669 240.913455 
L 241.079008 239.284364 
L 244.358347 237.655273 
L 247.637686 236.026182 
L 250.917025 234.397091 
L 254.196364 232.768 
L 257.475702 231.138909 
L 260.755041 229.509818 
L 264.03438 227.880727 
L 267.313719 226.251636 
L 270.593058 224.622545 
L 273.872397 222.993455 
L 277.151736 221.364364 
L 280.431074 219.735273 
L 283.710413 218.106182 
L 286.989752 216.477091 
L 290.269091 214.848 
L 293.54843 213.218909 
L 296.827769 211.589818 
L 300.107107 209.960727 
L 303.386446 208.331636 
L 306.665785 206.702545 
L 309.945124 205.073455 
L 313.224463 203.444364 
L 316.503802 201.815273 
L 319.78314 200.186182 
L 323.062479 198.557091 
L 326.341818 196.928 
L 329.621157 195.298909 
L 332.900496 193.669818 
L 336.179835 192.040727 
L 339.459174 190.411636 
L 342.738512 188.782545 
L 346.017851 187.153455 
L 349.29719 185.524364 
L 352.576529 183.895273 
L 355.855868 182.266182 
L 359.135207 180.637091 
L 362.414545 179.008 
L 365.693884 177.378909 
L 368.973223 175.749818 
L 372.252562 174.120727 
L 375.531901 172.491636 
L 378.81124 170.862545 
L 382.090579 169.233455 
L 385.369917 167.604364 
L 388.649256 165.975273 
L 391.928595 164.346182 
L 395.207934 162.717091 
L 398.487273 161.088 
" style="fill:none;stroke:#0000ff;stroke-linecap:square;stroke-width:1.5;"/>
   </g>
   <g id="line2d_28">
    <path clip-path="url(#p5c08897764)" d="M 73.832727 295.488 
L 77.112066 295.463322 
L 80.391405 295.389358 
L 83.670744 295.266308 
L 86.950083 295.094509 
L 90.229421 294.874422 
L 93.50876 294.60663 
L 96.788099 294.291831 
L 100.067438 293.930827 
L 103.346777 293.524517 
L 106.626116 293.073884 
L 109.905455 292.579984 
L 113.184793 292.043939 
L 116.464132 291.466922 
L 119.743471 290.850147 
L 123.02281 290.194859 
L 126.302149 289.502326 
L 129.581488 288.773828 
L 132.860826 288.010648 
L 136.140165 287.214066 
L 139.419504 286.385352 
L 142.698843 285.52576 
L 145.978182 284.636521 
L 149.257521 283.718843 
L 152.53686 282.773904 
L 155.816198 281.802849 
L 159.095537 280.806791 
L 162.374876 279.786804 
L 165.654215 278.743927 
L 168.933554 277.679161 
L 172.212893 276.593468 
L 175.492231 275.487772 
L 178.77157 274.36296 
L 182.050909 273.219879 
L 185.330248 272.059342 
L 188.609587 270.882123 
L 191.888926 269.688964 
L 195.168264 268.480571 
L 198.447603 267.257617 
L 201.726942 266.020744 
L 205.006281 264.770565 
L 208.28562 263.507659 
L 211.564959 262.232583 
L 214.844298 260.945863 
L 218.123636 259.648 
L 221.402975 258.339472 
L 224.682314 257.020733 
L 227.961653 255.692215 
L 231.240992 254.354329 
L 234.520331 253.007464 
L 237.799669 251.651993 
L 241.079008 250.28827 
L 244.358347 248.91663 
L 247.637686 247.537395 
L 250.917025 246.150869 
L 254.196364 244.757342 
L 257.475702 243.357091 
L 260.755041 241.950379 
L 264.03438 240.537456 
L 267.313719 239.118563 
L 270.593058 237.693926 
L 273.872397 236.263763 
L 277.151736 234.828281 
L 280.431074 233.387678 
L 283.710413 231.942142 
L 286.989752 230.491854 
L 290.269091 229.036986 
L 293.54843 227.577701 
L 296.827769 226.114158 
L 300.107107 224.646505 
L 303.386446 223.174887 
L 306.665785 221.699441 
L 309.945124 220.220298 
L 313.224463 218.737583 
L 316.503802 217.251418 
L 319.78314 215.761917 
L 323.062479 214.269191 
L 326.341818 212.773346 
L 329.621157 211.274483 
L 332.900496 209.772699 
L 336.179835 208.268088 
L 339.459174 206.760739 
L 342.738512 205.250739 
L 346.017851 203.738169 
L 349.29719 202.22311 
L 352.576529 200.705636 
L 355.855868 199.185823 
L 359.135207 197.663739 
L 362.414545 196.139453 
L 365.693884 194.61303 
L 368.973223 193.084532 
L 372.252562 191.55402 
L 375.531901 190.021551 
L 378.81124 188.487183 
L 382.090579 186.950968 
L 385.369917 185.412959 
L 388.649256 183.873205 
L 391.928595 182.331756 
L 395.207934 180.788657 
L 398.487273 179.243953 
" style="fill:none;stroke:#000000;stroke-linecap:square;stroke-width:1.5;"/>
   </g>
   <g id="line2d_29">
    <path clip-path="url(#p5c08897764)" d="M 73.832727 295.488 
L 77.112066 295.463328 
L 80.391405 295.389448 
L 83.670744 295.266764 
L 86.950083 295.095942 
L 90.229421 294.877897 
L 93.50876 294.613777 
L 96.788099 294.304944 
L 100.067438 293.952953 
L 103.346777 293.559524 
L 106.626116 293.126517 
L 109.905455 292.655909 
L 113.184793 292.149763 
L 116.464132 291.610202 
L 119.743471 291.03939 
L 123.02281 290.439504 
L 126.302149 289.812714 
L 129.581488 289.161165 
L 132.860826 288.486963 
L 136.140165 287.792156 
L 139.419504 287.078729 
L 142.698843 286.348588 
L 145.978182 285.603558 
L 149.257521 284.845375 
L 152.53686 284.075685 
L 155.816198 283.296039 
L 159.095537 282.507894 
L 162.374876 281.712614 
L 165.654215 280.911471 
L 168.933554 280.105647 
L 172.212893 279.296236 
L 175.492231 278.484251 
L 178.77157 277.670622 
L 182.050909 276.856204 
L 185.330248 276.04178 
L 188.609587 275.228066 
L 191.888926 274.415712 
L 195.168264 273.60531 
L 198.447603 272.797395 
L 201.726942 271.992451 
L 205.006281 271.190912 
L 208.28562 270.393169 
L 211.564959 269.59957 
L 214.844298 268.810427 
L 218.123636 268.026014 
L 221.402975 267.246576 
L 224.682314 266.472324 
L 227.961653 265.703445 
L 231.240992 264.940099 
L 234.520331 264.182426 
L 237.799669 263.430542 
L 241.079008 262.684545 
L 244.358347 261.944517 
L 247.637686 261.210523 
L 250.917025 260.482613 
L 254.196364 259.760826 
L 257.475702 259.045187 
L 260.755041 258.335712 
L 264.03438 257.632407 
L 267.313719 256.93527 
L 270.593058 256.244289 
L 273.872397 255.559447 
L 277.151736 254.880721 
L 280.431074 254.20808 
L 283.710413 253.541491 
L 286.989752 252.880915 
L 290.269091 252.226309 
L 293.54843 251.577626 
L 296.827769 250.934818 
L 300.107107 250.297833 
L 303.386446 249.666615 
L 306.665785 249.04111 
L 309.945124 248.421258 
L 313.224463 247.807001 
L 316.503802 247.198277 
L 319.78314 246.595026 
L 323.062479 245.997184 
L 326.341818 245.404689 
L 329.621157 244.817476 
L 332.900496 244.235483 
L 336.179835 243.658644 
L 339.459174 243.086897 
L 342.738512 242.520176 
L 346.017851 241.958418 
L 349.29719 241.401559 
L 352.576529 240.849535 
L 355.855868 240.302283 
L 359.135207 239.759741 
L 362.414545 239.221847 
L 365.693884 238.688538 
L 368.973223 238.159753 
L 372.252562 237.635433 
L 375.531901 237.115516 
L 378.81124 236.599943 
L 382.090579 236.088657 
L 385.369917 235.581599 
L 388.649256 235.078711 
L 391.928595 234.579938 
L 395.207934 234.085224 
L 398.487273 233.594513 
" style="fill:none;stroke:#00bfbf;stroke-linecap:square;stroke-width:1.5;"/>
   </g>
   <g id="line2d_30">
    <path clip-path="url(#p5c08897764)" d="M 73.832727 295.488 
L 77.112066 295.463317 
L 80.391405 295.389268 
L 83.670744 295.265856 
L 86.950083 295.093097 
L 90.229421 294.871028 
L 93.50876 294.599728 
L 96.788099 294.279339 
L 100.067438 293.91009 
L 103.346777 293.492336 
L 106.626116 293.026583 
L 109.905455 292.513534 
L 113.184793 291.954121 
L 116.464132 291.349552 
L 119.743471 290.70134 
L 123.02281 290.011343 
L 126.302149 289.281786 
L 129.581488 288.51528 
L 132.860826 287.714825 
L 136.140165 286.883799 
L 139.419504 286.025937 
L 142.698843 285.145281 
L 145.978182 284.24613 
L 149.257521 283.332963 
L 152.53686 282.410358 
L 155.816198 281.482901 
L 159.095537 280.5551 
L 162.374876 279.63129 
L 165.654215 278.715561 
L 168.933554 277.811683 
L 172.212893 276.923059 
L 175.492231 276.052682 
L 178.77157 275.203118 
L 182.050909 274.376497 
L 185.330248 273.574526 
L 188.609587 272.798503 
L 191.888926 272.049348 
L 195.168264 271.327638 
L 198.447603 270.633644 
L 201.726942 269.967368 
L 205.006281 269.328588 
L 208.28562 268.71689 
L 211.564959 268.131706 
L 214.844298 267.572345 
L 218.123636 267.038023 
L 221.402975 266.527886 
L 224.682314 266.041033 
L 227.961653 265.576531 
L 231.240992 265.133437 
L 234.520331 264.710803 
L 237.799669 264.307691 
L 241.079008 263.923177 
L 244.358347 263.556362 
L 247.637686 263.206372 
L 250.917025 262.872365 
L 254.196364 262.553529 
L 257.475702 262.249088 
L 260.755041 261.958301 
L 264.03438 261.68046 
L 267.313719 261.414893 
L 270.593058 261.160962 
L 273.872397 260.918062 
L 277.151736 260.68562 
L 280.431074 260.463093 
L 283.710413 260.249969 
L 286.989752 260.045764 
L 290.269091 259.850021 
L 293.54843 259.662309 
L 296.827769 259.48222 
L 300.107107 259.30937 
L 303.386446 259.143397 
L 306.665785 258.983959 
L 309.945124 258.830733 
L 313.224463 258.683415 
L 316.503802 258.541718 
L 319.78314 258.40537 
L 323.062479 258.274117 
L 326.341818 258.147715 
L 329.621157 258.025938 
L 332.900496 257.908569 
L 336.179835 257.795404 
L 339.459174 257.686251 
L 342.738512 257.580928 
L 346.017851 257.479262 
L 349.29719 257.38109 
L 352.576529 257.286257 
L 355.855868 257.194617 
L 359.135207 257.106032 
L 362.414545 257.020369 
L 365.693884 256.937505 
L 368.973223 256.857321 
L 372.252562 256.779704 
L 375.531901 256.704548 
L 378.81124 256.631752 
L 382.090579 256.56122 
L 385.369917 256.49286 
L 388.649256 256.426584 
L 391.928595 256.362311 
L 395.207934 256.299962 
L 398.487273 256.239461 
" style="fill:none;stroke:#008000;stroke-linecap:square;stroke-width:1.5;"/>
   </g>
   <g id="line2d_31">
    <path clip-path="url(#p5c08897764)" d="M 73.832727 295.488 
L 77.112066 295.47567 
L 80.391405 295.438815 
L 83.670744 295.377841 
L 86.950083 295.293421 
L 90.229421 295.186489 
L 93.50876 295.058228 
L 96.788099 294.910064 
L 100.067438 294.743648 
L 103.346777 294.560843 
L 106.626116 294.363701 
L 109.905455 294.154447 
L 113.184793 293.935452 
L 116.464132 293.709207 
L 119.743471 293.478295 
L 123.02281 293.245359 
L 126.302149 293.013069 
L 129.581488 292.784087 
L 132.860826 292.561026 
L 136.140165 292.346408 
L 139.419504 292.142624 
L 142.698843 291.951886 
L 145.978182 291.776176 
L 149.257521 291.617198 
L 152.53686 291.476324 
L 155.816198 291.354536 
L 159.095537 291.252368 
L 162.374876 291.169846 
L 165.654215 291.106422 
L 168.933554 291.060911 
L 172.212893 291.03142 
L 175.492231 291.015275 
L 178.77157 291.008953 
L 182.050909 291.008 
L 185.330248 291.008 
L 188.609587 291.008 
L 191.888926 291.008 
L 195.168264 291.008 
L 198.447603 291.008 
L 201.726942 291.008 
L 205.006281 291.008 
L 208.28562 291.008 
L 211.564959 291.008 
L 214.844298 291.008 
L 218.123636 291.008 
L 221.402975 291.008 
L 224.682314 291.008 
L 227.961653 291.008 
L 231.240992 291.008 
L 234.520331 291.008 
L 237.799669 291.008 
L 241.079008 291.008 
L 244.358347 291.008 
L 247.637686 291.008 
L 250.917025 291.008 
L 254.196364 291.008 
L 257.475702 291.008 
L 260.755041 291.008 
L 264.03438 291.008 
L 267.313719 291.008 
L 270.593058 291.008 
L 273.872397 291.008 
L 277.151736 291.008 
L 280.431074 291.008 
L 283.710413 291.008 
L 286.989752 291.008 
L 290.269091 291.008 
L 293.54843 291.008 
L 296.827769 291.008 
L 300.107107 291.008 
L 303.386446 291.008 
L 306.665785 291.008 
L 309.945124 291.008 
L 313.224463 291.008 
L 316.503802 291.008 
L 319.78314 291.008 
L 323.062479 291.008 
L 326.341818 291.008 
L 329.621157 291.008 
L 332.900496 291.008 
L 336.179835 291.008 
L 339.459174 291.008 
L 342.738512 291.008 
L 346.017851 291.008 
L 349.29719 291.008 
L 352.576529 291.008 
L 355.855868 291.008 
L 359.135207 291.008 
L 362.414545 291.008 
L 365.693884 291.008 
L 368.973223 291.008 
L 372.252562 291.008 
L 375.531901 291.008 
L 378.81124 291.008 
L 382.090579 291.008 
L 385.369917 291.008 
L 388.649256 291.008 
L 391.928595 291.008 
L 395.207934 291.008 
L 398.487273 291.008 
" style="fill:none;stroke:#bfbf00;stroke-linecap:square;stroke-width:1.5;"/>
   </g>
   <g id="line2d_32">
    <path clip-path="url(#p5c08897764)" d="M 57.6 253.264995 
L 414.72 253.264995 
" style="fill:none;stroke:#008000;stroke-dasharray:1.5,2.475;stroke-dashoffset:0;stroke-width:1.5;"/>
   </g>
   <g id="line2d_33">
    <path clip-path="url(#p5c08897764)" d="M 57.6 291.008 
L 414.72 291.008 
" style="fill:none;stroke:#bfbf00;stroke-dasharray:1.5,2.475;stroke-dashoffset:0;stroke-width:1.5;"/>
   </g>
   <g id="patch_3">
    <path d="M 57.6 307.584 
L 57.6 41.472 
" style="fill:none;stroke:#000000;stroke-linecap:square;stroke-linejoin:miter;stroke-width:0.8;"/>
   </g>
   <g id="patch_4">
    <path d="M 414.72 307.584 
L 414.72 41.472 
" style="fill:none;stroke:#000000;stroke-linecap:square;stroke-linejoin:miter;stroke-width:0.8;"/>
   </g>
   <g id="patch_5">
    <path d="M 57.6 307.584 
L 414.72 307.584 
" style="fill:none;stroke:#000000;stroke-linecap:square;stroke-linejoin:miter;stroke-width:0.8;"/>
   </g>
   <g id="patch_6">
    <path d="M 57.6 41.472 
L 414.72 41.472 
" style="fill:none;stroke:#000000;stroke-linecap:square;stroke-linejoin:miter;stroke-width:0.8;"/>
   </g>
   <g id="text_15">
    <!-- asymptote -->
    <defs>
     <path d="M 34.28125 27.484375 
Q 23.390625 27.484375 19.1875 25 
Q 14.984375 22.515625 14.984375 16.5 
Q 14.984375 11.71875 18.140625 8.90625 
Q 21.296875 6.109375 26.703125 6.109375 
Q 34.1875 6.109375 38.703125 11.40625 
Q 43.21875 16.703125 43.21875 25.484375 
L 43.21875 27.484375 
z
M 52.203125 31.203125 
L 52.203125 0 
L 43.21875 0 
L 43.21875 8.296875 
Q 40.140625 3.328125 35.546875 0.953125 
Q 30.953125 -1.421875 24.3125 -1.421875 
Q 15.921875 -1.421875 10.953125 3.296875 
Q 6 8.015625 6 15.921875 
Q 6 25.140625 12.171875 29.828125 
Q 18.359375 34.515625 30.609375 34.515625 
L 43.21875 34.515625 
L 43.21875 35.40625 
Q 43.21875 41.609375 39.140625 45 
Q 35.0625 48.390625 27.6875 48.390625 
Q 23 48.390625 18.546875 47.265625 
Q 14.109375 46.140625 10.015625 43.890625 
L 10.015625 52.203125 
Q 14.9375 54.109375 19.578125 55.046875 
Q 24.21875 56 28.609375 56 
Q 40.484375 56 46.34375 49.84375 
Q 52.203125 43.703125 52.203125 31.203125 
z
" id="DejaVuSans-97"/>
     <path d="M 32.171875 -5.078125 
Q 28.375 -14.84375 24.75 -17.8125 
Q 21.140625 -20.796875 15.09375 -20.796875 
L 7.90625 -20.796875 
L 7.90625 -13.28125 
L 13.1875 -13.28125 
Q 16.890625 -13.28125 18.9375 -11.515625 
Q 21 -9.765625 23.484375 -3.21875 
L 25.09375 0.875 
L 2.984375 54.6875 
L 12.5 54.6875 
L 29.59375 11.921875 
L 46.6875 54.6875 
L 56.203125 54.6875 
z
" id="DejaVuSans-121"/>
     <path d="M 52 44.1875 
Q 55.375 50.25 60.0625 53.125 
Q 64.75 56 71.09375 56 
Q 79.640625 56 84.28125 50.015625 
Q 88.921875 44.046875 88.921875 33.015625 
L 88.921875 0 
L 79.890625 0 
L 79.890625 32.71875 
Q 79.890625 40.578125 77.09375 44.375 
Q 74.3125 48.1875 68.609375 48.1875 
Q 61.625 48.1875 57.5625 43.546875 
Q 53.515625 38.921875 53.515625 30.90625 
L 53.515625 0 
L 44.484375 0 
L 44.484375 32.71875 
Q 44.484375 40.625 41.703125 44.40625 
Q 38.921875 48.1875 33.109375 48.1875 
Q 26.21875 48.1875 22.15625 43.53125 
Q 18.109375 38.875 18.109375 30.90625 
L 18.109375 0 
L 9.078125 0 
L 9.078125 54.6875 
L 18.109375 54.6875 
L 18.109375 46.1875 
Q 21.1875 51.21875 25.484375 53.609375 
Q 29.78125 56 35.6875 56 
Q 41.65625 56 45.828125 52.96875 
Q 50 49.953125 52 44.1875 
z
" id="DejaVuSans-109"/>
     <path d="M 18.109375 8.203125 
L 18.109375 -20.796875 
L 9.078125 -20.796875 
L 9.078125 54.6875 
L 18.109375 54.6875 
L 18.109375 46.390625 
Q 20.953125 51.265625 25.265625 53.625 
Q 29.59375 56 35.59375 56 
Q 45.5625 56 51.78125 48.09375 
Q 58.015625 40.1875 58.015625 27.296875 
Q 58.015625 14.40625 51.78125 6.484375 
Q 45.5625 -1.421875 35.59375 -1.421875 
Q 29.59375 -1.421875 25.265625 0.953125 
Q 20.953125 3.328125 18.109375 8.203125 
z
M 48.6875 27.296875 
Q 48.6875 37.203125 44.609375 42.84375 
Q 40.53125 48.484375 33.40625 48.484375 
Q 26.265625 48.484375 22.1875 42.84375 
Q 18.109375 37.203125 18.109375 27.296875 
Q 18.109375 17.390625 22.1875 11.75 
Q 26.265625 6.109375 33.40625 6.109375 
Q 40.53125 6.109375 44.609375 11.75 
Q 48.6875 17.390625 48.6875 27.296875 
z
" id="DejaVuSans-112"/>
     <path d="M 18.3125 70.21875 
L 18.3125 54.6875 
L 36.8125 54.6875 
L 36.8125 47.703125 
L 18.3125 47.703125 
L 18.3125 18.015625 
Q 18.3125 11.328125 20.140625 9.421875 
Q 21.96875 7.515625 27.59375 7.515625 
L 36.8125 7.515625 
L 36.8125 0 
L 27.59375 0 
Q 17.1875 0 13.234375 3.875 
Q 9.28125 7.765625 9.28125 18.015625 
L 9.28125 47.703125 
L 2.6875 47.703125 
L 2.6875 54.6875 
L 9.28125 54.6875 
L 9.28125 70.21875 
z
" id="DejaVuSans-116"/>
     <path d="M 56.203125 29.59375 
L 56.203125 25.203125 
L 14.890625 25.203125 
Q 15.484375 15.921875 20.484375 11.0625 
Q 25.484375 6.203125 34.421875 6.203125 
Q 39.59375 6.203125 44.453125 7.46875 
Q 49.3125 8.734375 54.109375 11.28125 
L 54.109375 2.78125 
Q 49.265625 0.734375 44.1875 -0.34375 
Q 39.109375 -1.421875 33.890625 -1.421875 
Q 20.796875 -1.421875 13.15625 6.1875 
Q 5.515625 13.8125 5.515625 26.8125 
Q 5.515625 40.234375 12.765625 48.109375 
Q 20.015625 56 32.328125 56 
Q 43.359375 56 49.78125 48.890625 
Q 56.203125 41.796875 56.203125 29.59375 
z
M 47.21875 32.234375 
Q 47.125 39.59375 43.09375 43.984375 
Q 39.0625 48.390625 32.421875 48.390625 
Q 24.90625 48.390625 20.390625 44.140625 
Q 15.875 39.890625 15.1875 32.171875 
z
" id="DejaVuSans-101"/>
    </defs>
    <g style="fill:#008000;" transform="translate(84.654545 253.264995)scale(0.1 -0.1)">
     <use xlink:href="#DejaVuSans-97"/>
     <use x="61.279297" xlink:href="#DejaVuSans-115"/>
     <use x="113.378906" xlink:href="#DejaVuSans-121"/>
     <use x="172.558594" xlink:href="#DejaVuSans-109"/>
     <use x="269.970703" xlink:href="#DejaVuSans-112"/>
     <use x="333.447266" xlink:href="#DejaVuSans-116"/>
     <use x="372.65625" xlink:href="#DejaVuSans-111"/>
     <use x="433.837891" xlink:href="#DejaVuSans-116"/>
     <use x="473.046875" xlink:href="#DejaVuSans-101"/>
    </g>
   </g>
   <g id="text_16">
    <!-- upper bound -->
    <defs>
     <path d="M 8.5 21.578125 
L 8.5 54.6875 
L 17.484375 54.6875 
L 17.484375 21.921875 
Q 17.484375 14.15625 20.5 10.265625 
Q 23.53125 6.390625 29.59375 6.390625 
Q 36.859375 6.390625 41.078125 11.03125 
Q 45.3125 15.671875 45.3125 23.6875 
L 45.3125 54.6875 
L 54.296875 54.6875 
L 54.296875 0 
L 45.3125 0 
L 45.3125 8.40625 
Q 42.046875 3.421875 37.71875 1 
Q 33.40625 -1.421875 27.6875 -1.421875 
Q 18.265625 -1.421875 13.375 4.4375 
Q 8.5 10.296875 8.5 21.578125 
z
M 31.109375 56 
z
" id="DejaVuSans-117"/>
     <path d="M 41.109375 46.296875 
Q 39.59375 47.171875 37.8125 47.578125 
Q 36.03125 48 33.890625 48 
Q 26.265625 48 22.1875 43.046875 
Q 18.109375 38.09375 18.109375 28.8125 
L 18.109375 0 
L 9.078125 0 
L 9.078125 54.6875 
L 18.109375 54.6875 
L 18.109375 46.1875 
Q 20.953125 51.171875 25.484375 53.578125 
Q 30.03125 56 36.53125 56 
Q 37.453125 56 38.578125 55.875 
Q 39.703125 55.765625 41.0625 55.515625 
z
" id="DejaVuSans-114"/>
     <path id="DejaVuSans-32"/>
     <path d="M 48.6875 27.296875 
Q 48.6875 37.203125 44.609375 42.84375 
Q 40.53125 48.484375 33.40625 48.484375 
Q 26.265625 48.484375 22.1875 42.84375 
Q 18.109375 37.203125 18.109375 27.296875 
Q 18.109375 17.390625 22.1875 11.75 
Q 26.265625 6.109375 33.40625 6.109375 
Q 40.53125 6.109375 44.609375 11.75 
Q 48.6875 17.390625 48.6875 27.296875 
z
M 18.109375 46.390625 
Q 20.953125 51.265625 25.265625 53.625 
Q 29.59375 56 35.59375 56 
Q 45.5625 56 51.78125 48.09375 
Q 58.015625 40.1875 58.015625 27.296875 
Q 58.015625 14.40625 51.78125 6.484375 
Q 45.5625 -1.421875 35.59375 -1.421875 
Q 29.59375 -1.421875 25.265625 0.953125 
Q 20.953125 3.328125 18.109375 8.203125 
L 18.109375 0 
L 9.078125 0 
L 9.078125 75.984375 
L 18.109375 75.984375 
z
" id="DejaVuSans-98"/>
     <path d="M 54.890625 33.015625 
L 54.890625 0 
L 45.90625 0 
L 45.90625 32.71875 
Q 45.90625 40.484375 42.875 44.328125 
Q 39.84375 48.1875 33.796875 48.1875 
Q 26.515625 48.1875 22.3125 43.546875 
Q 18.109375 38.921875 18.109375 30.90625 
L 18.109375 0 
L 9.078125 0 
L 9.078125 54.6875 
L 18.109375 54.6875 
L 18.109375 46.1875 
Q 21.34375 51.125 25.703125 53.5625 
Q 30.078125 56 35.796875 56 
Q 45.21875 56 50.046875 50.171875 
Q 54.890625 44.34375 54.890625 33.015625 
z
" id="DejaVuSans-110"/>
     <path d="M 45.40625 46.390625 
L 45.40625 75.984375 
L 54.390625 75.984375 
L 54.390625 0 
L 45.40625 0 
L 45.40625 8.203125 
Q 42.578125 3.328125 38.25 0.953125 
Q 33.9375 -1.421875 27.875 -1.421875 
Q 17.96875 -1.421875 11.734375 6.484375 
Q 5.515625 14.40625 5.515625 27.296875 
Q 5.515625 40.1875 11.734375 48.09375 
Q 17.96875 56 27.875 56 
Q 33.9375 56 38.25 53.625 
Q 42.578125 51.265625 45.40625 46.390625 
z
M 14.796875 27.296875 
Q 14.796875 17.390625 18.875 11.75 
Q 22.953125 6.109375 30.078125 6.109375 
Q 37.203125 6.109375 41.296875 11.75 
Q 45.40625 17.390625 45.40625 27.296875 
Q 45.40625 37.203125 41.296875 42.84375 
Q 37.203125 48.484375 30.078125 48.484375 
Q 22.953125 48.484375 18.875 42.84375 
Q 14.796875 37.203125 14.796875 27.296875 
z
" id="DejaVuSans-100"/>
    </defs>
    <g style="fill:#bfbf00;" transform="translate(84.654545 291.008)scale(0.1 -0.1)">
     <use xlink:href="#DejaVuSans-117"/>
     <use x="63.378906" xlink:href="#DejaVuSans-112"/>
     <use x="126.855469" xlink:href="#DejaVuSans-112"/>
     <use x="190.332031" xlink:href="#DejaVuSans-101"/>
     <use x="251.855469" xlink:href="#DejaVuSans-114"/>
     <use x="292.96875" xlink:href="#DejaVuSans-32"/>
     <use x="324.755859" xlink:href="#DejaVuSans-98"/>
     <use x="388.232422" xlink:href="#DejaVuSans-111"/>
     <use x="449.414062" xlink:href="#DejaVuSans-117"/>
     <use x="512.792969" xlink:href="#DejaVuSans-110"/>
     <use x="576.171875" xlink:href="#DejaVuSans-100"/>
    </g>
   </g>
   <g id="text_17">
    <!-- Loss depending on loss-function and residual vector $\vec{r}$ -->
    <defs>
     <path d="M 9.8125 72.90625 
L 19.671875 72.90625 
L 19.671875 8.296875 
L 55.171875 8.296875 
L 55.171875 0 
L 9.8125 0 
z
" id="DejaVuSans-76"/>
     <path d="M 9.421875 54.6875 
L 18.40625 54.6875 
L 18.40625 0 
L 9.421875 0 
z
M 9.421875 75.984375 
L 18.40625 75.984375 
L 18.40625 64.59375 
L 9.421875 64.59375 
z
" id="DejaVuSans-105"/>
     <path d="M 45.40625 27.984375 
Q 45.40625 37.75 41.375 43.109375 
Q 37.359375 48.484375 30.078125 48.484375 
Q 22.859375 48.484375 18.828125 43.109375 
Q 14.796875 37.75 14.796875 27.984375 
Q 14.796875 18.265625 18.828125 12.890625 
Q 22.859375 7.515625 30.078125 7.515625 
Q 37.359375 7.515625 41.375 12.890625 
Q 45.40625 18.265625 45.40625 27.984375 
z
M 54.390625 6.78125 
Q 54.390625 -7.171875 48.1875 -13.984375 
Q 42 -20.796875 29.203125 -20.796875 
Q 24.46875 -20.796875 20.265625 -20.09375 
Q 16.0625 -19.390625 12.109375 -17.921875 
L 12.109375 -9.1875 
Q 16.0625 -11.328125 19.921875 -12.34375 
Q 23.78125 -13.375 27.78125 -13.375 
Q 36.625 -13.375 41.015625 -8.765625 
Q 45.40625 -4.15625 45.40625 5.171875 
L 45.40625 9.625 
Q 42.625 4.78125 38.28125 2.390625 
Q 33.9375 0 27.875 0 
Q 17.828125 0 11.671875 7.65625 
Q 5.515625 15.328125 5.515625 27.984375 
Q 5.515625 40.671875 11.671875 48.328125 
Q 17.828125 56 27.875 56 
Q 33.9375 56 38.28125 53.609375 
Q 42.625 51.21875 45.40625 46.390625 
L 45.40625 54.6875 
L 54.390625 54.6875 
z
" id="DejaVuSans-103"/>
     <path d="M 4.890625 31.390625 
L 31.203125 31.390625 
L 31.203125 23.390625 
L 4.890625 23.390625 
z
" id="DejaVuSans-45"/>
     <path d="M 37.109375 75.984375 
L 37.109375 68.5 
L 28.515625 68.5 
Q 23.6875 68.5 21.796875 66.546875 
Q 19.921875 64.59375 19.921875 59.515625 
L 19.921875 54.6875 
L 34.71875 54.6875 
L 34.71875 47.703125 
L 19.921875 47.703125 
L 19.921875 0 
L 10.890625 0 
L 10.890625 47.703125 
L 2.296875 47.703125 
L 2.296875 54.6875 
L 10.890625 54.6875 
L 10.890625 58.5 
Q 10.890625 67.625 15.140625 71.796875 
Q 19.390625 75.984375 28.609375 75.984375 
z
" id="DejaVuSans-102"/>
     <path d="M 48.78125 52.59375 
L 48.78125 44.1875 
Q 44.96875 46.296875 41.140625 47.34375 
Q 37.3125 48.390625 33.40625 48.390625 
Q 24.65625 48.390625 19.8125 42.84375 
Q 14.984375 37.3125 14.984375 27.296875 
Q 14.984375 17.28125 19.8125 11.734375 
Q 24.65625 6.203125 33.40625 6.203125 
Q 37.3125 6.203125 41.140625 7.25 
Q 44.96875 8.296875 48.78125 10.40625 
L 48.78125 2.09375 
Q 45.015625 0.34375 40.984375 -0.53125 
Q 36.96875 -1.421875 32.421875 -1.421875 
Q 20.0625 -1.421875 12.78125 6.34375 
Q 5.515625 14.109375 5.515625 27.296875 
Q 5.515625 40.671875 12.859375 48.328125 
Q 20.21875 56 33.015625 56 
Q 37.15625 56 41.109375 55.140625 
Q 45.0625 54.296875 48.78125 52.59375 
z
" id="DejaVuSans-99"/>
     <path d="M 2.984375 54.6875 
L 12.5 54.6875 
L 29.59375 8.796875 
L 46.6875 54.6875 
L 56.203125 54.6875 
L 35.6875 0 
L 23.484375 0 
z
" id="DejaVuSans-118"/>
    </defs>
    <g transform="translate(75.18 35.472)scale(0.12 -0.12)">
     <use transform="translate(0 0.46875)" xlink:href="#DejaVuSans-76"/>
     <use transform="translate(55.712891 0.46875)" xlink:href="#DejaVuSans-111"/>
     <use transform="translate(116.894531 0.46875)" xlink:href="#DejaVuSans-115"/>
     <use transform="translate(168.994141 0.46875)" xlink:href="#DejaVuSans-115"/>
     <use transform="translate(221.09375 0.46875)" xlink:href="#DejaVuSans-32"/>
     <use transform="translate(252.880859 0.46875)" xlink:href="#DejaVuSans-100"/>
     <use transform="translate(316.357422 0.46875)" xlink:href="#DejaVuSans-101"/>
     <use transform="translate(377.880859 0.46875)" xlink:href="#DejaVuSans-112"/>
     <use transform="translate(441.357422 0.46875)" xlink:href="#DejaVuSans-101"/>
     <use transform="translate(502.880859 0.46875)" xlink:href="#DejaVuSans-110"/>
     <use transform="translate(566.259766 0.46875)" xlink:href="#DejaVuSans-100"/>
     <use transform="translate(629.736328 0.46875)" xlink:href="#DejaVuSans-105"/>
     <use transform="translate(657.519531 0.46875)" xlink:href="#DejaVuSans-110"/>
     <use transform="translate(720.898438 0.46875)" xlink:href="#DejaVuSans-103"/>
     <use transform="translate(784.375 0.46875)" xlink:href="#DejaVuSans-32"/>
     <use transform="translate(816.162109 0.46875)" xlink:href="#DejaVuSans-111"/>
     <use transform="translate(877.34375 0.46875)" xlink:href="#DejaVuSans-110"/>
     <use transform="translate(940.722656 0.46875)" xlink:href="#DejaVuSans-32"/>
     <use transform="translate(972.509766 0.46875)" xlink:href="#DejaVuSans-108"/>
     <use transform="translate(1000.292969 0.46875)" xlink:href="#DejaVuSans-111"/>
     <use transform="translate(1061.474609 0.46875)" xlink:href="#DejaVuSans-115"/>
     <use transform="translate(1113.574219 0.46875)" xlink:href="#DejaVuSans-115"/>
     <use transform="translate(1165.673828 0.46875)" xlink:href="#DejaVuSans-45"/>
     <use transform="translate(1201.757812 0.46875)" xlink:href="#DejaVuSans-102"/>
     <use transform="translate(1236.962891 0.46875)" xlink:href="#DejaVuSans-117"/>
     <use transform="translate(1300.341797 0.46875)" xlink:href="#DejaVuSans-110"/>
     <use transform="translate(1363.720703 0.46875)" xlink:href="#DejaVuSans-99"/>
     <use transform="translate(1418.701172 0.46875)" xlink:href="#DejaVuSans-116"/>
     <use transform="translate(1457.910156 0.46875)" xlink:href="#DejaVuSans-105"/>
     <use transform="translate(1485.693359 0.46875)" xlink:href="#DejaVuSans-111"/>
     <use transform="translate(1546.875 0.46875)" xlink:href="#DejaVuSans-110"/>
     <use transform="translate(1610.253906 0.46875)" xlink:href="#DejaVuSans-32"/>
     <use transform="translate(1642.041016 0.46875)" xlink:href="#DejaVuSans-97"/>
     <use transform="translate(1703.320312 0.46875)" xlink:href="#DejaVuSans-110"/>
     <use transform="translate(1766.699219 0.46875)" xlink:href="#DejaVuSans-100"/>
     <use transform="translate(1830.175781 0.46875)" xlink:href="#DejaVuSans-32"/>
     <use transform="translate(1861.962891 0.46875)" xlink:href="#DejaVuSans-114"/>
     <use transform="translate(1903.076172 0.46875)" xlink:href="#DejaVuSans-101"/>
     <use transform="translate(1964.599609 0.46875)" xlink:href="#DejaVuSans-115"/>
     <use transform="translate(2016.699219 0.46875)" xlink:href="#DejaVuSans-105"/>
     <use transform="translate(2044.482422 0.46875)" xlink:href="#DejaVuSans-100"/>
     <use transform="translate(2107.958984 0.46875)" xlink:href="#DejaVuSans-117"/>
     <use transform="translate(2171.337891 0.46875)" xlink:href="#DejaVuSans-97"/>
     <use transform="translate(2232.617188 0.46875)" xlink:href="#DejaVuSans-108"/>
     <use transform="translate(2260.400391 0.46875)" xlink:href="#DejaVuSans-32"/>
     <use transform="translate(2292.1875 0.46875)" xlink:href="#DejaVuSans-118"/>
     <use transform="translate(2351.367188 0.46875)" xlink:href="#DejaVuSans-101"/>
     <use transform="translate(2412.890625 0.46875)" xlink:href="#DejaVuSans-99"/>
     <use transform="translate(2467.871094 0.46875)" xlink:href="#DejaVuSans-116"/>
     <use transform="translate(2507.080078 0.46875)" xlink:href="#DejaVuSans-111"/>
     <use transform="translate(2568.261719 0.46875)" xlink:href="#DejaVuSans-114"/>
     <use transform="translate(2609.375 0.46875)" xlink:href="#DejaVuSans-32"/>
     <use transform="translate(2691.456055 13.015625)" xlink:href="#DejaVuSans-8407"/>
     <use transform="translate(2641.162109 0.46875)" xlink:href="#DejaVuSans-Oblique-114"/>
    </g>
   </g>
   <g id="legend_1">
    <g id="patch_7">
     <path d="M 64.6 152.218875 
L 179.342187 152.218875 
Q 181.342187 152.218875 181.342187 150.218875 
L 181.342187 48.472 
Q 181.342187 46.472 179.342187 46.472 
L 64.6 46.472 
Q 62.6 46.472 62.6 48.472 
L 62.6 150.218875 
Q 62.6 152.218875 64.6 152.218875 
z
" style="fill:#ffffff;opacity:0.8;stroke:#cccccc;stroke-linejoin:miter;"/>
    </g>
    <g id="line2d_34">
     <path d="M 66.6 54.570438 
L 86.6 54.570438 
" style="fill:none;stroke:#ff0000;stroke-linecap:square;stroke-width:1.5;"/>
    </g>
    <g id="line2d_35"/>
    <g id="text_18">
     <!-- Trivial -->
     <defs>
      <path d="M -0.296875 72.90625 
L 61.375 72.90625 
L 61.375 64.59375 
L 35.5 64.59375 
L 35.5 0 
L 25.59375 0 
L 25.59375 64.59375 
L -0.296875 64.59375 
z
" id="DejaVuSans-84"/>
     </defs>
     <g transform="translate(94.6 58.070438)scale(0.1 -0.1)">
      <use xlink:href="#DejaVuSans-84"/>
      <use x="46.333984" xlink:href="#DejaVuSans-114"/>
      <use x="87.447266" xlink:href="#DejaVuSans-105"/>
      <use x="115.230469" xlink:href="#DejaVuSans-118"/>
      <use x="174.410156" xlink:href="#DejaVuSans-105"/>
      <use x="202.193359" xlink:href="#DejaVuSans-97"/>
      <use x="263.472656" xlink:href="#DejaVuSans-108"/>
     </g>
    </g>
    <g id="line2d_36">
     <path d="M 66.6 69.248563 
L 86.6 69.248563 
" style="fill:none;stroke:#bf00bf;stroke-linecap:square;stroke-width:1.5;"/>
    </g>
    <g id="line2d_37"/>
    <g id="text_19">
     <!-- Tolerant(1.0,0.5) -->
     <defs>
      <path d="M 11.71875 12.40625 
L 22.015625 12.40625 
L 22.015625 4 
L 14.015625 -11.625 
L 7.71875 -11.625 
L 11.71875 4 
z
" id="DejaVuSans-44"/>
     </defs>
     <g transform="translate(94.6 72.748563)scale(0.1 -0.1)">
      <use xlink:href="#DejaVuSans-84"/>
      <use x="44.083984" xlink:href="#DejaVuSans-111"/>
      <use x="105.265625" xlink:href="#DejaVuSans-108"/>
      <use x="133.048828" xlink:href="#DejaVuSans-101"/>
      <use x="194.572266" xlink:href="#DejaVuSans-114"/>
      <use x="235.685547" xlink:href="#DejaVuSans-97"/>
      <use x="296.964844" xlink:href="#DejaVuSans-110"/>
      <use x="360.34375" xlink:href="#DejaVuSans-116"/>
      <use x="399.552734" xlink:href="#DejaVuSans-40"/>
      <use x="438.566406" xlink:href="#DejaVuSans-49"/>
      <use x="502.189453" xlink:href="#DejaVuSans-46"/>
      <use x="533.976562" xlink:href="#DejaVuSans-48"/>
      <use x="597.599609" xlink:href="#DejaVuSans-44"/>
      <use x="629.386719" xlink:href="#DejaVuSans-48"/>
      <use x="693.009766" xlink:href="#DejaVuSans-46"/>
      <use x="724.796875" xlink:href="#DejaVuSans-53"/>
      <use x="788.419922" xlink:href="#DejaVuSans-41"/>
     </g>
    </g>
    <g id="line2d_38">
     <path d="M 66.6 83.926688 
L 86.6 83.926688 
" style="fill:none;stroke:#0000ff;stroke-linecap:square;stroke-width:1.5;"/>
    </g>
    <g id="line2d_39"/>
    <g id="text_20">
     <!-- Huber(1.0) -->
     <defs>
      <path d="M 9.8125 72.90625 
L 19.671875 72.90625 
L 19.671875 43.015625 
L 55.515625 43.015625 
L 55.515625 72.90625 
L 65.375 72.90625 
L 65.375 0 
L 55.515625 0 
L 55.515625 34.71875 
L 19.671875 34.71875 
L 19.671875 0 
L 9.8125 0 
z
" id="DejaVuSans-72"/>
     </defs>
     <g transform="translate(94.6 87.426688)scale(0.1 -0.1)">
      <use xlink:href="#DejaVuSans-72"/>
      <use x="75.195312" xlink:href="#DejaVuSans-117"/>
      <use x="138.574219" xlink:href="#DejaVuSans-98"/>
      <use x="202.050781" xlink:href="#DejaVuSans-101"/>
      <use x="263.574219" xlink:href="#DejaVuSans-114"/>
      <use x="304.6875" xlink:href="#DejaVuSans-40"/>
      <use x="343.701172" xlink:href="#DejaVuSans-49"/>
      <use x="407.324219" xlink:href="#DejaVuSans-46"/>
      <use x="439.111328" xlink:href="#DejaVuSans-48"/>
      <use x="502.734375" xlink:href="#DejaVuSans-41"/>
     </g>
    </g>
    <g id="line2d_40">
     <path d="M 66.6 98.604813 
L 86.6 98.604813 
" style="fill:none;stroke:#000000;stroke-linecap:square;stroke-width:1.5;"/>
    </g>
    <g id="line2d_41"/>
    <g id="text_21">
     <!-- SoftLOne(1.0) -->
     <defs>
      <path d="M 53.515625 70.515625 
L 53.515625 60.890625 
Q 47.90625 63.578125 42.921875 64.890625 
Q 37.9375 66.21875 33.296875 66.21875 
Q 25.25 66.21875 20.875 63.09375 
Q 16.5 59.96875 16.5 54.203125 
Q 16.5 49.359375 19.40625 46.890625 
Q 22.3125 44.4375 30.421875 42.921875 
L 36.375 41.703125 
Q 47.40625 39.59375 52.65625 34.296875 
Q 57.90625 29 57.90625 20.125 
Q 57.90625 9.515625 50.796875 4.046875 
Q 43.703125 -1.421875 29.984375 -1.421875 
Q 24.8125 -1.421875 18.96875 -0.25 
Q 13.140625 0.921875 6.890625 3.21875 
L 6.890625 13.375 
Q 12.890625 10.015625 18.65625 8.296875 
Q 24.421875 6.59375 29.984375 6.59375 
Q 38.421875 6.59375 43.015625 9.90625 
Q 47.609375 13.234375 47.609375 19.390625 
Q 47.609375 24.75 44.3125 27.78125 
Q 41.015625 30.8125 33.5 32.328125 
L 27.484375 33.5 
Q 16.453125 35.6875 11.515625 40.375 
Q 6.59375 45.0625 6.59375 53.421875 
Q 6.59375 63.09375 13.40625 68.65625 
Q 20.21875 74.21875 32.171875 74.21875 
Q 37.3125 74.21875 42.625 73.28125 
Q 47.953125 72.359375 53.515625 70.515625 
z
" id="DejaVuSans-83"/>
      <path d="M 39.40625 66.21875 
Q 28.65625 66.21875 22.328125 58.203125 
Q 16.015625 50.203125 16.015625 36.375 
Q 16.015625 22.609375 22.328125 14.59375 
Q 28.65625 6.59375 39.40625 6.59375 
Q 50.140625 6.59375 56.421875 14.59375 
Q 62.703125 22.609375 62.703125 36.375 
Q 62.703125 50.203125 56.421875 58.203125 
Q 50.140625 66.21875 39.40625 66.21875 
z
M 39.40625 74.21875 
Q 54.734375 74.21875 63.90625 63.9375 
Q 73.09375 53.65625 73.09375 36.375 
Q 73.09375 19.140625 63.90625 8.859375 
Q 54.734375 -1.421875 39.40625 -1.421875 
Q 24.03125 -1.421875 14.8125 8.828125 
Q 5.609375 19.09375 5.609375 36.375 
Q 5.609375 53.65625 14.8125 63.9375 
Q 24.03125 74.21875 39.40625 74.21875 
z
" id="DejaVuSans-79"/>
     </defs>
     <g transform="translate(94.6 102.104813)scale(0.1 -0.1)">
      <use xlink:href="#DejaVuSans-83"/>
      <use x="63.476562" xlink:href="#DejaVuSans-111"/>
      <use x="124.658203" xlink:href="#DejaVuSans-102"/>
      <use x="158.113281" xlink:href="#DejaVuSans-116"/>
      <use x="197.322266" xlink:href="#DejaVuSans-76"/>
      <use x="249.410156" xlink:href="#DejaVuSans-79"/>
      <use x="328.121094" xlink:href="#DejaVuSans-110"/>
      <use x="391.5" xlink:href="#DejaVuSans-101"/>
      <use x="453.023438" xlink:href="#DejaVuSans-40"/>
      <use x="492.037109" xlink:href="#DejaVuSans-49"/>
      <use x="555.660156" xlink:href="#DejaVuSans-46"/>
      <use x="587.447266" xlink:href="#DejaVuSans-48"/>
      <use x="651.070312" xlink:href="#DejaVuSans-41"/>
     </g>
    </g>
    <g id="line2d_42">
     <path d="M 66.6 113.282938 
L 86.6 113.282938 
" style="fill:none;stroke:#00bfbf;stroke-linecap:square;stroke-width:1.5;"/>
    </g>
    <g id="line2d_43"/>
    <g id="text_22">
     <!-- Cauchy(1.0) -->
     <defs>
      <path d="M 64.40625 67.28125 
L 64.40625 56.890625 
Q 59.421875 61.53125 53.78125 63.8125 
Q 48.140625 66.109375 41.796875 66.109375 
Q 29.296875 66.109375 22.65625 58.46875 
Q 16.015625 50.828125 16.015625 36.375 
Q 16.015625 21.96875 22.65625 14.328125 
Q 29.296875 6.6875 41.796875 6.6875 
Q 48.140625 6.6875 53.78125 8.984375 
Q 59.421875 11.28125 64.40625 15.921875 
L 64.40625 5.609375 
Q 59.234375 2.09375 53.4375 0.328125 
Q 47.65625 -1.421875 41.21875 -1.421875 
Q 24.65625 -1.421875 15.125 8.703125 
Q 5.609375 18.84375 5.609375 36.375 
Q 5.609375 53.953125 15.125 64.078125 
Q 24.65625 74.21875 41.21875 74.21875 
Q 47.75 74.21875 53.53125 72.484375 
Q 59.328125 70.75 64.40625 67.28125 
z
" id="DejaVuSans-67"/>
      <path d="M 54.890625 33.015625 
L 54.890625 0 
L 45.90625 0 
L 45.90625 32.71875 
Q 45.90625 40.484375 42.875 44.328125 
Q 39.84375 48.1875 33.796875 48.1875 
Q 26.515625 48.1875 22.3125 43.546875 
Q 18.109375 38.921875 18.109375 30.90625 
L 18.109375 0 
L 9.078125 0 
L 9.078125 75.984375 
L 18.109375 75.984375 
L 18.109375 46.1875 
Q 21.34375 51.125 25.703125 53.5625 
Q 30.078125 56 35.796875 56 
Q 45.21875 56 50.046875 50.171875 
Q 54.890625 44.34375 54.890625 33.015625 
z
" id="DejaVuSans-104"/>
     </defs>
     <g transform="translate(94.6 116.782938)scale(0.1 -0.1)">
      <use xlink:href="#DejaVuSans-67"/>
      <use x="69.824219" xlink:href="#DejaVuSans-97"/>
      <use x="131.103516" xlink:href="#DejaVuSans-117"/>
      <use x="194.482422" xlink:href="#DejaVuSans-99"/>
      <use x="249.462891" xlink:href="#DejaVuSans-104"/>
      <use x="312.841797" xlink:href="#DejaVuSans-121"/>
      <use x="372.021484" xlink:href="#DejaVuSans-40"/>
      <use x="411.035156" xlink:href="#DejaVuSans-49"/>
      <use x="474.658203" xlink:href="#DejaVuSans-46"/>
      <use x="506.445312" xlink:href="#DejaVuSans-48"/>
      <use x="570.068359" xlink:href="#DejaVuSans-41"/>
     </g>
    </g>
    <g id="line2d_44">
     <path d="M 66.6 127.961063 
L 86.6 127.961063 
" style="fill:none;stroke:#008000;stroke-linecap:square;stroke-width:1.5;"/>
    </g>
    <g id="line2d_45"/>
    <g id="text_23">
     <!-- Arctan(1.0) -->
     <defs>
      <path d="M 34.1875 63.1875 
L 20.796875 26.90625 
L 47.609375 26.90625 
z
M 28.609375 72.90625 
L 39.796875 72.90625 
L 67.578125 0 
L 57.328125 0 
L 50.6875 18.703125 
L 17.828125 18.703125 
L 11.1875 0 
L 0.78125 0 
z
" id="DejaVuSans-65"/>
     </defs>
     <g transform="translate(94.6 131.461063)scale(0.1 -0.1)">
      <use xlink:href="#DejaVuSans-65"/>
      <use x="68.408203" xlink:href="#DejaVuSans-114"/>
      <use x="107.271484" xlink:href="#DejaVuSans-99"/>
      <use x="162.251953" xlink:href="#DejaVuSans-116"/>
      <use x="201.460938" xlink:href="#DejaVuSans-97"/>
      <use x="262.740234" xlink:href="#DejaVuSans-110"/>
      <use x="326.119141" xlink:href="#DejaVuSans-40"/>
      <use x="365.132812" xlink:href="#DejaVuSans-49"/>
      <use x="428.755859" xlink:href="#DejaVuSans-46"/>
      <use x="460.542969" xlink:href="#DejaVuSans-48"/>
      <use x="524.166016" xlink:href="#DejaVuSans-41"/>
     </g>
    </g>
    <g id="line2d_46">
     <path d="M 66.6 142.639188 
L 86.6 142.639188 
" style="fill:none;stroke:#bfbf00;stroke-linecap:square;stroke-width:1.5;"/>
    </g>
    <g id="line2d_47"/>
    <g id="text_24">
     <!-- Tukey(1.0) -->
     <defs>
      <path d="M 9.078125 75.984375 
L 18.109375 75.984375 
L 18.109375 31.109375 
L 44.921875 54.6875 
L 56.390625 54.6875 
L 27.390625 29.109375 
L 57.625 0 
L 45.90625 0 
L 18.109375 26.703125 
L 18.109375 0 
L 9.078125 0 
z
" id="DejaVuSans-107"/>
     </defs>
     <g transform="translate(94.6 146.139188)scale(0.1 -0.1)">
      <use xlink:href="#DejaVuSans-84"/>
      <use x="45.958984" xlink:href="#DejaVuSans-117"/>
      <use x="109.337891" xlink:href="#DejaVuSans-107"/>
      <use x="163.623047" xlink:href="#DejaVuSans-101"/>
      <use x="225.146484" xlink:href="#DejaVuSans-121"/>
      <use x="284.326172" xlink:href="#DejaVuSans-40"/>
      <use x="323.339844" xlink:href="#DejaVuSans-49"/>
      <use x="386.962891" xlink:href="#DejaVuSans-46"/>
      <use x="418.75" xlink:href="#DejaVuSans-48"/>
      <use x="482.373047" xlink:href="#DejaVuSans-41"/>
     </g>
    </g>
   </g>
  </g>
 </g>
 <defs>
  <clipPath id="p5c08897764">
   <rect height="266.112" width="357.12" x="57.6" y="41.472"/>
  </clipPath>
 </defs>
</svg>
