<?xml version="1.0" encoding="utf-8" standalone="no"?>
<!DOCTYPE svg PUBLIC "-//W3C//DTD SVG 1.1//EN"
  "http://www.w3.org/Graphics/SVG/1.1/DTD/svg11.dtd">
<!-- Created with matplotlib (https://matplotlib.org/) -->
<svg height="345.6pt" version="1.1" viewBox="0 0 460.8 345.6" width="460.8pt" xmlns="http://www.w3.org/2000/svg" xmlns:xlink="http://www.w3.org/1999/xlink">
 <defs>
  <style type="text/css">
*{stroke-linecap:butt;stroke-linejoin:round;}
  </style>
 </defs>
 <g id="figure_1">
  <g id="patch_1">
   <path d="M 0 345.6 
L 460.8 345.6 
L 460.8 0 
L 0 0 
z
" style="fill:#ffffff;"/>
  </g>
  <g id="axes_1">
   <g id="patch_2">
    <path d="M 57.6 307.584 
L 414.72 307.584 
L 414.72 41.472 
L 57.6 41.472 
z
" style="fill:#ffffff;"/>
   </g>
   <g id="line2d_1">
    <path clip-path="url(#p6c24e80f99)" d="M 73.832727 295.488 
L 77.112066 295.453409 
L 80.391405 295.349637 
L 83.670744 295.176683 
L 86.950083 294.934548 
L 90.229421 294.623232 
L 93.50876 294.242734 
L 96.788099 293.793054 
L 100.067438 293.274193 
L 103.346777 292.686151 
L 106.626116 292.028927 
L 109.905455 291.302522 
L 113.184793 290.506935 
L 116.464132 289.642167 
L 119.743471 288.708217 
L 123.02281 287.705086 
L 126.302149 286.632773 
L 129.581488 285.491279 
L 132.860826 284.280604 
L 136.140165 283.000747 
L 139.419504 281.651708 
L 142.698843 280.233488 
L 145.978182 278.746087 
L 149.257521 277.189504 
L 152.53686 275.56374 
L 155.816198 273.868794 
L 159.095537 272.104667 
L 162.374876 270.271358 
L 165.654215 268.368868 
L 168.933554 266.397196 
L 172.212893 264.356343 
L 175.492231 262.246309 
L 178.77157 260.067093 
L 182.050909 257.818695 
L 185.330248 255.501117 
L 188.609587 253.114356 
L 191.888926 250.658414 
L 195.168264 248.133291 
L 198.447603 245.538986 
L 201.726942 242.8755 
L 205.006281 240.142833 
L 208.28562 237.340983 
L 211.564959 234.469953 
L 214.844298 231.529741 
L 218.123636 228.520347 
L 221.402975 225.441772 
L 224.682314 222.294016 
L 227.961653 219.077078 
L 231.240992 215.790959 
L 234.520331 212.435658 
L 237.799669 209.011176 
L 241.079008 205.517512 
L 244.358347 201.954667 
L 247.637686 198.32264 
L 250.917025 194.621432 
L 254.196364 190.851043 
L 257.475702 187.011472 
L 260.755041 183.102719 
L 264.03438 179.124786 
L 267.313719 175.07767 
L 270.593058 170.961373 
L 273.872397 166.775895 
L 277.151736 162.521235 
L 280.431074 158.197394 
L 283.710413 153.804371 
L 286.989752 149.342167 
L 290.269091 144.810782 
L 293.54843 140.210215 
L 296.827769 135.540466 
L 300.107107 130.801536 
L 303.386446 125.993425 
L 306.665785 121.116132 
L 309.945124 116.169658 
L 313.224463 111.154002 
L 316.503802 106.069165 
L 319.78314 100.915146 
L 323.062479 95.691946 
L 326.341818 90.399564 
L 329.621157 85.038001 
L 332.900496 79.607256 
L 336.179835 74.10733 
L 339.459174 68.538223 
L 342.738512 62.899934 
L 346.017851 57.192464 
L 349.29719 51.415812 
L 352.576529 45.569978 
L 355.855868 39.654964 
L 359.135207 33.670767 
L 362.414545 27.61739 
L 365.693884 21.494831 
L 368.973223 15.30309 
L 372.252562 9.042168 
L 375.531901 2.712064 
L 377.434163 -1 
" style="fill:none;stroke:#ff0000;stroke-linecap:square;stroke-width:1.5;"/>
   </g>
   <g id="matplotlib.axis_1">
    <g id="xtick_1">
     <g id="line2d_2">
      <path clip-path="url(#p6c24e80f99)" d="M 73.832727 307.584 
L 73.832727 41.472 
" style="fill:none;stroke:#b0b0b0;stroke-linecap:square;stroke-width:0.8;"/>
     </g>
     <g id="line2d_3">
      <defs>
       <path d="M 0 0 
L 0 3.5 
" id="mb0e9b4071b" style="stroke:#000000;stroke-width:0.8;"/>
      </defs>
      <g>
       <use style="stroke:#000000;stroke-width:0.8;" x="73.832727" xlink:href="#mb0e9b4071b" y="307.584"/>
      </g>
     </g>
     <g id="text_1">
      <!-- 0.0 -->
      <defs>
       <path d="M 31.78125 66.40625 
Q 24.171875 66.40625 20.328125 58.90625 
Q 16.5 51.421875 16.5 36.375 
Q 16.5 21.390625 20.328125 13.890625 
Q 24.171875 6.390625 31.78125 6.390625 
Q 39.453125 6.390625 43.28125 13.890625 
Q 47.125 21.390625 47.125 36.375 
Q 47.125 51.421875 43.28125 58.90625 
Q 39.453125 66.40625 31.78125 66.40625 
z
M 31.78125 74.21875 
Q 44.046875 74.21875 50.515625 64.515625 
Q 56.984375 54.828125 56.984375 36.375 
Q 56.984375 17.96875 50.515625 8.265625 
Q 44.046875 -1.421875 31.78125 -1.421875 
Q 19.53125 -1.421875 13.0625 8.265625 
Q 6.59375 17.96875 6.59375 36.375 
Q 6.59375 54.828125 13.0625 64.515625 
Q 19.53125 74.21875 31.78125 74.21875 
z
" id="DejaVuSans-48"/>
       <path d="M 10.6875 12.40625 
L 21 12.40625 
L 21 0 
L 10.6875 0 
z
" id="DejaVuSans-46"/>
      </defs>
      <g transform="translate(65.881165 322.182437)scale(0.1 -0.1)">
       <use xlink:href="#DejaVuSans-48"/>
       <use x="63.623047" xlink:href="#DejaVuSans-46"/>
       <use x="95.410156" xlink:href="#DejaVuSans-48"/>
      </g>
     </g>
    </g>
    <g id="xtick_2">
     <g id="line2d_4">
      <path clip-path="url(#p6c24e80f99)" d="M 127.941818 307.584 
L 127.941818 41.472 
" style="fill:none;stroke:#b0b0b0;stroke-linecap:square;stroke-width:0.8;"/>
     </g>
     <g id="line2d_5">
      <g>
       <use style="stroke:#000000;stroke-width:0.8;" x="127.941818" xlink:href="#mb0e9b4071b" y="307.584"/>
      </g>
     </g>
     <g id="text_2">
      <!-- 0.5 -->
      <defs>
       <path d="M 10.796875 72.90625 
L 49.515625 72.90625 
L 49.515625 64.59375 
L 19.828125 64.59375 
L 19.828125 46.734375 
Q 21.96875 47.46875 24.109375 47.828125 
Q 26.265625 48.1875 28.421875 48.1875 
Q 40.625 48.1875 47.75 41.5 
Q 54.890625 34.8125 54.890625 23.390625 
Q 54.890625 11.625 47.5625 5.09375 
Q 40.234375 -1.421875 26.90625 -1.421875 
Q 22.3125 -1.421875 17.546875 -0.640625 
Q 12.796875 0.140625 7.71875 1.703125 
L 7.71875 11.625 
Q 12.109375 9.234375 16.796875 8.0625 
Q 21.484375 6.890625 26.703125 6.890625 
Q 35.15625 6.890625 40.078125 11.328125 
Q 45.015625 15.765625 45.015625 23.390625 
Q 45.015625 31 40.078125 35.4375 
Q 35.15625 39.890625 26.703125 39.890625 
Q 22.75 39.890625 18.8125 39.015625 
Q 14.890625 38.140625 10.796875 36.28125 
z
" id="DejaVuSans-53"/>
      </defs>
      <g transform="translate(119.990256 322.182437)scale(0.1 -0.1)">
       <use xlink:href="#DejaVuSans-48"/>
       <use x="63.623047" xlink:href="#DejaVuSans-46"/>
       <use x="95.410156" xlink:href="#DejaVuSans-53"/>
      </g>
     </g>
    </g>
    <g id="xtick_3">
     <g id="line2d_6">
      <path clip-path="url(#p6c24e80f99)" d="M 182.050909 307.584 
L 182.050909 41.472 
" style="fill:none;stroke:#b0b0b0;stroke-linecap:square;stroke-width:0.8;"/>
     </g>
     <g id="line2d_7">
      <g>
       <use style="stroke:#000000;stroke-width:0.8;" x="182.050909" xlink:href="#mb0e9b4071b" y="307.584"/>
      </g>
     </g>
     <g id="text_3">
      <!-- 1.0 -->
      <defs>
       <path d="M 12.40625 8.296875 
L 28.515625 8.296875 
L 28.515625 63.921875 
L 10.984375 60.40625 
L 10.984375 69.390625 
L 28.421875 72.90625 
L 38.28125 72.90625 
L 38.28125 8.296875 
L 54.390625 8.296875 
L 54.390625 0 
L 12.40625 0 
z
" id="DejaVuSans-49"/>
      </defs>
      <g transform="translate(174.099347 322.182437)scale(0.1 -0.1)">
       <use xlink:href="#DejaVuSans-49"/>
       <use x="63.623047" xlink:href="#DejaVuSans-46"/>
       <use x="95.410156" xlink:href="#DejaVuSans-48"/>
      </g>
     </g>
    </g>
    <g id="xtick_4">
     <g id="line2d_8">
      <path clip-path="url(#p6c24e80f99)" d="M 236.16 307.584 
L 236.16 41.472 
" style="fill:none;stroke:#b0b0b0;stroke-linecap:square;stroke-width:0.8;"/>
     </g>
     <g id="line2d_9">
      <g>
       <use style="stroke:#000000;stroke-width:0.8;" x="236.16" xlink:href="#mb0e9b4071b" y="307.584"/>
      </g>
     </g>
     <g id="text_4">
      <!-- 1.5 -->
      <g transform="translate(228.208438 322.182437)scale(0.1 -0.1)">
       <use xlink:href="#DejaVuSans-49"/>
       <use x="63.623047" xlink:href="#DejaVuSans-46"/>
       <use x="95.410156" xlink:href="#DejaVuSans-53"/>
      </g>
     </g>
    </g>
    <g id="xtick_5">
     <g id="line2d_10">
      <path clip-path="url(#p6c24e80f99)" d="M 290.269091 307.584 
L 290.269091 41.472 
" style="fill:none;stroke:#b0b0b0;stroke-linecap:square;stroke-width:0.8;"/>
     </g>
     <g id="line2d_11">
      <g>
       <use style="stroke:#000000;stroke-width:0.8;" x="290.269091" xlink:href="#mb0e9b4071b" y="307.584"/>
      </g>
     </g>
     <g id="text_5">
      <!-- 2.0 -->
      <defs>
       <path d="M 19.1875 8.296875 
L 53.609375 8.296875 
L 53.609375 0 
L 7.328125 0 
L 7.328125 8.296875 
Q 12.9375 14.109375 22.625 23.890625 
Q 32.328125 33.6875 34.8125 36.53125 
Q 39.546875 41.84375 41.421875 45.53125 
Q 43.3125 49.21875 43.3125 52.78125 
Q 43.3125 58.59375 39.234375 62.25 
Q 35.15625 65.921875 28.609375 65.921875 
Q 23.96875 65.921875 18.8125 64.3125 
Q 13.671875 62.703125 7.8125 59.421875 
L 7.8125 69.390625 
Q 13.765625 71.78125 18.9375 73 
Q 24.125 74.21875 28.421875 74.21875 
Q 39.75 74.21875 46.484375 68.546875 
Q 53.21875 62.890625 53.21875 53.421875 
Q 53.21875 48.921875 51.53125 44.890625 
Q 49.859375 40.875 45.40625 35.40625 
Q 44.1875 33.984375 37.640625 27.21875 
Q 31.109375 20.453125 19.1875 8.296875 
z
" id="DejaVuSans-50"/>
      </defs>
      <g transform="translate(282.317528 322.182437)scale(0.1 -0.1)">
       <use xlink:href="#DejaVuSans-50"/>
       <use x="63.623047" xlink:href="#DejaVuSans-46"/>
       <use x="95.410156" xlink:href="#DejaVuSans-48"/>
      </g>
     </g>
    </g>
    <g id="xtick_6">
     <g id="line2d_12">
      <path clip-path="url(#p6c24e80f99)" d="M 344.378182 307.584 
L 344.378182 41.472 
" style="fill:none;stroke:#b0b0b0;stroke-linecap:square;stroke-width:0.8;"/>
     </g>
     <g id="line2d_13">
      <g>
       <use style="stroke:#000000;stroke-width:0.8;" x="344.378182" xlink:href="#mb0e9b4071b" y="307.584"/>
      </g>
     </g>
     <g id="text_6">
      <!-- 2.5 -->
      <g transform="translate(336.426619 322.182437)scale(0.1 -0.1)">
       <use xlink:href="#DejaVuSans-50"/>
       <use x="63.623047" xlink:href="#DejaVuSans-46"/>
       <use x="95.410156" xlink:href="#DejaVuSans-53"/>
      </g>
     </g>
    </g>
    <g id="xtick_7">
     <g id="line2d_14">
      <path clip-path="url(#p6c24e80f99)" d="M 398.487273 307.584 
L 398.487273 41.472 
" style="fill:none;stroke:#b0b0b0;stroke-linecap:square;stroke-width:0.8;"/>
     </g>
     <g id="line2d_15">
      <g>
       <use style="stroke:#000000;stroke-width:0.8;" x="398.487273" xlink:href="#mb0e9b4071b" y="307.584"/>
      </g>
     </g>
     <g id="text_7">
      <!-- 3.0 -->
      <defs>
       <path d="M 40.578125 39.3125 
Q 47.65625 37.796875 51.625 33 
Q 55.609375 28.21875 55.609375 21.1875 
Q 55.609375 10.40625 48.1875 4.484375 
Q 40.765625 -1.421875 27.09375 -1.421875 
Q 22.515625 -1.421875 17.65625 -0.515625 
Q 12.796875 0.390625 7.625 2.203125 
L 7.625 11.71875 
Q 11.71875 9.328125 16.59375 8.109375 
Q 21.484375 6.890625 26.8125 6.890625 
Q 36.078125 6.890625 40.9375 10.546875 
Q 45.796875 14.203125 45.796875 21.1875 
Q 45.796875 27.640625 41.28125 31.265625 
Q 36.765625 34.90625 28.71875 34.90625 
L 20.21875 34.90625 
L 20.21875 43.015625 
L 29.109375 43.015625 
Q 36.375 43.015625 40.234375 45.921875 
Q 44.09375 48.828125 44.09375 54.296875 
Q 44.09375 59.90625 40.109375 62.90625 
Q 36.140625 65.921875 28.71875 65.921875 
Q 24.65625 65.921875 20.015625 65.03125 
Q 15.375 64.15625 9.8125 62.3125 
L 9.8125 71.09375 
Q 15.4375 72.65625 20.34375 73.4375 
Q 25.25 74.21875 29.59375 74.21875 
Q 40.828125 74.21875 47.359375 69.109375 
Q 53.90625 64.015625 53.90625 55.328125 
Q 53.90625 49.265625 50.4375 45.09375 
Q 46.96875 40.921875 40.578125 39.3125 
z
" id="DejaVuSans-51"/>
      </defs>
      <g transform="translate(390.53571 322.182437)scale(0.1 -0.1)">
       <use xlink:href="#DejaVuSans-51"/>
       <use x="63.623047" xlink:href="#DejaVuSans-46"/>
       <use x="95.410156" xlink:href="#DejaVuSans-48"/>
      </g>
     </g>
    </g>
    <g id="text_8">
     <!-- $\|\vec{r}\|$ -->
     <defs>
      <path d="M 21 76.421875 
L 21 -23.578125 
L 12.703125 -23.578125 
L 12.703125 76.421875 
z
" id="DejaVuSans-124"/>
      <path d="M -47.015625 63.53125 
L -47.015625 68.40625 
L -10.84375 68.40625 
L -17.28125 75.984375 
L -11.140625 75.984375 
L -2.59375 65.96875 
L -11.140625 55.953125 
L -17.28125 55.953125 
L -10.84375 63.53125 
z
" id="DejaVuSans-8407"/>
      <path d="M 44.578125 46.390625 
Q 43.21875 47.125 41.453125 47.515625 
Q 39.703125 47.90625 37.703125 47.90625 
Q 30.515625 47.90625 25.140625 42.453125 
Q 19.78125 37.015625 18.015625 27.875 
L 12.5 0 
L 3.515625 0 
L 14.203125 54.6875 
L 23.1875 54.6875 
L 21.484375 46.1875 
Q 25.046875 50.921875 30 53.453125 
Q 34.96875 56 40.578125 56 
Q 42.046875 56 43.453125 55.828125 
Q 44.875 55.671875 46.296875 55.28125 
z
" id="DejaVuSans-Oblique-114"/>
     </defs>
     <g transform="translate(230.71 337.162125)scale(0.1 -0.1)">
      <use transform="translate(0 0.46875)" xlink:href="#DejaVuSans-124"/>
      <use transform="translate(83.985352 13.015625)" xlink:href="#DejaVuSans-8407"/>
      <use transform="translate(33.691406 0.46875)" xlink:href="#DejaVuSans-Oblique-114"/>
      <use transform="translate(74.804688 0.46875)" xlink:href="#DejaVuSans-124"/>
     </g>
    </g>
   </g>
   <g id="matplotlib.axis_2">
    <g id="ytick_1">
     <g id="line2d_16">
      <path clip-path="url(#p6c24e80f99)" d="M 57.6 295.488 
L 414.72 295.488 
" style="fill:none;stroke:#b0b0b0;stroke-linecap:square;stroke-width:0.8;"/>
     </g>
     <g id="line2d_17">
      <defs>
       <path d="M 0 0 
L -3.5 0 
" id="m321e839cf9" style="stroke:#000000;stroke-width:0.8;"/>
      </defs>
      <g>
       <use style="stroke:#000000;stroke-width:0.8;" x="57.6" xlink:href="#m321e839cf9" y="295.488"/>
      </g>
     </g>
     <g id="text_9">
      <!-- 0 -->
      <g transform="translate(44.2375 299.287219)scale(0.1 -0.1)">
       <use xlink:href="#DejaVuSans-48"/>
      </g>
     </g>
    </g>
    <g id="ytick_2">
     <g id="line2d_18">
      <path clip-path="url(#p6c24e80f99)" d="M 57.6 257.818695 
L 414.72 257.818695 
" style="fill:none;stroke:#b0b0b0;stroke-linecap:square;stroke-width:0.8;"/>
     </g>
     <g id="line2d_19">
      <g>
       <use style="stroke:#000000;stroke-width:0.8;" x="57.6" xlink:href="#m321e839cf9" y="257.818695"/>
      </g>
     </g>
     <g id="text_10">
      <!-- 1 -->
      <g transform="translate(44.2375 261.617914)scale(0.1 -0.1)">
       <use xlink:href="#DejaVuSans-49"/>
      </g>
     </g>
    </g>
    <g id="ytick_3">
     <g id="line2d_20">
      <path clip-path="url(#p6c24e80f99)" d="M 57.6 220.149391 
L 414.72 220.149391 
" style="fill:none;stroke:#b0b0b0;stroke-linecap:square;stroke-width:0.8;"/>
     </g>
     <g id="line2d_21">
      <g>
       <use style="stroke:#000000;stroke-width:0.8;" x="57.6" xlink:href="#m321e839cf9" y="220.149391"/>
      </g>
     </g>
     <g id="text_11">
      <!-- 2 -->
      <g transform="translate(44.2375 223.94861)scale(0.1 -0.1)">
       <use xlink:href="#DejaVuSans-50"/>
      </g>
     </g>
    </g>
    <g id="ytick_4">
     <g id="line2d_22">
      <path clip-path="url(#p6c24e80f99)" d="M 57.6 182.480086 
L 414.72 182.480086 
" style="fill:none;stroke:#b0b0b0;stroke-linecap:square;stroke-width:0.8;"/>
     </g>
     <g id="line2d_23">
      <g>
       <use style="stroke:#000000;stroke-width:0.8;" x="57.6" xlink:href="#m321e839cf9" y="182.480086"/>
      </g>
     </g>
     <g id="text_12">
      <!-- 3 -->
      <g transform="translate(44.2375 186.279305)scale(0.1 -0.1)">
       <use xlink:href="#DejaVuSans-51"/>
      </g>
     </g>
    </g>
    <g id="ytick_5">
     <g id="line2d_24">
      <path clip-path="url(#p6c24e80f99)" d="M 57.6 144.810782 
L 414.72 144.810782 
" style="fill:none;stroke:#b0b0b0;stroke-linecap:square;stroke-width:0.8;"/>
     </g>
     <g id="line2d_25">
      <g>
       <use style="stroke:#000000;stroke-width:0.8;" x="57.6" xlink:href="#m321e839cf9" y="144.810782"/>
      </g>
     </g>
     <g id="text_13">
      <!-- 4 -->
      <defs>
       <path d="M 37.796875 64.3125 
L 12.890625 25.390625 
L 37.796875 25.390625 
z
M 35.203125 72.90625 
L 47.609375 72.90625 
L 47.609375 25.390625 
L 58.015625 25.390625 
L 58.015625 17.1875 
L 47.609375 17.1875 
L 47.609375 0 
L 37.796875 0 
L 37.796875 17.1875 
L 4.890625 17.1875 
L 4.890625 26.703125 
z
" id="DejaVuSans-52"/>
      </defs>
      <g transform="translate(44.2375 148.61)scale(0.1 -0.1)">
       <use xlink:href="#DejaVuSans-52"/>
      </g>
     </g>
    </g>
    <g id="ytick_6">
     <g id="line2d_26">
      <path clip-path="url(#p6c24e80f99)" d="M 57.6 107.141477 
L 414.72 107.141477 
" style="fill:none;stroke:#b0b0b0;stroke-linecap:square;stroke-width:0.8;"/>
     </g>
     <g id="line2d_27">
      <g>
       <use style="stroke:#000000;stroke-width:0.8;" x="57.6" xlink:href="#m321e839cf9" y="107.141477"/>
      </g>
     </g>
     <g id="text_14">
      <!-- 5 -->
      <g transform="translate(44.2375 110.940696)scale(0.1 -0.1)">
       <use xlink:href="#DejaVuSans-53"/>
      </g>
     </g>
    </g>
    <g id="ytick_7">
     <g id="line2d_28">
      <path clip-path="url(#p6c24e80f99)" d="M 57.6 69.472173 
L 414.72 69.472173 
" style="fill:none;stroke:#b0b0b0;stroke-linecap:square;stroke-width:0.8;"/>
     </g>
     <g id="line2d_29">
      <g>
       <use style="stroke:#000000;stroke-width:0.8;" x="57.6" xlink:href="#m321e839cf9" y="69.472173"/>
      </g>
     </g>
     <g id="text_15">
      <!-- 6 -->
      <defs>
       <path d="M 33.015625 40.375 
Q 26.375 40.375 22.484375 35.828125 
Q 18.609375 31.296875 18.609375 23.390625 
Q 18.609375 15.53125 22.484375 10.953125 
Q 26.375 6.390625 33.015625 6.390625 
Q 39.65625 6.390625 43.53125 10.953125 
Q 47.40625 15.53125 47.40625 23.390625 
Q 47.40625 31.296875 43.53125 35.828125 
Q 39.65625 40.375 33.015625 40.375 
z
M 52.59375 71.296875 
L 52.59375 62.3125 
Q 48.875 64.0625 45.09375 64.984375 
Q 41.3125 65.921875 37.59375 65.921875 
Q 27.828125 65.921875 22.671875 59.328125 
Q 17.53125 52.734375 16.796875 39.40625 
Q 19.671875 43.65625 24.015625 45.921875 
Q 28.375 48.1875 33.59375 48.1875 
Q 44.578125 48.1875 50.953125 41.515625 
Q 57.328125 34.859375 57.328125 23.390625 
Q 57.328125 12.15625 50.6875 5.359375 
Q 44.046875 -1.421875 33.015625 -1.421875 
Q 20.359375 -1.421875 13.671875 8.265625 
Q 6.984375 17.96875 6.984375 36.375 
Q 6.984375 53.65625 15.1875 63.9375 
Q 23.390625 74.21875 37.203125 74.21875 
Q 40.921875 74.21875 44.703125 73.484375 
Q 48.484375 72.75 52.59375 71.296875 
z
" id="DejaVuSans-54"/>
      </defs>
      <g transform="translate(44.2375 73.271391)scale(0.1 -0.1)">
       <use xlink:href="#DejaVuSans-54"/>
      </g>
     </g>
    </g>
    <g id="text_16">
     <!-- $\operatorname{SoftLOne}(\|\vec{r}\|^2)$ -->
     <defs>
      <path d="M 53.515625 70.515625 
L 53.515625 60.890625 
Q 47.90625 63.578125 42.921875 64.890625 
Q 37.9375 66.21875 33.296875 66.21875 
Q 25.25 66.21875 20.875 63.09375 
Q 16.5 59.96875 16.5 54.203125 
Q 16.5 49.359375 19.40625 46.890625 
Q 22.3125 44.4375 30.421875 42.921875 
L 36.375 41.703125 
Q 47.40625 39.59375 52.65625 34.296875 
Q 57.90625 29 57.90625 20.125 
Q 57.90625 9.515625 50.796875 4.046875 
Q 43.703125 -1.421875 29.984375 -1.421875 
Q 24.8125 -1.421875 18.96875 -0.25 
Q 13.140625 0.921875 6.890625 3.21875 
L 6.890625 13.375 
Q 12.890625 10.015625 18.65625 8.296875 
Q 24.421875 6.59375 29.984375 6.59375 
Q 38.421875 6.59375 43.015625 9.90625 
Q 47.609375 13.234375 47.609375 19.390625 
Q 47.609375 24.75 44.3125 27.78125 
Q 41.015625 30.8125 33.5 32.328125 
L 27.484375 33.5 
Q 16.453125 35.6875 11.515625 40.375 
Q 6.59375 45.0625 6.59375 53.421875 
Q 6.59375 63.09375 13.40625 68.65625 
Q 20.21875 74.21875 32.171875 74.21875 
Q 37.3125 74.21875 42.625 73.28125 
Q 47.953125 72.359375 53.515625 70.515625 
z
" id="DejaVuSans-83"/>
      <path d="M 30.609375 48.390625 
Q 23.390625 48.390625 19.1875 42.75 
Q 14.984375 37.109375 14.984375 27.296875 
Q 14.984375 17.484375 19.15625 11.84375 
Q 23.34375 6.203125 30.609375 6.203125 
Q 37.796875 6.203125 41.984375 11.859375 
Q 46.1875 17.53125 46.1875 27.296875 
Q 46.1875 37.015625 41.984375 42.703125 
Q 37.796875 48.390625 30.609375 48.390625 
z
M 30.609375 56 
Q 42.328125 56 49.015625 48.375 
Q 55.71875 40.765625 55.71875 27.296875 
Q 55.71875 13.875 49.015625 6.21875 
Q 42.328125 -1.421875 30.609375 -1.421875 
Q 18.84375 -1.421875 12.171875 6.21875 
Q 5.515625 13.875 5.515625 27.296875 
Q 5.515625 40.765625 12.171875 48.375 
Q 18.84375 56 30.609375 56 
z
" id="DejaVuSans-111"/>
      <path d="M 37.109375 75.984375 
L 37.109375 68.5 
L 28.515625 68.5 
Q 23.6875 68.5 21.796875 66.546875 
Q 19.921875 64.59375 19.921875 59.515625 
L 19.921875 54.6875 
L 34.71875 54.6875 
L 34.71875 47.703125 
L 19.921875 47.703125 
L 19.921875 0 
L 10.890625 0 
L 10.890625 47.703125 
L 2.296875 47.703125 
L 2.296875 54.6875 
L 10.890625 54.6875 
L 10.890625 58.5 
Q 10.890625 67.625 15.140625 71.796875 
Q 19.390625 75.984375 28.609375 75.984375 
z
" id="DejaVuSans-102"/>
      <path d="M 18.3125 70.21875 
L 18.3125 54.6875 
L 36.8125 54.6875 
L 36.8125 47.703125 
L 18.3125 47.703125 
L 18.3125 18.015625 
Q 18.3125 11.328125 20.140625 9.421875 
Q 21.96875 7.515625 27.59375 7.515625 
L 36.8125 7.515625 
L 36.8125 0 
L 27.59375 0 
Q 17.1875 0 13.234375 3.875 
Q 9.28125 7.765625 9.28125 18.015625 
L 9.28125 47.703125 
L 2.6875 47.703125 
L 2.6875 54.6875 
L 9.28125 54.6875 
L 9.28125 70.21875 
z
" id="DejaVuSans-116"/>
      <path d="M 9.8125 72.90625 
L 19.671875 72.90625 
L 19.671875 8.296875 
L 55.171875 8.296875 
L 55.171875 0 
L 9.8125 0 
z
" id="DejaVuSans-76"/>
      <path d="M 39.40625 66.21875 
Q 28.65625 66.21875 22.328125 58.203125 
Q 16.015625 50.203125 16.015625 36.375 
Q 16.015625 22.609375 22.328125 14.59375 
Q 28.65625 6.59375 39.40625 6.59375 
Q 50.140625 6.59375 56.421875 14.59375 
Q 62.703125 22.609375 62.703125 36.375 
Q 62.703125 50.203125 56.421875 58.203125 
Q 50.140625 66.21875 39.40625 66.21875 
z
M 39.40625 74.21875 
Q 54.734375 74.21875 63.90625 63.9375 
Q 73.09375 53.65625 73.09375 36.375 
Q 73.09375 19.140625 63.90625 8.859375 
Q 54.734375 -1.421875 39.40625 -1.421875 
Q 24.03125 -1.421875 14.8125 8.828125 
Q 5.609375 19.09375 5.609375 36.375 
Q 5.609375 53.65625 14.8125 63.9375 
Q 24.03125 74.21875 39.40625 74.21875 
z
" id="DejaVuSans-79"/>
      <path d="M 54.890625 33.015625 
L 54.890625 0 
L 45.90625 0 
L 45.90625 32.71875 
Q 45.90625 40.484375 42.875 44.328125 
Q 39.84375 48.1875 33.796875 48.1875 
Q 26.515625 48.1875 22.3125 43.546875 
Q 18.109375 38.921875 18.109375 30.90625 
L 18.109375 0 
L 9.078125 0 
L 9.078125 54.6875 
L 18.109375 54.6875 
L 18.109375 46.1875 
Q 21.34375 51.125 25.703125 53.5625 
Q 30.078125 56 35.796875 56 
Q 45.21875 56 50.046875 50.171875 
Q 54.890625 44.34375 54.890625 33.015625 
z
" id="DejaVuSans-110"/>
      <path d="M 56.203125 29.59375 
L 56.203125 25.203125 
L 14.890625 25.203125 
Q 15.484375 15.921875 20.484375 11.0625 
Q 25.484375 6.203125 34.421875 6.203125 
Q 39.59375 6.203125 44.453125 7.46875 
Q 49.3125 8.734375 54.109375 11.28125 
L 54.109375 2.78125 
Q 49.265625 0.734375 44.1875 -0.34375 
Q 39.109375 -1.421875 33.890625 -1.421875 
Q 20.796875 -1.421875 13.15625 6.1875 
Q 5.515625 13.8125 5.515625 26.8125 
Q 5.515625 40.234375 12.765625 48.109375 
Q 20.015625 56 32.328125 56 
Q 43.359375 56 49.78125 48.890625 
Q 56.203125 41.796875 56.203125 29.59375 
z
M 47.21875 32.234375 
Q 47.125 39.59375 43.09375 43.984375 
Q 39.0625 48.390625 32.421875 48.390625 
Q 24.90625 48.390625 20.390625 44.140625 
Q 15.875 39.890625 15.1875 32.171875 
z
" id="DejaVuSans-101"/>
      <path d="M 31 75.875 
Q 24.46875 64.65625 21.28125 53.65625 
Q 18.109375 42.671875 18.109375 31.390625 
Q 18.109375 20.125 21.3125 9.0625 
Q 24.515625 -2 31 -13.1875 
L 23.1875 -13.1875 
Q 15.875 -1.703125 12.234375 9.375 
Q 8.59375 20.453125 8.59375 31.390625 
Q 8.59375 42.28125 12.203125 53.3125 
Q 15.828125 64.359375 23.1875 75.875 
z
" id="DejaVuSans-40"/>
      <path d="M 8.015625 75.875 
L 15.828125 75.875 
Q 23.140625 64.359375 26.78125 53.3125 
Q 30.421875 42.28125 30.421875 31.390625 
Q 30.421875 20.453125 26.78125 9.375 
Q 23.140625 -1.703125 15.828125 -13.1875 
L 8.015625 -13.1875 
Q 14.5 -2 17.703125 9.0625 
Q 20.90625 20.125 20.90625 31.390625 
Q 20.90625 42.671875 17.703125 53.65625 
Q 14.5 64.65625 8.015625 75.875 
z
" id="DejaVuSans-41"/>
     </defs>
     <g transform="translate(37.8375 209.228)rotate(-90)scale(0.1 -0.1)">
      <use transform="translate(0 0.765625)" xlink:href="#DejaVuSans-83"/>
      <use transform="translate(63.476562 0.765625)" xlink:href="#DejaVuSans-111"/>
      <use transform="translate(124.658203 0.765625)" xlink:href="#DejaVuSans-102"/>
      <use transform="translate(159.863281 0.765625)" xlink:href="#DejaVuSans-116"/>
      <use transform="translate(199.072266 0.765625)" xlink:href="#DejaVuSans-76"/>
      <use transform="translate(254.785156 0.765625)" xlink:href="#DejaVuSans-79"/>
      <use transform="translate(333.496094 0.765625)" xlink:href="#DejaVuSans-110"/>
      <use transform="translate(396.875 0.765625)" xlink:href="#DejaVuSans-101"/>
      <use transform="translate(458.398438 0.765625)" xlink:href="#DejaVuSans-40"/>
      <use transform="translate(497.412109 0.765625)" xlink:href="#DejaVuSans-124"/>
      <use transform="translate(581.397461 13.3125)" xlink:href="#DejaVuSans-8407"/>
      <use transform="translate(531.103516 0.765625)" xlink:href="#DejaVuSans-Oblique-114"/>
      <use transform="translate(572.216797 0.765625)" xlink:href="#DejaVuSans-124"/>
      <use transform="translate(606.865234 39.046875)scale(0.7)" xlink:href="#DejaVuSans-50"/>
      <use transform="translate(654.135742 0.765625)" xlink:href="#DejaVuSans-41"/>
     </g>
    </g>
   </g>
   <g id="line2d_30">
    <path clip-path="url(#p6c24e80f99)" d="M 73.832727 295.488 
L 77.112066 295.453411 
L 80.391405 295.349669 
L 83.670744 295.176844 
L 86.950083 294.935056 
L 90.229421 294.624469 
L 93.50876 294.245296 
L 96.788099 293.797794 
L 100.067438 293.282266 
L 103.346777 292.699056 
L 106.626116 292.048555 
L 109.905455 291.331191 
L 113.184793 290.547434 
L 116.464132 289.697793 
L 119.743471 288.782813 
L 123.02281 287.803074 
L 126.302149 286.759189 
L 129.581488 285.651806 
L 132.860826 284.481598 
L 136.140165 283.249269 
L 139.419504 281.955548 
L 142.698843 280.60119 
L 145.978182 279.186969 
L 149.257521 277.713681 
L 152.53686 276.182141 
L 155.816198 274.593179 
L 159.095537 272.947641 
L 162.374876 271.246383 
L 165.654215 269.490275 
L 168.933554 267.680194 
L 172.212893 265.817026 
L 175.492231 263.901663 
L 178.77157 261.934999 
L 182.050909 259.917934 
L 185.330248 257.851366 
L 188.609587 255.736196 
L 191.888926 253.573321 
L 195.168264 251.363639 
L 198.447603 249.108041 
L 201.726942 246.807414 
L 205.006281 244.462642 
L 208.28562 242.074598 
L 211.564959 239.644152 
L 214.844298 237.172162 
L 218.123636 234.659479 
L 221.402975 232.106944 
L 224.682314 229.515389 
L 227.961653 226.885632 
L 231.240992 224.218484 
L 234.520331 221.51474 
L 237.799669 218.775186 
L 241.079008 216.000596 
L 244.358347 213.191728 
L 247.637686 210.349331 
L 250.917025 207.474138 
L 254.196364 204.566871 
L 257.475702 201.628238 
L 260.755041 198.658933 
L 264.03438 195.659637 
L 267.313719 192.631018 
L 270.593058 189.57373 
L 273.872397 186.488414 
L 277.151736 183.375696 
L 280.431074 180.236192 
L 283.710413 177.070503 
L 286.989752 173.879215 
L 290.269091 170.662905 
L 293.54843 167.422135 
L 296.827769 164.157454 
L 300.107107 160.869399 
L 303.386446 157.558496 
L 306.665785 154.225256 
L 309.945124 150.870181 
L 313.224463 147.49376 
L 316.503802 144.096471 
L 319.78314 140.678779 
L 323.062479 137.241141 
L 326.341818 133.783999 
L 329.621157 130.307788 
L 332.900496 126.812931 
L 336.179835 123.29984 
L 339.459174 119.768919 
L 342.738512 116.220561 
L 346.017851 112.655148 
L 349.29719 109.073055 
L 352.576529 105.474646 
L 355.855868 101.860278 
L 359.135207 98.230297 
L 362.414545 94.585042 
L 365.693884 90.924844 
L 368.973223 87.250023 
L 372.252562 83.560895 
L 375.531901 79.857765 
L 378.81124 76.140932 
L 382.090579 72.410688 
L 385.369917 68.667317 
L 388.649256 64.911095 
L 391.928595 61.142294 
L 395.207934 57.361177 
L 398.487273 53.568 
" style="fill:none;stroke:#000000;stroke-dasharray:5.55,2.4;stroke-dashoffset:0;stroke-width:1.5;"/>
   </g>
   <g id="line2d_31">
    <path clip-path="url(#p6c24e80f99)" d="M 73.832727 295.488 
L 77.112066 295.453417 
L 80.391405 295.349764 
L 83.670744 295.177324 
L 86.950083 294.936566 
L 90.229421 294.628139 
L 93.50876 294.252859 
L 96.788099 293.811703 
L 100.067438 293.305797 
L 103.346777 292.736399 
L 106.626116 292.104887 
L 109.905455 291.412742 
L 113.184793 290.661535 
L 116.464132 289.85291 
L 119.743471 288.988569 
L 123.02281 288.070257 
L 126.302149 287.09975 
L 129.581488 286.078842 
L 132.860826 285.00933 
L 136.140165 283.89301 
L 139.419504 282.73166 
L 142.698843 281.527038 
L 145.978182 280.28087 
L 149.257521 278.994847 
L 152.53686 277.670621 
L 155.816198 276.309797 
L 159.095537 274.913932 
L 162.374876 273.484535 
L 165.654215 272.02306 
L 168.933554 270.530909 
L 172.212893 269.009433 
L 175.492231 267.459924 
L 178.77157 265.883626 
L 182.050909 264.281726 
L 185.330248 262.655363 
L 188.609587 261.005624 
L 191.888926 259.333545 
L 195.168264 257.640118 
L 198.447603 255.926285 
L 201.726942 254.192947 
L 205.006281 252.44096 
L 208.28562 250.67114 
L 211.564959 248.884264 
L 214.844298 247.081069 
L 218.123636 245.262261 
L 221.402975 243.428506 
L 224.682314 241.580441 
L 227.961653 239.718672 
L 231.240992 237.843774 
L 234.520331 235.956294 
L 237.799669 234.056754 
L 241.079008 232.145648 
L 244.358347 230.22345 
L 247.637686 228.290606 
L 250.917025 226.347545 
L 254.196364 224.394674 
L 257.475702 222.432379 
L 260.755041 220.46103 
L 264.03438 218.480977 
L 267.313719 216.492557 
L 270.593058 214.496088 
L 273.872397 212.491875 
L 277.151736 210.480208 
L 280.431074 208.461365 
L 283.710413 206.435609 
L 286.989752 204.403193 
L 290.269091 202.364358 
L 293.54843 200.319334 
L 296.827769 198.268342 
L 300.107107 196.211592 
L 303.386446 194.149284 
L 306.665785 192.081612 
L 309.945124 190.008759 
L 313.224463 187.930901 
L 316.503802 185.848207 
L 319.78314 183.760839 
L 323.062479 181.668951 
L 326.341818 179.572691 
L 329.621157 177.472203 
L 332.900496 175.367621 
L 336.179835 173.259078 
L 339.459174 171.146697 
L 342.738512 169.030601 
L 346.017851 166.910905 
L 349.29719 164.787719 
L 352.576529 162.66115 
L 355.855868 160.531302 
L 359.135207 158.398272 
L 362.414545 156.262156 
L 365.693884 154.123045 
L 368.973223 151.981027 
L 372.252562 149.836186 
L 375.531901 147.688603 
L 378.81124 145.538358 
L 382.090579 143.385525 
L 385.369917 141.230178 
L 388.649256 139.072386 
L 391.928595 136.912218 
L 395.207934 134.749737 
L 398.487273 132.585009 
" style="fill:none;stroke:#000000;stroke-linecap:square;stroke-width:1.5;"/>
   </g>
   <g id="line2d_32">
    <path clip-path="url(#p6c24e80f99)" d="M 73.832727 295.488 
L 77.112066 295.453441 
L 80.391405 295.350142 
L 83.670744 295.179215 
L 86.950083 294.942449 
L 90.229421 294.642222 
L 93.50876 294.281384 
L 96.788099 293.863142 
L 100.067438 293.390937 
L 103.346777 292.868333 
L 106.626116 292.298915 
L 109.905455 291.686217 
L 113.184793 291.033655 
L 116.464132 290.344483 
L 119.743471 289.621765 
L 123.02281 288.868358 
L 126.302149 288.086906 
L 129.581488 287.279841 
L 132.860826 286.449386 
L 136.140165 285.597571 
L 139.419504 284.72624 
L 142.698843 283.837066 
L 145.978182 282.931565 
L 149.257521 282.01111 
L 152.53686 281.076943 
L 155.816198 280.130188 
L 159.095537 279.171862 
L 162.374876 278.202886 
L 165.654215 277.224095 
L 168.933554 276.236244 
L 172.212893 275.240022 
L 175.492231 274.236052 
L 178.77157 273.224902 
L 182.050909 272.207089 
L 185.330248 271.183086 
L 188.609587 270.153321 
L 191.888926 269.11819 
L 195.168264 268.078052 
L 198.447603 267.033238 
L 201.726942 265.984051 
L 205.006281 264.930769 
L 208.28562 263.87365 
L 211.564959 262.81293 
L 214.844298 261.748825 
L 218.123636 260.681539 
L 221.402975 259.611257 
L 224.682314 258.538151 
L 227.961653 257.462381 
L 231.240992 256.384097 
L 234.520331 255.303434 
L 237.799669 254.220523 
L 241.079008 253.135482 
L 244.358347 252.048422 
L 247.637686 250.959448 
L 250.917025 249.868656 
L 254.196364 248.776138 
L 257.475702 247.681978 
L 260.755041 246.586255 
L 264.03438 245.489045 
L 267.313719 244.390417 
L 270.593058 243.290437 
L 273.872397 242.189168 
L 277.151736 241.086666 
L 280.431074 239.982987 
L 283.710413 238.878183 
L 286.989752 237.772303 
L 290.269091 236.665391 
L 293.54843 235.557493 
L 296.827769 234.448648 
L 300.107107 233.338897 
L 303.386446 232.228274 
L 306.665785 231.116816 
L 309.945124 230.004556 
L 313.224463 228.891524 
L 316.503802 227.777751 
L 319.78314 226.663265 
L 323.062479 225.548092 
L 326.341818 224.432259 
L 329.621157 223.315789 
L 332.900496 222.198705 
L 336.179835 221.081031 
L 339.459174 219.962786 
L 342.738512 218.843991 
L 346.017851 217.724664 
L 349.29719 216.604825 
L 352.576529 215.484491 
L 355.855868 214.363677 
L 359.135207 213.242401 
L 362.414545 212.120677 
L 365.693884 210.99852 
L 368.973223 209.875944 
L 372.252562 208.752962 
L 375.531901 207.629588 
L 378.81124 206.505832 
L 382.090579 205.381708 
L 385.369917 204.257227 
L 388.649256 203.132398 
L 391.928595 202.007234 
L 395.207934 200.881743 
L 398.487273 199.755935 
" style="fill:none;stroke:#000000;stroke-dasharray:9.6,2.4,1.5,2.4;stroke-dashoffset:0;stroke-width:1.5;"/>
   </g>
   <g id="patch_3">
    <path d="M 57.6 307.584 
L 57.6 41.472 
" style="fill:none;stroke:#000000;stroke-linecap:square;stroke-linejoin:miter;stroke-width:0.8;"/>
   </g>
   <g id="patch_4">
    <path d="M 414.72 307.584 
L 414.72 41.472 
" style="fill:none;stroke:#000000;stroke-linecap:square;stroke-linejoin:miter;stroke-width:0.8;"/>
   </g>
   <g id="patch_5">
    <path d="M 57.6 307.584 
L 414.72 307.584 
" style="fill:none;stroke:#000000;stroke-linecap:square;stroke-linejoin:miter;stroke-width:0.8;"/>
   </g>
   <g id="patch_6">
    <path d="M 57.6 41.472 
L 414.72 41.472 
" style="fill:none;stroke:#000000;stroke-linecap:square;stroke-linejoin:miter;stroke-width:0.8;"/>
   </g>
   <g id="text_17">
    <!-- loss.SoftLOne depending on residual vector $\vec{r}$ and scale -->
    <defs>
     <path d="M 9.421875 75.984375 
L 18.40625 75.984375 
L 18.40625 0 
L 9.421875 0 
z
" id="DejaVuSans-108"/>
     <path d="M 44.28125 53.078125 
L 44.28125 44.578125 
Q 40.484375 46.53125 36.375 47.5 
Q 32.28125 48.484375 27.875 48.484375 
Q 21.1875 48.484375 17.84375 46.4375 
Q 14.5 44.390625 14.5 40.28125 
Q 14.5 37.15625 16.890625 35.375 
Q 19.28125 33.59375 26.515625 31.984375 
L 29.59375 31.296875 
Q 39.15625 29.25 43.1875 25.515625 
Q 47.21875 21.78125 47.21875 15.09375 
Q 47.21875 7.46875 41.1875 3.015625 
Q 35.15625 -1.421875 24.609375 -1.421875 
Q 20.21875 -1.421875 15.453125 -0.5625 
Q 10.6875 0.296875 5.421875 2 
L 5.421875 11.28125 
Q 10.40625 8.6875 15.234375 7.390625 
Q 20.0625 6.109375 24.8125 6.109375 
Q 31.15625 6.109375 34.5625 8.28125 
Q 37.984375 10.453125 37.984375 14.40625 
Q 37.984375 18.0625 35.515625 20.015625 
Q 33.0625 21.96875 24.703125 23.78125 
L 21.578125 24.515625 
Q 13.234375 26.265625 9.515625 29.90625 
Q 5.8125 33.546875 5.8125 39.890625 
Q 5.8125 47.609375 11.28125 51.796875 
Q 16.75 56 26.8125 56 
Q 31.78125 56 36.171875 55.265625 
Q 40.578125 54.546875 44.28125 53.078125 
z
" id="DejaVuSans-115"/>
     <path id="DejaVuSans-32"/>
     <path d="M 45.40625 46.390625 
L 45.40625 75.984375 
L 54.390625 75.984375 
L 54.390625 0 
L 45.40625 0 
L 45.40625 8.203125 
Q 42.578125 3.328125 38.25 0.953125 
Q 33.9375 -1.421875 27.875 -1.421875 
Q 17.96875 -1.421875 11.734375 6.484375 
Q 5.515625 14.40625 5.515625 27.296875 
Q 5.515625 40.1875 11.734375 48.09375 
Q 17.96875 56 27.875 56 
Q 33.9375 56 38.25 53.625 
Q 42.578125 51.265625 45.40625 46.390625 
z
M 14.796875 27.296875 
Q 14.796875 17.390625 18.875 11.75 
Q 22.953125 6.109375 30.078125 6.109375 
Q 37.203125 6.109375 41.296875 11.75 
Q 45.40625 17.390625 45.40625 27.296875 
Q 45.40625 37.203125 41.296875 42.84375 
Q 37.203125 48.484375 30.078125 48.484375 
Q 22.953125 48.484375 18.875 42.84375 
Q 14.796875 37.203125 14.796875 27.296875 
z
" id="DejaVuSans-100"/>
     <path d="M 18.109375 8.203125 
L 18.109375 -20.796875 
L 9.078125 -20.796875 
L 9.078125 54.6875 
L 18.109375 54.6875 
L 18.109375 46.390625 
Q 20.953125 51.265625 25.265625 53.625 
Q 29.59375 56 35.59375 56 
Q 45.5625 56 51.78125 48.09375 
Q 58.015625 40.1875 58.015625 27.296875 
Q 58.015625 14.40625 51.78125 6.484375 
Q 45.5625 -1.421875 35.59375 -1.421875 
Q 29.59375 -1.421875 25.265625 0.953125 
Q 20.953125 3.328125 18.109375 8.203125 
z
M 48.6875 27.296875 
Q 48.6875 37.203125 44.609375 42.84375 
Q 40.53125 48.484375 33.40625 48.484375 
Q 26.265625 48.484375 22.1875 42.84375 
Q 18.109375 37.203125 18.109375 27.296875 
Q 18.109375 17.390625 22.1875 11.75 
Q 26.265625 6.109375 33.40625 6.109375 
Q 40.53125 6.109375 44.609375 11.75 
Q 48.6875 17.390625 48.6875 27.296875 
z
" id="DejaVuSans-112"/>
     <path d="M 9.421875 54.6875 
L 18.40625 54.6875 
L 18.40625 0 
L 9.421875 0 
z
M 9.421875 75.984375 
L 18.40625 75.984375 
L 18.40625 64.59375 
L 9.421875 64.59375 
z
" id="DejaVuSans-105"/>
     <path d="M 45.40625 27.984375 
Q 45.40625 37.75 41.375 43.109375 
Q 37.359375 48.484375 30.078125 48.484375 
Q 22.859375 48.484375 18.828125 43.109375 
Q 14.796875 37.75 14.796875 27.984375 
Q 14.796875 18.265625 18.828125 12.890625 
Q 22.859375 7.515625 30.078125 7.515625 
Q 37.359375 7.515625 41.375 12.890625 
Q 45.40625 18.265625 45.40625 27.984375 
z
M 54.390625 6.78125 
Q 54.390625 -7.171875 48.1875 -13.984375 
Q 42 -20.796875 29.203125 -20.796875 
Q 24.46875 -20.796875 20.265625 -20.09375 
Q 16.0625 -19.390625 12.109375 -17.921875 
L 12.109375 -9.1875 
Q 16.0625 -11.328125 19.921875 -12.34375 
Q 23.78125 -13.375 27.78125 -13.375 
Q 36.625 -13.375 41.015625 -8.765625 
Q 45.40625 -4.15625 45.40625 5.171875 
L 45.40625 9.625 
Q 42.625 4.78125 38.28125 2.390625 
Q 33.9375 0 27.875 0 
Q 17.828125 0 11.671875 7.65625 
Q 5.515625 15.328125 5.515625 27.984375 
Q 5.515625 40.671875 11.671875 48.328125 
Q 17.828125 56 27.875 56 
Q 33.9375 56 38.28125 53.609375 
Q 42.625 51.21875 45.40625 46.390625 
L 45.40625 54.6875 
L 54.390625 54.6875 
z
" id="DejaVuSans-103"/>
     <path d="M 41.109375 46.296875 
Q 39.59375 47.171875 37.8125 47.578125 
Q 36.03125 48 33.890625 48 
Q 26.265625 48 22.1875 43.046875 
Q 18.109375 38.09375 18.109375 28.8125 
L 18.109375 0 
L 9.078125 0 
L 9.078125 54.6875 
L 18.109375 54.6875 
L 18.109375 46.1875 
Q 20.953125 51.171875 25.484375 53.578125 
Q 30.03125 56 36.53125 56 
Q 37.453125 56 38.578125 55.875 
Q 39.703125 55.765625 41.0625 55.515625 
z
" id="DejaVuSans-114"/>
     <path d="M 8.5 21.578125 
L 8.5 54.6875 
L 17.484375 54.6875 
L 17.484375 21.921875 
Q 17.484375 14.15625 20.5 10.265625 
Q 23.53125 6.390625 29.59375 6.390625 
Q 36.859375 6.390625 41.078125 11.03125 
Q 45.3125 15.671875 45.3125 23.6875 
L 45.3125 54.6875 
L 54.296875 54.6875 
L 54.296875 0 
L 45.3125 0 
L 45.3125 8.40625 
Q 42.046875 3.421875 37.71875 1 
Q 33.40625 -1.421875 27.6875 -1.421875 
Q 18.265625 -1.421875 13.375 4.4375 
Q 8.5 10.296875 8.5 21.578125 
z
M 31.109375 56 
z
" id="DejaVuSans-117"/>
     <path d="M 34.28125 27.484375 
Q 23.390625 27.484375 19.1875 25 
Q 14.984375 22.515625 14.984375 16.5 
Q 14.984375 11.71875 18.140625 8.90625 
Q 21.296875 6.109375 26.703125 6.109375 
Q 34.1875 6.109375 38.703125 11.40625 
Q 43.21875 16.703125 43.21875 25.484375 
L 43.21875 27.484375 
z
M 52.203125 31.203125 
L 52.203125 0 
L 43.21875 0 
L 43.21875 8.296875 
Q 40.140625 3.328125 35.546875 0.953125 
Q 30.953125 -1.421875 24.3125 -1.421875 
Q 15.921875 -1.421875 10.953125 3.296875 
Q 6 8.015625 6 15.921875 
Q 6 25.140625 12.171875 29.828125 
Q 18.359375 34.515625 30.609375 34.515625 
L 43.21875 34.515625 
L 43.21875 35.40625 
Q 43.21875 41.609375 39.140625 45 
Q 35.0625 48.390625 27.6875 48.390625 
Q 23 48.390625 18.546875 47.265625 
Q 14.109375 46.140625 10.015625 43.890625 
L 10.015625 52.203125 
Q 14.9375 54.109375 19.578125 55.046875 
Q 24.21875 56 28.609375 56 
Q 40.484375 56 46.34375 49.84375 
Q 52.203125 43.703125 52.203125 31.203125 
z
" id="DejaVuSans-97"/>
     <path d="M 2.984375 54.6875 
L 12.5 54.6875 
L 29.59375 8.796875 
L 46.6875 54.6875 
L 56.203125 54.6875 
L 35.6875 0 
L 23.484375 0 
z
" id="DejaVuSans-118"/>
     <path d="M 48.78125 52.59375 
L 48.78125 44.1875 
Q 44.96875 46.296875 41.140625 47.34375 
Q 37.3125 48.390625 33.40625 48.390625 
Q 24.65625 48.390625 19.8125 42.84375 
Q 14.984375 37.3125 14.984375 27.296875 
Q 14.984375 17.28125 19.8125 11.734375 
Q 24.65625 6.203125 33.40625 6.203125 
Q 37.3125 6.203125 41.140625 7.25 
Q 44.96875 8.296875 48.78125 10.40625 
L 48.78125 2.09375 
Q 45.015625 0.34375 40.984375 -0.53125 
Q 36.96875 -1.421875 32.421875 -1.421875 
Q 20.0625 -1.421875 12.78125 6.34375 
Q 5.515625 14.109375 5.515625 27.296875 
Q 5.515625 40.671875 12.859375 48.328125 
Q 20.21875 56 33.015625 56 
Q 37.15625 56 41.109375 55.140625 
Q 45.0625 54.296875 48.78125 52.59375 
z
" id="DejaVuSans-99"/>
    </defs>
    <g transform="translate(70.26 35.472)scale(0.12 -0.12)">
     <use transform="translate(0 0.46875)" xlink:href="#DejaVuSans-108"/>
     <use transform="translate(27.783203 0.46875)" xlink:href="#DejaVuSans-111"/>
     <use transform="translate(88.964844 0.46875)" xlink:href="#DejaVuSans-115"/>
     <use transform="translate(141.064453 0.46875)" xlink:href="#DejaVuSans-115"/>
     <use transform="translate(193.164062 0.46875)" xlink:href="#DejaVuSans-46"/>
     <use transform="translate(224.951172 0.46875)" xlink:href="#DejaVuSans-83"/>
     <use transform="translate(288.427734 0.46875)" xlink:href="#DejaVuSans-111"/>
     <use transform="translate(349.609375 0.46875)" xlink:href="#DejaVuSans-102"/>
     <use transform="translate(384.814453 0.46875)" xlink:href="#DejaVuSans-116"/>
     <use transform="translate(424.023438 0.46875)" xlink:href="#DejaVuSans-76"/>
     <use transform="translate(479.736328 0.46875)" xlink:href="#DejaVuSans-79"/>
     <use transform="translate(558.447266 0.46875)" xlink:href="#DejaVuSans-110"/>
     <use transform="translate(621.826172 0.46875)" xlink:href="#DejaVuSans-101"/>
     <use transform="translate(683.349609 0.46875)" xlink:href="#DejaVuSans-32"/>
     <use transform="translate(715.136719 0.46875)" xlink:href="#DejaVuSans-100"/>
     <use transform="translate(778.613281 0.46875)" xlink:href="#DejaVuSans-101"/>
     <use transform="translate(840.136719 0.46875)" xlink:href="#DejaVuSans-112"/>
     <use transform="translate(903.613281 0.46875)" xlink:href="#DejaVuSans-101"/>
     <use transform="translate(965.136719 0.46875)" xlink:href="#DejaVuSans-110"/>
     <use transform="translate(1028.515625 0.46875)" xlink:href="#DejaVuSans-100"/>
     <use transform="translate(1091.992188 0.46875)" xlink:href="#DejaVuSans-105"/>
     <use transform="translate(1119.775391 0.46875)" xlink:href="#DejaVuSans-110"/>
     <use transform="translate(1183.154297 0.46875)" xlink:href="#DejaVuSans-103"/>
     <use transform="translate(1246.630859 0.46875)" xlink:href="#DejaVuSans-32"/>
     <use transform="translate(1278.417969 0.46875)" xlink:href="#DejaVuSans-111"/>
     <use transform="translate(1339.599609 0.46875)" xlink:href="#DejaVuSans-110"/>
     <use transform="translate(1402.978516 0.46875)" xlink:href="#DejaVuSans-32"/>
     <use transform="translate(1434.765625 0.46875)" xlink:href="#DejaVuSans-114"/>
     <use transform="translate(1475.878906 0.46875)" xlink:href="#DejaVuSans-101"/>
     <use transform="translate(1537.402344 0.46875)" xlink:href="#DejaVuSans-115"/>
     <use transform="translate(1589.501953 0.46875)" xlink:href="#DejaVuSans-105"/>
     <use transform="translate(1617.285156 0.46875)" xlink:href="#DejaVuSans-100"/>
     <use transform="translate(1680.761719 0.46875)" xlink:href="#DejaVuSans-117"/>
     <use transform="translate(1744.140625 0.46875)" xlink:href="#DejaVuSans-97"/>
     <use transform="translate(1805.419922 0.46875)" xlink:href="#DejaVuSans-108"/>
     <use transform="translate(1833.203125 0.46875)" xlink:href="#DejaVuSans-32"/>
     <use transform="translate(1864.990234 0.46875)" xlink:href="#DejaVuSans-118"/>
     <use transform="translate(1924.169922 0.46875)" xlink:href="#DejaVuSans-101"/>
     <use transform="translate(1985.693359 0.46875)" xlink:href="#DejaVuSans-99"/>
     <use transform="translate(2040.673828 0.46875)" xlink:href="#DejaVuSans-116"/>
     <use transform="translate(2079.882812 0.46875)" xlink:href="#DejaVuSans-111"/>
     <use transform="translate(2141.064453 0.46875)" xlink:href="#DejaVuSans-114"/>
     <use transform="translate(2182.177734 0.46875)" xlink:href="#DejaVuSans-32"/>
     <use transform="translate(2264.258789 13.015625)" xlink:href="#DejaVuSans-8407"/>
     <use transform="translate(2213.964844 0.46875)" xlink:href="#DejaVuSans-Oblique-114"/>
     <use transform="translate(2255.078125 0.46875)" xlink:href="#DejaVuSans-32"/>
     <use transform="translate(2286.865234 0.46875)" xlink:href="#DejaVuSans-97"/>
     <use transform="translate(2348.144531 0.46875)" xlink:href="#DejaVuSans-110"/>
     <use transform="translate(2411.523438 0.46875)" xlink:href="#DejaVuSans-100"/>
     <use transform="translate(2475 0.46875)" xlink:href="#DejaVuSans-32"/>
     <use transform="translate(2506.787109 0.46875)" xlink:href="#DejaVuSans-115"/>
     <use transform="translate(2558.886719 0.46875)" xlink:href="#DejaVuSans-99"/>
     <use transform="translate(2613.867188 0.46875)" xlink:href="#DejaVuSans-97"/>
     <use transform="translate(2675.146484 0.46875)" xlink:href="#DejaVuSans-108"/>
     <use transform="translate(2702.929688 0.46875)" xlink:href="#DejaVuSans-101"/>
    </g>
   </g>
   <g id="legend_1">
    <g id="patch_7">
     <path d="M 64.6 108.1845 
L 165.610937 108.1845 
Q 167.610937 108.1845 167.610937 106.1845 
L 167.610937 48.472 
Q 167.610937 46.472 165.610937 46.472 
L 64.6 46.472 
Q 62.6 46.472 62.6 48.472 
L 62.6 106.1845 
Q 62.6 108.1845 64.6 108.1845 
z
" style="fill:#ffffff;opacity:0.8;stroke:#cccccc;stroke-linejoin:miter;"/>
    </g>
    <g id="line2d_33">
     <path d="M 66.6 54.570438 
L 86.6 54.570438 
" style="fill:none;stroke:#000000;stroke-dasharray:5.55,2.4;stroke-dashoffset:0;stroke-width:1.5;"/>
    </g>
    <g id="line2d_34"/>
    <g id="text_18">
     <!-- SoftLOne(2.0) -->
     <g transform="translate(94.6 58.070438)scale(0.1 -0.1)">
      <use xlink:href="#DejaVuSans-83"/>
      <use x="63.476562" xlink:href="#DejaVuSans-111"/>
      <use x="124.658203" xlink:href="#DejaVuSans-102"/>
      <use x="158.113281" xlink:href="#DejaVuSans-116"/>
      <use x="197.322266" xlink:href="#DejaVuSans-76"/>
      <use x="249.410156" xlink:href="#DejaVuSans-79"/>
      <use x="328.121094" xlink:href="#DejaVuSans-110"/>
      <use x="391.5" xlink:href="#DejaVuSans-101"/>
      <use x="453.023438" xlink:href="#DejaVuSans-40"/>
      <use x="492.037109" xlink:href="#DejaVuSans-50"/>
      <use x="555.660156" xlink:href="#DejaVuSans-46"/>
      <use x="587.447266" xlink:href="#DejaVuSans-48"/>
      <use x="651.070312" xlink:href="#DejaVuSans-41"/>
     </g>
    </g>
    <g id="line2d_35">
     <path d="M 66.6 69.248563 
L 86.6 69.248563 
" style="fill:none;stroke:#000000;stroke-linecap:square;stroke-width:1.5;"/>
    </g>
    <g id="line2d_36"/>
    <g id="text_19">
     <!-- SoftLOne(1.0) -->
     <g transform="translate(94.6 72.748563)scale(0.1 -0.1)">
      <use xlink:href="#DejaVuSans-83"/>
      <use x="63.476562" xlink:href="#DejaVuSans-111"/>
      <use x="124.658203" xlink:href="#DejaVuSans-102"/>
      <use x="158.113281" xlink:href="#DejaVuSans-116"/>
      <use x="197.322266" xlink:href="#DejaVuSans-76"/>
      <use x="249.410156" xlink:href="#DejaVuSans-79"/>
      <use x="328.121094" xlink:href="#DejaVuSans-110"/>
      <use x="391.5" xlink:href="#DejaVuSans-101"/>
      <use x="453.023438" xlink:href="#DejaVuSans-40"/>
      <use x="492.037109" xlink:href="#DejaVuSans-49"/>
      <use x="555.660156" xlink:href="#DejaVuSans-46"/>
      <use x="587.447266" xlink:href="#DejaVuSans-48"/>
      <use x="651.070312" xlink:href="#DejaVuSans-41"/>
     </g>
    </g>
    <g id="line2d_37">
     <path d="M 66.6 83.926688 
L 86.6 83.926688 
" style="fill:none;stroke:#000000;stroke-dasharray:9.6,2.4,1.5,2.4;stroke-dashoffset:0;stroke-width:1.5;"/>
    </g>
    <g id="line2d_38"/>
    <g id="text_20">
     <!-- SoftLOne(0.5) -->
     <g transform="translate(94.6 87.426688)scale(0.1 -0.1)">
      <use xlink:href="#DejaVuSans-83"/>
      <use x="63.476562" xlink:href="#DejaVuSans-111"/>
      <use x="124.658203" xlink:href="#DejaVuSans-102"/>
      <use x="158.113281" xlink:href="#DejaVuSans-116"/>
      <use x="197.322266" xlink:href="#DejaVuSans-76"/>
      <use x="249.410156" xlink:href="#DejaVuSans-79"/>
      <use x="328.121094" xlink:href="#DejaVuSans-110"/>
      <use x="391.5" xlink:href="#DejaVuSans-101"/>
      <use x="453.023438" xlink:href="#DejaVuSans-40"/>
      <use x="492.037109" xlink:href="#DejaVuSans-48"/>
      <use x="555.660156" xlink:href="#DejaVuSans-46"/>
      <use x="587.447266" xlink:href="#DejaVuSans-53"/>
      <use x="651.070312" xlink:href="#DejaVuSans-41"/>
     </g>
    </g>
    <g id="line2d_39">
     <path d="M 66.6 98.604813 
L 86.6 98.604813 
" style="fill:none;stroke:#ff0000;stroke-linecap:square;stroke-width:1.5;"/>
    </g>
    <g id="line2d_40"/>
    <g id="text_21">
     <!-- Trivial -->
     <defs>
      <path d="M -0.296875 72.90625 
L 61.375 72.90625 
L 61.375 64.59375 
L 35.5 64.59375 
L 35.5 0 
L 25.59375 0 
L 25.59375 64.59375 
L -0.296875 64.59375 
z
" id="DejaVuSans-84"/>
     </defs>
     <g transform="translate(94.6 102.104813)scale(0.1 -0.1)">
      <use xlink:href="#DejaVuSans-84"/>
      <use x="46.333984" xlink:href="#DejaVuSans-114"/>
      <use x="87.447266" xlink:href="#DejaVuSans-105"/>
      <use x="115.230469" xlink:href="#DejaVuSans-118"/>
      <use x="174.410156" xlink:href="#DejaVuSans-105"/>
      <use x="202.193359" xlink:href="#DejaVuSans-97"/>
      <use x="263.472656" xlink:href="#DejaVuSans-108"/>
     </g>
    </g>
   </g>
  </g>
 </g>
 <defs>
  <clipPath id="p6c24e80f99">
   <rect height="266.112" width="357.12" x="57.6" y="41.472"/>
  </clipPath>
 </defs>
</svg>
