<?xml version="1.0" encoding="utf-8" standalone="no"?>
<!DOCTYPE svg PUBLIC "-//W3C//DTD SVG 1.1//EN"
  "http://www.w3.org/Graphics/SVG/1.1/DTD/svg11.dtd">
<!-- Created with matplotlib (https://matplotlib.org/) -->
<svg height="345.6pt" version="1.1" viewBox="0 0 460.8 345.6" width="460.8pt" xmlns="http://www.w3.org/2000/svg" xmlns:xlink="http://www.w3.org/1999/xlink">
 <defs>
  <style type="text/css">
*{stroke-linecap:butt;stroke-linejoin:round;}
  </style>
 </defs>
 <g id="figure_1">
  <g id="patch_1">
   <path d="M 0 345.6 
L 460.8 345.6 
L 460.8 0 
L 0 0 
z
" style="fill:#ffffff;"/>
  </g>
  <g id="axes_1">
   <g id="patch_2">
    <path d="M 57.6 307.584 
L 414.72 307.584 
L 414.72 41.472 
L 57.6 41.472 
z
" style="fill:#ffffff;"/>
   </g>
   <g id="line2d_1">
    <path clip-path="url(#p0f1ff64eaf)" d="M 73.832727 295.488 
L 77.112066 295.461767 
L 80.391405 295.383068 
L 83.670744 295.251902 
L 86.950083 295.068271 
L 90.229421 294.832173 
L 93.50876 294.543609 
L 96.788099 294.202579 
L 100.067438 293.809083 
L 103.346777 293.36312 
L 106.626116 292.864692 
L 109.905455 292.313797 
L 113.184793 291.710436 
L 116.464132 291.054609 
L 119.743471 290.346316 
L 123.02281 289.585557 
L 126.302149 288.772331 
L 129.581488 287.90664 
L 132.860826 286.988482 
L 136.140165 286.017858 
L 139.419504 284.994768 
L 142.698843 283.919211 
L 145.978182 282.791189 
L 149.257521 281.6107 
L 152.53686 280.377745 
L 155.816198 279.092324 
L 159.095537 277.754437 
L 162.374876 276.364084 
L 165.654215 274.921264 
L 168.933554 273.425979 
L 172.212893 271.878227 
L 175.492231 270.278009 
L 178.77157 268.625325 
L 182.050909 266.920175 
L 185.330248 265.162558 
L 188.609587 263.352476 
L 191.888926 261.489927 
L 195.168264 259.574912 
L 198.447603 257.607431 
L 201.726942 255.587484 
L 205.006281 253.51507 
L 208.28562 251.390191 
L 211.564959 249.212845 
L 214.844298 246.983033 
L 218.123636 244.700755 
L 221.402975 242.366011 
L 224.682314 239.978801 
L 227.961653 237.539124 
L 231.240992 235.046981 
L 234.520331 232.502373 
L 237.799669 229.905297 
L 241.079008 227.255756 
L 244.358347 224.553749 
L 247.637686 221.799275 
L 250.917025 218.992336 
L 254.196364 216.13293 
L 257.475702 213.221058 
L 260.755041 210.25672 
L 264.03438 207.239916 
L 267.313719 204.170645 
L 270.593058 201.048908 
L 273.872397 197.874706 
L 277.151736 194.648037 
L 280.431074 191.368901 
L 283.710413 188.0373 
L 286.989752 184.653233 
L 290.269091 181.216699 
L 293.54843 177.727699 
L 296.827769 174.186233 
L 300.107107 170.592301 
L 303.386446 166.945903 
L 306.665785 163.247039 
L 309.945124 159.495708 
L 313.224463 155.691911 
L 316.503802 151.835648 
L 319.78314 147.926919 
L 323.062479 143.965724 
L 326.341818 139.952063 
L 329.621157 135.885935 
L 332.900496 131.767341 
L 336.179835 127.596282 
L 339.459174 123.372756 
L 342.738512 119.096763 
L 346.017851 114.768305 
L 349.29719 110.38738 
L 352.576529 105.95399 
L 355.855868 101.468133 
L 359.135207 96.92981 
L 362.414545 92.339021 
L 365.693884 87.695765 
L 368.973223 83.000044 
L 372.252562 78.251856 
L 375.531901 73.451202 
L 378.81124 68.598082 
L 382.090579 63.692496 
L 385.369917 58.734444 
L 388.649256 53.723925 
L 391.928595 48.660941 
L 395.207934 43.54549 
L 398.487273 38.377573 
" style="fill:none;stroke:#ff0000;stroke-linecap:square;stroke-width:1.5;"/>
   </g>
   <g id="matplotlib.axis_1">
    <g id="xtick_1">
     <g id="line2d_2">
      <path clip-path="url(#p0f1ff64eaf)" d="M 73.832727 307.584 
L 73.832727 41.472 
" style="fill:none;stroke:#b0b0b0;stroke-linecap:square;stroke-width:0.8;"/>
     </g>
     <g id="line2d_3">
      <defs>
       <path d="M 0 0 
L 0 3.5 
" id="mfaa92024ef" style="stroke:#000000;stroke-width:0.8;"/>
      </defs>
      <g>
       <use style="stroke:#000000;stroke-width:0.8;" x="73.832727" xlink:href="#mfaa92024ef" y="307.584"/>
      </g>
     </g>
     <g id="text_1">
      <!-- 0.0 -->
      <defs>
       <path d="M 31.78125 66.40625 
Q 24.171875 66.40625 20.328125 58.90625 
Q 16.5 51.421875 16.5 36.375 
Q 16.5 21.390625 20.328125 13.890625 
Q 24.171875 6.390625 31.78125 6.390625 
Q 39.453125 6.390625 43.28125 13.890625 
Q 47.125 21.390625 47.125 36.375 
Q 47.125 51.421875 43.28125 58.90625 
Q 39.453125 66.40625 31.78125 66.40625 
z
M 31.78125 74.21875 
Q 44.046875 74.21875 50.515625 64.515625 
Q 56.984375 54.828125 56.984375 36.375 
Q 56.984375 17.96875 50.515625 8.265625 
Q 44.046875 -1.421875 31.78125 -1.421875 
Q 19.53125 -1.421875 13.0625 8.265625 
Q 6.59375 17.96875 6.59375 36.375 
Q 6.59375 54.828125 13.0625 64.515625 
Q 19.53125 74.21875 31.78125 74.21875 
z
" id="DejaVuSans-48"/>
       <path d="M 10.6875 12.40625 
L 21 12.40625 
L 21 0 
L 10.6875 0 
z
" id="DejaVuSans-46"/>
      </defs>
      <g transform="translate(65.881165 322.182437)scale(0.1 -0.1)">
       <use xlink:href="#DejaVuSans-48"/>
       <use x="63.623047" xlink:href="#DejaVuSans-46"/>
       <use x="95.410156" xlink:href="#DejaVuSans-48"/>
      </g>
     </g>
    </g>
    <g id="xtick_2">
     <g id="line2d_4">
      <path clip-path="url(#p0f1ff64eaf)" d="M 127.941818 307.584 
L 127.941818 41.472 
" style="fill:none;stroke:#b0b0b0;stroke-linecap:square;stroke-width:0.8;"/>
     </g>
     <g id="line2d_5">
      <g>
       <use style="stroke:#000000;stroke-width:0.8;" x="127.941818" xlink:href="#mfaa92024ef" y="307.584"/>
      </g>
     </g>
     <g id="text_2">
      <!-- 0.5 -->
      <defs>
       <path d="M 10.796875 72.90625 
L 49.515625 72.90625 
L 49.515625 64.59375 
L 19.828125 64.59375 
L 19.828125 46.734375 
Q 21.96875 47.46875 24.109375 47.828125 
Q 26.265625 48.1875 28.421875 48.1875 
Q 40.625 48.1875 47.75 41.5 
Q 54.890625 34.8125 54.890625 23.390625 
Q 54.890625 11.625 47.5625 5.09375 
Q 40.234375 -1.421875 26.90625 -1.421875 
Q 22.3125 -1.421875 17.546875 -0.640625 
Q 12.796875 0.140625 7.71875 1.703125 
L 7.71875 11.625 
Q 12.109375 9.234375 16.796875 8.0625 
Q 21.484375 6.890625 26.703125 6.890625 
Q 35.15625 6.890625 40.078125 11.328125 
Q 45.015625 15.765625 45.015625 23.390625 
Q 45.015625 31 40.078125 35.4375 
Q 35.15625 39.890625 26.703125 39.890625 
Q 22.75 39.890625 18.8125 39.015625 
Q 14.890625 38.140625 10.796875 36.28125 
z
" id="DejaVuSans-53"/>
      </defs>
      <g transform="translate(119.990256 322.182437)scale(0.1 -0.1)">
       <use xlink:href="#DejaVuSans-48"/>
       <use x="63.623047" xlink:href="#DejaVuSans-46"/>
       <use x="95.410156" xlink:href="#DejaVuSans-53"/>
      </g>
     </g>
    </g>
    <g id="xtick_3">
     <g id="line2d_6">
      <path clip-path="url(#p0f1ff64eaf)" d="M 182.050909 307.584 
L 182.050909 41.472 
" style="fill:none;stroke:#b0b0b0;stroke-linecap:square;stroke-width:0.8;"/>
     </g>
     <g id="line2d_7">
      <g>
       <use style="stroke:#000000;stroke-width:0.8;" x="182.050909" xlink:href="#mfaa92024ef" y="307.584"/>
      </g>
     </g>
     <g id="text_3">
      <!-- 1.0 -->
      <defs>
       <path d="M 12.40625 8.296875 
L 28.515625 8.296875 
L 28.515625 63.921875 
L 10.984375 60.40625 
L 10.984375 69.390625 
L 28.421875 72.90625 
L 38.28125 72.90625 
L 38.28125 8.296875 
L 54.390625 8.296875 
L 54.390625 0 
L 12.40625 0 
z
" id="DejaVuSans-49"/>
      </defs>
      <g transform="translate(174.099347 322.182437)scale(0.1 -0.1)">
       <use xlink:href="#DejaVuSans-49"/>
       <use x="63.623047" xlink:href="#DejaVuSans-46"/>
       <use x="95.410156" xlink:href="#DejaVuSans-48"/>
      </g>
     </g>
    </g>
    <g id="xtick_4">
     <g id="line2d_8">
      <path clip-path="url(#p0f1ff64eaf)" d="M 236.16 307.584 
L 236.16 41.472 
" style="fill:none;stroke:#b0b0b0;stroke-linecap:square;stroke-width:0.8;"/>
     </g>
     <g id="line2d_9">
      <g>
       <use style="stroke:#000000;stroke-width:0.8;" x="236.16" xlink:href="#mfaa92024ef" y="307.584"/>
      </g>
     </g>
     <g id="text_4">
      <!-- 1.5 -->
      <g transform="translate(228.208438 322.182437)scale(0.1 -0.1)">
       <use xlink:href="#DejaVuSans-49"/>
       <use x="63.623047" xlink:href="#DejaVuSans-46"/>
       <use x="95.410156" xlink:href="#DejaVuSans-53"/>
      </g>
     </g>
    </g>
    <g id="xtick_5">
     <g id="line2d_10">
      <path clip-path="url(#p0f1ff64eaf)" d="M 290.269091 307.584 
L 290.269091 41.472 
" style="fill:none;stroke:#b0b0b0;stroke-linecap:square;stroke-width:0.8;"/>
     </g>
     <g id="line2d_11">
      <g>
       <use style="stroke:#000000;stroke-width:0.8;" x="290.269091" xlink:href="#mfaa92024ef" y="307.584"/>
      </g>
     </g>
     <g id="text_5">
      <!-- 2.0 -->
      <defs>
       <path d="M 19.1875 8.296875 
L 53.609375 8.296875 
L 53.609375 0 
L 7.328125 0 
L 7.328125 8.296875 
Q 12.9375 14.109375 22.625 23.890625 
Q 32.328125 33.6875 34.8125 36.53125 
Q 39.546875 41.84375 41.421875 45.53125 
Q 43.3125 49.21875 43.3125 52.78125 
Q 43.3125 58.59375 39.234375 62.25 
Q 35.15625 65.921875 28.609375 65.921875 
Q 23.96875 65.921875 18.8125 64.3125 
Q 13.671875 62.703125 7.8125 59.421875 
L 7.8125 69.390625 
Q 13.765625 71.78125 18.9375 73 
Q 24.125 74.21875 28.421875 74.21875 
Q 39.75 74.21875 46.484375 68.546875 
Q 53.21875 62.890625 53.21875 53.421875 
Q 53.21875 48.921875 51.53125 44.890625 
Q 49.859375 40.875 45.40625 35.40625 
Q 44.1875 33.984375 37.640625 27.21875 
Q 31.109375 20.453125 19.1875 8.296875 
z
" id="DejaVuSans-50"/>
      </defs>
      <g transform="translate(282.317528 322.182437)scale(0.1 -0.1)">
       <use xlink:href="#DejaVuSans-50"/>
       <use x="63.623047" xlink:href="#DejaVuSans-46"/>
       <use x="95.410156" xlink:href="#DejaVuSans-48"/>
      </g>
     </g>
    </g>
    <g id="xtick_6">
     <g id="line2d_12">
      <path clip-path="url(#p0f1ff64eaf)" d="M 344.378182 307.584 
L 344.378182 41.472 
" style="fill:none;stroke:#b0b0b0;stroke-linecap:square;stroke-width:0.8;"/>
     </g>
     <g id="line2d_13">
      <g>
       <use style="stroke:#000000;stroke-width:0.8;" x="344.378182" xlink:href="#mfaa92024ef" y="307.584"/>
      </g>
     </g>
     <g id="text_6">
      <!-- 2.5 -->
      <g transform="translate(336.426619 322.182437)scale(0.1 -0.1)">
       <use xlink:href="#DejaVuSans-50"/>
       <use x="63.623047" xlink:href="#DejaVuSans-46"/>
       <use x="95.410156" xlink:href="#DejaVuSans-53"/>
      </g>
     </g>
    </g>
    <g id="xtick_7">
     <g id="line2d_14">
      <path clip-path="url(#p0f1ff64eaf)" d="M 398.487273 307.584 
L 398.487273 41.472 
" style="fill:none;stroke:#b0b0b0;stroke-linecap:square;stroke-width:0.8;"/>
     </g>
     <g id="line2d_15">
      <g>
       <use style="stroke:#000000;stroke-width:0.8;" x="398.487273" xlink:href="#mfaa92024ef" y="307.584"/>
      </g>
     </g>
     <g id="text_7">
      <!-- 3.0 -->
      <defs>
       <path d="M 40.578125 39.3125 
Q 47.65625 37.796875 51.625 33 
Q 55.609375 28.21875 55.609375 21.1875 
Q 55.609375 10.40625 48.1875 4.484375 
Q 40.765625 -1.421875 27.09375 -1.421875 
Q 22.515625 -1.421875 17.65625 -0.515625 
Q 12.796875 0.390625 7.625 2.203125 
L 7.625 11.71875 
Q 11.71875 9.328125 16.59375 8.109375 
Q 21.484375 6.890625 26.8125 6.890625 
Q 36.078125 6.890625 40.9375 10.546875 
Q 45.796875 14.203125 45.796875 21.1875 
Q 45.796875 27.640625 41.28125 31.265625 
Q 36.765625 34.90625 28.71875 34.90625 
L 20.21875 34.90625 
L 20.21875 43.015625 
L 29.109375 43.015625 
Q 36.375 43.015625 40.234375 45.921875 
Q 44.09375 48.828125 44.09375 54.296875 
Q 44.09375 59.90625 40.109375 62.90625 
Q 36.140625 65.921875 28.71875 65.921875 
Q 24.65625 65.921875 20.015625 65.03125 
Q 15.375 64.15625 9.8125 62.3125 
L 9.8125 71.09375 
Q 15.4375 72.65625 20.34375 73.4375 
Q 25.25 74.21875 29.59375 74.21875 
Q 40.828125 74.21875 47.359375 69.109375 
Q 53.90625 64.015625 53.90625 55.328125 
Q 53.90625 49.265625 50.4375 45.09375 
Q 46.96875 40.921875 40.578125 39.3125 
z
" id="DejaVuSans-51"/>
      </defs>
      <g transform="translate(390.53571 322.182437)scale(0.1 -0.1)">
       <use xlink:href="#DejaVuSans-51"/>
       <use x="63.623047" xlink:href="#DejaVuSans-46"/>
       <use x="95.410156" xlink:href="#DejaVuSans-48"/>
      </g>
     </g>
    </g>
    <g id="text_8">
     <!-- $\|\vec{r}\|$ -->
     <defs>
      <path d="M 21 76.421875 
L 21 -23.578125 
L 12.703125 -23.578125 
L 12.703125 76.421875 
z
" id="DejaVuSans-124"/>
      <path d="M -47.015625 63.53125 
L -47.015625 68.40625 
L -10.84375 68.40625 
L -17.28125 75.984375 
L -11.140625 75.984375 
L -2.59375 65.96875 
L -11.140625 55.953125 
L -17.28125 55.953125 
L -10.84375 63.53125 
z
" id="DejaVuSans-8407"/>
      <path d="M 44.578125 46.390625 
Q 43.21875 47.125 41.453125 47.515625 
Q 39.703125 47.90625 37.703125 47.90625 
Q 30.515625 47.90625 25.140625 42.453125 
Q 19.78125 37.015625 18.015625 27.875 
L 12.5 0 
L 3.515625 0 
L 14.203125 54.6875 
L 23.1875 54.6875 
L 21.484375 46.1875 
Q 25.046875 50.921875 30 53.453125 
Q 34.96875 56 40.578125 56 
Q 42.046875 56 43.453125 55.828125 
Q 44.875 55.671875 46.296875 55.28125 
z
" id="DejaVuSans-Oblique-114"/>
     </defs>
     <g transform="translate(230.71 337.162125)scale(0.1 -0.1)">
      <use transform="translate(0 0.46875)" xlink:href="#DejaVuSans-124"/>
      <use transform="translate(83.985352 13.015625)" xlink:href="#DejaVuSans-8407"/>
      <use transform="translate(33.691406 0.46875)" xlink:href="#DejaVuSans-Oblique-114"/>
      <use transform="translate(74.804688 0.46875)" xlink:href="#DejaVuSans-124"/>
     </g>
    </g>
   </g>
   <g id="matplotlib.axis_2">
    <g id="ytick_1">
     <g id="line2d_16">
      <path clip-path="url(#p0f1ff64eaf)" d="M 57.6 295.488 
L 414.72 295.488 
" style="fill:none;stroke:#b0b0b0;stroke-linecap:square;stroke-width:0.8;"/>
     </g>
     <g id="line2d_17">
      <defs>
       <path d="M 0 0 
L -3.5 0 
" id="md49b465d03" style="stroke:#000000;stroke-width:0.8;"/>
      </defs>
      <g>
       <use style="stroke:#000000;stroke-width:0.8;" x="57.6" xlink:href="#md49b465d03" y="295.488"/>
      </g>
     </g>
     <g id="text_9">
      <!-- 0 -->
      <g transform="translate(44.2375 299.287219)scale(0.1 -0.1)">
       <use xlink:href="#DejaVuSans-48"/>
      </g>
     </g>
    </g>
    <g id="ytick_2">
     <g id="line2d_18">
      <path clip-path="url(#p0f1ff64eaf)" d="M 57.6 238.35235 
L 414.72 238.35235 
" style="fill:none;stroke:#b0b0b0;stroke-linecap:square;stroke-width:0.8;"/>
     </g>
     <g id="line2d_19">
      <g>
       <use style="stroke:#000000;stroke-width:0.8;" x="57.6" xlink:href="#md49b465d03" y="238.35235"/>
      </g>
     </g>
     <g id="text_10">
      <!-- 2 -->
      <g transform="translate(44.2375 242.151568)scale(0.1 -0.1)">
       <use xlink:href="#DejaVuSans-50"/>
      </g>
     </g>
    </g>
    <g id="ytick_3">
     <g id="line2d_20">
      <path clip-path="url(#p0f1ff64eaf)" d="M 57.6 181.216699 
L 414.72 181.216699 
" style="fill:none;stroke:#b0b0b0;stroke-linecap:square;stroke-width:0.8;"/>
     </g>
     <g id="line2d_21">
      <g>
       <use style="stroke:#000000;stroke-width:0.8;" x="57.6" xlink:href="#md49b465d03" y="181.216699"/>
      </g>
     </g>
     <g id="text_11">
      <!-- 4 -->
      <defs>
       <path d="M 37.796875 64.3125 
L 12.890625 25.390625 
L 37.796875 25.390625 
z
M 35.203125 72.90625 
L 47.609375 72.90625 
L 47.609375 25.390625 
L 58.015625 25.390625 
L 58.015625 17.1875 
L 47.609375 17.1875 
L 47.609375 0 
L 37.796875 0 
L 37.796875 17.1875 
L 4.890625 17.1875 
L 4.890625 26.703125 
z
" id="DejaVuSans-52"/>
      </defs>
      <g transform="translate(44.2375 185.015918)scale(0.1 -0.1)">
       <use xlink:href="#DejaVuSans-52"/>
      </g>
     </g>
    </g>
    <g id="ytick_4">
     <g id="line2d_22">
      <path clip-path="url(#p0f1ff64eaf)" d="M 57.6 124.081049 
L 414.72 124.081049 
" style="fill:none;stroke:#b0b0b0;stroke-linecap:square;stroke-width:0.8;"/>
     </g>
     <g id="line2d_23">
      <g>
       <use style="stroke:#000000;stroke-width:0.8;" x="57.6" xlink:href="#md49b465d03" y="124.081049"/>
      </g>
     </g>
     <g id="text_12">
      <!-- 6 -->
      <defs>
       <path d="M 33.015625 40.375 
Q 26.375 40.375 22.484375 35.828125 
Q 18.609375 31.296875 18.609375 23.390625 
Q 18.609375 15.53125 22.484375 10.953125 
Q 26.375 6.390625 33.015625 6.390625 
Q 39.65625 6.390625 43.53125 10.953125 
Q 47.40625 15.53125 47.40625 23.390625 
Q 47.40625 31.296875 43.53125 35.828125 
Q 39.65625 40.375 33.015625 40.375 
z
M 52.59375 71.296875 
L 52.59375 62.3125 
Q 48.875 64.0625 45.09375 64.984375 
Q 41.3125 65.921875 37.59375 65.921875 
Q 27.828125 65.921875 22.671875 59.328125 
Q 17.53125 52.734375 16.796875 39.40625 
Q 19.671875 43.65625 24.015625 45.921875 
Q 28.375 48.1875 33.59375 48.1875 
Q 44.578125 48.1875 50.953125 41.515625 
Q 57.328125 34.859375 57.328125 23.390625 
Q 57.328125 12.15625 50.6875 5.359375 
Q 44.046875 -1.421875 33.015625 -1.421875 
Q 20.359375 -1.421875 13.671875 8.265625 
Q 6.984375 17.96875 6.984375 36.375 
Q 6.984375 53.65625 15.1875 63.9375 
Q 23.390625 74.21875 37.203125 74.21875 
Q 40.921875 74.21875 44.703125 73.484375 
Q 48.484375 72.75 52.59375 71.296875 
z
" id="DejaVuSans-54"/>
      </defs>
      <g transform="translate(44.2375 127.880267)scale(0.1 -0.1)">
       <use xlink:href="#DejaVuSans-54"/>
      </g>
     </g>
    </g>
    <g id="ytick_5">
     <g id="line2d_24">
      <path clip-path="url(#p0f1ff64eaf)" d="M 57.6 66.945398 
L 414.72 66.945398 
" style="fill:none;stroke:#b0b0b0;stroke-linecap:square;stroke-width:0.8;"/>
     </g>
     <g id="line2d_25">
      <g>
       <use style="stroke:#000000;stroke-width:0.8;" x="57.6" xlink:href="#md49b465d03" y="66.945398"/>
      </g>
     </g>
     <g id="text_13">
      <!-- 8 -->
      <defs>
       <path d="M 31.78125 34.625 
Q 24.75 34.625 20.71875 30.859375 
Q 16.703125 27.09375 16.703125 20.515625 
Q 16.703125 13.921875 20.71875 10.15625 
Q 24.75 6.390625 31.78125 6.390625 
Q 38.8125 6.390625 42.859375 10.171875 
Q 46.921875 13.96875 46.921875 20.515625 
Q 46.921875 27.09375 42.890625 30.859375 
Q 38.875 34.625 31.78125 34.625 
z
M 21.921875 38.8125 
Q 15.578125 40.375 12.03125 44.71875 
Q 8.5 49.078125 8.5 55.328125 
Q 8.5 64.0625 14.71875 69.140625 
Q 20.953125 74.21875 31.78125 74.21875 
Q 42.671875 74.21875 48.875 69.140625 
Q 55.078125 64.0625 55.078125 55.328125 
Q 55.078125 49.078125 51.53125 44.71875 
Q 48 40.375 41.703125 38.8125 
Q 48.828125 37.15625 52.796875 32.3125 
Q 56.78125 27.484375 56.78125 20.515625 
Q 56.78125 9.90625 50.3125 4.234375 
Q 43.84375 -1.421875 31.78125 -1.421875 
Q 19.734375 -1.421875 13.25 4.234375 
Q 6.78125 9.90625 6.78125 20.515625 
Q 6.78125 27.484375 10.78125 32.3125 
Q 14.796875 37.15625 21.921875 38.8125 
z
M 18.3125 54.390625 
Q 18.3125 48.734375 21.84375 45.5625 
Q 25.390625 42.390625 31.78125 42.390625 
Q 38.140625 42.390625 41.71875 45.5625 
Q 45.3125 48.734375 45.3125 54.390625 
Q 45.3125 60.0625 41.71875 63.234375 
Q 38.140625 66.40625 31.78125 66.40625 
Q 25.390625 66.40625 21.84375 63.234375 
Q 18.3125 60.0625 18.3125 54.390625 
z
" id="DejaVuSans-56"/>
      </defs>
      <g transform="translate(44.2375 70.744617)scale(0.1 -0.1)">
       <use xlink:href="#DejaVuSans-56"/>
      </g>
     </g>
    </g>
    <g id="text_14">
     <!-- $\operatorname{Tolerant}(\|\vec{r}\|^2)$ -->
     <defs>
      <path d="M -0.296875 72.90625 
L 61.375 72.90625 
L 61.375 64.59375 
L 35.5 64.59375 
L 35.5 0 
L 25.59375 0 
L 25.59375 64.59375 
L -0.296875 64.59375 
z
" id="DejaVuSans-84"/>
      <path d="M 30.609375 48.390625 
Q 23.390625 48.390625 19.1875 42.75 
Q 14.984375 37.109375 14.984375 27.296875 
Q 14.984375 17.484375 19.15625 11.84375 
Q 23.34375 6.203125 30.609375 6.203125 
Q 37.796875 6.203125 41.984375 11.859375 
Q 46.1875 17.53125 46.1875 27.296875 
Q 46.1875 37.015625 41.984375 42.703125 
Q 37.796875 48.390625 30.609375 48.390625 
z
M 30.609375 56 
Q 42.328125 56 49.015625 48.375 
Q 55.71875 40.765625 55.71875 27.296875 
Q 55.71875 13.875 49.015625 6.21875 
Q 42.328125 -1.421875 30.609375 -1.421875 
Q 18.84375 -1.421875 12.171875 6.21875 
Q 5.515625 13.875 5.515625 27.296875 
Q 5.515625 40.765625 12.171875 48.375 
Q 18.84375 56 30.609375 56 
z
" id="DejaVuSans-111"/>
      <path d="M 9.421875 75.984375 
L 18.40625 75.984375 
L 18.40625 0 
L 9.421875 0 
z
" id="DejaVuSans-108"/>
      <path d="M 56.203125 29.59375 
L 56.203125 25.203125 
L 14.890625 25.203125 
Q 15.484375 15.921875 20.484375 11.0625 
Q 25.484375 6.203125 34.421875 6.203125 
Q 39.59375 6.203125 44.453125 7.46875 
Q 49.3125 8.734375 54.109375 11.28125 
L 54.109375 2.78125 
Q 49.265625 0.734375 44.1875 -0.34375 
Q 39.109375 -1.421875 33.890625 -1.421875 
Q 20.796875 -1.421875 13.15625 6.1875 
Q 5.515625 13.8125 5.515625 26.8125 
Q 5.515625 40.234375 12.765625 48.109375 
Q 20.015625 56 32.328125 56 
Q 43.359375 56 49.78125 48.890625 
Q 56.203125 41.796875 56.203125 29.59375 
z
M 47.21875 32.234375 
Q 47.125 39.59375 43.09375 43.984375 
Q 39.0625 48.390625 32.421875 48.390625 
Q 24.90625 48.390625 20.390625 44.140625 
Q 15.875 39.890625 15.1875 32.171875 
z
" id="DejaVuSans-101"/>
      <path d="M 41.109375 46.296875 
Q 39.59375 47.171875 37.8125 47.578125 
Q 36.03125 48 33.890625 48 
Q 26.265625 48 22.1875 43.046875 
Q 18.109375 38.09375 18.109375 28.8125 
L 18.109375 0 
L 9.078125 0 
L 9.078125 54.6875 
L 18.109375 54.6875 
L 18.109375 46.1875 
Q 20.953125 51.171875 25.484375 53.578125 
Q 30.03125 56 36.53125 56 
Q 37.453125 56 38.578125 55.875 
Q 39.703125 55.765625 41.0625 55.515625 
z
" id="DejaVuSans-114"/>
      <path d="M 34.28125 27.484375 
Q 23.390625 27.484375 19.1875 25 
Q 14.984375 22.515625 14.984375 16.5 
Q 14.984375 11.71875 18.140625 8.90625 
Q 21.296875 6.109375 26.703125 6.109375 
Q 34.1875 6.109375 38.703125 11.40625 
Q 43.21875 16.703125 43.21875 25.484375 
L 43.21875 27.484375 
z
M 52.203125 31.203125 
L 52.203125 0 
L 43.21875 0 
L 43.21875 8.296875 
Q 40.140625 3.328125 35.546875 0.953125 
Q 30.953125 -1.421875 24.3125 -1.421875 
Q 15.921875 -1.421875 10.953125 3.296875 
Q 6 8.015625 6 15.921875 
Q 6 25.140625 12.171875 29.828125 
Q 18.359375 34.515625 30.609375 34.515625 
L 43.21875 34.515625 
L 43.21875 35.40625 
Q 43.21875 41.609375 39.140625 45 
Q 35.0625 48.390625 27.6875 48.390625 
Q 23 48.390625 18.546875 47.265625 
Q 14.109375 46.140625 10.015625 43.890625 
L 10.015625 52.203125 
Q 14.9375 54.109375 19.578125 55.046875 
Q 24.21875 56 28.609375 56 
Q 40.484375 56 46.34375 49.84375 
Q 52.203125 43.703125 52.203125 31.203125 
z
" id="DejaVuSans-97"/>
      <path d="M 54.890625 33.015625 
L 54.890625 0 
L 45.90625 0 
L 45.90625 32.71875 
Q 45.90625 40.484375 42.875 44.328125 
Q 39.84375 48.1875 33.796875 48.1875 
Q 26.515625 48.1875 22.3125 43.546875 
Q 18.109375 38.921875 18.109375 30.90625 
L 18.109375 0 
L 9.078125 0 
L 9.078125 54.6875 
L 18.109375 54.6875 
L 18.109375 46.1875 
Q 21.34375 51.125 25.703125 53.5625 
Q 30.078125 56 35.796875 56 
Q 45.21875 56 50.046875 50.171875 
Q 54.890625 44.34375 54.890625 33.015625 
z
" id="DejaVuSans-110"/>
      <path d="M 18.3125 70.21875 
L 18.3125 54.6875 
L 36.8125 54.6875 
L 36.8125 47.703125 
L 18.3125 47.703125 
L 18.3125 18.015625 
Q 18.3125 11.328125 20.140625 9.421875 
Q 21.96875 7.515625 27.59375 7.515625 
L 36.8125 7.515625 
L 36.8125 0 
L 27.59375 0 
Q 17.1875 0 13.234375 3.875 
Q 9.28125 7.765625 9.28125 18.015625 
L 9.28125 47.703125 
L 2.6875 47.703125 
L 2.6875 54.6875 
L 9.28125 54.6875 
L 9.28125 70.21875 
z
" id="DejaVuSans-116"/>
      <path d="M 31 75.875 
Q 24.46875 64.65625 21.28125 53.65625 
Q 18.109375 42.671875 18.109375 31.390625 
Q 18.109375 20.125 21.3125 9.0625 
Q 24.515625 -2 31 -13.1875 
L 23.1875 -13.1875 
Q 15.875 -1.703125 12.234375 9.375 
Q 8.59375 20.453125 8.59375 31.390625 
Q 8.59375 42.28125 12.203125 53.3125 
Q 15.828125 64.359375 23.1875 75.875 
z
" id="DejaVuSans-40"/>
      <path d="M 8.015625 75.875 
L 15.828125 75.875 
Q 23.140625 64.359375 26.78125 53.3125 
Q 30.421875 42.28125 30.421875 31.390625 
Q 30.421875 20.453125 26.78125 9.375 
Q 23.140625 -1.703125 15.828125 -13.1875 
L 8.015625 -13.1875 
Q 14.5 -2 17.703125 9.0625 
Q 20.90625 20.125 20.90625 31.390625 
Q 20.90625 42.671875 17.703125 53.65625 
Q 14.5 64.65625 8.015625 75.875 
z
" id="DejaVuSans-41"/>
     </defs>
     <g transform="translate(37.8375 207.128)rotate(-90)scale(0.1 -0.1)">
      <use transform="translate(0 0.765625)" xlink:href="#DejaVuSans-84"/>
      <use transform="translate(61.083984 0.765625)" xlink:href="#DejaVuSans-111"/>
      <use transform="translate(122.265625 0.765625)" xlink:href="#DejaVuSans-108"/>
      <use transform="translate(150.048828 0.765625)" xlink:href="#DejaVuSans-101"/>
      <use transform="translate(211.572266 0.765625)" xlink:href="#DejaVuSans-114"/>
      <use transform="translate(252.685547 0.765625)" xlink:href="#DejaVuSans-97"/>
      <use transform="translate(313.964844 0.765625)" xlink:href="#DejaVuSans-110"/>
      <use transform="translate(377.34375 0.765625)" xlink:href="#DejaVuSans-116"/>
      <use transform="translate(416.552734 0.765625)" xlink:href="#DejaVuSans-40"/>
      <use transform="translate(455.566406 0.765625)" xlink:href="#DejaVuSans-124"/>
      <use transform="translate(539.551758 13.3125)" xlink:href="#DejaVuSans-8407"/>
      <use transform="translate(489.257812 0.765625)" xlink:href="#DejaVuSans-Oblique-114"/>
      <use transform="translate(530.371094 0.765625)" xlink:href="#DejaVuSans-124"/>
      <use transform="translate(565.019531 39.046875)scale(0.7)" xlink:href="#DejaVuSans-50"/>
      <use transform="translate(612.290039 0.765625)" xlink:href="#DejaVuSans-41"/>
     </g>
    </g>
   </g>
   <g id="line2d_26">
    <path clip-path="url(#p0f1ff64eaf)" d="M 73.832727 295.488 
L 77.112066 295.484872 
L 80.391405 295.475472 
L 83.670744 295.459754 
L 86.950083 295.437642 
L 90.229421 295.409029 
L 93.50876 295.373773 
L 96.788099 295.331703 
L 100.067438 295.282611 
L 103.346777 295.226253 
L 106.626116 295.16235 
L 109.905455 295.090581 
L 113.184793 295.010586 
L 116.464132 294.921959 
L 119.743471 294.824248 
L 123.02281 294.716951 
L 126.302149 294.599513 
L 129.581488 294.471321 
L 132.860826 294.331704 
L 136.140165 294.179924 
L 139.419504 294.015173 
L 142.698843 293.836568 
L 145.978182 293.643148 
L 149.257521 293.433864 
L 152.53686 293.207579 
L 155.816198 292.963055 
L 159.095537 292.698952 
L 162.374876 292.413821 
L 165.654215 292.106097 
L 168.933554 291.774089 
L 172.212893 291.415982 
L 175.492231 291.029824 
L 178.77157 290.613525 
L 182.050909 290.164852 
L 185.330248 289.681426 
L 188.609587 289.160718 
L 191.888926 288.600054 
L 195.168264 287.996611 
L 198.447603 287.347428 
L 201.726942 286.649406 
L 205.006281 285.899326 
L 208.28562 285.093858 
L 211.564959 284.229578 
L 214.844298 283.302994 
L 218.123636 282.31057 
L 221.402975 281.24875 
L 224.682314 280.114002 
L 227.961653 278.902843 
L 231.240992 277.611887 
L 234.520331 276.237881 
L 237.799669 274.777747 
L 241.079008 273.228626 
L 244.358347 271.587913 
L 247.637686 269.853299 
L 250.917025 268.022796 
L 254.196364 266.094769 
L 257.475702 264.067952 
L 260.755041 261.94146 
L 264.03438 259.714795 
L 267.313719 257.387839 
L 270.593058 254.960843 
L 273.872397 252.434406 
L 277.151736 249.809451 
L 280.431074 247.087192 
L 283.710413 244.269101 
L 286.989752 241.356864 
L 290.269091 238.35235 
L 293.54843 235.257562 
L 296.827769 232.074608 
L 300.107107 228.805657 
L 303.386446 225.452907 
L 306.665785 222.018559 
L 309.945124 218.504784 
L 313.224463 214.913703 
L 316.503802 211.247371 
L 319.78314 207.507755 
L 323.062479 203.696731 
L 326.341818 199.816068 
L 329.621157 195.867425 
L 332.900496 191.852352 
L 336.179835 187.772284 
L 339.459174 183.628545 
L 342.738512 179.422349 
L 346.017851 175.154807 
L 349.29719 170.826926 
L 352.576529 166.439622 
L 355.855868 161.993718 
L 359.135207 157.489956 
L 362.414545 152.928999 
L 365.693884 148.31144 
L 368.973223 143.637805 
L 372.252562 138.908562 
L 375.531901 134.124125 
L 378.81124 129.284858 
L 382.090579 124.391082 
L 385.369917 119.443078 
L 388.649256 114.44109 
L 391.928595 109.385335 
L 395.207934 104.275999 
L 398.487273 99.113242 
" style="fill:none;stroke:#bf00bf;stroke-dasharray:5.55,2.4;stroke-dashoffset:0;stroke-width:1.5;"/>
   </g>
   <g id="line2d_27">
    <path clip-path="url(#p0f1ff64eaf)" d="M 73.832727 295.488 
L 77.112066 295.48487 
L 80.391405 295.475451 
L 83.670744 295.459651 
L 86.950083 295.437315 
L 90.229421 295.408224 
L 93.50876 295.372093 
L 96.788099 295.328561 
L 100.067438 295.277195 
L 103.346777 295.217476 
L 106.626116 295.148797 
L 109.905455 295.070452 
L 113.184793 294.981627 
L 116.464132 294.881393 
L 119.743471 294.768686 
L 123.02281 294.642303 
L 126.302149 294.500882 
L 129.581488 294.342886 
L 132.860826 294.166589 
L 136.140165 293.970057 
L 139.419504 293.751132 
L 142.698843 293.507409 
L 145.978182 293.236227 
L 149.257521 292.934648 
L 152.53686 292.599447 
L 155.816198 292.227106 
L 159.095537 291.813809 
L 162.374876 291.355456 
L 165.654215 290.847671 
L 168.933554 290.28584 
L 172.212893 289.66515 
L 175.492231 288.980649 
L 178.77157 288.227321 
L 182.050909 287.400175 
L 185.330248 286.49435 
L 188.609587 285.505225 
L 191.888926 284.428541 
L 195.168264 283.260509 
L 198.447603 281.997917 
L 201.726942 280.638223 
L 205.006281 279.179608 
L 208.28562 277.621021 
L 211.564959 275.962172 
L 214.844298 274.203508 
L 218.123636 272.346154 
L 221.402975 270.391827 
L 224.682314 268.342741 
L 227.961653 266.201492 
L 231.240992 263.970954 
L 234.520331 261.654163 
L 237.799669 259.254226 
L 241.079008 256.774235 
L 244.358347 254.217193 
L 247.637686 251.585964 
L 250.917025 248.883233 
L 254.196364 246.111476 
L 257.475702 243.272951 
L 260.755041 240.369689 
L 264.03438 237.403502 
L 267.313719 234.375985 
L 270.593058 231.288535 
L 273.872397 228.142362 
L 277.151736 224.938509 
L 280.431074 221.677867 
L 283.710413 218.361191 
L 286.989752 214.989121 
L 290.269091 211.562191 
L 293.54843 208.080847 
L 296.827769 204.54546 
L 300.107107 200.956336 
L 303.386446 197.313726 
L 306.665785 193.617833 
L 309.945124 189.868825 
L 313.224463 186.066837 
L 316.503802 182.211976 
L 319.78314 178.304331 
L 323.062479 174.343969 
L 326.341818 170.330947 
L 329.621157 166.265307 
L 332.900496 162.147085 
L 336.179835 157.976306 
L 339.459174 153.752992 
L 342.738512 149.47716 
L 346.017851 145.148821 
L 349.29719 140.767986 
L 352.576529 136.334661 
L 355.855868 131.848854 
L 359.135207 127.310567 
L 362.414545 122.719804 
L 365.693884 118.076568 
L 368.973223 113.380861 
L 372.252562 108.632684 
L 375.531901 103.832037 
L 378.81124 98.978923 
L 382.090579 94.073341 
L 385.369917 89.115291 
L 388.649256 84.104775 
L 391.928595 79.041791 
L 395.207934 73.926342 
L 398.487273 68.758425 
" style="fill:none;stroke:#bf00bf;stroke-linecap:square;stroke-width:1.5;"/>
   </g>
   <g id="line2d_28">
    <path clip-path="url(#p0f1ff64eaf)" d="M 73.832727 295.488 
L 77.112066 295.484868 
L 80.391405 295.475411 
L 83.670744 295.459443 
L 86.950083 295.436653 
L 90.229421 295.406587 
L 93.50876 295.368647 
L 96.788099 295.322062 
L 100.067438 295.265878 
L 103.346777 295.198926 
L 106.626116 295.119793 
L 109.905455 295.026787 
L 113.184793 294.917895 
L 116.464132 294.790738 
L 119.743471 294.642524 
L 123.02281 294.469995 
L 126.302149 294.269381 
L 129.581488 294.036356 
L 132.860826 293.766013 
L 136.140165 293.452857 
L 139.419504 293.090832 
L 142.698843 292.673394 
L 145.978182 292.193642 
L 149.257521 291.6445 
L 152.53686 291.018972 
L 155.816198 290.310437 
L 159.095537 289.512978 
L 162.374876 288.621699 
L 165.654215 287.632988 
L 168.933554 286.544699 
L 172.212893 285.356211 
L 175.492231 284.068363 
L 178.77157 282.683275 
L 182.050909 281.204087 
L 185.330248 279.634652 
L 188.609587 277.979227 
L 191.888926 276.242196 
L 195.168264 274.427843 
L 198.447603 272.540183 
L 201.726942 270.582856 
L 205.006281 268.559071 
L 208.28562 266.471587 
L 211.564959 264.322732 
L 214.844298 262.11443 
L 218.123636 259.84825 
L 221.402975 257.525451 
L 224.682314 255.147031 
L 227.961653 252.713771 
L 231.240992 250.226273 
L 234.520331 247.685 
L 237.799669 245.090302 
L 241.079008 242.442441 
L 244.358347 239.741612 
L 247.637686 236.987959 
L 250.917025 234.181586 
L 254.196364 231.322568 
L 257.475702 228.41096 
L 260.755041 225.4468 
L 264.03438 222.430115 
L 267.313719 219.360924 
L 270.593058 216.23924 
L 273.872397 213.065071 
L 277.151736 209.838425 
L 280.431074 206.559304 
L 283.710413 203.227712 
L 286.989752 199.84365 
L 290.269091 196.40712 
L 293.54843 192.918123 
L 296.827769 189.376658 
L 300.107107 185.782727 
L 303.386446 182.136329 
L 306.665785 178.437465 
L 309.945124 174.686135 
L 313.224463 170.882338 
L 316.503802 167.026075 
L 319.78314 163.117346 
L 323.062479 159.156151 
L 326.341818 155.14249 
L 329.621157 151.076362 
L 332.900496 146.957768 
L 336.179835 142.786708 
L 339.459174 138.563182 
L 342.738512 134.28719 
L 346.017851 129.958732 
L 349.29719 125.577807 
L 352.576529 121.144417 
L 355.855868 116.65856 
L 359.135207 112.120237 
L 362.414545 107.529448 
L 365.693884 102.886192 
L 368.973223 98.190471 
L 372.252562 93.442283 
L 375.531901 88.641629 
L 378.81124 83.788509 
L 382.090579 78.882923 
L 385.369917 73.924871 
L 388.649256 68.914352 
L 391.928595 63.851368 
L 395.207934 58.735917 
L 398.487273 53.568 
" style="fill:none;stroke:#bf00bf;stroke-dasharray:9.6,2.4,1.5,2.4;stroke-dashoffset:0;stroke-width:1.5;"/>
   </g>
   <g id="patch_3">
    <path d="M 57.6 307.584 
L 57.6 41.472 
" style="fill:none;stroke:#000000;stroke-linecap:square;stroke-linejoin:miter;stroke-width:0.8;"/>
   </g>
   <g id="patch_4">
    <path d="M 414.72 307.584 
L 414.72 41.472 
" style="fill:none;stroke:#000000;stroke-linecap:square;stroke-linejoin:miter;stroke-width:0.8;"/>
   </g>
   <g id="patch_5">
    <path d="M 57.6 307.584 
L 414.72 307.584 
" style="fill:none;stroke:#000000;stroke-linecap:square;stroke-linejoin:miter;stroke-width:0.8;"/>
   </g>
   <g id="patch_6">
    <path d="M 57.6 41.472 
L 414.72 41.472 
" style="fill:none;stroke:#000000;stroke-linecap:square;stroke-linejoin:miter;stroke-width:0.8;"/>
   </g>
   <g id="text_15">
    <!-- loss.Tolerant depending on residual vector $\vec{r}$ and scale -->
    <defs>
     <path d="M 44.28125 53.078125 
L 44.28125 44.578125 
Q 40.484375 46.53125 36.375 47.5 
Q 32.28125 48.484375 27.875 48.484375 
Q 21.1875 48.484375 17.84375 46.4375 
Q 14.5 44.390625 14.5 40.28125 
Q 14.5 37.15625 16.890625 35.375 
Q 19.28125 33.59375 26.515625 31.984375 
L 29.59375 31.296875 
Q 39.15625 29.25 43.1875 25.515625 
Q 47.21875 21.78125 47.21875 15.09375 
Q 47.21875 7.46875 41.1875 3.015625 
Q 35.15625 -1.421875 24.609375 -1.421875 
Q 20.21875 -1.421875 15.453125 -0.5625 
Q 10.6875 0.296875 5.421875 2 
L 5.421875 11.28125 
Q 10.40625 8.6875 15.234375 7.390625 
Q 20.0625 6.109375 24.8125 6.109375 
Q 31.15625 6.109375 34.5625 8.28125 
Q 37.984375 10.453125 37.984375 14.40625 
Q 37.984375 18.0625 35.515625 20.015625 
Q 33.0625 21.96875 24.703125 23.78125 
L 21.578125 24.515625 
Q 13.234375 26.265625 9.515625 29.90625 
Q 5.8125 33.546875 5.8125 39.890625 
Q 5.8125 47.609375 11.28125 51.796875 
Q 16.75 56 26.8125 56 
Q 31.78125 56 36.171875 55.265625 
Q 40.578125 54.546875 44.28125 53.078125 
z
" id="DejaVuSans-115"/>
     <path id="DejaVuSans-32"/>
     <path d="M 45.40625 46.390625 
L 45.40625 75.984375 
L 54.390625 75.984375 
L 54.390625 0 
L 45.40625 0 
L 45.40625 8.203125 
Q 42.578125 3.328125 38.25 0.953125 
Q 33.9375 -1.421875 27.875 -1.421875 
Q 17.96875 -1.421875 11.734375 6.484375 
Q 5.515625 14.40625 5.515625 27.296875 
Q 5.515625 40.1875 11.734375 48.09375 
Q 17.96875 56 27.875 56 
Q 33.9375 56 38.25 53.625 
Q 42.578125 51.265625 45.40625 46.390625 
z
M 14.796875 27.296875 
Q 14.796875 17.390625 18.875 11.75 
Q 22.953125 6.109375 30.078125 6.109375 
Q 37.203125 6.109375 41.296875 11.75 
Q 45.40625 17.390625 45.40625 27.296875 
Q 45.40625 37.203125 41.296875 42.84375 
Q 37.203125 48.484375 30.078125 48.484375 
Q 22.953125 48.484375 18.875 42.84375 
Q 14.796875 37.203125 14.796875 27.296875 
z
" id="DejaVuSans-100"/>
     <path d="M 18.109375 8.203125 
L 18.109375 -20.796875 
L 9.078125 -20.796875 
L 9.078125 54.6875 
L 18.109375 54.6875 
L 18.109375 46.390625 
Q 20.953125 51.265625 25.265625 53.625 
Q 29.59375 56 35.59375 56 
Q 45.5625 56 51.78125 48.09375 
Q 58.015625 40.1875 58.015625 27.296875 
Q 58.015625 14.40625 51.78125 6.484375 
Q 45.5625 -1.421875 35.59375 -1.421875 
Q 29.59375 -1.421875 25.265625 0.953125 
Q 20.953125 3.328125 18.109375 8.203125 
z
M 48.6875 27.296875 
Q 48.6875 37.203125 44.609375 42.84375 
Q 40.53125 48.484375 33.40625 48.484375 
Q 26.265625 48.484375 22.1875 42.84375 
Q 18.109375 37.203125 18.109375 27.296875 
Q 18.109375 17.390625 22.1875 11.75 
Q 26.265625 6.109375 33.40625 6.109375 
Q 40.53125 6.109375 44.609375 11.75 
Q 48.6875 17.390625 48.6875 27.296875 
z
" id="DejaVuSans-112"/>
     <path d="M 9.421875 54.6875 
L 18.40625 54.6875 
L 18.40625 0 
L 9.421875 0 
z
M 9.421875 75.984375 
L 18.40625 75.984375 
L 18.40625 64.59375 
L 9.421875 64.59375 
z
" id="DejaVuSans-105"/>
     <path d="M 45.40625 27.984375 
Q 45.40625 37.75 41.375 43.109375 
Q 37.359375 48.484375 30.078125 48.484375 
Q 22.859375 48.484375 18.828125 43.109375 
Q 14.796875 37.75 14.796875 27.984375 
Q 14.796875 18.265625 18.828125 12.890625 
Q 22.859375 7.515625 30.078125 7.515625 
Q 37.359375 7.515625 41.375 12.890625 
Q 45.40625 18.265625 45.40625 27.984375 
z
M 54.390625 6.78125 
Q 54.390625 -7.171875 48.1875 -13.984375 
Q 42 -20.796875 29.203125 -20.796875 
Q 24.46875 -20.796875 20.265625 -20.09375 
Q 16.0625 -19.390625 12.109375 -17.921875 
L 12.109375 -9.1875 
Q 16.0625 -11.328125 19.921875 -12.34375 
Q 23.78125 -13.375 27.78125 -13.375 
Q 36.625 -13.375 41.015625 -8.765625 
Q 45.40625 -4.15625 45.40625 5.171875 
L 45.40625 9.625 
Q 42.625 4.78125 38.28125 2.390625 
Q 33.9375 0 27.875 0 
Q 17.828125 0 11.671875 7.65625 
Q 5.515625 15.328125 5.515625 27.984375 
Q 5.515625 40.671875 11.671875 48.328125 
Q 17.828125 56 27.875 56 
Q 33.9375 56 38.28125 53.609375 
Q 42.625 51.21875 45.40625 46.390625 
L 45.40625 54.6875 
L 54.390625 54.6875 
z
" id="DejaVuSans-103"/>
     <path d="M 8.5 21.578125 
L 8.5 54.6875 
L 17.484375 54.6875 
L 17.484375 21.921875 
Q 17.484375 14.15625 20.5 10.265625 
Q 23.53125 6.390625 29.59375 6.390625 
Q 36.859375 6.390625 41.078125 11.03125 
Q 45.3125 15.671875 45.3125 23.6875 
L 45.3125 54.6875 
L 54.296875 54.6875 
L 54.296875 0 
L 45.3125 0 
L 45.3125 8.40625 
Q 42.046875 3.421875 37.71875 1 
Q 33.40625 -1.421875 27.6875 -1.421875 
Q 18.265625 -1.421875 13.375 4.4375 
Q 8.5 10.296875 8.5 21.578125 
z
M 31.109375 56 
z
" id="DejaVuSans-117"/>
     <path d="M 2.984375 54.6875 
L 12.5 54.6875 
L 29.59375 8.796875 
L 46.6875 54.6875 
L 56.203125 54.6875 
L 35.6875 0 
L 23.484375 0 
z
" id="DejaVuSans-118"/>
     <path d="M 48.78125 52.59375 
L 48.78125 44.1875 
Q 44.96875 46.296875 41.140625 47.34375 
Q 37.3125 48.390625 33.40625 48.390625 
Q 24.65625 48.390625 19.8125 42.84375 
Q 14.984375 37.3125 14.984375 27.296875 
Q 14.984375 17.28125 19.8125 11.734375 
Q 24.65625 6.203125 33.40625 6.203125 
Q 37.3125 6.203125 41.140625 7.25 
Q 44.96875 8.296875 48.78125 10.40625 
L 48.78125 2.09375 
Q 45.015625 0.34375 40.984375 -0.53125 
Q 36.96875 -1.421875 32.421875 -1.421875 
Q 20.0625 -1.421875 12.78125 6.34375 
Q 5.515625 14.109375 5.515625 27.296875 
Q 5.515625 40.671875 12.859375 48.328125 
Q 20.21875 56 33.015625 56 
Q 37.15625 56 41.109375 55.140625 
Q 45.0625 54.296875 48.78125 52.59375 
z
" id="DejaVuSans-99"/>
    </defs>
    <g transform="translate(72.78 35.472)scale(0.12 -0.12)">
     <use transform="translate(0 0.46875)" xlink:href="#DejaVuSans-108"/>
     <use transform="translate(27.783203 0.46875)" xlink:href="#DejaVuSans-111"/>
     <use transform="translate(88.964844 0.46875)" xlink:href="#DejaVuSans-115"/>
     <use transform="translate(141.064453 0.46875)" xlink:href="#DejaVuSans-115"/>
     <use transform="translate(193.164062 0.46875)" xlink:href="#DejaVuSans-46"/>
     <use transform="translate(224.951172 0.46875)" xlink:href="#DejaVuSans-84"/>
     <use transform="translate(286.035156 0.46875)" xlink:href="#DejaVuSans-111"/>
     <use transform="translate(347.216797 0.46875)" xlink:href="#DejaVuSans-108"/>
     <use transform="translate(375 0.46875)" xlink:href="#DejaVuSans-101"/>
     <use transform="translate(436.523438 0.46875)" xlink:href="#DejaVuSans-114"/>
     <use transform="translate(477.636719 0.46875)" xlink:href="#DejaVuSans-97"/>
     <use transform="translate(538.916016 0.46875)" xlink:href="#DejaVuSans-110"/>
     <use transform="translate(602.294922 0.46875)" xlink:href="#DejaVuSans-116"/>
     <use transform="translate(641.503906 0.46875)" xlink:href="#DejaVuSans-32"/>
     <use transform="translate(673.291016 0.46875)" xlink:href="#DejaVuSans-100"/>
     <use transform="translate(736.767578 0.46875)" xlink:href="#DejaVuSans-101"/>
     <use transform="translate(798.291016 0.46875)" xlink:href="#DejaVuSans-112"/>
     <use transform="translate(861.767578 0.46875)" xlink:href="#DejaVuSans-101"/>
     <use transform="translate(923.291016 0.46875)" xlink:href="#DejaVuSans-110"/>
     <use transform="translate(986.669922 0.46875)" xlink:href="#DejaVuSans-100"/>
     <use transform="translate(1050.146484 0.46875)" xlink:href="#DejaVuSans-105"/>
     <use transform="translate(1077.929688 0.46875)" xlink:href="#DejaVuSans-110"/>
     <use transform="translate(1141.308594 0.46875)" xlink:href="#DejaVuSans-103"/>
     <use transform="translate(1204.785156 0.46875)" xlink:href="#DejaVuSans-32"/>
     <use transform="translate(1236.572266 0.46875)" xlink:href="#DejaVuSans-111"/>
     <use transform="translate(1297.753906 0.46875)" xlink:href="#DejaVuSans-110"/>
     <use transform="translate(1361.132812 0.46875)" xlink:href="#DejaVuSans-32"/>
     <use transform="translate(1392.919922 0.46875)" xlink:href="#DejaVuSans-114"/>
     <use transform="translate(1434.033203 0.46875)" xlink:href="#DejaVuSans-101"/>
     <use transform="translate(1495.556641 0.46875)" xlink:href="#DejaVuSans-115"/>
     <use transform="translate(1547.65625 0.46875)" xlink:href="#DejaVuSans-105"/>
     <use transform="translate(1575.439453 0.46875)" xlink:href="#DejaVuSans-100"/>
     <use transform="translate(1638.916016 0.46875)" xlink:href="#DejaVuSans-117"/>
     <use transform="translate(1702.294922 0.46875)" xlink:href="#DejaVuSans-97"/>
     <use transform="translate(1763.574219 0.46875)" xlink:href="#DejaVuSans-108"/>
     <use transform="translate(1791.357422 0.46875)" xlink:href="#DejaVuSans-32"/>
     <use transform="translate(1823.144531 0.46875)" xlink:href="#DejaVuSans-118"/>
     <use transform="translate(1882.324219 0.46875)" xlink:href="#DejaVuSans-101"/>
     <use transform="translate(1943.847656 0.46875)" xlink:href="#DejaVuSans-99"/>
     <use transform="translate(1998.828125 0.46875)" xlink:href="#DejaVuSans-116"/>
     <use transform="translate(2038.037109 0.46875)" xlink:href="#DejaVuSans-111"/>
     <use transform="translate(2099.21875 0.46875)" xlink:href="#DejaVuSans-114"/>
     <use transform="translate(2140.332031 0.46875)" xlink:href="#DejaVuSans-32"/>
     <use transform="translate(2222.413086 13.015625)" xlink:href="#DejaVuSans-8407"/>
     <use transform="translate(2172.119141 0.46875)" xlink:href="#DejaVuSans-Oblique-114"/>
     <use transform="translate(2213.232422 0.46875)" xlink:href="#DejaVuSans-32"/>
     <use transform="translate(2245.019531 0.46875)" xlink:href="#DejaVuSans-97"/>
     <use transform="translate(2306.298828 0.46875)" xlink:href="#DejaVuSans-110"/>
     <use transform="translate(2369.677734 0.46875)" xlink:href="#DejaVuSans-100"/>
     <use transform="translate(2433.154297 0.46875)" xlink:href="#DejaVuSans-32"/>
     <use transform="translate(2464.941406 0.46875)" xlink:href="#DejaVuSans-115"/>
     <use transform="translate(2517.041016 0.46875)" xlink:href="#DejaVuSans-99"/>
     <use transform="translate(2572.021484 0.46875)" xlink:href="#DejaVuSans-97"/>
     <use transform="translate(2633.300781 0.46875)" xlink:href="#DejaVuSans-108"/>
     <use transform="translate(2661.083984 0.46875)" xlink:href="#DejaVuSans-101"/>
    </g>
   </g>
   <g id="legend_1">
    <g id="patch_7">
     <path d="M 64.6 108.1845 
L 185.704688 108.1845 
Q 187.704688 108.1845 187.704688 106.1845 
L 187.704688 48.472 
Q 187.704688 46.472 185.704688 46.472 
L 64.6 46.472 
Q 62.6 46.472 62.6 48.472 
L 62.6 106.1845 
Q 62.6 108.1845 64.6 108.1845 
z
" style="fill:#ffffff;opacity:0.8;stroke:#cccccc;stroke-linejoin:miter;"/>
    </g>
    <g id="line2d_29">
     <path d="M 66.6 54.570438 
L 86.6 54.570438 
" style="fill:none;stroke:#bf00bf;stroke-dasharray:5.55,2.4;stroke-dashoffset:0;stroke-width:1.5;"/>
    </g>
    <g id="line2d_30"/>
    <g id="text_16">
     <!-- Tolerant(2.0,1.0) -->
     <defs>
      <path d="M 11.71875 12.40625 
L 22.015625 12.40625 
L 22.015625 4 
L 14.015625 -11.625 
L 7.71875 -11.625 
L 11.71875 4 
z
" id="DejaVuSans-44"/>
     </defs>
     <g transform="translate(94.6 58.070438)scale(0.1 -0.1)">
      <use xlink:href="#DejaVuSans-84"/>
      <use x="44.083984" xlink:href="#DejaVuSans-111"/>
      <use x="105.265625" xlink:href="#DejaVuSans-108"/>
      <use x="133.048828" xlink:href="#DejaVuSans-101"/>
      <use x="194.572266" xlink:href="#DejaVuSans-114"/>
      <use x="235.685547" xlink:href="#DejaVuSans-97"/>
      <use x="296.964844" xlink:href="#DejaVuSans-110"/>
      <use x="360.34375" xlink:href="#DejaVuSans-116"/>
      <use x="399.552734" xlink:href="#DejaVuSans-40"/>
      <use x="438.566406" xlink:href="#DejaVuSans-50"/>
      <use x="502.189453" xlink:href="#DejaVuSans-46"/>
      <use x="533.976562" xlink:href="#DejaVuSans-48"/>
      <use x="597.599609" xlink:href="#DejaVuSans-44"/>
      <use x="629.386719" xlink:href="#DejaVuSans-49"/>
      <use x="693.009766" xlink:href="#DejaVuSans-46"/>
      <use x="724.796875" xlink:href="#DejaVuSans-48"/>
      <use x="788.419922" xlink:href="#DejaVuSans-41"/>
     </g>
    </g>
    <g id="line2d_31">
     <path d="M 66.6 69.248563 
L 86.6 69.248563 
" style="fill:none;stroke:#bf00bf;stroke-linecap:square;stroke-width:1.5;"/>
    </g>
    <g id="line2d_32"/>
    <g id="text_17">
     <!-- Tolerant(1.0,0.5) -->
     <g transform="translate(94.6 72.748563)scale(0.1 -0.1)">
      <use xlink:href="#DejaVuSans-84"/>
      <use x="44.083984" xlink:href="#DejaVuSans-111"/>
      <use x="105.265625" xlink:href="#DejaVuSans-108"/>
      <use x="133.048828" xlink:href="#DejaVuSans-101"/>
      <use x="194.572266" xlink:href="#DejaVuSans-114"/>
      <use x="235.685547" xlink:href="#DejaVuSans-97"/>
      <use x="296.964844" xlink:href="#DejaVuSans-110"/>
      <use x="360.34375" xlink:href="#DejaVuSans-116"/>
      <use x="399.552734" xlink:href="#DejaVuSans-40"/>
      <use x="438.566406" xlink:href="#DejaVuSans-49"/>
      <use x="502.189453" xlink:href="#DejaVuSans-46"/>
      <use x="533.976562" xlink:href="#DejaVuSans-48"/>
      <use x="597.599609" xlink:href="#DejaVuSans-44"/>
      <use x="629.386719" xlink:href="#DejaVuSans-48"/>
      <use x="693.009766" xlink:href="#DejaVuSans-46"/>
      <use x="724.796875" xlink:href="#DejaVuSans-53"/>
      <use x="788.419922" xlink:href="#DejaVuSans-41"/>
     </g>
    </g>
    <g id="line2d_33">
     <path d="M 66.6 83.926688 
L 86.6 83.926688 
" style="fill:none;stroke:#bf00bf;stroke-dasharray:9.6,2.4,1.5,2.4;stroke-dashoffset:0;stroke-width:1.5;"/>
    </g>
    <g id="line2d_34"/>
    <g id="text_18">
     <!-- Tolerant(0.5,0.25) -->
     <g transform="translate(94.6 87.426688)scale(0.1 -0.1)">
      <use xlink:href="#DejaVuSans-84"/>
      <use x="44.083984" xlink:href="#DejaVuSans-111"/>
      <use x="105.265625" xlink:href="#DejaVuSans-108"/>
      <use x="133.048828" xlink:href="#DejaVuSans-101"/>
      <use x="194.572266" xlink:href="#DejaVuSans-114"/>
      <use x="235.685547" xlink:href="#DejaVuSans-97"/>
      <use x="296.964844" xlink:href="#DejaVuSans-110"/>
      <use x="360.34375" xlink:href="#DejaVuSans-116"/>
      <use x="399.552734" xlink:href="#DejaVuSans-40"/>
      <use x="438.566406" xlink:href="#DejaVuSans-48"/>
      <use x="502.189453" xlink:href="#DejaVuSans-46"/>
      <use x="533.976562" xlink:href="#DejaVuSans-53"/>
      <use x="597.599609" xlink:href="#DejaVuSans-44"/>
      <use x="629.386719" xlink:href="#DejaVuSans-48"/>
      <use x="693.009766" xlink:href="#DejaVuSans-46"/>
      <use x="724.796875" xlink:href="#DejaVuSans-50"/>
      <use x="788.419922" xlink:href="#DejaVuSans-53"/>
      <use x="852.042969" xlink:href="#DejaVuSans-41"/>
     </g>
    </g>
    <g id="line2d_35">
     <path d="M 66.6 98.604813 
L 86.6 98.604813 
" style="fill:none;stroke:#ff0000;stroke-linecap:square;stroke-width:1.5;"/>
    </g>
    <g id="line2d_36"/>
    <g id="text_19">
     <!-- Trivial -->
     <g transform="translate(94.6 102.104813)scale(0.1 -0.1)">
      <use xlink:href="#DejaVuSans-84"/>
      <use x="46.333984" xlink:href="#DejaVuSans-114"/>
      <use x="87.447266" xlink:href="#DejaVuSans-105"/>
      <use x="115.230469" xlink:href="#DejaVuSans-118"/>
      <use x="174.410156" xlink:href="#DejaVuSans-105"/>
      <use x="202.193359" xlink:href="#DejaVuSans-97"/>
      <use x="263.472656" xlink:href="#DejaVuSans-108"/>
     </g>
    </g>
   </g>
  </g>
 </g>
 <defs>
  <clipPath id="p0f1ff64eaf">
   <rect height="266.112" width="357.12" x="57.6" y="41.472"/>
  </clipPath>
 </defs>
</svg>
