<?xml version="1.0" encoding="utf-8" standalone="no"?>
<!DOCTYPE svg PUBLIC "-//W3C//DTD SVG 1.1//EN"
  "http://www.w3.org/Graphics/SVG/1.1/DTD/svg11.dtd">
<!-- Created with matplotlib (https://matplotlib.org/) -->
<svg height="345.6pt" version="1.1" viewBox="0 0 460.8 345.6" width="460.8pt" xmlns="http://www.w3.org/2000/svg" xmlns:xlink="http://www.w3.org/1999/xlink">
 <defs>
  <style type="text/css">
*{stroke-linecap:butt;stroke-linejoin:round;}
  </style>
 </defs>
 <g id="figure_1">
  <g id="patch_1">
   <path d="M 0 345.6 
L 460.8 345.6 
L 460.8 0 
L 0 0 
z
" style="fill:#ffffff;"/>
  </g>
  <g id="axes_1">
   <g id="patch_2">
    <path d="M 57.6 307.584 
L 414.72 307.584 
L 414.72 41.472 
L 57.6 41.472 
z
" style="fill:#ffffff;"/>
   </g>
   <g id="matplotlib.axis_1">
    <g id="xtick_1">
     <g id="line2d_1">
      <path clip-path="url(#p6d7da2f97c)" d="M 73.832727 307.584 
L 73.832727 41.472 
" style="fill:none;stroke:#b0b0b0;stroke-linecap:square;stroke-width:0.8;"/>
     </g>
     <g id="line2d_2">
      <defs>
       <path d="M 0 0 
L 0 3.5 
" id="m40b8127a85" style="stroke:#000000;stroke-width:0.8;"/>
      </defs>
      <g>
       <use style="stroke:#000000;stroke-width:0.8;" x="73.832727" xlink:href="#m40b8127a85" y="307.584"/>
      </g>
     </g>
     <g id="text_1">
      <!-- 0.0 -->
      <defs>
       <path d="M 31.78125 66.40625 
Q 24.171875 66.40625 20.328125 58.90625 
Q 16.5 51.421875 16.5 36.375 
Q 16.5 21.390625 20.328125 13.890625 
Q 24.171875 6.390625 31.78125 6.390625 
Q 39.453125 6.390625 43.28125 13.890625 
Q 47.125 21.390625 47.125 36.375 
Q 47.125 51.421875 43.28125 58.90625 
Q 39.453125 66.40625 31.78125 66.40625 
z
M 31.78125 74.21875 
Q 44.046875 74.21875 50.515625 64.515625 
Q 56.984375 54.828125 56.984375 36.375 
Q 56.984375 17.96875 50.515625 8.265625 
Q 44.046875 -1.421875 31.78125 -1.421875 
Q 19.53125 -1.421875 13.0625 8.265625 
Q 6.59375 17.96875 6.59375 36.375 
Q 6.59375 54.828125 13.0625 64.515625 
Q 19.53125 74.21875 31.78125 74.21875 
z
" id="DejaVuSans-48"/>
       <path d="M 10.6875 12.40625 
L 21 12.40625 
L 21 0 
L 10.6875 0 
z
" id="DejaVuSans-46"/>
      </defs>
      <g transform="translate(65.881165 322.182437)scale(0.1 -0.1)">
       <use xlink:href="#DejaVuSans-48"/>
       <use x="63.623047" xlink:href="#DejaVuSans-46"/>
       <use x="95.410156" xlink:href="#DejaVuSans-48"/>
      </g>
     </g>
    </g>
    <g id="xtick_2">
     <g id="line2d_3">
      <path clip-path="url(#p6d7da2f97c)" d="M 127.941818 307.584 
L 127.941818 41.472 
" style="fill:none;stroke:#b0b0b0;stroke-linecap:square;stroke-width:0.8;"/>
     </g>
     <g id="line2d_4">
      <g>
       <use style="stroke:#000000;stroke-width:0.8;" x="127.941818" xlink:href="#m40b8127a85" y="307.584"/>
      </g>
     </g>
     <g id="text_2">
      <!-- 0.5 -->
      <defs>
       <path d="M 10.796875 72.90625 
L 49.515625 72.90625 
L 49.515625 64.59375 
L 19.828125 64.59375 
L 19.828125 46.734375 
Q 21.96875 47.46875 24.109375 47.828125 
Q 26.265625 48.1875 28.421875 48.1875 
Q 40.625 48.1875 47.75 41.5 
Q 54.890625 34.8125 54.890625 23.390625 
Q 54.890625 11.625 47.5625 5.09375 
Q 40.234375 -1.421875 26.90625 -1.421875 
Q 22.3125 -1.421875 17.546875 -0.640625 
Q 12.796875 0.140625 7.71875 1.703125 
L 7.71875 11.625 
Q 12.109375 9.234375 16.796875 8.0625 
Q 21.484375 6.890625 26.703125 6.890625 
Q 35.15625 6.890625 40.078125 11.328125 
Q 45.015625 15.765625 45.015625 23.390625 
Q 45.015625 31 40.078125 35.4375 
Q 35.15625 39.890625 26.703125 39.890625 
Q 22.75 39.890625 18.8125 39.015625 
Q 14.890625 38.140625 10.796875 36.28125 
z
" id="DejaVuSans-53"/>
      </defs>
      <g transform="translate(119.990256 322.182437)scale(0.1 -0.1)">
       <use xlink:href="#DejaVuSans-48"/>
       <use x="63.623047" xlink:href="#DejaVuSans-46"/>
       <use x="95.410156" xlink:href="#DejaVuSans-53"/>
      </g>
     </g>
    </g>
    <g id="xtick_3">
     <g id="line2d_5">
      <path clip-path="url(#p6d7da2f97c)" d="M 182.050909 307.584 
L 182.050909 41.472 
" style="fill:none;stroke:#b0b0b0;stroke-linecap:square;stroke-width:0.8;"/>
     </g>
     <g id="line2d_6">
      <g>
       <use style="stroke:#000000;stroke-width:0.8;" x="182.050909" xlink:href="#m40b8127a85" y="307.584"/>
      </g>
     </g>
     <g id="text_3">
      <!-- 1.0 -->
      <defs>
       <path d="M 12.40625 8.296875 
L 28.515625 8.296875 
L 28.515625 63.921875 
L 10.984375 60.40625 
L 10.984375 69.390625 
L 28.421875 72.90625 
L 38.28125 72.90625 
L 38.28125 8.296875 
L 54.390625 8.296875 
L 54.390625 0 
L 12.40625 0 
z
" id="DejaVuSans-49"/>
      </defs>
      <g transform="translate(174.099347 322.182437)scale(0.1 -0.1)">
       <use xlink:href="#DejaVuSans-49"/>
       <use x="63.623047" xlink:href="#DejaVuSans-46"/>
       <use x="95.410156" xlink:href="#DejaVuSans-48"/>
      </g>
     </g>
    </g>
    <g id="xtick_4">
     <g id="line2d_7">
      <path clip-path="url(#p6d7da2f97c)" d="M 236.16 307.584 
L 236.16 41.472 
" style="fill:none;stroke:#b0b0b0;stroke-linecap:square;stroke-width:0.8;"/>
     </g>
     <g id="line2d_8">
      <g>
       <use style="stroke:#000000;stroke-width:0.8;" x="236.16" xlink:href="#m40b8127a85" y="307.584"/>
      </g>
     </g>
     <g id="text_4">
      <!-- 1.5 -->
      <g transform="translate(228.208438 322.182437)scale(0.1 -0.1)">
       <use xlink:href="#DejaVuSans-49"/>
       <use x="63.623047" xlink:href="#DejaVuSans-46"/>
       <use x="95.410156" xlink:href="#DejaVuSans-53"/>
      </g>
     </g>
    </g>
    <g id="xtick_5">
     <g id="line2d_9">
      <path clip-path="url(#p6d7da2f97c)" d="M 290.269091 307.584 
L 290.269091 41.472 
" style="fill:none;stroke:#b0b0b0;stroke-linecap:square;stroke-width:0.8;"/>
     </g>
     <g id="line2d_10">
      <g>
       <use style="stroke:#000000;stroke-width:0.8;" x="290.269091" xlink:href="#m40b8127a85" y="307.584"/>
      </g>
     </g>
     <g id="text_5">
      <!-- 2.0 -->
      <defs>
       <path d="M 19.1875 8.296875 
L 53.609375 8.296875 
L 53.609375 0 
L 7.328125 0 
L 7.328125 8.296875 
Q 12.9375 14.109375 22.625 23.890625 
Q 32.328125 33.6875 34.8125 36.53125 
Q 39.546875 41.84375 41.421875 45.53125 
Q 43.3125 49.21875 43.3125 52.78125 
Q 43.3125 58.59375 39.234375 62.25 
Q 35.15625 65.921875 28.609375 65.921875 
Q 23.96875 65.921875 18.8125 64.3125 
Q 13.671875 62.703125 7.8125 59.421875 
L 7.8125 69.390625 
Q 13.765625 71.78125 18.9375 73 
Q 24.125 74.21875 28.421875 74.21875 
Q 39.75 74.21875 46.484375 68.546875 
Q 53.21875 62.890625 53.21875 53.421875 
Q 53.21875 48.921875 51.53125 44.890625 
Q 49.859375 40.875 45.40625 35.40625 
Q 44.1875 33.984375 37.640625 27.21875 
Q 31.109375 20.453125 19.1875 8.296875 
z
" id="DejaVuSans-50"/>
      </defs>
      <g transform="translate(282.317528 322.182437)scale(0.1 -0.1)">
       <use xlink:href="#DejaVuSans-50"/>
       <use x="63.623047" xlink:href="#DejaVuSans-46"/>
       <use x="95.410156" xlink:href="#DejaVuSans-48"/>
      </g>
     </g>
    </g>
    <g id="xtick_6">
     <g id="line2d_11">
      <path clip-path="url(#p6d7da2f97c)" d="M 344.378182 307.584 
L 344.378182 41.472 
" style="fill:none;stroke:#b0b0b0;stroke-linecap:square;stroke-width:0.8;"/>
     </g>
     <g id="line2d_12">
      <g>
       <use style="stroke:#000000;stroke-width:0.8;" x="344.378182" xlink:href="#m40b8127a85" y="307.584"/>
      </g>
     </g>
     <g id="text_6">
      <!-- 2.5 -->
      <g transform="translate(336.426619 322.182437)scale(0.1 -0.1)">
       <use xlink:href="#DejaVuSans-50"/>
       <use x="63.623047" xlink:href="#DejaVuSans-46"/>
       <use x="95.410156" xlink:href="#DejaVuSans-53"/>
      </g>
     </g>
    </g>
    <g id="xtick_7">
     <g id="line2d_13">
      <path clip-path="url(#p6d7da2f97c)" d="M 398.487273 307.584 
L 398.487273 41.472 
" style="fill:none;stroke:#b0b0b0;stroke-linecap:square;stroke-width:0.8;"/>
     </g>
     <g id="line2d_14">
      <g>
       <use style="stroke:#000000;stroke-width:0.8;" x="398.487273" xlink:href="#m40b8127a85" y="307.584"/>
      </g>
     </g>
     <g id="text_7">
      <!-- 3.0 -->
      <defs>
       <path d="M 40.578125 39.3125 
Q 47.65625 37.796875 51.625 33 
Q 55.609375 28.21875 55.609375 21.1875 
Q 55.609375 10.40625 48.1875 4.484375 
Q 40.765625 -1.421875 27.09375 -1.421875 
Q 22.515625 -1.421875 17.65625 -0.515625 
Q 12.796875 0.390625 7.625 2.203125 
L 7.625 11.71875 
Q 11.71875 9.328125 16.59375 8.109375 
Q 21.484375 6.890625 26.8125 6.890625 
Q 36.078125 6.890625 40.9375 10.546875 
Q 45.796875 14.203125 45.796875 21.1875 
Q 45.796875 27.640625 41.28125 31.265625 
Q 36.765625 34.90625 28.71875 34.90625 
L 20.21875 34.90625 
L 20.21875 43.015625 
L 29.109375 43.015625 
Q 36.375 43.015625 40.234375 45.921875 
Q 44.09375 48.828125 44.09375 54.296875 
Q 44.09375 59.90625 40.109375 62.90625 
Q 36.140625 65.921875 28.71875 65.921875 
Q 24.65625 65.921875 20.015625 65.03125 
Q 15.375 64.15625 9.8125 62.3125 
L 9.8125 71.09375 
Q 15.4375 72.65625 20.34375 73.4375 
Q 25.25 74.21875 29.59375 74.21875 
Q 40.828125 74.21875 47.359375 69.109375 
Q 53.90625 64.015625 53.90625 55.328125 
Q 53.90625 49.265625 50.4375 45.09375 
Q 46.96875 40.921875 40.578125 39.3125 
z
" id="DejaVuSans-51"/>
      </defs>
      <g transform="translate(390.53571 322.182437)scale(0.1 -0.1)">
       <use xlink:href="#DejaVuSans-51"/>
       <use x="63.623047" xlink:href="#DejaVuSans-46"/>
       <use x="95.410156" xlink:href="#DejaVuSans-48"/>
      </g>
     </g>
    </g>
    <g id="text_8">
     <!-- $\|\vec{r}\|$ -->
     <defs>
      <path d="M 21 76.421875 
L 21 -23.578125 
L 12.703125 -23.578125 
L 12.703125 76.421875 
z
" id="DejaVuSans-124"/>
      <path d="M -47.015625 63.53125 
L -47.015625 68.40625 
L -10.84375 68.40625 
L -17.28125 75.984375 
L -11.140625 75.984375 
L -2.59375 65.96875 
L -11.140625 55.953125 
L -17.28125 55.953125 
L -10.84375 63.53125 
z
" id="DejaVuSans-8407"/>
      <path d="M 44.578125 46.390625 
Q 43.21875 47.125 41.453125 47.515625 
Q 39.703125 47.90625 37.703125 47.90625 
Q 30.515625 47.90625 25.140625 42.453125 
Q 19.78125 37.015625 18.015625 27.875 
L 12.5 0 
L 3.515625 0 
L 14.203125 54.6875 
L 23.1875 54.6875 
L 21.484375 46.1875 
Q 25.046875 50.921875 30 53.453125 
Q 34.96875 56 40.578125 56 
Q 42.046875 56 43.453125 55.828125 
Q 44.875 55.671875 46.296875 55.28125 
z
" id="DejaVuSans-Oblique-114"/>
     </defs>
     <g transform="translate(230.71 337.162125)scale(0.1 -0.1)">
      <use transform="translate(0 0.46875)" xlink:href="#DejaVuSans-124"/>
      <use transform="translate(83.985352 13.015625)" xlink:href="#DejaVuSans-8407"/>
      <use transform="translate(33.691406 0.46875)" xlink:href="#DejaVuSans-Oblique-114"/>
      <use transform="translate(74.804688 0.46875)" xlink:href="#DejaVuSans-124"/>
     </g>
    </g>
   </g>
   <g id="matplotlib.axis_2">
    <g id="ytick_1">
     <g id="line2d_15">
      <path clip-path="url(#p6d7da2f97c)" d="M 57.6 296.013913 
L 414.72 296.013913 
" style="fill:none;stroke:#b0b0b0;stroke-linecap:square;stroke-width:0.8;"/>
     </g>
     <g id="line2d_16">
      <defs>
       <path d="M 0 0 
L -3.5 0 
" id="m93519cd326" style="stroke:#000000;stroke-width:0.8;"/>
      </defs>
      <g>
       <use style="stroke:#000000;stroke-width:0.8;" x="57.6" xlink:href="#m93519cd326" y="296.013913"/>
      </g>
     </g>
     <g id="text_9">
      <!-- 0.0 -->
      <g transform="translate(34.696875 299.813132)scale(0.1 -0.1)">
       <use xlink:href="#DejaVuSans-48"/>
       <use x="63.623047" xlink:href="#DejaVuSans-46"/>
       <use x="95.410156" xlink:href="#DejaVuSans-48"/>
      </g>
     </g>
    </g>
    <g id="ytick_2">
     <g id="line2d_17">
      <path clip-path="url(#p6d7da2f97c)" d="M 57.6 249.733565 
L 414.72 249.733565 
" style="fill:none;stroke:#b0b0b0;stroke-linecap:square;stroke-width:0.8;"/>
     </g>
     <g id="line2d_18">
      <g>
       <use style="stroke:#000000;stroke-width:0.8;" x="57.6" xlink:href="#m93519cd326" y="249.733565"/>
      </g>
     </g>
     <g id="text_10">
      <!-- 0.2 -->
      <g transform="translate(34.696875 253.532784)scale(0.1 -0.1)">
       <use xlink:href="#DejaVuSans-48"/>
       <use x="63.623047" xlink:href="#DejaVuSans-46"/>
       <use x="95.410156" xlink:href="#DejaVuSans-50"/>
      </g>
     </g>
    </g>
    <g id="ytick_3">
     <g id="line2d_19">
      <path clip-path="url(#p6d7da2f97c)" d="M 57.6 203.453217 
L 414.72 203.453217 
" style="fill:none;stroke:#b0b0b0;stroke-linecap:square;stroke-width:0.8;"/>
     </g>
     <g id="line2d_20">
      <g>
       <use style="stroke:#000000;stroke-width:0.8;" x="57.6" xlink:href="#m93519cd326" y="203.453217"/>
      </g>
     </g>
     <g id="text_11">
      <!-- 0.4 -->
      <defs>
       <path d="M 37.796875 64.3125 
L 12.890625 25.390625 
L 37.796875 25.390625 
z
M 35.203125 72.90625 
L 47.609375 72.90625 
L 47.609375 25.390625 
L 58.015625 25.390625 
L 58.015625 17.1875 
L 47.609375 17.1875 
L 47.609375 0 
L 37.796875 0 
L 37.796875 17.1875 
L 4.890625 17.1875 
L 4.890625 26.703125 
z
" id="DejaVuSans-52"/>
      </defs>
      <g transform="translate(34.696875 207.252436)scale(0.1 -0.1)">
       <use xlink:href="#DejaVuSans-48"/>
       <use x="63.623047" xlink:href="#DejaVuSans-46"/>
       <use x="95.410156" xlink:href="#DejaVuSans-52"/>
      </g>
     </g>
    </g>
    <g id="ytick_4">
     <g id="line2d_21">
      <path clip-path="url(#p6d7da2f97c)" d="M 57.6 157.17287 
L 414.72 157.17287 
" style="fill:none;stroke:#b0b0b0;stroke-linecap:square;stroke-width:0.8;"/>
     </g>
     <g id="line2d_22">
      <g>
       <use style="stroke:#000000;stroke-width:0.8;" x="57.6" xlink:href="#m93519cd326" y="157.17287"/>
      </g>
     </g>
     <g id="text_12">
      <!-- 0.6 -->
      <defs>
       <path d="M 33.015625 40.375 
Q 26.375 40.375 22.484375 35.828125 
Q 18.609375 31.296875 18.609375 23.390625 
Q 18.609375 15.53125 22.484375 10.953125 
Q 26.375 6.390625 33.015625 6.390625 
Q 39.65625 6.390625 43.53125 10.953125 
Q 47.40625 15.53125 47.40625 23.390625 
Q 47.40625 31.296875 43.53125 35.828125 
Q 39.65625 40.375 33.015625 40.375 
z
M 52.59375 71.296875 
L 52.59375 62.3125 
Q 48.875 64.0625 45.09375 64.984375 
Q 41.3125 65.921875 37.59375 65.921875 
Q 27.828125 65.921875 22.671875 59.328125 
Q 17.53125 52.734375 16.796875 39.40625 
Q 19.671875 43.65625 24.015625 45.921875 
Q 28.375 48.1875 33.59375 48.1875 
Q 44.578125 48.1875 50.953125 41.515625 
Q 57.328125 34.859375 57.328125 23.390625 
Q 57.328125 12.15625 50.6875 5.359375 
Q 44.046875 -1.421875 33.015625 -1.421875 
Q 20.359375 -1.421875 13.671875 8.265625 
Q 6.984375 17.96875 6.984375 36.375 
Q 6.984375 53.65625 15.1875 63.9375 
Q 23.390625 74.21875 37.203125 74.21875 
Q 40.921875 74.21875 44.703125 73.484375 
Q 48.484375 72.75 52.59375 71.296875 
z
" id="DejaVuSans-54"/>
      </defs>
      <g transform="translate(34.696875 160.972088)scale(0.1 -0.1)">
       <use xlink:href="#DejaVuSans-48"/>
       <use x="63.623047" xlink:href="#DejaVuSans-46"/>
       <use x="95.410156" xlink:href="#DejaVuSans-54"/>
      </g>
     </g>
    </g>
    <g id="ytick_5">
     <g id="line2d_23">
      <path clip-path="url(#p6d7da2f97c)" d="M 57.6 110.892522 
L 414.72 110.892522 
" style="fill:none;stroke:#b0b0b0;stroke-linecap:square;stroke-width:0.8;"/>
     </g>
     <g id="line2d_24">
      <g>
       <use style="stroke:#000000;stroke-width:0.8;" x="57.6" xlink:href="#m93519cd326" y="110.892522"/>
      </g>
     </g>
     <g id="text_13">
      <!-- 0.8 -->
      <defs>
       <path d="M 31.78125 34.625 
Q 24.75 34.625 20.71875 30.859375 
Q 16.703125 27.09375 16.703125 20.515625 
Q 16.703125 13.921875 20.71875 10.15625 
Q 24.75 6.390625 31.78125 6.390625 
Q 38.8125 6.390625 42.859375 10.171875 
Q 46.921875 13.96875 46.921875 20.515625 
Q 46.921875 27.09375 42.890625 30.859375 
Q 38.875 34.625 31.78125 34.625 
z
M 21.921875 38.8125 
Q 15.578125 40.375 12.03125 44.71875 
Q 8.5 49.078125 8.5 55.328125 
Q 8.5 64.0625 14.71875 69.140625 
Q 20.953125 74.21875 31.78125 74.21875 
Q 42.671875 74.21875 48.875 69.140625 
Q 55.078125 64.0625 55.078125 55.328125 
Q 55.078125 49.078125 51.53125 44.71875 
Q 48 40.375 41.703125 38.8125 
Q 48.828125 37.15625 52.796875 32.3125 
Q 56.78125 27.484375 56.78125 20.515625 
Q 56.78125 9.90625 50.3125 4.234375 
Q 43.84375 -1.421875 31.78125 -1.421875 
Q 19.734375 -1.421875 13.25 4.234375 
Q 6.78125 9.90625 6.78125 20.515625 
Q 6.78125 27.484375 10.78125 32.3125 
Q 14.796875 37.15625 21.921875 38.8125 
z
M 18.3125 54.390625 
Q 18.3125 48.734375 21.84375 45.5625 
Q 25.390625 42.390625 31.78125 42.390625 
Q 38.140625 42.390625 41.71875 45.5625 
Q 45.3125 48.734375 45.3125 54.390625 
Q 45.3125 60.0625 41.71875 63.234375 
Q 38.140625 66.40625 31.78125 66.40625 
Q 25.390625 66.40625 21.84375 63.234375 
Q 18.3125 60.0625 18.3125 54.390625 
z
" id="DejaVuSans-56"/>
      </defs>
      <g transform="translate(34.696875 114.69174)scale(0.1 -0.1)">
       <use xlink:href="#DejaVuSans-48"/>
       <use x="63.623047" xlink:href="#DejaVuSans-46"/>
       <use x="95.410156" xlink:href="#DejaVuSans-56"/>
      </g>
     </g>
    </g>
    <g id="ytick_6">
     <g id="line2d_25">
      <path clip-path="url(#p6d7da2f97c)" d="M 57.6 64.612174 
L 414.72 64.612174 
" style="fill:none;stroke:#b0b0b0;stroke-linecap:square;stroke-width:0.8;"/>
     </g>
     <g id="line2d_26">
      <g>
       <use style="stroke:#000000;stroke-width:0.8;" x="57.6" xlink:href="#m93519cd326" y="64.612174"/>
      </g>
     </g>
     <g id="text_14">
      <!-- 1.0 -->
      <g transform="translate(34.696875 68.411393)scale(0.1 -0.1)">
       <use xlink:href="#DejaVuSans-49"/>
       <use x="63.623047" xlink:href="#DejaVuSans-46"/>
       <use x="95.410156" xlink:href="#DejaVuSans-48"/>
      </g>
     </g>
    </g>
    <g id="text_15">
     <!-- $\operatorname{loss}'\/(\|\vec{r}\|^2)$ -->
     <defs>
      <path d="M 9.421875 75.984375 
L 18.40625 75.984375 
L 18.40625 0 
L 9.421875 0 
z
" id="DejaVuSans-108"/>
      <path d="M 30.609375 48.390625 
Q 23.390625 48.390625 19.1875 42.75 
Q 14.984375 37.109375 14.984375 27.296875 
Q 14.984375 17.484375 19.15625 11.84375 
Q 23.34375 6.203125 30.609375 6.203125 
Q 37.796875 6.203125 41.984375 11.859375 
Q 46.1875 17.53125 46.1875 27.296875 
Q 46.1875 37.015625 41.984375 42.703125 
Q 37.796875 48.390625 30.609375 48.390625 
z
M 30.609375 56 
Q 42.328125 56 49.015625 48.375 
Q 55.71875 40.765625 55.71875 27.296875 
Q 55.71875 13.875 49.015625 6.21875 
Q 42.328125 -1.421875 30.609375 -1.421875 
Q 18.84375 -1.421875 12.171875 6.21875 
Q 5.515625 13.875 5.515625 27.296875 
Q 5.515625 40.765625 12.171875 48.375 
Q 18.84375 56 30.609375 56 
z
" id="DejaVuSans-111"/>
      <path d="M 44.28125 53.078125 
L 44.28125 44.578125 
Q 40.484375 46.53125 36.375 47.5 
Q 32.28125 48.484375 27.875 48.484375 
Q 21.1875 48.484375 17.84375 46.4375 
Q 14.5 44.390625 14.5 40.28125 
Q 14.5 37.15625 16.890625 35.375 
Q 19.28125 33.59375 26.515625 31.984375 
L 29.59375 31.296875 
Q 39.15625 29.25 43.1875 25.515625 
Q 47.21875 21.78125 47.21875 15.09375 
Q 47.21875 7.46875 41.1875 3.015625 
Q 35.15625 -1.421875 24.609375 -1.421875 
Q 20.21875 -1.421875 15.453125 -0.5625 
Q 10.6875 0.296875 5.421875 2 
L 5.421875 11.28125 
Q 10.40625 8.6875 15.234375 7.390625 
Q 20.0625 6.109375 24.8125 6.109375 
Q 31.15625 6.109375 34.5625 8.28125 
Q 37.984375 10.453125 37.984375 14.40625 
Q 37.984375 18.0625 35.515625 20.015625 
Q 33.0625 21.96875 24.703125 23.78125 
L 21.578125 24.515625 
Q 13.234375 26.265625 9.515625 29.90625 
Q 5.8125 33.546875 5.8125 39.890625 
Q 5.8125 47.609375 11.28125 51.796875 
Q 16.75 56 26.8125 56 
Q 31.78125 56 36.171875 55.265625 
Q 40.578125 54.546875 44.28125 53.078125 
z
" id="DejaVuSans-115"/>
      <path d="M 3.515625 5.421875 
Q 2.875 5.609375 2.875 6.390625 
L 15.09375 51.8125 
Q 15.671875 53.65625 17.078125 54.78125 
Q 18.5 55.90625 20.3125 55.90625 
Q 22.65625 55.90625 24.4375 54.359375 
Q 26.21875 52.828125 26.21875 50.484375 
Q 26.21875 49.46875 25.6875 48.1875 
L 7.625 4.984375 
Q 7.28125 4.296875 6.6875 4.296875 
Q 6.15625 4.296875 5 4.78125 
Q 3.859375 5.28125 3.515625 5.421875 
z
" id="Cmsy10-48"/>
      <path d="M 31 75.875 
Q 24.46875 64.65625 21.28125 53.65625 
Q 18.109375 42.671875 18.109375 31.390625 
Q 18.109375 20.125 21.3125 9.0625 
Q 24.515625 -2 31 -13.1875 
L 23.1875 -13.1875 
Q 15.875 -1.703125 12.234375 9.375 
Q 8.59375 20.453125 8.59375 31.390625 
Q 8.59375 42.28125 12.203125 53.3125 
Q 15.828125 64.359375 23.1875 75.875 
z
" id="DejaVuSans-40"/>
      <path d="M 8.015625 75.875 
L 15.828125 75.875 
Q 23.140625 64.359375 26.78125 53.3125 
Q 30.421875 42.28125 30.421875 31.390625 
Q 30.421875 20.453125 26.78125 9.375 
Q 23.140625 -1.703125 15.828125 -13.1875 
L 8.015625 -13.1875 
Q 14.5 -2 17.703125 9.0625 
Q 20.90625 20.125 20.90625 31.390625 
Q 20.90625 42.671875 17.703125 53.65625 
Q 14.5 64.65625 8.015625 75.875 
z
" id="DejaVuSans-41"/>
     </defs>
     <g transform="translate(28.296875 197.928)rotate(-90)scale(0.1 -0.1)">
      <use transform="translate(0 0.765625)" xlink:href="#DejaVuSans-108"/>
      <use transform="translate(27.783203 0.765625)" xlink:href="#DejaVuSans-111"/>
      <use transform="translate(88.964844 0.765625)" xlink:href="#DejaVuSans-115"/>
      <use transform="translate(141.064453 0.765625)" xlink:href="#DejaVuSans-115"/>
      <use transform="translate(194.121094 39.046875)scale(0.7)" xlink:href="#Cmsy10-48"/>
      <use transform="translate(232.334309 0.765625)" xlink:href="#DejaVuSans-40"/>
      <use transform="translate(271.347981 0.765625)" xlink:href="#DejaVuSans-124"/>
      <use transform="translate(355.333333 13.3125)" xlink:href="#DejaVuSans-8407"/>
      <use transform="translate(305.039387 0.765625)" xlink:href="#DejaVuSans-Oblique-114"/>
      <use transform="translate(346.152668 0.765625)" xlink:href="#DejaVuSans-124"/>
      <use transform="translate(380.801106 39.046875)scale(0.7)" xlink:href="#DejaVuSans-50"/>
      <use transform="translate(428.071614 0.765625)" xlink:href="#DejaVuSans-41"/>
     </g>
    </g>
   </g>
   <g id="line2d_27">
    <path clip-path="url(#p6d7da2f97c)" d="M 73.832727 64.612174 
L 77.112066 64.612174 
L 80.391405 64.612174 
L 83.670744 64.612174 
L 86.950083 64.612174 
L 90.229421 64.612174 
L 93.50876 64.612174 
L 96.788099 64.612174 
L 100.067438 64.612174 
L 103.346777 64.612174 
L 106.626116 64.612174 
L 109.905455 64.612174 
L 113.184793 64.612174 
L 116.464132 64.612174 
L 119.743471 64.612174 
L 123.02281 64.612174 
L 126.302149 64.612174 
L 129.581488 64.612174 
L 132.860826 64.612174 
L 136.140165 64.612174 
L 139.419504 64.612174 
L 142.698843 64.612174 
L 145.978182 64.612174 
L 149.257521 64.612174 
L 152.53686 64.612174 
L 155.816198 64.612174 
L 159.095537 64.612174 
L 162.374876 64.612174 
L 165.654215 64.612174 
L 168.933554 64.612174 
L 172.212893 64.612174 
L 175.492231 64.612174 
L 178.77157 64.612174 
L 182.050909 64.612174 
L 185.330248 64.612174 
L 188.609587 64.612174 
L 191.888926 64.612174 
L 195.168264 64.612174 
L 198.447603 64.612174 
L 201.726942 64.612174 
L 205.006281 64.612174 
L 208.28562 64.612174 
L 211.564959 64.612174 
L 214.844298 64.612174 
L 218.123636 64.612174 
L 221.402975 64.612174 
L 224.682314 64.612174 
L 227.961653 64.612174 
L 231.240992 64.612174 
L 234.520331 64.612174 
L 237.799669 64.612174 
L 241.079008 64.612174 
L 244.358347 64.612174 
L 247.637686 64.612174 
L 250.917025 64.612174 
L 254.196364 64.612174 
L 257.475702 64.612174 
L 260.755041 64.612174 
L 264.03438 64.612174 
L 267.313719 64.612174 
L 270.593058 64.612174 
L 273.872397 64.612174 
L 277.151736 64.612174 
L 280.431074 64.612174 
L 283.710413 64.612174 
L 286.989752 64.612174 
L 290.269091 64.612174 
L 293.54843 64.612174 
L 296.827769 64.612174 
L 300.107107 64.612174 
L 303.386446 64.612174 
L 306.665785 64.612174 
L 309.945124 64.612174 
L 313.224463 64.612174 
L 316.503802 64.612174 
L 319.78314 64.612174 
L 323.062479 64.612174 
L 326.341818 64.612174 
L 329.621157 64.612174 
L 332.900496 64.612174 
L 336.179835 64.612174 
L 339.459174 64.612174 
L 342.738512 64.612174 
L 346.017851 64.612174 
L 349.29719 64.612174 
L 352.576529 64.612174 
L 355.855868 64.612174 
L 359.135207 64.612174 
L 362.414545 64.612174 
L 365.693884 64.612174 
L 368.973223 64.612174 
L 372.252562 64.612174 
L 375.531901 64.612174 
L 378.81124 64.612174 
L 382.090579 64.612174 
L 385.369917 64.612174 
L 388.649256 64.612174 
L 391.928595 64.612174 
L 395.207934 64.612174 
L 398.487273 64.612174 
" style="fill:none;stroke:#ff0000;stroke-linecap:square;stroke-width:1.5;"/>
   </g>
   <g id="line2d_28">
    <path clip-path="url(#p6d7da2f97c)" d="M 73.832727 268.43015 
L 77.112066 268.385498 
L 80.391405 268.251169 
L 83.670744 268.026033 
L 86.950083 267.7082 
L 90.229421 267.294997 
L 93.50876 266.782951 
L 96.788099 266.167758 
L 100.067438 265.444249 
L 103.346777 264.606354 
L 106.626116 263.64706 
L 109.905455 262.55837 
L 113.184793 261.331263 
L 116.464132 259.955654 
L 119.743471 258.420372 
L 123.02281 256.713138 
L 126.302149 254.820579 
L 129.581488 252.728254 
L 132.860826 250.42073 
L 136.140165 247.881708 
L 139.419504 245.094201 
L 142.698843 242.04081 
L 145.978182 238.704079 
L 149.257521 235.066972 
L 152.53686 231.113475 
L 155.816198 226.829334 
L 159.095537 222.202933 
L 162.374876 217.226307 
L 165.654215 211.896265 
L 168.933554 206.215575 
L 172.212893 200.194147 
L 175.492231 193.850128 
L 178.77157 187.210783 
L 182.050909 180.313043 
L 185.330248 173.203593 
L 188.609587 165.938368 
L 191.888926 158.581419 
L 195.168264 151.203094 
L 198.447603 143.87763 
L 201.726942 136.680295 
L 205.006281 129.684276 
L 208.28562 122.957604 
L 211.564959 116.560368 
L 214.844298 110.542471 
L 218.123636 104.9421 
L 221.402975 99.784995 
L 224.682314 95.084518 
L 227.961653 90.842421 
L 231.240992 87.05017 
L 234.520331 83.690634 
L 237.799669 80.739953 
L 241.079008 78.16943 
L 244.358347 75.9473 
L 247.637686 74.040298 
L 250.917025 72.41497 
L 254.196364 71.038703 
L 257.475702 69.880501 
L 260.755041 68.911503 
L 264.03438 68.105309 
L 267.313719 67.43813 
L 270.593058 66.888808 
L 273.872397 66.438741 
L 277.151736 66.071741 
L 280.431074 65.773853 
L 283.710413 65.533142 
L 286.989752 65.339482 
L 290.269091 65.184343 
L 293.54843 65.060585 
L 296.827769 64.962268 
L 300.107107 64.884481 
L 303.386446 64.823186 
L 306.665785 64.77508 
L 309.945124 64.737474 
L 313.224463 64.708192 
L 316.503802 64.685481 
L 319.78314 64.667936 
L 323.062479 64.654433 
L 326.341818 64.644083 
L 329.621157 64.636179 
L 332.900496 64.630166 
L 336.179835 64.62561 
L 339.459174 64.622171 
L 342.738512 64.619585 
L 346.017851 64.617647 
L 349.29719 64.616202 
L 352.576529 64.615127 
L 355.855868 64.614331 
L 359.135207 64.613744 
L 362.414545 64.613312 
L 365.693884 64.612996 
L 368.973223 64.612766 
L 372.252562 64.612599 
L 375.531901 64.612477 
L 378.81124 64.61239 
L 382.090579 64.612327 
L 385.369917 64.612282 
L 388.649256 64.61225 
L 391.928595 64.612227 
L 395.207934 64.612211 
L 398.487273 64.6122 
" style="fill:none;stroke:#bf00bf;stroke-linecap:square;stroke-width:1.5;"/>
   </g>
   <g id="line2d_29">
    <path clip-path="url(#p6d7da2f97c)" d="M 73.832727 64.612174 
L 77.112066 64.612174 
L 80.391405 64.612174 
L 83.670744 64.612174 
L 86.950083 64.612174 
L 90.229421 64.612174 
L 93.50876 64.612174 
L 96.788099 64.612174 
L 100.067438 64.612174 
L 103.346777 64.612174 
L 106.626116 64.612174 
L 109.905455 64.612174 
L 113.184793 64.612174 
L 116.464132 64.612174 
L 119.743471 64.612174 
L 123.02281 64.612174 
L 126.302149 64.612174 
L 129.581488 64.612174 
L 132.860826 64.612174 
L 136.140165 64.612174 
L 139.419504 64.612174 
L 142.698843 64.612174 
L 145.978182 64.612174 
L 149.257521 64.612174 
L 152.53686 64.612174 
L 155.816198 64.612174 
L 159.095537 64.612174 
L 162.374876 64.612174 
L 165.654215 64.612174 
L 168.933554 64.612174 
L 172.212893 64.612174 
L 175.492231 64.612174 
L 178.77157 64.612174 
L 182.050909 64.612174 
L 185.330248 71.418107 
L 188.609587 77.83513 
L 191.888926 83.895652 
L 195.168264 89.628578 
L 198.447603 95.059771 
L 201.726942 100.212441 
L 205.006281 105.107478 
L 208.28562 109.763733 
L 211.564959 114.198261 
L 214.844298 118.426532 
L 218.123636 122.462609 
L 221.402975 126.319304 
L 224.682314 130.008318 
L 227.961653 133.540352 
L 231.240992 136.925217 
L 234.520331 140.171925 
L 237.799669 143.288765 
L 241.079008 146.283376 
L 244.358347 149.162809 
L 247.637686 151.933585 
L 250.917025 154.601739 
L 254.196364 157.17287 
L 257.475702 159.652174 
L 260.755041 162.044485 
L 264.03438 164.354303 
L 267.313719 166.585822 
L 270.593058 168.742957 
L 273.872397 170.829366 
L 277.151736 172.848471 
L 280.431074 174.803478 
L 283.710413 176.697391 
L 286.989752 178.53303 
L 290.269091 180.313043 
L 293.54843 182.039922 
L 296.827769 183.71601 
L 300.107107 185.343516 
L 303.386446 186.924522 
L 306.665785 188.460992 
L 309.945124 189.954783 
L 313.224463 191.407647 
L 316.503802 192.821246 
L 319.78314 194.197148 
L 323.062479 195.536842 
L 326.341818 196.841739 
L 329.621157 198.113177 
L 332.900496 199.352427 
L 336.179835 200.560696 
L 339.459174 201.73913 
L 342.738512 202.888823 
L 346.017851 204.010812 
L 349.29719 205.106087 
L 352.576529 206.175591 
L 355.855868 207.220222 
L 359.135207 208.24084 
L 362.414545 209.238261 
L 365.693884 210.213268 
L 368.973223 211.166609 
L 372.252562 212.098997 
L 375.531901 213.011115 
L 378.81124 213.903619 
L 382.090579 214.777132 
L 385.369917 215.632256 
L 388.649256 216.469565 
L 391.928595 217.28961 
L 395.207934 218.092919 
L 398.487273 218.88 
" style="fill:none;stroke:#0000ff;stroke-linecap:square;stroke-width:1.5;"/>
   </g>
   <g id="line2d_30">
    <path clip-path="url(#p6d7da2f97c)" d="M 73.832727 64.612174 
L 77.112066 64.718346 
L 80.391405 65.035987 
L 83.670744 65.562493 
L 86.950083 66.293589 
L 90.229421 67.223426 
L 93.50876 68.344705 
L 96.788099 69.648835 
L 100.067438 71.126108 
L 103.346777 72.765887 
L 106.626116 74.556801 
L 109.905455 76.486948 
L 113.184793 78.54408 
L 116.464132 80.715793 
L 119.743471 82.989688 
L 123.02281 85.353527 
L 126.302149 87.795364 
L 129.581488 90.303655 
L 132.860826 92.867351 
L 136.140165 95.475969 
L 139.419504 98.119648 
L 142.698843 100.789178 
L 145.978182 103.476028 
L 149.257521 106.17235 
L 152.53686 108.870977 
L 155.816198 111.565404 
L 159.095537 114.249774 
L 162.374876 116.918848 
L 165.654215 119.567973 
L 168.933554 122.193049 
L 172.212893 124.790493 
L 175.492231 127.357202 
L 178.77157 129.890513 
L 182.050909 132.388174 
L 185.330248 134.8483 
L 188.609587 137.269342 
L 191.888926 139.650059 
L 195.168264 141.98948 
L 198.447603 144.286881 
L 201.726942 146.541755 
L 205.006281 148.753791 
L 208.28562 150.922846 
L 211.564959 153.048931 
L 214.844298 155.132187 
L 218.123636 157.17287 
L 221.402975 159.171333 
L 224.682314 161.128017 
L 227.961653 163.043434 
L 231.240992 164.918158 
L 234.520331 166.752814 
L 237.799669 168.548068 
L 241.079008 170.304622 
L 244.358347 172.023206 
L 247.637686 173.704568 
L 250.917025 175.349474 
L 254.196364 176.9587 
L 257.475702 178.53303 
L 260.755041 180.073249 
L 264.03438 181.580142 
L 267.313719 183.054492 
L 270.593058 184.497076 
L 273.872397 185.908665 
L 277.151736 187.290018 
L 280.431074 188.641888 
L 283.710413 189.965011 
L 286.989752 191.260114 
L 290.269091 192.527909 
L 293.54843 193.769096 
L 296.827769 194.984357 
L 300.107107 196.174361 
L 303.386446 197.339761 
L 306.665785 198.481196 
L 309.945124 199.599288 
L 313.224463 200.694644 
L 316.503802 201.767855 
L 319.78314 202.819497 
L 323.062479 203.850131 
L 326.341818 204.860302 
L 329.621157 205.850542 
L 332.900496 206.821365 
L 336.179835 207.773274 
L 339.459174 208.706757 
L 342.738512 209.622287 
L 346.017851 210.520325 
L 349.29719 211.401318 
L 352.576529 212.2657 
L 355.855868 213.113893 
L 359.135207 213.946306 
L 362.414545 214.763338 
L 365.693884 215.565374 
L 368.973223 216.352789 
L 372.252562 217.125946 
L 375.531901 217.8852 
L 378.81124 218.630893 
L 382.090579 219.363359 
L 385.369917 220.082919 
L 388.649256 220.789889 
L 391.928595 221.484573 
L 395.207934 222.167267 
L 398.487273 222.838258 
" style="fill:none;stroke:#000000;stroke-linecap:square;stroke-width:1.5;"/>
   </g>
   <g id="line2d_31">
    <path clip-path="url(#p6d7da2f97c)" d="M 73.832727 64.612174 
L 77.112066 64.824469 
L 80.391405 65.459024 
L 83.670744 66.508909 
L 86.950083 67.962787 
L 90.229421 69.805211 
L 93.50876 72.01703 
L 96.788099 74.575869 
L 100.067438 77.456676 
L 103.346777 80.632294 
L 106.626116 84.074053 
L 109.905455 87.752348 
L 113.184793 91.637195 
L 116.464132 95.698735 
L 119.743471 99.907692 
L 123.02281 104.235759 
L 126.302149 108.655925 
L 129.581488 113.142727 
L 132.860826 117.672445 
L 136.140165 122.223228 
L 139.419504 126.775166 
L 142.698843 131.310322 
L 145.978182 135.812709 
L 149.257521 140.268243 
L 152.53686 144.664667 
L 155.816198 148.991455 
L 159.095537 153.239696 
L 162.374876 157.40198 
L 165.654215 161.472272 
L 168.933554 165.445781 
L 172.212893 169.318843 
L 175.492231 173.088794 
L 178.77157 176.753859 
L 182.050909 180.313043 
L 185.330248 183.766032 
L 188.609587 187.113095 
L 191.888926 190.355006 
L 195.168264 193.492964 
L 198.447603 196.528523 
L 201.726942 199.463532 
L 205.006281 202.300081 
L 208.28562 205.04045 
L 211.564959 207.687066 
L 214.844298 210.242472 
L 218.123636 212.709287 
L 221.402975 215.090183 
L 224.682314 217.387862 
L 227.961653 219.605031 
L 231.240992 221.744389 
L 234.520331 223.808614 
L 237.799669 225.800346 
L 241.079008 227.72218 
L 244.358347 229.576662 
L 247.637686 231.366275 
L 250.917025 233.09344 
L 254.196364 234.760512 
L 257.475702 236.369772 
L 260.755041 237.923435 
L 264.03438 239.423638 
L 267.313719 240.872448 
L 270.593058 242.271858 
L 273.872397 243.62379 
L 277.151736 244.930091 
L 280.431074 246.192542 
L 283.710413 247.412853 
L 286.989752 248.592668 
L 290.269091 249.733565 
L 293.54843 250.837059 
L 296.827769 251.904602 
L 300.107107 252.937589 
L 303.386446 253.937357 
L 306.665785 254.905186 
L 309.945124 255.842306 
L 313.224463 256.749891 
L 316.503802 257.62907 
L 319.78314 258.480923 
L 323.062479 259.306485 
L 326.341818 260.106747 
L 329.621157 260.882658 
L 332.900496 261.635128 
L 336.179835 262.365029 
L 339.459174 263.073195 
L 342.738512 263.760426 
L 346.017851 264.427489 
L 349.29719 265.075117 
L 352.576529 265.704015 
L 355.855868 266.314857 
L 359.135207 266.908289 
L 362.414545 267.484932 
L 365.693884 268.045379 
L 368.973223 268.590201 
L 372.252562 269.119944 
L 375.531901 269.635132 
L 378.81124 270.136269 
L 382.090579 270.623838 
L 385.369917 271.098302 
L 388.649256 271.560105 
L 391.928595 272.009675 
L 395.207934 272.447422 
L 398.487273 272.873739 
" style="fill:none;stroke:#00bfbf;stroke-linecap:square;stroke-width:1.5;"/>
   </g>
   <g id="line2d_32">
    <path clip-path="url(#p6d7da2f97c)" d="M 73.832727 64.612174 
L 77.112066 64.612369 
L 80.391405 64.615296 
L 83.670744 64.627978 
L 86.950083 64.662115 
L 90.229421 64.734062 
L 93.50876 64.864779 
L 96.788099 65.07972 
L 100.067438 65.408651 
L 103.346777 65.885339 
L 106.626116 66.547099 
L 109.905455 67.434146 
L 113.184793 68.588736 
L 116.464132 70.054054 
L 119.743471 71.872862 
L 123.02281 74.085912 
L 126.302149 76.730165 
L 129.581488 79.836898 
L 132.860826 83.429809 
L 136.140165 87.523239 
L 139.419504 92.120682 
L 142.698843 97.213722 
L 145.978182 102.781533 
L 149.257521 108.791034 
L 152.53686 115.197728 
L 155.816198 121.947199 
L 159.095537 128.977159 
L 162.374876 136.219891 
L 165.654215 143.60489 
L 168.933554 151.061509 
L 172.212893 158.521406 
L 175.492231 165.920655 
L 178.77157 173.201405 
L 182.050909 180.313043 
L 185.330248 187.212874 
L 188.609587 193.86633 
L 191.888926 200.246808 
L 195.168264 206.335211 
L 198.447603 212.119263 
L 201.726942 217.592709 
L 205.006281 222.754444 
L 208.28562 227.607648 
L 211.564959 232.158948 
L 214.844298 236.417659 
L 218.123636 240.395097 
L 221.402975 244.103993 
L 224.682314 247.557986 
L 227.961653 250.771218 
L 231.240992 253.757993 
L 234.520331 256.532521 
L 237.799669 259.108709 
L 241.079008 261.500019 
L 244.358347 263.719357 
L 247.637686 265.779005 
L 250.917025 267.690574 
L 254.196364 269.464988 
L 257.475702 271.112479 
L 260.755041 272.642596 
L 264.03438 274.064223 
L 267.313719 275.385606 
L 270.593058 276.614386 
L 273.872397 277.757625 
L 277.151736 278.821847 
L 280.431074 279.813069 
L 283.710413 280.736839 
L 286.989752 281.598263 
L 290.269091 282.402046 
L 293.54843 283.152515 
L 296.827769 283.853654 
L 300.107107 284.509125 
L 303.386446 285.122302 
L 306.665785 285.696284 
L 309.945124 286.233929 
L 313.224463 286.737863 
L 316.503802 287.210506 
L 319.78314 287.654088 
L 323.062479 288.070663 
L 326.341818 288.462124 
L 329.621157 288.830218 
L 332.900496 289.176556 
L 336.179835 289.502626 
L 339.459174 289.809803 
L 342.738512 290.099356 
L 346.017851 290.372461 
L 349.29719 290.630203 
L 352.576529 290.873588 
L 355.855868 291.10355 
L 359.135207 291.320951 
L 362.414545 291.526592 
L 365.693884 291.721217 
L 368.973223 291.905516 
L 372.252562 292.08013 
L 375.531901 292.245655 
L 378.81124 292.402647 
L 382.090579 292.55162 
L 385.369917 292.693056 
L 388.649256 292.827402 
L 391.928595 292.955076 
L 395.207934 293.076468 
L 398.487273 293.191941 
" style="fill:none;stroke:#008000;stroke-linecap:square;stroke-width:1.5;"/>
   </g>
   <g id="line2d_33">
    <path clip-path="url(#p6d7da2f97c)" d="M 73.832727 180.313043 
L 77.112066 180.525436 
L 80.391405 181.161443 
L 83.670744 182.217552 
L 86.950083 183.687909 
L 90.229421 185.56432 
L 93.50876 187.836247 
L 96.788099 190.490813 
L 100.067438 193.512797 
L 103.346777 196.884639 
L 106.626116 200.586435 
L 109.905455 204.595942 
L 113.184793 208.888574 
L 116.464132 213.437404 
L 119.743471 218.213163 
L 123.02281 223.184242 
L 126.302149 228.316688 
L 129.581488 233.574209 
L 132.860826 238.918169 
L 136.140165 244.307594 
L 139.419504 249.699165 
L 142.698843 255.047223 
L 145.978182 260.303768 
L 149.257521 265.418458 
L 152.53686 270.338609 
L 155.816198 275.009197 
L 159.095537 279.372854 
L 162.374876 283.369873 
L 165.654215 286.938204 
L 168.933554 290.013457 
L 172.212893 292.528899 
L 175.492231 294.415457 
L 178.77157 295.601713 
L 182.050909 296.013913 
L 185.330248 296.013913 
L 188.609587 296.013913 
L 191.888926 296.013913 
L 195.168264 296.013913 
L 198.447603 296.013913 
L 201.726942 296.013913 
L 205.006281 296.013913 
L 208.28562 296.013913 
L 211.564959 296.013913 
L 214.844298 296.013913 
L 218.123636 296.013913 
L 221.402975 296.013913 
L 224.682314 296.013913 
L 227.961653 296.013913 
L 231.240992 296.013913 
L 234.520331 296.013913 
L 237.799669 296.013913 
L 241.079008 296.013913 
L 244.358347 296.013913 
L 247.637686 296.013913 
L 250.917025 296.013913 
L 254.196364 296.013913 
L 257.475702 296.013913 
L 260.755041 296.013913 
L 264.03438 296.013913 
L 267.313719 296.013913 
L 270.593058 296.013913 
L 273.872397 296.013913 
L 277.151736 296.013913 
L 280.431074 296.013913 
L 283.710413 296.013913 
L 286.989752 296.013913 
L 290.269091 296.013913 
L 293.54843 296.013913 
L 296.827769 296.013913 
L 300.107107 296.013913 
L 303.386446 296.013913 
L 306.665785 296.013913 
L 309.945124 296.013913 
L 313.224463 296.013913 
L 316.503802 296.013913 
L 319.78314 296.013913 
L 323.062479 296.013913 
L 326.341818 296.013913 
L 329.621157 296.013913 
L 332.900496 296.013913 
L 336.179835 296.013913 
L 339.459174 296.013913 
L 342.738512 296.013913 
L 346.017851 296.013913 
L 349.29719 296.013913 
L 352.576529 296.013913 
L 355.855868 296.013913 
L 359.135207 296.013913 
L 362.414545 296.013913 
L 365.693884 296.013913 
L 368.973223 296.013913 
L 372.252562 296.013913 
L 375.531901 296.013913 
L 378.81124 296.013913 
L 382.090579 296.013913 
L 385.369917 296.013913 
L 388.649256 296.013913 
L 391.928595 296.013913 
L 395.207934 296.013913 
L 398.487273 296.013913 
" style="fill:none;stroke:#bfbf00;stroke-linecap:square;stroke-width:1.5;"/>
   </g>
   <g id="patch_3">
    <path d="M 57.6 307.584 
L 57.6 41.472 
" style="fill:none;stroke:#000000;stroke-linecap:square;stroke-linejoin:miter;stroke-width:0.8;"/>
   </g>
   <g id="patch_4">
    <path d="M 414.72 307.584 
L 414.72 41.472 
" style="fill:none;stroke:#000000;stroke-linecap:square;stroke-linejoin:miter;stroke-width:0.8;"/>
   </g>
   <g id="patch_5">
    <path d="M 57.6 307.584 
L 414.72 307.584 
" style="fill:none;stroke:#000000;stroke-linecap:square;stroke-linejoin:miter;stroke-width:0.8;"/>
   </g>
   <g id="patch_6">
    <path d="M 57.6 41.472 
L 414.72 41.472 
" style="fill:none;stroke:#000000;stroke-linecap:square;stroke-linejoin:miter;stroke-width:0.8;"/>
   </g>
   <g id="text_16">
    <!-- First derivatives of loss functions -->
    <defs>
     <path d="M 9.8125 72.90625 
L 51.703125 72.90625 
L 51.703125 64.59375 
L 19.671875 64.59375 
L 19.671875 43.109375 
L 48.578125 43.109375 
L 48.578125 34.8125 
L 19.671875 34.8125 
L 19.671875 0 
L 9.8125 0 
z
" id="DejaVuSans-70"/>
     <path d="M 9.421875 54.6875 
L 18.40625 54.6875 
L 18.40625 0 
L 9.421875 0 
z
M 9.421875 75.984375 
L 18.40625 75.984375 
L 18.40625 64.59375 
L 9.421875 64.59375 
z
" id="DejaVuSans-105"/>
     <path d="M 41.109375 46.296875 
Q 39.59375 47.171875 37.8125 47.578125 
Q 36.03125 48 33.890625 48 
Q 26.265625 48 22.1875 43.046875 
Q 18.109375 38.09375 18.109375 28.8125 
L 18.109375 0 
L 9.078125 0 
L 9.078125 54.6875 
L 18.109375 54.6875 
L 18.109375 46.1875 
Q 20.953125 51.171875 25.484375 53.578125 
Q 30.03125 56 36.53125 56 
Q 37.453125 56 38.578125 55.875 
Q 39.703125 55.765625 41.0625 55.515625 
z
" id="DejaVuSans-114"/>
     <path d="M 18.3125 70.21875 
L 18.3125 54.6875 
L 36.8125 54.6875 
L 36.8125 47.703125 
L 18.3125 47.703125 
L 18.3125 18.015625 
Q 18.3125 11.328125 20.140625 9.421875 
Q 21.96875 7.515625 27.59375 7.515625 
L 36.8125 7.515625 
L 36.8125 0 
L 27.59375 0 
Q 17.1875 0 13.234375 3.875 
Q 9.28125 7.765625 9.28125 18.015625 
L 9.28125 47.703125 
L 2.6875 47.703125 
L 2.6875 54.6875 
L 9.28125 54.6875 
L 9.28125 70.21875 
z
" id="DejaVuSans-116"/>
     <path id="DejaVuSans-32"/>
     <path d="M 45.40625 46.390625 
L 45.40625 75.984375 
L 54.390625 75.984375 
L 54.390625 0 
L 45.40625 0 
L 45.40625 8.203125 
Q 42.578125 3.328125 38.25 0.953125 
Q 33.9375 -1.421875 27.875 -1.421875 
Q 17.96875 -1.421875 11.734375 6.484375 
Q 5.515625 14.40625 5.515625 27.296875 
Q 5.515625 40.1875 11.734375 48.09375 
Q 17.96875 56 27.875 56 
Q 33.9375 56 38.25 53.625 
Q 42.578125 51.265625 45.40625 46.390625 
z
M 14.796875 27.296875 
Q 14.796875 17.390625 18.875 11.75 
Q 22.953125 6.109375 30.078125 6.109375 
Q 37.203125 6.109375 41.296875 11.75 
Q 45.40625 17.390625 45.40625 27.296875 
Q 45.40625 37.203125 41.296875 42.84375 
Q 37.203125 48.484375 30.078125 48.484375 
Q 22.953125 48.484375 18.875 42.84375 
Q 14.796875 37.203125 14.796875 27.296875 
z
" id="DejaVuSans-100"/>
     <path d="M 56.203125 29.59375 
L 56.203125 25.203125 
L 14.890625 25.203125 
Q 15.484375 15.921875 20.484375 11.0625 
Q 25.484375 6.203125 34.421875 6.203125 
Q 39.59375 6.203125 44.453125 7.46875 
Q 49.3125 8.734375 54.109375 11.28125 
L 54.109375 2.78125 
Q 49.265625 0.734375 44.1875 -0.34375 
Q 39.109375 -1.421875 33.890625 -1.421875 
Q 20.796875 -1.421875 13.15625 6.1875 
Q 5.515625 13.8125 5.515625 26.8125 
Q 5.515625 40.234375 12.765625 48.109375 
Q 20.015625 56 32.328125 56 
Q 43.359375 56 49.78125 48.890625 
Q 56.203125 41.796875 56.203125 29.59375 
z
M 47.21875 32.234375 
Q 47.125 39.59375 43.09375 43.984375 
Q 39.0625 48.390625 32.421875 48.390625 
Q 24.90625 48.390625 20.390625 44.140625 
Q 15.875 39.890625 15.1875 32.171875 
z
" id="DejaVuSans-101"/>
     <path d="M 2.984375 54.6875 
L 12.5 54.6875 
L 29.59375 8.796875 
L 46.6875 54.6875 
L 56.203125 54.6875 
L 35.6875 0 
L 23.484375 0 
z
" id="DejaVuSans-118"/>
     <path d="M 34.28125 27.484375 
Q 23.390625 27.484375 19.1875 25 
Q 14.984375 22.515625 14.984375 16.5 
Q 14.984375 11.71875 18.140625 8.90625 
Q 21.296875 6.109375 26.703125 6.109375 
Q 34.1875 6.109375 38.703125 11.40625 
Q 43.21875 16.703125 43.21875 25.484375 
L 43.21875 27.484375 
z
M 52.203125 31.203125 
L 52.203125 0 
L 43.21875 0 
L 43.21875 8.296875 
Q 40.140625 3.328125 35.546875 0.953125 
Q 30.953125 -1.421875 24.3125 -1.421875 
Q 15.921875 -1.421875 10.953125 3.296875 
Q 6 8.015625 6 15.921875 
Q 6 25.140625 12.171875 29.828125 
Q 18.359375 34.515625 30.609375 34.515625 
L 43.21875 34.515625 
L 43.21875 35.40625 
Q 43.21875 41.609375 39.140625 45 
Q 35.0625 48.390625 27.6875 48.390625 
Q 23 48.390625 18.546875 47.265625 
Q 14.109375 46.140625 10.015625 43.890625 
L 10.015625 52.203125 
Q 14.9375 54.109375 19.578125 55.046875 
Q 24.21875 56 28.609375 56 
Q 40.484375 56 46.34375 49.84375 
Q 52.203125 43.703125 52.203125 31.203125 
z
" id="DejaVuSans-97"/>
     <path d="M 37.109375 75.984375 
L 37.109375 68.5 
L 28.515625 68.5 
Q 23.6875 68.5 21.796875 66.546875 
Q 19.921875 64.59375 19.921875 59.515625 
L 19.921875 54.6875 
L 34.71875 54.6875 
L 34.71875 47.703125 
L 19.921875 47.703125 
L 19.921875 0 
L 10.890625 0 
L 10.890625 47.703125 
L 2.296875 47.703125 
L 2.296875 54.6875 
L 10.890625 54.6875 
L 10.890625 58.5 
Q 10.890625 67.625 15.140625 71.796875 
Q 19.390625 75.984375 28.609375 75.984375 
z
" id="DejaVuSans-102"/>
     <path d="M 8.5 21.578125 
L 8.5 54.6875 
L 17.484375 54.6875 
L 17.484375 21.921875 
Q 17.484375 14.15625 20.5 10.265625 
Q 23.53125 6.390625 29.59375 6.390625 
Q 36.859375 6.390625 41.078125 11.03125 
Q 45.3125 15.671875 45.3125 23.6875 
L 45.3125 54.6875 
L 54.296875 54.6875 
L 54.296875 0 
L 45.3125 0 
L 45.3125 8.40625 
Q 42.046875 3.421875 37.71875 1 
Q 33.40625 -1.421875 27.6875 -1.421875 
Q 18.265625 -1.421875 13.375 4.4375 
Q 8.5 10.296875 8.5 21.578125 
z
M 31.109375 56 
z
" id="DejaVuSans-117"/>
     <path d="M 54.890625 33.015625 
L 54.890625 0 
L 45.90625 0 
L 45.90625 32.71875 
Q 45.90625 40.484375 42.875 44.328125 
Q 39.84375 48.1875 33.796875 48.1875 
Q 26.515625 48.1875 22.3125 43.546875 
Q 18.109375 38.921875 18.109375 30.90625 
L 18.109375 0 
L 9.078125 0 
L 9.078125 54.6875 
L 18.109375 54.6875 
L 18.109375 46.1875 
Q 21.34375 51.125 25.703125 53.5625 
Q 30.078125 56 35.796875 56 
Q 45.21875 56 50.046875 50.171875 
Q 54.890625 44.34375 54.890625 33.015625 
z
" id="DejaVuSans-110"/>
     <path d="M 48.78125 52.59375 
L 48.78125 44.1875 
Q 44.96875 46.296875 41.140625 47.34375 
Q 37.3125 48.390625 33.40625 48.390625 
Q 24.65625 48.390625 19.8125 42.84375 
Q 14.984375 37.3125 14.984375 27.296875 
Q 14.984375 17.28125 19.8125 11.734375 
Q 24.65625 6.203125 33.40625 6.203125 
Q 37.3125 6.203125 41.140625 7.25 
Q 44.96875 8.296875 48.78125 10.40625 
L 48.78125 2.09375 
Q 45.015625 0.34375 40.984375 -0.53125 
Q 36.96875 -1.421875 32.421875 -1.421875 
Q 20.0625 -1.421875 12.78125 6.34375 
Q 5.515625 14.109375 5.515625 27.296875 
Q 5.515625 40.671875 12.859375 48.328125 
Q 20.21875 56 33.015625 56 
Q 37.15625 56 41.109375 55.140625 
Q 45.0625 54.296875 48.78125 52.59375 
z
" id="DejaVuSans-99"/>
    </defs>
    <g transform="translate(137.6475 35.472)scale(0.12 -0.12)">
     <use xlink:href="#DejaVuSans-70"/>
     <use x="50.269531" xlink:href="#DejaVuSans-105"/>
     <use x="78.052734" xlink:href="#DejaVuSans-114"/>
     <use x="119.166016" xlink:href="#DejaVuSans-115"/>
     <use x="171.265625" xlink:href="#DejaVuSans-116"/>
     <use x="210.474609" xlink:href="#DejaVuSans-32"/>
     <use x="242.261719" xlink:href="#DejaVuSans-100"/>
     <use x="305.738281" xlink:href="#DejaVuSans-101"/>
     <use x="367.261719" xlink:href="#DejaVuSans-114"/>
     <use x="408.375" xlink:href="#DejaVuSans-105"/>
     <use x="436.158203" xlink:href="#DejaVuSans-118"/>
     <use x="495.337891" xlink:href="#DejaVuSans-97"/>
     <use x="556.617188" xlink:href="#DejaVuSans-116"/>
     <use x="595.826172" xlink:href="#DejaVuSans-105"/>
     <use x="623.609375" xlink:href="#DejaVuSans-118"/>
     <use x="682.789062" xlink:href="#DejaVuSans-101"/>
     <use x="744.3125" xlink:href="#DejaVuSans-115"/>
     <use x="796.412109" xlink:href="#DejaVuSans-32"/>
     <use x="828.199219" xlink:href="#DejaVuSans-111"/>
     <use x="889.380859" xlink:href="#DejaVuSans-102"/>
     <use x="924.585938" xlink:href="#DejaVuSans-32"/>
     <use x="956.373047" xlink:href="#DejaVuSans-108"/>
     <use x="984.15625" xlink:href="#DejaVuSans-111"/>
     <use x="1045.337891" xlink:href="#DejaVuSans-115"/>
     <use x="1097.4375" xlink:href="#DejaVuSans-115"/>
     <use x="1149.537109" xlink:href="#DejaVuSans-32"/>
     <use x="1181.324219" xlink:href="#DejaVuSans-102"/>
     <use x="1216.529297" xlink:href="#DejaVuSans-117"/>
     <use x="1279.908203" xlink:href="#DejaVuSans-110"/>
     <use x="1343.287109" xlink:href="#DejaVuSans-99"/>
     <use x="1398.267578" xlink:href="#DejaVuSans-116"/>
     <use x="1437.476562" xlink:href="#DejaVuSans-105"/>
     <use x="1465.259766" xlink:href="#DejaVuSans-111"/>
     <use x="1526.441406" xlink:href="#DejaVuSans-110"/>
     <use x="1589.820312" xlink:href="#DejaVuSans-115"/>
    </g>
   </g>
   <g id="legend_1">
    <g id="patch_7">
     <path d="M 292.977813 152.218875 
L 407.72 152.218875 
Q 409.72 152.218875 409.72 150.218875 
L 409.72 48.472 
Q 409.72 46.472 407.72 46.472 
L 292.977813 46.472 
Q 290.977813 46.472 290.977813 48.472 
L 290.977813 150.218875 
Q 290.977813 152.218875 292.977813 152.218875 
z
" style="fill:#ffffff;opacity:0.8;stroke:#cccccc;stroke-linejoin:miter;"/>
    </g>
    <g id="line2d_34">
     <path d="M 294.977813 54.570438 
L 314.977813 54.570438 
" style="fill:none;stroke:#ff0000;stroke-linecap:square;stroke-width:1.5;"/>
    </g>
    <g id="line2d_35"/>
    <g id="text_17">
     <!-- Trivial -->
     <defs>
      <path d="M -0.296875 72.90625 
L 61.375 72.90625 
L 61.375 64.59375 
L 35.5 64.59375 
L 35.5 0 
L 25.59375 0 
L 25.59375 64.59375 
L -0.296875 64.59375 
z
" id="DejaVuSans-84"/>
     </defs>
     <g transform="translate(322.977813 58.070438)scale(0.1 -0.1)">
      <use xlink:href="#DejaVuSans-84"/>
      <use x="46.333984" xlink:href="#DejaVuSans-114"/>
      <use x="87.447266" xlink:href="#DejaVuSans-105"/>
      <use x="115.230469" xlink:href="#DejaVuSans-118"/>
      <use x="174.410156" xlink:href="#DejaVuSans-105"/>
      <use x="202.193359" xlink:href="#DejaVuSans-97"/>
      <use x="263.472656" xlink:href="#DejaVuSans-108"/>
     </g>
    </g>
    <g id="line2d_36">
     <path d="M 294.977813 69.248563 
L 314.977813 69.248563 
" style="fill:none;stroke:#bf00bf;stroke-linecap:square;stroke-width:1.5;"/>
    </g>
    <g id="line2d_37"/>
    <g id="text_18">
     <!-- Tolerant(1.0,0.5) -->
     <defs>
      <path d="M 11.71875 12.40625 
L 22.015625 12.40625 
L 22.015625 4 
L 14.015625 -11.625 
L 7.71875 -11.625 
L 11.71875 4 
z
" id="DejaVuSans-44"/>
     </defs>
     <g transform="translate(322.977813 72.748563)scale(0.1 -0.1)">
      <use xlink:href="#DejaVuSans-84"/>
      <use x="44.083984" xlink:href="#DejaVuSans-111"/>
      <use x="105.265625" xlink:href="#DejaVuSans-108"/>
      <use x="133.048828" xlink:href="#DejaVuSans-101"/>
      <use x="194.572266" xlink:href="#DejaVuSans-114"/>
      <use x="235.685547" xlink:href="#DejaVuSans-97"/>
      <use x="296.964844" xlink:href="#DejaVuSans-110"/>
      <use x="360.34375" xlink:href="#DejaVuSans-116"/>
      <use x="399.552734" xlink:href="#DejaVuSans-40"/>
      <use x="438.566406" xlink:href="#DejaVuSans-49"/>
      <use x="502.189453" xlink:href="#DejaVuSans-46"/>
      <use x="533.976562" xlink:href="#DejaVuSans-48"/>
      <use x="597.599609" xlink:href="#DejaVuSans-44"/>
      <use x="629.386719" xlink:href="#DejaVuSans-48"/>
      <use x="693.009766" xlink:href="#DejaVuSans-46"/>
      <use x="724.796875" xlink:href="#DejaVuSans-53"/>
      <use x="788.419922" xlink:href="#DejaVuSans-41"/>
     </g>
    </g>
    <g id="line2d_38">
     <path d="M 294.977813 83.926688 
L 314.977813 83.926688 
" style="fill:none;stroke:#0000ff;stroke-linecap:square;stroke-width:1.5;"/>
    </g>
    <g id="line2d_39"/>
    <g id="text_19">
     <!-- Huber(1.0) -->
     <defs>
      <path d="M 9.8125 72.90625 
L 19.671875 72.90625 
L 19.671875 43.015625 
L 55.515625 43.015625 
L 55.515625 72.90625 
L 65.375 72.90625 
L 65.375 0 
L 55.515625 0 
L 55.515625 34.71875 
L 19.671875 34.71875 
L 19.671875 0 
L 9.8125 0 
z
" id="DejaVuSans-72"/>
      <path d="M 48.6875 27.296875 
Q 48.6875 37.203125 44.609375 42.84375 
Q 40.53125 48.484375 33.40625 48.484375 
Q 26.265625 48.484375 22.1875 42.84375 
Q 18.109375 37.203125 18.109375 27.296875 
Q 18.109375 17.390625 22.1875 11.75 
Q 26.265625 6.109375 33.40625 6.109375 
Q 40.53125 6.109375 44.609375 11.75 
Q 48.6875 17.390625 48.6875 27.296875 
z
M 18.109375 46.390625 
Q 20.953125 51.265625 25.265625 53.625 
Q 29.59375 56 35.59375 56 
Q 45.5625 56 51.78125 48.09375 
Q 58.015625 40.1875 58.015625 27.296875 
Q 58.015625 14.40625 51.78125 6.484375 
Q 45.5625 -1.421875 35.59375 -1.421875 
Q 29.59375 -1.421875 25.265625 0.953125 
Q 20.953125 3.328125 18.109375 8.203125 
L 18.109375 0 
L 9.078125 0 
L 9.078125 75.984375 
L 18.109375 75.984375 
z
" id="DejaVuSans-98"/>
     </defs>
     <g transform="translate(322.977813 87.426688)scale(0.1 -0.1)">
      <use xlink:href="#DejaVuSans-72"/>
      <use x="75.195312" xlink:href="#DejaVuSans-117"/>
      <use x="138.574219" xlink:href="#DejaVuSans-98"/>
      <use x="202.050781" xlink:href="#DejaVuSans-101"/>
      <use x="263.574219" xlink:href="#DejaVuSans-114"/>
      <use x="304.6875" xlink:href="#DejaVuSans-40"/>
      <use x="343.701172" xlink:href="#DejaVuSans-49"/>
      <use x="407.324219" xlink:href="#DejaVuSans-46"/>
      <use x="439.111328" xlink:href="#DejaVuSans-48"/>
      <use x="502.734375" xlink:href="#DejaVuSans-41"/>
     </g>
    </g>
    <g id="line2d_40">
     <path d="M 294.977813 98.604813 
L 314.977813 98.604813 
" style="fill:none;stroke:#000000;stroke-linecap:square;stroke-width:1.5;"/>
    </g>
    <g id="line2d_41"/>
    <g id="text_20">
     <!-- SoftLOne(1.0) -->
     <defs>
      <path d="M 53.515625 70.515625 
L 53.515625 60.890625 
Q 47.90625 63.578125 42.921875 64.890625 
Q 37.9375 66.21875 33.296875 66.21875 
Q 25.25 66.21875 20.875 63.09375 
Q 16.5 59.96875 16.5 54.203125 
Q 16.5 49.359375 19.40625 46.890625 
Q 22.3125 44.4375 30.421875 42.921875 
L 36.375 41.703125 
Q 47.40625 39.59375 52.65625 34.296875 
Q 57.90625 29 57.90625 20.125 
Q 57.90625 9.515625 50.796875 4.046875 
Q 43.703125 -1.421875 29.984375 -1.421875 
Q 24.8125 -1.421875 18.96875 -0.25 
Q 13.140625 0.921875 6.890625 3.21875 
L 6.890625 13.375 
Q 12.890625 10.015625 18.65625 8.296875 
Q 24.421875 6.59375 29.984375 6.59375 
Q 38.421875 6.59375 43.015625 9.90625 
Q 47.609375 13.234375 47.609375 19.390625 
Q 47.609375 24.75 44.3125 27.78125 
Q 41.015625 30.8125 33.5 32.328125 
L 27.484375 33.5 
Q 16.453125 35.6875 11.515625 40.375 
Q 6.59375 45.0625 6.59375 53.421875 
Q 6.59375 63.09375 13.40625 68.65625 
Q 20.21875 74.21875 32.171875 74.21875 
Q 37.3125 74.21875 42.625 73.28125 
Q 47.953125 72.359375 53.515625 70.515625 
z
" id="DejaVuSans-83"/>
      <path d="M 9.8125 72.90625 
L 19.671875 72.90625 
L 19.671875 8.296875 
L 55.171875 8.296875 
L 55.171875 0 
L 9.8125 0 
z
" id="DejaVuSans-76"/>
      <path d="M 39.40625 66.21875 
Q 28.65625 66.21875 22.328125 58.203125 
Q 16.015625 50.203125 16.015625 36.375 
Q 16.015625 22.609375 22.328125 14.59375 
Q 28.65625 6.59375 39.40625 6.59375 
Q 50.140625 6.59375 56.421875 14.59375 
Q 62.703125 22.609375 62.703125 36.375 
Q 62.703125 50.203125 56.421875 58.203125 
Q 50.140625 66.21875 39.40625 66.21875 
z
M 39.40625 74.21875 
Q 54.734375 74.21875 63.90625 63.9375 
Q 73.09375 53.65625 73.09375 36.375 
Q 73.09375 19.140625 63.90625 8.859375 
Q 54.734375 -1.421875 39.40625 -1.421875 
Q 24.03125 -1.421875 14.8125 8.828125 
Q 5.609375 19.09375 5.609375 36.375 
Q 5.609375 53.65625 14.8125 63.9375 
Q 24.03125 74.21875 39.40625 74.21875 
z
" id="DejaVuSans-79"/>
     </defs>
     <g transform="translate(322.977813 102.104813)scale(0.1 -0.1)">
      <use xlink:href="#DejaVuSans-83"/>
      <use x="63.476562" xlink:href="#DejaVuSans-111"/>
      <use x="124.658203" xlink:href="#DejaVuSans-102"/>
      <use x="158.113281" xlink:href="#DejaVuSans-116"/>
      <use x="197.322266" xlink:href="#DejaVuSans-76"/>
      <use x="249.410156" xlink:href="#DejaVuSans-79"/>
      <use x="328.121094" xlink:href="#DejaVuSans-110"/>
      <use x="391.5" xlink:href="#DejaVuSans-101"/>
      <use x="453.023438" xlink:href="#DejaVuSans-40"/>
      <use x="492.037109" xlink:href="#DejaVuSans-49"/>
      <use x="555.660156" xlink:href="#DejaVuSans-46"/>
      <use x="587.447266" xlink:href="#DejaVuSans-48"/>
      <use x="651.070312" xlink:href="#DejaVuSans-41"/>
     </g>
    </g>
    <g id="line2d_42">
     <path d="M 294.977813 113.282938 
L 314.977813 113.282938 
" style="fill:none;stroke:#00bfbf;stroke-linecap:square;stroke-width:1.5;"/>
    </g>
    <g id="line2d_43"/>
    <g id="text_21">
     <!-- Cauchy(1.0) -->
     <defs>
      <path d="M 64.40625 67.28125 
L 64.40625 56.890625 
Q 59.421875 61.53125 53.78125 63.8125 
Q 48.140625 66.109375 41.796875 66.109375 
Q 29.296875 66.109375 22.65625 58.46875 
Q 16.015625 50.828125 16.015625 36.375 
Q 16.015625 21.96875 22.65625 14.328125 
Q 29.296875 6.6875 41.796875 6.6875 
Q 48.140625 6.6875 53.78125 8.984375 
Q 59.421875 11.28125 64.40625 15.921875 
L 64.40625 5.609375 
Q 59.234375 2.09375 53.4375 0.328125 
Q 47.65625 -1.421875 41.21875 -1.421875 
Q 24.65625 -1.421875 15.125 8.703125 
Q 5.609375 18.84375 5.609375 36.375 
Q 5.609375 53.953125 15.125 64.078125 
Q 24.65625 74.21875 41.21875 74.21875 
Q 47.75 74.21875 53.53125 72.484375 
Q 59.328125 70.75 64.40625 67.28125 
z
" id="DejaVuSans-67"/>
      <path d="M 54.890625 33.015625 
L 54.890625 0 
L 45.90625 0 
L 45.90625 32.71875 
Q 45.90625 40.484375 42.875 44.328125 
Q 39.84375 48.1875 33.796875 48.1875 
Q 26.515625 48.1875 22.3125 43.546875 
Q 18.109375 38.921875 18.109375 30.90625 
L 18.109375 0 
L 9.078125 0 
L 9.078125 75.984375 
L 18.109375 75.984375 
L 18.109375 46.1875 
Q 21.34375 51.125 25.703125 53.5625 
Q 30.078125 56 35.796875 56 
Q 45.21875 56 50.046875 50.171875 
Q 54.890625 44.34375 54.890625 33.015625 
z
" id="DejaVuSans-104"/>
      <path d="M 32.171875 -5.078125 
Q 28.375 -14.84375 24.75 -17.8125 
Q 21.140625 -20.796875 15.09375 -20.796875 
L 7.90625 -20.796875 
L 7.90625 -13.28125 
L 13.1875 -13.28125 
Q 16.890625 -13.28125 18.9375 -11.515625 
Q 21 -9.765625 23.484375 -3.21875 
L 25.09375 0.875 
L 2.984375 54.6875 
L 12.5 54.6875 
L 29.59375 11.921875 
L 46.6875 54.6875 
L 56.203125 54.6875 
z
" id="DejaVuSans-121"/>
     </defs>
     <g transform="translate(322.977813 116.782938)scale(0.1 -0.1)">
      <use xlink:href="#DejaVuSans-67"/>
      <use x="69.824219" xlink:href="#DejaVuSans-97"/>
      <use x="131.103516" xlink:href="#DejaVuSans-117"/>
      <use x="194.482422" xlink:href="#DejaVuSans-99"/>
      <use x="249.462891" xlink:href="#DejaVuSans-104"/>
      <use x="312.841797" xlink:href="#DejaVuSans-121"/>
      <use x="372.021484" xlink:href="#DejaVuSans-40"/>
      <use x="411.035156" xlink:href="#DejaVuSans-49"/>
      <use x="474.658203" xlink:href="#DejaVuSans-46"/>
      <use x="506.445312" xlink:href="#DejaVuSans-48"/>
      <use x="570.068359" xlink:href="#DejaVuSans-41"/>
     </g>
    </g>
    <g id="line2d_44">
     <path d="M 294.977813 127.961063 
L 314.977813 127.961063 
" style="fill:none;stroke:#008000;stroke-linecap:square;stroke-width:1.5;"/>
    </g>
    <g id="line2d_45"/>
    <g id="text_22">
     <!-- Arctan(1.0) -->
     <defs>
      <path d="M 34.1875 63.1875 
L 20.796875 26.90625 
L 47.609375 26.90625 
z
M 28.609375 72.90625 
L 39.796875 72.90625 
L 67.578125 0 
L 57.328125 0 
L 50.6875 18.703125 
L 17.828125 18.703125 
L 11.1875 0 
L 0.78125 0 
z
" id="DejaVuSans-65"/>
     </defs>
     <g transform="translate(322.977813 131.461063)scale(0.1 -0.1)">
      <use xlink:href="#DejaVuSans-65"/>
      <use x="68.408203" xlink:href="#DejaVuSans-114"/>
      <use x="107.271484" xlink:href="#DejaVuSans-99"/>
      <use x="162.251953" xlink:href="#DejaVuSans-116"/>
      <use x="201.460938" xlink:href="#DejaVuSans-97"/>
      <use x="262.740234" xlink:href="#DejaVuSans-110"/>
      <use x="326.119141" xlink:href="#DejaVuSans-40"/>
      <use x="365.132812" xlink:href="#DejaVuSans-49"/>
      <use x="428.755859" xlink:href="#DejaVuSans-46"/>
      <use x="460.542969" xlink:href="#DejaVuSans-48"/>
      <use x="524.166016" xlink:href="#DejaVuSans-41"/>
     </g>
    </g>
    <g id="line2d_46">
     <path d="M 294.977813 142.639188 
L 314.977813 142.639188 
" style="fill:none;stroke:#bfbf00;stroke-linecap:square;stroke-width:1.5;"/>
    </g>
    <g id="line2d_47"/>
    <g id="text_23">
     <!-- Tukey(1.0) -->
     <defs>
      <path d="M 9.078125 75.984375 
L 18.109375 75.984375 
L 18.109375 31.109375 
L 44.921875 54.6875 
L 56.390625 54.6875 
L 27.390625 29.109375 
L 57.625 0 
L 45.90625 0 
L 18.109375 26.703125 
L 18.109375 0 
L 9.078125 0 
z
" id="DejaVuSans-107"/>
     </defs>
     <g transform="translate(322.977813 146.139188)scale(0.1 -0.1)">
      <use xlink:href="#DejaVuSans-84"/>
      <use x="45.958984" xlink:href="#DejaVuSans-117"/>
      <use x="109.337891" xlink:href="#DejaVuSans-107"/>
      <use x="163.623047" xlink:href="#DejaVuSans-101"/>
      <use x="225.146484" xlink:href="#DejaVuSans-121"/>
      <use x="284.326172" xlink:href="#DejaVuSans-40"/>
      <use x="323.339844" xlink:href="#DejaVuSans-49"/>
      <use x="386.962891" xlink:href="#DejaVuSans-46"/>
      <use x="418.75" xlink:href="#DejaVuSans-48"/>
      <use x="482.373047" xlink:href="#DejaVuSans-41"/>
     </g>
    </g>
   </g>
  </g>
 </g>
 <defs>
  <clipPath id="p6d7da2f97c">
   <rect height="266.112" width="357.12" x="57.6" y="41.472"/>
  </clipPath>
 </defs>
</svg>
