<?xml version="1.0" encoding="utf-8" standalone="no"?>
<!DOCTYPE svg PUBLIC "-//W3C//DTD SVG 1.1//EN"
  "http://www.w3.org/Graphics/SVG/1.1/DTD/svg11.dtd">
<!-- Created with matplotlib (https://matplotlib.org/) -->
<svg height="345.6pt" version="1.1" viewBox="0 0 460.8 345.6" width="460.8pt" xmlns="http://www.w3.org/2000/svg" xmlns:xlink="http://www.w3.org/1999/xlink">
 <defs>
  <style type="text/css">
*{stroke-linecap:butt;stroke-linejoin:round;}
  </style>
 </defs>
 <g id="figure_1">
  <g id="patch_1">
   <path d="M 0 345.6 
L 460.8 345.6 
L 460.8 0 
L 0 0 
z
" style="fill:#ffffff;"/>
  </g>
  <g id="axes_1">
   <g id="patch_2">
    <path d="M 57.6 307.584 
L 414.72 307.584 
L 414.72 41.472 
L 57.6 41.472 
z
" style="fill:#ffffff;"/>
   </g>
   <g id="line2d_1">
    <path clip-path="url(#p74b3549807)" d="M 73.832727 295.488 
L 77.112066 295.440881 
L 80.391405 295.299524 
L 83.670744 295.063928 
L 86.950083 294.734094 
L 90.229421 294.310022 
L 93.50876 293.791712 
L 96.788099 293.179163 
L 100.067438 292.472376 
L 103.346777 291.671351 
L 106.626116 290.776088 
L 109.905455 289.786586 
L 113.184793 288.702846 
L 116.464132 287.524868 
L 119.743471 286.252652 
L 123.02281 284.886197 
L 126.302149 283.425504 
L 129.581488 281.870573 
L 132.860826 280.221404 
L 136.140165 278.477996 
L 139.419504 276.640351 
L 142.698843 274.708467 
L 145.978182 272.682344 
L 149.257521 270.561984 
L 152.53686 268.347385 
L 155.816198 266.038548 
L 159.095537 263.635473 
L 162.374876 261.138159 
L 165.654215 258.546607 
L 168.933554 255.860817 
L 172.212893 253.080789 
L 175.492231 250.206523 
L 178.77157 247.238018 
L 182.050909 244.175275 
L 185.330248 241.018293 
L 188.609587 237.767074 
L 191.888926 234.421616 
L 195.168264 230.98192 
L 198.447603 227.447986 
L 201.726942 223.819813 
L 205.006281 220.097403 
L 208.28562 216.280754 
L 211.564959 212.369867 
L 214.844298 208.364741 
L 218.123636 204.265377 
L 221.402975 200.071775 
L 224.682314 195.783935 
L 227.961653 191.401857 
L 231.240992 186.92554 
L 234.520331 182.354985 
L 237.799669 177.690192 
L 241.079008 172.93116 
L 244.358347 168.077891 
L 247.637686 163.130383 
L 250.917025 158.088637 
L 254.196364 152.952652 
L 257.475702 147.722429 
L 260.755041 142.397968 
L 264.03438 136.979269 
L 267.313719 131.466332 
L 270.593058 125.859156 
L 273.872397 120.157742 
L 277.151736 114.36209 
L 280.431074 108.4722 
L 283.710413 102.488071 
L 286.989752 96.409704 
L 290.269091 90.237099 
L 293.54843 83.970256 
L 296.827769 77.609174 
L 300.107107 71.153854 
L 303.386446 64.604296 
L 306.665785 57.9605 
L 309.945124 51.222465 
L 313.224463 44.390192 
L 316.503802 37.463681 
L 319.78314 30.442932 
L 323.062479 23.327944 
L 326.341818 16.118718 
L 329.621157 8.815254 
L 332.900496 1.417552 
L 333.958696 -1 
" style="fill:none;stroke:#ff0000;stroke-linecap:square;stroke-width:1.5;"/>
   </g>
   <g id="matplotlib.axis_1">
    <g id="xtick_1">
     <g id="line2d_2">
      <path clip-path="url(#p74b3549807)" d="M 73.832727 307.584 
L 73.832727 41.472 
" style="fill:none;stroke:#b0b0b0;stroke-linecap:square;stroke-width:0.8;"/>
     </g>
     <g id="line2d_3">
      <defs>
       <path d="M 0 0 
L 0 3.5 
" id="ma39027707e" style="stroke:#000000;stroke-width:0.8;"/>
      </defs>
      <g>
       <use style="stroke:#000000;stroke-width:0.8;" x="73.832727" xlink:href="#ma39027707e" y="307.584"/>
      </g>
     </g>
     <g id="text_1">
      <!-- 0.0 -->
      <defs>
       <path d="M 31.78125 66.40625 
Q 24.171875 66.40625 20.328125 58.90625 
Q 16.5 51.421875 16.5 36.375 
Q 16.5 21.390625 20.328125 13.890625 
Q 24.171875 6.390625 31.78125 6.390625 
Q 39.453125 6.390625 43.28125 13.890625 
Q 47.125 21.390625 47.125 36.375 
Q 47.125 51.421875 43.28125 58.90625 
Q 39.453125 66.40625 31.78125 66.40625 
z
M 31.78125 74.21875 
Q 44.046875 74.21875 50.515625 64.515625 
Q 56.984375 54.828125 56.984375 36.375 
Q 56.984375 17.96875 50.515625 8.265625 
Q 44.046875 -1.421875 31.78125 -1.421875 
Q 19.53125 -1.421875 13.0625 8.265625 
Q 6.59375 17.96875 6.59375 36.375 
Q 6.59375 54.828125 13.0625 64.515625 
Q 19.53125 74.21875 31.78125 74.21875 
z
" id="DejaVuSans-48"/>
       <path d="M 10.6875 12.40625 
L 21 12.40625 
L 21 0 
L 10.6875 0 
z
" id="DejaVuSans-46"/>
      </defs>
      <g transform="translate(65.881165 322.182437)scale(0.1 -0.1)">
       <use xlink:href="#DejaVuSans-48"/>
       <use x="63.623047" xlink:href="#DejaVuSans-46"/>
       <use x="95.410156" xlink:href="#DejaVuSans-48"/>
      </g>
     </g>
    </g>
    <g id="xtick_2">
     <g id="line2d_4">
      <path clip-path="url(#p74b3549807)" d="M 127.941818 307.584 
L 127.941818 41.472 
" style="fill:none;stroke:#b0b0b0;stroke-linecap:square;stroke-width:0.8;"/>
     </g>
     <g id="line2d_5">
      <g>
       <use style="stroke:#000000;stroke-width:0.8;" x="127.941818" xlink:href="#ma39027707e" y="307.584"/>
      </g>
     </g>
     <g id="text_2">
      <!-- 0.5 -->
      <defs>
       <path d="M 10.796875 72.90625 
L 49.515625 72.90625 
L 49.515625 64.59375 
L 19.828125 64.59375 
L 19.828125 46.734375 
Q 21.96875 47.46875 24.109375 47.828125 
Q 26.265625 48.1875 28.421875 48.1875 
Q 40.625 48.1875 47.75 41.5 
Q 54.890625 34.8125 54.890625 23.390625 
Q 54.890625 11.625 47.5625 5.09375 
Q 40.234375 -1.421875 26.90625 -1.421875 
Q 22.3125 -1.421875 17.546875 -0.640625 
Q 12.796875 0.140625 7.71875 1.703125 
L 7.71875 11.625 
Q 12.109375 9.234375 16.796875 8.0625 
Q 21.484375 6.890625 26.703125 6.890625 
Q 35.15625 6.890625 40.078125 11.328125 
Q 45.015625 15.765625 45.015625 23.390625 
Q 45.015625 31 40.078125 35.4375 
Q 35.15625 39.890625 26.703125 39.890625 
Q 22.75 39.890625 18.8125 39.015625 
Q 14.890625 38.140625 10.796875 36.28125 
z
" id="DejaVuSans-53"/>
      </defs>
      <g transform="translate(119.990256 322.182437)scale(0.1 -0.1)">
       <use xlink:href="#DejaVuSans-48"/>
       <use x="63.623047" xlink:href="#DejaVuSans-46"/>
       <use x="95.410156" xlink:href="#DejaVuSans-53"/>
      </g>
     </g>
    </g>
    <g id="xtick_3">
     <g id="line2d_6">
      <path clip-path="url(#p74b3549807)" d="M 182.050909 307.584 
L 182.050909 41.472 
" style="fill:none;stroke:#b0b0b0;stroke-linecap:square;stroke-width:0.8;"/>
     </g>
     <g id="line2d_7">
      <g>
       <use style="stroke:#000000;stroke-width:0.8;" x="182.050909" xlink:href="#ma39027707e" y="307.584"/>
      </g>
     </g>
     <g id="text_3">
      <!-- 1.0 -->
      <defs>
       <path d="M 12.40625 8.296875 
L 28.515625 8.296875 
L 28.515625 63.921875 
L 10.984375 60.40625 
L 10.984375 69.390625 
L 28.421875 72.90625 
L 38.28125 72.90625 
L 38.28125 8.296875 
L 54.390625 8.296875 
L 54.390625 0 
L 12.40625 0 
z
" id="DejaVuSans-49"/>
      </defs>
      <g transform="translate(174.099347 322.182437)scale(0.1 -0.1)">
       <use xlink:href="#DejaVuSans-49"/>
       <use x="63.623047" xlink:href="#DejaVuSans-46"/>
       <use x="95.410156" xlink:href="#DejaVuSans-48"/>
      </g>
     </g>
    </g>
    <g id="xtick_4">
     <g id="line2d_8">
      <path clip-path="url(#p74b3549807)" d="M 236.16 307.584 
L 236.16 41.472 
" style="fill:none;stroke:#b0b0b0;stroke-linecap:square;stroke-width:0.8;"/>
     </g>
     <g id="line2d_9">
      <g>
       <use style="stroke:#000000;stroke-width:0.8;" x="236.16" xlink:href="#ma39027707e" y="307.584"/>
      </g>
     </g>
     <g id="text_4">
      <!-- 1.5 -->
      <g transform="translate(228.208438 322.182437)scale(0.1 -0.1)">
       <use xlink:href="#DejaVuSans-49"/>
       <use x="63.623047" xlink:href="#DejaVuSans-46"/>
       <use x="95.410156" xlink:href="#DejaVuSans-53"/>
      </g>
     </g>
    </g>
    <g id="xtick_5">
     <g id="line2d_10">
      <path clip-path="url(#p74b3549807)" d="M 290.269091 307.584 
L 290.269091 41.472 
" style="fill:none;stroke:#b0b0b0;stroke-linecap:square;stroke-width:0.8;"/>
     </g>
     <g id="line2d_11">
      <g>
       <use style="stroke:#000000;stroke-width:0.8;" x="290.269091" xlink:href="#ma39027707e" y="307.584"/>
      </g>
     </g>
     <g id="text_5">
      <!-- 2.0 -->
      <defs>
       <path d="M 19.1875 8.296875 
L 53.609375 8.296875 
L 53.609375 0 
L 7.328125 0 
L 7.328125 8.296875 
Q 12.9375 14.109375 22.625 23.890625 
Q 32.328125 33.6875 34.8125 36.53125 
Q 39.546875 41.84375 41.421875 45.53125 
Q 43.3125 49.21875 43.3125 52.78125 
Q 43.3125 58.59375 39.234375 62.25 
Q 35.15625 65.921875 28.609375 65.921875 
Q 23.96875 65.921875 18.8125 64.3125 
Q 13.671875 62.703125 7.8125 59.421875 
L 7.8125 69.390625 
Q 13.765625 71.78125 18.9375 73 
Q 24.125 74.21875 28.421875 74.21875 
Q 39.75 74.21875 46.484375 68.546875 
Q 53.21875 62.890625 53.21875 53.421875 
Q 53.21875 48.921875 51.53125 44.890625 
Q 49.859375 40.875 45.40625 35.40625 
Q 44.1875 33.984375 37.640625 27.21875 
Q 31.109375 20.453125 19.1875 8.296875 
z
" id="DejaVuSans-50"/>
      </defs>
      <g transform="translate(282.317528 322.182437)scale(0.1 -0.1)">
       <use xlink:href="#DejaVuSans-50"/>
       <use x="63.623047" xlink:href="#DejaVuSans-46"/>
       <use x="95.410156" xlink:href="#DejaVuSans-48"/>
      </g>
     </g>
    </g>
    <g id="xtick_6">
     <g id="line2d_12">
      <path clip-path="url(#p74b3549807)" d="M 344.378182 307.584 
L 344.378182 41.472 
" style="fill:none;stroke:#b0b0b0;stroke-linecap:square;stroke-width:0.8;"/>
     </g>
     <g id="line2d_13">
      <g>
       <use style="stroke:#000000;stroke-width:0.8;" x="344.378182" xlink:href="#ma39027707e" y="307.584"/>
      </g>
     </g>
     <g id="text_6">
      <!-- 2.5 -->
      <g transform="translate(336.426619 322.182437)scale(0.1 -0.1)">
       <use xlink:href="#DejaVuSans-50"/>
       <use x="63.623047" xlink:href="#DejaVuSans-46"/>
       <use x="95.410156" xlink:href="#DejaVuSans-53"/>
      </g>
     </g>
    </g>
    <g id="xtick_7">
     <g id="line2d_14">
      <path clip-path="url(#p74b3549807)" d="M 398.487273 307.584 
L 398.487273 41.472 
" style="fill:none;stroke:#b0b0b0;stroke-linecap:square;stroke-width:0.8;"/>
     </g>
     <g id="line2d_15">
      <g>
       <use style="stroke:#000000;stroke-width:0.8;" x="398.487273" xlink:href="#ma39027707e" y="307.584"/>
      </g>
     </g>
     <g id="text_7">
      <!-- 3.0 -->
      <defs>
       <path d="M 40.578125 39.3125 
Q 47.65625 37.796875 51.625 33 
Q 55.609375 28.21875 55.609375 21.1875 
Q 55.609375 10.40625 48.1875 4.484375 
Q 40.765625 -1.421875 27.09375 -1.421875 
Q 22.515625 -1.421875 17.65625 -0.515625 
Q 12.796875 0.390625 7.625 2.203125 
L 7.625 11.71875 
Q 11.71875 9.328125 16.59375 8.109375 
Q 21.484375 6.890625 26.8125 6.890625 
Q 36.078125 6.890625 40.9375 10.546875 
Q 45.796875 14.203125 45.796875 21.1875 
Q 45.796875 27.640625 41.28125 31.265625 
Q 36.765625 34.90625 28.71875 34.90625 
L 20.21875 34.90625 
L 20.21875 43.015625 
L 29.109375 43.015625 
Q 36.375 43.015625 40.234375 45.921875 
Q 44.09375 48.828125 44.09375 54.296875 
Q 44.09375 59.90625 40.109375 62.90625 
Q 36.140625 65.921875 28.71875 65.921875 
Q 24.65625 65.921875 20.015625 65.03125 
Q 15.375 64.15625 9.8125 62.3125 
L 9.8125 71.09375 
Q 15.4375 72.65625 20.34375 73.4375 
Q 25.25 74.21875 29.59375 74.21875 
Q 40.828125 74.21875 47.359375 69.109375 
Q 53.90625 64.015625 53.90625 55.328125 
Q 53.90625 49.265625 50.4375 45.09375 
Q 46.96875 40.921875 40.578125 39.3125 
z
" id="DejaVuSans-51"/>
      </defs>
      <g transform="translate(390.53571 322.182437)scale(0.1 -0.1)">
       <use xlink:href="#DejaVuSans-51"/>
       <use x="63.623047" xlink:href="#DejaVuSans-46"/>
       <use x="95.410156" xlink:href="#DejaVuSans-48"/>
      </g>
     </g>
    </g>
    <g id="text_8">
     <!-- $\|\vec{r}\|$ -->
     <defs>
      <path d="M 21 76.421875 
L 21 -23.578125 
L 12.703125 -23.578125 
L 12.703125 76.421875 
z
" id="DejaVuSans-124"/>
      <path d="M -47.015625 63.53125 
L -47.015625 68.40625 
L -10.84375 68.40625 
L -17.28125 75.984375 
L -11.140625 75.984375 
L -2.59375 65.96875 
L -11.140625 55.953125 
L -17.28125 55.953125 
L -10.84375 63.53125 
z
" id="DejaVuSans-8407"/>
      <path d="M 44.578125 46.390625 
Q 43.21875 47.125 41.453125 47.515625 
Q 39.703125 47.90625 37.703125 47.90625 
Q 30.515625 47.90625 25.140625 42.453125 
Q 19.78125 37.015625 18.015625 27.875 
L 12.5 0 
L 3.515625 0 
L 14.203125 54.6875 
L 23.1875 54.6875 
L 21.484375 46.1875 
Q 25.046875 50.921875 30 53.453125 
Q 34.96875 56 40.578125 56 
Q 42.046875 56 43.453125 55.828125 
Q 44.875 55.671875 46.296875 55.28125 
z
" id="DejaVuSans-Oblique-114"/>
     </defs>
     <g transform="translate(230.71 337.162125)scale(0.1 -0.1)">
      <use transform="translate(0 0.46875)" xlink:href="#DejaVuSans-124"/>
      <use transform="translate(83.985352 13.015625)" xlink:href="#DejaVuSans-8407"/>
      <use transform="translate(33.691406 0.46875)" xlink:href="#DejaVuSans-Oblique-114"/>
      <use transform="translate(74.804688 0.46875)" xlink:href="#DejaVuSans-124"/>
     </g>
    </g>
   </g>
   <g id="matplotlib.axis_2">
    <g id="ytick_1">
     <g id="line2d_16">
      <path clip-path="url(#p74b3549807)" d="M 57.6 295.488 
L 414.72 295.488 
" style="fill:none;stroke:#b0b0b0;stroke-linecap:square;stroke-width:0.8;"/>
     </g>
     <g id="line2d_17">
      <defs>
       <path d="M 0 0 
L -3.5 0 
" id="m5e7379df8e" style="stroke:#000000;stroke-width:0.8;"/>
      </defs>
      <g>
       <use style="stroke:#000000;stroke-width:0.8;" x="57.6" xlink:href="#m5e7379df8e" y="295.488"/>
      </g>
     </g>
     <g id="text_9">
      <!-- 0 -->
      <g transform="translate(44.2375 299.287219)scale(0.1 -0.1)">
       <use xlink:href="#DejaVuSans-48"/>
      </g>
     </g>
    </g>
    <g id="ytick_2">
     <g id="line2d_18">
      <path clip-path="url(#p74b3549807)" d="M 57.6 244.175275 
L 414.72 244.175275 
" style="fill:none;stroke:#b0b0b0;stroke-linecap:square;stroke-width:0.8;"/>
     </g>
     <g id="line2d_19">
      <g>
       <use style="stroke:#000000;stroke-width:0.8;" x="57.6" xlink:href="#m5e7379df8e" y="244.175275"/>
      </g>
     </g>
     <g id="text_10">
      <!-- 1 -->
      <g transform="translate(44.2375 247.974493)scale(0.1 -0.1)">
       <use xlink:href="#DejaVuSans-49"/>
      </g>
     </g>
    </g>
    <g id="ytick_3">
     <g id="line2d_20">
      <path clip-path="url(#p74b3549807)" d="M 57.6 192.862549 
L 414.72 192.862549 
" style="fill:none;stroke:#b0b0b0;stroke-linecap:square;stroke-width:0.8;"/>
     </g>
     <g id="line2d_21">
      <g>
       <use style="stroke:#000000;stroke-width:0.8;" x="57.6" xlink:href="#m5e7379df8e" y="192.862549"/>
      </g>
     </g>
     <g id="text_11">
      <!-- 2 -->
      <g transform="translate(44.2375 196.661768)scale(0.1 -0.1)">
       <use xlink:href="#DejaVuSans-50"/>
      </g>
     </g>
    </g>
    <g id="ytick_4">
     <g id="line2d_22">
      <path clip-path="url(#p74b3549807)" d="M 57.6 141.549824 
L 414.72 141.549824 
" style="fill:none;stroke:#b0b0b0;stroke-linecap:square;stroke-width:0.8;"/>
     </g>
     <g id="line2d_23">
      <g>
       <use style="stroke:#000000;stroke-width:0.8;" x="57.6" xlink:href="#m5e7379df8e" y="141.549824"/>
      </g>
     </g>
     <g id="text_12">
      <!-- 3 -->
      <g transform="translate(44.2375 145.349043)scale(0.1 -0.1)">
       <use xlink:href="#DejaVuSans-51"/>
      </g>
     </g>
    </g>
    <g id="ytick_5">
     <g id="line2d_24">
      <path clip-path="url(#p74b3549807)" d="M 57.6 90.237099 
L 414.72 90.237099 
" style="fill:none;stroke:#b0b0b0;stroke-linecap:square;stroke-width:0.8;"/>
     </g>
     <g id="line2d_25">
      <g>
       <use style="stroke:#000000;stroke-width:0.8;" x="57.6" xlink:href="#m5e7379df8e" y="90.237099"/>
      </g>
     </g>
     <g id="text_13">
      <!-- 4 -->
      <defs>
       <path d="M 37.796875 64.3125 
L 12.890625 25.390625 
L 37.796875 25.390625 
z
M 35.203125 72.90625 
L 47.609375 72.90625 
L 47.609375 25.390625 
L 58.015625 25.390625 
L 58.015625 17.1875 
L 47.609375 17.1875 
L 47.609375 0 
L 37.796875 0 
L 37.796875 17.1875 
L 4.890625 17.1875 
L 4.890625 26.703125 
z
" id="DejaVuSans-52"/>
      </defs>
      <g transform="translate(44.2375 94.036318)scale(0.1 -0.1)">
       <use xlink:href="#DejaVuSans-52"/>
      </g>
     </g>
    </g>
    <g id="text_14">
     <!-- $\operatorname{Cauchy}(\|\vec{r}\|^2)$ -->
     <defs>
      <path d="M 64.40625 67.28125 
L 64.40625 56.890625 
Q 59.421875 61.53125 53.78125 63.8125 
Q 48.140625 66.109375 41.796875 66.109375 
Q 29.296875 66.109375 22.65625 58.46875 
Q 16.015625 50.828125 16.015625 36.375 
Q 16.015625 21.96875 22.65625 14.328125 
Q 29.296875 6.6875 41.796875 6.6875 
Q 48.140625 6.6875 53.78125 8.984375 
Q 59.421875 11.28125 64.40625 15.921875 
L 64.40625 5.609375 
Q 59.234375 2.09375 53.4375 0.328125 
Q 47.65625 -1.421875 41.21875 -1.421875 
Q 24.65625 -1.421875 15.125 8.703125 
Q 5.609375 18.84375 5.609375 36.375 
Q 5.609375 53.953125 15.125 64.078125 
Q 24.65625 74.21875 41.21875 74.21875 
Q 47.75 74.21875 53.53125 72.484375 
Q 59.328125 70.75 64.40625 67.28125 
z
" id="DejaVuSans-67"/>
      <path d="M 34.28125 27.484375 
Q 23.390625 27.484375 19.1875 25 
Q 14.984375 22.515625 14.984375 16.5 
Q 14.984375 11.71875 18.140625 8.90625 
Q 21.296875 6.109375 26.703125 6.109375 
Q 34.1875 6.109375 38.703125 11.40625 
Q 43.21875 16.703125 43.21875 25.484375 
L 43.21875 27.484375 
z
M 52.203125 31.203125 
L 52.203125 0 
L 43.21875 0 
L 43.21875 8.296875 
Q 40.140625 3.328125 35.546875 0.953125 
Q 30.953125 -1.421875 24.3125 -1.421875 
Q 15.921875 -1.421875 10.953125 3.296875 
Q 6 8.015625 6 15.921875 
Q 6 25.140625 12.171875 29.828125 
Q 18.359375 34.515625 30.609375 34.515625 
L 43.21875 34.515625 
L 43.21875 35.40625 
Q 43.21875 41.609375 39.140625 45 
Q 35.0625 48.390625 27.6875 48.390625 
Q 23 48.390625 18.546875 47.265625 
Q 14.109375 46.140625 10.015625 43.890625 
L 10.015625 52.203125 
Q 14.9375 54.109375 19.578125 55.046875 
Q 24.21875 56 28.609375 56 
Q 40.484375 56 46.34375 49.84375 
Q 52.203125 43.703125 52.203125 31.203125 
z
" id="DejaVuSans-97"/>
      <path d="M 8.5 21.578125 
L 8.5 54.6875 
L 17.484375 54.6875 
L 17.484375 21.921875 
Q 17.484375 14.15625 20.5 10.265625 
Q 23.53125 6.390625 29.59375 6.390625 
Q 36.859375 6.390625 41.078125 11.03125 
Q 45.3125 15.671875 45.3125 23.6875 
L 45.3125 54.6875 
L 54.296875 54.6875 
L 54.296875 0 
L 45.3125 0 
L 45.3125 8.40625 
Q 42.046875 3.421875 37.71875 1 
Q 33.40625 -1.421875 27.6875 -1.421875 
Q 18.265625 -1.421875 13.375 4.4375 
Q 8.5 10.296875 8.5 21.578125 
z
M 31.109375 56 
z
" id="DejaVuSans-117"/>
      <path d="M 48.78125 52.59375 
L 48.78125 44.1875 
Q 44.96875 46.296875 41.140625 47.34375 
Q 37.3125 48.390625 33.40625 48.390625 
Q 24.65625 48.390625 19.8125 42.84375 
Q 14.984375 37.3125 14.984375 27.296875 
Q 14.984375 17.28125 19.8125 11.734375 
Q 24.65625 6.203125 33.40625 6.203125 
Q 37.3125 6.203125 41.140625 7.25 
Q 44.96875 8.296875 48.78125 10.40625 
L 48.78125 2.09375 
Q 45.015625 0.34375 40.984375 -0.53125 
Q 36.96875 -1.421875 32.421875 -1.421875 
Q 20.0625 -1.421875 12.78125 6.34375 
Q 5.515625 14.109375 5.515625 27.296875 
Q 5.515625 40.671875 12.859375 48.328125 
Q 20.21875 56 33.015625 56 
Q 37.15625 56 41.109375 55.140625 
Q 45.0625 54.296875 48.78125 52.59375 
z
" id="DejaVuSans-99"/>
      <path d="M 54.890625 33.015625 
L 54.890625 0 
L 45.90625 0 
L 45.90625 32.71875 
Q 45.90625 40.484375 42.875 44.328125 
Q 39.84375 48.1875 33.796875 48.1875 
Q 26.515625 48.1875 22.3125 43.546875 
Q 18.109375 38.921875 18.109375 30.90625 
L 18.109375 0 
L 9.078125 0 
L 9.078125 75.984375 
L 18.109375 75.984375 
L 18.109375 46.1875 
Q 21.34375 51.125 25.703125 53.5625 
Q 30.078125 56 35.796875 56 
Q 45.21875 56 50.046875 50.171875 
Q 54.890625 44.34375 54.890625 33.015625 
z
" id="DejaVuSans-104"/>
      <path d="M 32.171875 -5.078125 
Q 28.375 -14.84375 24.75 -17.8125 
Q 21.140625 -20.796875 15.09375 -20.796875 
L 7.90625 -20.796875 
L 7.90625 -13.28125 
L 13.1875 -13.28125 
Q 16.890625 -13.28125 18.9375 -11.515625 
Q 21 -9.765625 23.484375 -3.21875 
L 25.09375 0.875 
L 2.984375 54.6875 
L 12.5 54.6875 
L 29.59375 11.921875 
L 46.6875 54.6875 
L 56.203125 54.6875 
z
" id="DejaVuSans-121"/>
      <path d="M 31 75.875 
Q 24.46875 64.65625 21.28125 53.65625 
Q 18.109375 42.671875 18.109375 31.390625 
Q 18.109375 20.125 21.3125 9.0625 
Q 24.515625 -2 31 -13.1875 
L 23.1875 -13.1875 
Q 15.875 -1.703125 12.234375 9.375 
Q 8.59375 20.453125 8.59375 31.390625 
Q 8.59375 42.28125 12.203125 53.3125 
Q 15.828125 64.359375 23.1875 75.875 
z
" id="DejaVuSans-40"/>
      <path d="M 8.015625 75.875 
L 15.828125 75.875 
Q 23.140625 64.359375 26.78125 53.3125 
Q 30.421875 42.28125 30.421875 31.390625 
Q 30.421875 20.453125 26.78125 9.375 
Q 23.140625 -1.703125 15.828125 -13.1875 
L 8.015625 -13.1875 
Q 14.5 -2 17.703125 9.0625 
Q 20.90625 20.125 20.90625 31.390625 
Q 20.90625 42.671875 17.703125 53.65625 
Q 14.5 64.65625 8.015625 75.875 
z
" id="DejaVuSans-41"/>
     </defs>
     <g transform="translate(37.8375 204.878)rotate(-90)scale(0.1 -0.1)">
      <use transform="translate(0 0.765625)" xlink:href="#DejaVuSans-67"/>
      <use transform="translate(69.824219 0.765625)" xlink:href="#DejaVuSans-97"/>
      <use transform="translate(131.103516 0.765625)" xlink:href="#DejaVuSans-117"/>
      <use transform="translate(194.482422 0.765625)" xlink:href="#DejaVuSans-99"/>
      <use transform="translate(249.462891 0.765625)" xlink:href="#DejaVuSans-104"/>
      <use transform="translate(312.841797 0.765625)" xlink:href="#DejaVuSans-121"/>
      <use transform="translate(372.021484 0.765625)" xlink:href="#DejaVuSans-40"/>
      <use transform="translate(411.035156 0.765625)" xlink:href="#DejaVuSans-124"/>
      <use transform="translate(495.020508 13.3125)" xlink:href="#DejaVuSans-8407"/>
      <use transform="translate(444.726562 0.765625)" xlink:href="#DejaVuSans-Oblique-114"/>
      <use transform="translate(485.839844 0.765625)" xlink:href="#DejaVuSans-124"/>
      <use transform="translate(520.488281 39.046875)scale(0.7)" xlink:href="#DejaVuSans-50"/>
      <use transform="translate(567.758789 0.765625)" xlink:href="#DejaVuSans-41"/>
     </g>
    </g>
   </g>
   <g id="line2d_26">
    <path clip-path="url(#p74b3549807)" d="M 73.832727 295.488 
L 77.112066 295.440886 
L 80.391405 295.29961 
L 83.670744 295.064365 
L 86.950083 294.735475 
L 90.229421 294.313389 
L 93.50876 293.798683 
L 96.788099 293.192052 
L 100.067438 292.494315 
L 103.346777 291.706403 
L 106.626116 290.829359 
L 109.905455 289.864336 
L 113.184793 288.812586 
L 116.464132 287.675459 
L 119.743471 286.454396 
L 123.02281 285.150926 
L 126.302149 283.766655 
L 129.581488 282.303264 
L 132.860826 280.762499 
L 136.140165 279.14617 
L 139.419504 277.456139 
L 142.698843 275.694318 
L 145.978182 273.862659 
L 149.257521 271.963151 
L 152.53686 269.997813 
L 155.816198 267.968684 
L 159.095537 265.877825 
L 162.374876 263.727306 
L 165.654215 261.519207 
L 168.933554 259.255606 
L 172.212893 256.938581 
L 175.492231 254.570201 
L 178.77157 252.152522 
L 182.050909 249.687585 
L 185.330248 247.177412 
L 188.609587 244.624001 
L 191.888926 242.029323 
L 195.168264 239.395321 
L 198.447603 236.723905 
L 201.726942 234.016951 
L 205.006281 231.2763 
L 208.28562 228.503754 
L 211.564959 225.701074 
L 214.844298 222.869982 
L 218.123636 220.012158 
L 221.402975 217.129236 
L 224.682314 214.222811 
L 227.961653 211.294429 
L 231.240992 208.345594 
L 234.520331 205.377764 
L 237.799669 202.392354 
L 241.079008 199.390731 
L 244.358347 196.374219 
L 247.637686 193.344098 
L 250.917025 190.301603 
L 254.196364 187.247926 
L 257.475702 184.184217 
L 260.755041 181.111582 
L 264.03438 178.031087 
L 267.313719 174.943755 
L 270.593058 171.850572 
L 273.872397 168.752483 
L 277.151736 165.650395 
L 280.431074 162.545179 
L 283.710413 159.437667 
L 286.989752 156.328658 
L 290.269091 153.218917 
L 293.54843 150.109172 
L 296.827769 147.000123 
L 300.107107 143.892435 
L 303.386446 140.786746 
L 306.665785 137.68366 
L 309.945124 134.583756 
L 313.224463 131.487585 
L 316.503802 128.39567 
L 319.78314 125.308509 
L 323.062479 122.226575 
L 326.341818 119.150318 
L 329.621157 116.080162 
L 332.900496 113.016514 
L 336.179835 109.959754 
L 339.459174 106.910245 
L 342.738512 103.868329 
L 346.017851 100.83433 
L 349.29719 97.808553 
L 352.576529 94.791284 
L 355.855868 91.782796 
L 359.135207 88.783341 
L 362.414545 85.793161 
L 365.693884 82.812478 
L 368.973223 79.841504 
L 372.252562 76.880435 
L 375.531901 73.929454 
L 378.81124 70.988732 
L 382.090579 68.05843 
L 385.369917 65.138693 
L 388.649256 62.229661 
L 391.928595 59.331458 
L 395.207934 56.444202 
L 398.487273 53.568 
" style="fill:none;stroke:#00bfbf;stroke-dasharray:5.55,2.4;stroke-dashoffset:0;stroke-width:1.5;"/>
   </g>
   <g id="line2d_27">
    <path clip-path="url(#p74b3549807)" d="M 73.832727 295.488 
L 77.112066 295.440902 
L 80.391405 295.299869 
L 83.670744 295.065671 
L 86.950083 294.739579 
L 90.229421 294.32334 
L 93.50876 293.819146 
L 96.788099 293.229599 
L 100.067438 292.557664 
L 103.346777 291.806625 
L 106.626116 290.980035 
L 109.905455 290.081665 
L 113.184793 289.115453 
L 116.464132 288.085456 
L 119.743471 286.995802 
L 123.02281 285.850645 
L 126.302149 284.65413 
L 129.581488 283.410353 
L 132.860826 282.123331 
L 136.140165 280.796976 
L 139.419504 279.435075 
L 142.698843 278.041268 
L 145.978182 276.619039 
L 149.257521 275.171703 
L 152.53686 273.702398 
L 155.816198 272.214088 
L 159.095537 270.709555 
L 162.374876 269.191401 
L 165.654215 267.662054 
L 168.933554 266.123772 
L 172.212893 264.578643 
L 175.492231 263.028599 
L 178.77157 261.475417 
L 182.050909 259.920729 
L 185.330248 258.366031 
L 188.609587 256.812686 
L 191.888926 255.261939 
L 195.168264 253.714918 
L 198.447603 252.172644 
L 201.726942 250.636041 
L 205.006281 249.105938 
L 208.28562 247.583082 
L 211.564959 246.068138 
L 214.844298 244.561699 
L 218.123636 243.06429 
L 221.402975 241.576376 
L 224.682314 240.098363 
L 227.961653 238.630607 
L 231.240992 237.173415 
L 234.520331 235.727051 
L 237.799669 234.291737 
L 241.079008 232.867663 
L 244.358347 231.454983 
L 247.637686 230.05382 
L 250.917025 228.664272 
L 254.196364 227.286412 
L 257.475702 225.92029 
L 260.755041 224.565934 
L 264.03438 223.223356 
L 267.313719 221.892551 
L 270.593058 220.573499 
L 273.872397 219.266167 
L 277.151736 217.970508 
L 280.431074 216.686468 
L 283.710413 215.413979 
L 286.989752 214.152969 
L 290.269091 212.903355 
L 293.54843 211.665049 
L 296.827769 210.437957 
L 300.107107 209.221979 
L 303.386446 208.017013 
L 306.665785 206.822951 
L 309.945124 205.639682 
L 313.224463 204.467092 
L 316.503802 203.305066 
L 319.78314 202.153485 
L 323.062479 201.012232 
L 326.341818 199.881184 
L 329.621157 198.760222 
L 332.900496 197.649223 
L 336.179835 196.548064 
L 339.459174 195.456623 
L 342.738512 194.374778 
L 346.017851 193.302407 
L 349.29719 192.239387 
L 352.576529 191.185598 
L 355.855868 190.14092 
L 359.135207 189.105231 
L 362.414545 188.078415 
L 365.693884 187.060351 
L 368.973223 186.050925 
L 372.252562 185.05002 
L 375.531901 184.057522 
L 378.81124 183.073317 
L 382.090579 182.097295 
L 385.369917 181.129343 
L 388.649256 180.169353 
L 391.928595 179.217217 
L 395.207934 178.272829 
L 398.487273 177.336084 
" style="fill:none;stroke:#00bfbf;stroke-linecap:square;stroke-width:1.5;"/>
   </g>
   <g id="line2d_28">
    <path clip-path="url(#p74b3549807)" d="M 73.832727 295.488 
L 77.112066 295.440967 
L 80.391405 295.300895 
L 83.670744 295.070787 
L 86.950083 294.755416 
L 90.229421 294.361009 
L 93.50876 293.894863 
L 96.788099 293.36495 
L 100.067438 292.779533 
L 103.346777 292.146833 
L 106.626116 291.474769 
L 109.905455 290.77076 
L 113.184793 290.0416 
L 116.464132 289.293389 
L 119.743471 288.531514 
L 123.02281 287.760661 
L 126.302149 286.984854 
L 129.581488 286.207508 
L 132.860826 285.431485 
L 136.140165 284.659161 
L 139.419504 283.892485 
L 142.698843 283.133035 
L 145.978182 282.382073 
L 149.257521 281.640591 
L 152.53686 280.909354 
L 155.816198 280.188934 
L 159.095537 279.479746 
L 162.374876 278.782068 
L 165.654215 278.096072 
L 168.933554 277.421839 
L 172.212893 276.759375 
L 175.492231 276.108627 
L 178.77157 275.469495 
L 182.050909 274.841839 
L 185.330248 274.225489 
L 188.609587 273.620253 
L 191.888926 273.02592 
L 195.168264 272.442266 
L 198.447603 271.869058 
L 201.726942 271.306056 
L 205.006281 270.753016 
L 208.28562 270.209695 
L 211.564959 269.675847 
L 214.844298 269.15123 
L 218.123636 268.635604 
L 221.402975 268.128731 
L 224.682314 267.630381 
L 227.961653 267.140324 
L 231.240992 266.658338 
L 234.520331 266.184207 
L 237.799669 265.717719 
L 241.079008 265.258669 
L 244.358347 264.806856 
L 247.637686 264.362087 
L 250.917025 263.924174 
L 254.196364 263.492934 
L 257.475702 263.068191 
L 260.755041 262.649773 
L 264.03438 262.237515 
L 267.313719 261.831257 
L 270.593058 261.430843 
L 273.872397 261.036124 
L 277.151736 260.646954 
L 280.431074 260.263192 
L 283.710413 259.884704 
L 286.989752 259.511358 
L 290.269091 259.143026 
L 293.54843 258.779585 
L 296.827769 258.420917 
L 300.107107 258.066907 
L 303.386446 257.717443 
L 306.665785 257.372417 
L 309.945124 257.031726 
L 313.224463 256.695268 
L 316.503802 256.362945 
L 319.78314 256.034663 
L 323.062479 255.710331 
L 326.341818 255.389858 
L 329.621157 255.07316 
L 332.900496 254.760152 
L 336.179835 254.450755 
L 339.459174 254.144889 
L 342.738512 253.842479 
L 346.017851 253.543451 
L 349.29719 253.247733 
L 352.576529 252.955257 
L 355.855868 252.665954 
L 359.135207 252.379759 
L 362.414545 252.096609 
L 365.693884 251.816443 
L 368.973223 251.5392 
L 372.252562 251.264822 
L 375.531901 250.993254 
L 378.81124 250.724439 
L 382.090579 250.458324 
L 385.369917 250.194858 
L 388.649256 249.93399 
L 391.928595 249.675671 
L 395.207934 249.419853 
L 398.487273 249.16649 
" style="fill:none;stroke:#00bfbf;stroke-dasharray:9.6,2.4,1.5,2.4;stroke-dashoffset:0;stroke-width:1.5;"/>
   </g>
   <g id="patch_3">
    <path d="M 57.6 307.584 
L 57.6 41.472 
" style="fill:none;stroke:#000000;stroke-linecap:square;stroke-linejoin:miter;stroke-width:0.8;"/>
   </g>
   <g id="patch_4">
    <path d="M 414.72 307.584 
L 414.72 41.472 
" style="fill:none;stroke:#000000;stroke-linecap:square;stroke-linejoin:miter;stroke-width:0.8;"/>
   </g>
   <g id="patch_5">
    <path d="M 57.6 307.584 
L 414.72 307.584 
" style="fill:none;stroke:#000000;stroke-linecap:square;stroke-linejoin:miter;stroke-width:0.8;"/>
   </g>
   <g id="patch_6">
    <path d="M 57.6 41.472 
L 414.72 41.472 
" style="fill:none;stroke:#000000;stroke-linecap:square;stroke-linejoin:miter;stroke-width:0.8;"/>
   </g>
   <g id="text_15">
    <!-- loss.Cauchy depending on residual vector $\vec{r}$ and scale -->
    <defs>
     <path d="M 9.421875 75.984375 
L 18.40625 75.984375 
L 18.40625 0 
L 9.421875 0 
z
" id="DejaVuSans-108"/>
     <path d="M 30.609375 48.390625 
Q 23.390625 48.390625 19.1875 42.75 
Q 14.984375 37.109375 14.984375 27.296875 
Q 14.984375 17.484375 19.15625 11.84375 
Q 23.34375 6.203125 30.609375 6.203125 
Q 37.796875 6.203125 41.984375 11.859375 
Q 46.1875 17.53125 46.1875 27.296875 
Q 46.1875 37.015625 41.984375 42.703125 
Q 37.796875 48.390625 30.609375 48.390625 
z
M 30.609375 56 
Q 42.328125 56 49.015625 48.375 
Q 55.71875 40.765625 55.71875 27.296875 
Q 55.71875 13.875 49.015625 6.21875 
Q 42.328125 -1.421875 30.609375 -1.421875 
Q 18.84375 -1.421875 12.171875 6.21875 
Q 5.515625 13.875 5.515625 27.296875 
Q 5.515625 40.765625 12.171875 48.375 
Q 18.84375 56 30.609375 56 
z
" id="DejaVuSans-111"/>
     <path d="M 44.28125 53.078125 
L 44.28125 44.578125 
Q 40.484375 46.53125 36.375 47.5 
Q 32.28125 48.484375 27.875 48.484375 
Q 21.1875 48.484375 17.84375 46.4375 
Q 14.5 44.390625 14.5 40.28125 
Q 14.5 37.15625 16.890625 35.375 
Q 19.28125 33.59375 26.515625 31.984375 
L 29.59375 31.296875 
Q 39.15625 29.25 43.1875 25.515625 
Q 47.21875 21.78125 47.21875 15.09375 
Q 47.21875 7.46875 41.1875 3.015625 
Q 35.15625 -1.421875 24.609375 -1.421875 
Q 20.21875 -1.421875 15.453125 -0.5625 
Q 10.6875 0.296875 5.421875 2 
L 5.421875 11.28125 
Q 10.40625 8.6875 15.234375 7.390625 
Q 20.0625 6.109375 24.8125 6.109375 
Q 31.15625 6.109375 34.5625 8.28125 
Q 37.984375 10.453125 37.984375 14.40625 
Q 37.984375 18.0625 35.515625 20.015625 
Q 33.0625 21.96875 24.703125 23.78125 
L 21.578125 24.515625 
Q 13.234375 26.265625 9.515625 29.90625 
Q 5.8125 33.546875 5.8125 39.890625 
Q 5.8125 47.609375 11.28125 51.796875 
Q 16.75 56 26.8125 56 
Q 31.78125 56 36.171875 55.265625 
Q 40.578125 54.546875 44.28125 53.078125 
z
" id="DejaVuSans-115"/>
     <path id="DejaVuSans-32"/>
     <path d="M 45.40625 46.390625 
L 45.40625 75.984375 
L 54.390625 75.984375 
L 54.390625 0 
L 45.40625 0 
L 45.40625 8.203125 
Q 42.578125 3.328125 38.25 0.953125 
Q 33.9375 -1.421875 27.875 -1.421875 
Q 17.96875 -1.421875 11.734375 6.484375 
Q 5.515625 14.40625 5.515625 27.296875 
Q 5.515625 40.1875 11.734375 48.09375 
Q 17.96875 56 27.875 56 
Q 33.9375 56 38.25 53.625 
Q 42.578125 51.265625 45.40625 46.390625 
z
M 14.796875 27.296875 
Q 14.796875 17.390625 18.875 11.75 
Q 22.953125 6.109375 30.078125 6.109375 
Q 37.203125 6.109375 41.296875 11.75 
Q 45.40625 17.390625 45.40625 27.296875 
Q 45.40625 37.203125 41.296875 42.84375 
Q 37.203125 48.484375 30.078125 48.484375 
Q 22.953125 48.484375 18.875 42.84375 
Q 14.796875 37.203125 14.796875 27.296875 
z
" id="DejaVuSans-100"/>
     <path d="M 56.203125 29.59375 
L 56.203125 25.203125 
L 14.890625 25.203125 
Q 15.484375 15.921875 20.484375 11.0625 
Q 25.484375 6.203125 34.421875 6.203125 
Q 39.59375 6.203125 44.453125 7.46875 
Q 49.3125 8.734375 54.109375 11.28125 
L 54.109375 2.78125 
Q 49.265625 0.734375 44.1875 -0.34375 
Q 39.109375 -1.421875 33.890625 -1.421875 
Q 20.796875 -1.421875 13.15625 6.1875 
Q 5.515625 13.8125 5.515625 26.8125 
Q 5.515625 40.234375 12.765625 48.109375 
Q 20.015625 56 32.328125 56 
Q 43.359375 56 49.78125 48.890625 
Q 56.203125 41.796875 56.203125 29.59375 
z
M 47.21875 32.234375 
Q 47.125 39.59375 43.09375 43.984375 
Q 39.0625 48.390625 32.421875 48.390625 
Q 24.90625 48.390625 20.390625 44.140625 
Q 15.875 39.890625 15.1875 32.171875 
z
" id="DejaVuSans-101"/>
     <path d="M 18.109375 8.203125 
L 18.109375 -20.796875 
L 9.078125 -20.796875 
L 9.078125 54.6875 
L 18.109375 54.6875 
L 18.109375 46.390625 
Q 20.953125 51.265625 25.265625 53.625 
Q 29.59375 56 35.59375 56 
Q 45.5625 56 51.78125 48.09375 
Q 58.015625 40.1875 58.015625 27.296875 
Q 58.015625 14.40625 51.78125 6.484375 
Q 45.5625 -1.421875 35.59375 -1.421875 
Q 29.59375 -1.421875 25.265625 0.953125 
Q 20.953125 3.328125 18.109375 8.203125 
z
M 48.6875 27.296875 
Q 48.6875 37.203125 44.609375 42.84375 
Q 40.53125 48.484375 33.40625 48.484375 
Q 26.265625 48.484375 22.1875 42.84375 
Q 18.109375 37.203125 18.109375 27.296875 
Q 18.109375 17.390625 22.1875 11.75 
Q 26.265625 6.109375 33.40625 6.109375 
Q 40.53125 6.109375 44.609375 11.75 
Q 48.6875 17.390625 48.6875 27.296875 
z
" id="DejaVuSans-112"/>
     <path d="M 54.890625 33.015625 
L 54.890625 0 
L 45.90625 0 
L 45.90625 32.71875 
Q 45.90625 40.484375 42.875 44.328125 
Q 39.84375 48.1875 33.796875 48.1875 
Q 26.515625 48.1875 22.3125 43.546875 
Q 18.109375 38.921875 18.109375 30.90625 
L 18.109375 0 
L 9.078125 0 
L 9.078125 54.6875 
L 18.109375 54.6875 
L 18.109375 46.1875 
Q 21.34375 51.125 25.703125 53.5625 
Q 30.078125 56 35.796875 56 
Q 45.21875 56 50.046875 50.171875 
Q 54.890625 44.34375 54.890625 33.015625 
z
" id="DejaVuSans-110"/>
     <path d="M 9.421875 54.6875 
L 18.40625 54.6875 
L 18.40625 0 
L 9.421875 0 
z
M 9.421875 75.984375 
L 18.40625 75.984375 
L 18.40625 64.59375 
L 9.421875 64.59375 
z
" id="DejaVuSans-105"/>
     <path d="M 45.40625 27.984375 
Q 45.40625 37.75 41.375 43.109375 
Q 37.359375 48.484375 30.078125 48.484375 
Q 22.859375 48.484375 18.828125 43.109375 
Q 14.796875 37.75 14.796875 27.984375 
Q 14.796875 18.265625 18.828125 12.890625 
Q 22.859375 7.515625 30.078125 7.515625 
Q 37.359375 7.515625 41.375 12.890625 
Q 45.40625 18.265625 45.40625 27.984375 
z
M 54.390625 6.78125 
Q 54.390625 -7.171875 48.1875 -13.984375 
Q 42 -20.796875 29.203125 -20.796875 
Q 24.46875 -20.796875 20.265625 -20.09375 
Q 16.0625 -19.390625 12.109375 -17.921875 
L 12.109375 -9.1875 
Q 16.0625 -11.328125 19.921875 -12.34375 
Q 23.78125 -13.375 27.78125 -13.375 
Q 36.625 -13.375 41.015625 -8.765625 
Q 45.40625 -4.15625 45.40625 5.171875 
L 45.40625 9.625 
Q 42.625 4.78125 38.28125 2.390625 
Q 33.9375 0 27.875 0 
Q 17.828125 0 11.671875 7.65625 
Q 5.515625 15.328125 5.515625 27.984375 
Q 5.515625 40.671875 11.671875 48.328125 
Q 17.828125 56 27.875 56 
Q 33.9375 56 38.28125 53.609375 
Q 42.625 51.21875 45.40625 46.390625 
L 45.40625 54.6875 
L 54.390625 54.6875 
z
" id="DejaVuSans-103"/>
     <path d="M 41.109375 46.296875 
Q 39.59375 47.171875 37.8125 47.578125 
Q 36.03125 48 33.890625 48 
Q 26.265625 48 22.1875 43.046875 
Q 18.109375 38.09375 18.109375 28.8125 
L 18.109375 0 
L 9.078125 0 
L 9.078125 54.6875 
L 18.109375 54.6875 
L 18.109375 46.1875 
Q 20.953125 51.171875 25.484375 53.578125 
Q 30.03125 56 36.53125 56 
Q 37.453125 56 38.578125 55.875 
Q 39.703125 55.765625 41.0625 55.515625 
z
" id="DejaVuSans-114"/>
     <path d="M 2.984375 54.6875 
L 12.5 54.6875 
L 29.59375 8.796875 
L 46.6875 54.6875 
L 56.203125 54.6875 
L 35.6875 0 
L 23.484375 0 
z
" id="DejaVuSans-118"/>
     <path d="M 18.3125 70.21875 
L 18.3125 54.6875 
L 36.8125 54.6875 
L 36.8125 47.703125 
L 18.3125 47.703125 
L 18.3125 18.015625 
Q 18.3125 11.328125 20.140625 9.421875 
Q 21.96875 7.515625 27.59375 7.515625 
L 36.8125 7.515625 
L 36.8125 0 
L 27.59375 0 
Q 17.1875 0 13.234375 3.875 
Q 9.28125 7.765625 9.28125 18.015625 
L 9.28125 47.703125 
L 2.6875 47.703125 
L 2.6875 54.6875 
L 9.28125 54.6875 
L 9.28125 70.21875 
z
" id="DejaVuSans-116"/>
    </defs>
    <g transform="translate(75.42 35.472)scale(0.12 -0.12)">
     <use transform="translate(0 0.46875)" xlink:href="#DejaVuSans-108"/>
     <use transform="translate(27.783203 0.46875)" xlink:href="#DejaVuSans-111"/>
     <use transform="translate(88.964844 0.46875)" xlink:href="#DejaVuSans-115"/>
     <use transform="translate(141.064453 0.46875)" xlink:href="#DejaVuSans-115"/>
     <use transform="translate(193.164062 0.46875)" xlink:href="#DejaVuSans-46"/>
     <use transform="translate(224.951172 0.46875)" xlink:href="#DejaVuSans-67"/>
     <use transform="translate(294.775391 0.46875)" xlink:href="#DejaVuSans-97"/>
     <use transform="translate(356.054688 0.46875)" xlink:href="#DejaVuSans-117"/>
     <use transform="translate(419.433594 0.46875)" xlink:href="#DejaVuSans-99"/>
     <use transform="translate(474.414062 0.46875)" xlink:href="#DejaVuSans-104"/>
     <use transform="translate(537.792969 0.46875)" xlink:href="#DejaVuSans-121"/>
     <use transform="translate(596.972656 0.46875)" xlink:href="#DejaVuSans-32"/>
     <use transform="translate(628.759766 0.46875)" xlink:href="#DejaVuSans-100"/>
     <use transform="translate(692.236328 0.46875)" xlink:href="#DejaVuSans-101"/>
     <use transform="translate(753.759766 0.46875)" xlink:href="#DejaVuSans-112"/>
     <use transform="translate(817.236328 0.46875)" xlink:href="#DejaVuSans-101"/>
     <use transform="translate(878.759766 0.46875)" xlink:href="#DejaVuSans-110"/>
     <use transform="translate(942.138672 0.46875)" xlink:href="#DejaVuSans-100"/>
     <use transform="translate(1005.615234 0.46875)" xlink:href="#DejaVuSans-105"/>
     <use transform="translate(1033.398438 0.46875)" xlink:href="#DejaVuSans-110"/>
     <use transform="translate(1096.777344 0.46875)" xlink:href="#DejaVuSans-103"/>
     <use transform="translate(1160.253906 0.46875)" xlink:href="#DejaVuSans-32"/>
     <use transform="translate(1192.041016 0.46875)" xlink:href="#DejaVuSans-111"/>
     <use transform="translate(1253.222656 0.46875)" xlink:href="#DejaVuSans-110"/>
     <use transform="translate(1316.601562 0.46875)" xlink:href="#DejaVuSans-32"/>
     <use transform="translate(1348.388672 0.46875)" xlink:href="#DejaVuSans-114"/>
     <use transform="translate(1389.501953 0.46875)" xlink:href="#DejaVuSans-101"/>
     <use transform="translate(1451.025391 0.46875)" xlink:href="#DejaVuSans-115"/>
     <use transform="translate(1503.125 0.46875)" xlink:href="#DejaVuSans-105"/>
     <use transform="translate(1530.908203 0.46875)" xlink:href="#DejaVuSans-100"/>
     <use transform="translate(1594.384766 0.46875)" xlink:href="#DejaVuSans-117"/>
     <use transform="translate(1657.763672 0.46875)" xlink:href="#DejaVuSans-97"/>
     <use transform="translate(1719.042969 0.46875)" xlink:href="#DejaVuSans-108"/>
     <use transform="translate(1746.826172 0.46875)" xlink:href="#DejaVuSans-32"/>
     <use transform="translate(1778.613281 0.46875)" xlink:href="#DejaVuSans-118"/>
     <use transform="translate(1837.792969 0.46875)" xlink:href="#DejaVuSans-101"/>
     <use transform="translate(1899.316406 0.46875)" xlink:href="#DejaVuSans-99"/>
     <use transform="translate(1954.296875 0.46875)" xlink:href="#DejaVuSans-116"/>
     <use transform="translate(1993.505859 0.46875)" xlink:href="#DejaVuSans-111"/>
     <use transform="translate(2054.6875 0.46875)" xlink:href="#DejaVuSans-114"/>
     <use transform="translate(2095.800781 0.46875)" xlink:href="#DejaVuSans-32"/>
     <use transform="translate(2177.881836 13.015625)" xlink:href="#DejaVuSans-8407"/>
     <use transform="translate(2127.587891 0.46875)" xlink:href="#DejaVuSans-Oblique-114"/>
     <use transform="translate(2168.701172 0.46875)" xlink:href="#DejaVuSans-32"/>
     <use transform="translate(2200.488281 0.46875)" xlink:href="#DejaVuSans-97"/>
     <use transform="translate(2261.767578 0.46875)" xlink:href="#DejaVuSans-110"/>
     <use transform="translate(2325.146484 0.46875)" xlink:href="#DejaVuSans-100"/>
     <use transform="translate(2388.623047 0.46875)" xlink:href="#DejaVuSans-32"/>
     <use transform="translate(2420.410156 0.46875)" xlink:href="#DejaVuSans-115"/>
     <use transform="translate(2472.509766 0.46875)" xlink:href="#DejaVuSans-99"/>
     <use transform="translate(2527.490234 0.46875)" xlink:href="#DejaVuSans-97"/>
     <use transform="translate(2588.769531 0.46875)" xlink:href="#DejaVuSans-108"/>
     <use transform="translate(2616.552734 0.46875)" xlink:href="#DejaVuSans-101"/>
    </g>
   </g>
   <g id="legend_1">
    <g id="patch_7">
     <path d="M 64.6 108.1845 
L 157.509375 108.1845 
Q 159.509375 108.1845 159.509375 106.1845 
L 159.509375 48.472 
Q 159.509375 46.472 157.509375 46.472 
L 64.6 46.472 
Q 62.6 46.472 62.6 48.472 
L 62.6 106.1845 
Q 62.6 108.1845 64.6 108.1845 
z
" style="fill:#ffffff;opacity:0.8;stroke:#cccccc;stroke-linejoin:miter;"/>
    </g>
    <g id="line2d_29">
     <path d="M 66.6 54.570438 
L 86.6 54.570438 
" style="fill:none;stroke:#00bfbf;stroke-dasharray:5.55,2.4;stroke-dashoffset:0;stroke-width:1.5;"/>
    </g>
    <g id="line2d_30"/>
    <g id="text_16">
     <!-- Cauchy(2.0) -->
     <g transform="translate(94.6 58.070438)scale(0.1 -0.1)">
      <use xlink:href="#DejaVuSans-67"/>
      <use x="69.824219" xlink:href="#DejaVuSans-97"/>
      <use x="131.103516" xlink:href="#DejaVuSans-117"/>
      <use x="194.482422" xlink:href="#DejaVuSans-99"/>
      <use x="249.462891" xlink:href="#DejaVuSans-104"/>
      <use x="312.841797" xlink:href="#DejaVuSans-121"/>
      <use x="372.021484" xlink:href="#DejaVuSans-40"/>
      <use x="411.035156" xlink:href="#DejaVuSans-50"/>
      <use x="474.658203" xlink:href="#DejaVuSans-46"/>
      <use x="506.445312" xlink:href="#DejaVuSans-48"/>
      <use x="570.068359" xlink:href="#DejaVuSans-41"/>
     </g>
    </g>
    <g id="line2d_31">
     <path d="M 66.6 69.248563 
L 86.6 69.248563 
" style="fill:none;stroke:#00bfbf;stroke-linecap:square;stroke-width:1.5;"/>
    </g>
    <g id="line2d_32"/>
    <g id="text_17">
     <!-- Cauchy(1.0) -->
     <g transform="translate(94.6 72.748563)scale(0.1 -0.1)">
      <use xlink:href="#DejaVuSans-67"/>
      <use x="69.824219" xlink:href="#DejaVuSans-97"/>
      <use x="131.103516" xlink:href="#DejaVuSans-117"/>
      <use x="194.482422" xlink:href="#DejaVuSans-99"/>
      <use x="249.462891" xlink:href="#DejaVuSans-104"/>
      <use x="312.841797" xlink:href="#DejaVuSans-121"/>
      <use x="372.021484" xlink:href="#DejaVuSans-40"/>
      <use x="411.035156" xlink:href="#DejaVuSans-49"/>
      <use x="474.658203" xlink:href="#DejaVuSans-46"/>
      <use x="506.445312" xlink:href="#DejaVuSans-48"/>
      <use x="570.068359" xlink:href="#DejaVuSans-41"/>
     </g>
    </g>
    <g id="line2d_33">
     <path d="M 66.6 83.926688 
L 86.6 83.926688 
" style="fill:none;stroke:#00bfbf;stroke-dasharray:9.6,2.4,1.5,2.4;stroke-dashoffset:0;stroke-width:1.5;"/>
    </g>
    <g id="line2d_34"/>
    <g id="text_18">
     <!-- Cauchy(0.5) -->
     <g transform="translate(94.6 87.426688)scale(0.1 -0.1)">
      <use xlink:href="#DejaVuSans-67"/>
      <use x="69.824219" xlink:href="#DejaVuSans-97"/>
      <use x="131.103516" xlink:href="#DejaVuSans-117"/>
      <use x="194.482422" xlink:href="#DejaVuSans-99"/>
      <use x="249.462891" xlink:href="#DejaVuSans-104"/>
      <use x="312.841797" xlink:href="#DejaVuSans-121"/>
      <use x="372.021484" xlink:href="#DejaVuSans-40"/>
      <use x="411.035156" xlink:href="#DejaVuSans-48"/>
      <use x="474.658203" xlink:href="#DejaVuSans-46"/>
      <use x="506.445312" xlink:href="#DejaVuSans-53"/>
      <use x="570.068359" xlink:href="#DejaVuSans-41"/>
     </g>
    </g>
    <g id="line2d_35">
     <path d="M 66.6 98.604813 
L 86.6 98.604813 
" style="fill:none;stroke:#ff0000;stroke-linecap:square;stroke-width:1.5;"/>
    </g>
    <g id="line2d_36"/>
    <g id="text_19">
     <!-- Trivial -->
     <defs>
      <path d="M -0.296875 72.90625 
L 61.375 72.90625 
L 61.375 64.59375 
L 35.5 64.59375 
L 35.5 0 
L 25.59375 0 
L 25.59375 64.59375 
L -0.296875 64.59375 
z
" id="DejaVuSans-84"/>
     </defs>
     <g transform="translate(94.6 102.104813)scale(0.1 -0.1)">
      <use xlink:href="#DejaVuSans-84"/>
      <use x="46.333984" xlink:href="#DejaVuSans-114"/>
      <use x="87.447266" xlink:href="#DejaVuSans-105"/>
      <use x="115.230469" xlink:href="#DejaVuSans-118"/>
      <use x="174.410156" xlink:href="#DejaVuSans-105"/>
      <use x="202.193359" xlink:href="#DejaVuSans-97"/>
      <use x="263.472656" xlink:href="#DejaVuSans-108"/>
     </g>
    </g>
   </g>
  </g>
 </g>
 <defs>
  <clipPath id="p74b3549807">
   <rect height="266.112" width="357.12" x="57.6" y="41.472"/>
  </clipPath>
 </defs>
</svg>
