<?xml version="1.0" encoding="utf-8" standalone="no"?>
<!DOCTYPE svg PUBLIC "-//W3C//DTD SVG 1.1//EN"
  "http://www.w3.org/Graphics/SVG/1.1/DTD/svg11.dtd">
<!-- Created with matplotlib (https://matplotlib.org/) -->
<svg height="345.6pt" version="1.1" viewBox="0 0 460.8 345.6" width="460.8pt" xmlns="http://www.w3.org/2000/svg" xmlns:xlink="http://www.w3.org/1999/xlink">
 <defs>
  <style type="text/css">
*{stroke-linecap:butt;stroke-linejoin:round;}
  </style>
 </defs>
 <g id="figure_1">
  <g id="patch_1">
   <path d="M 0 345.6 
L 460.8 345.6 
L 460.8 0 
L 0 0 
z
" style="fill:#ffffff;"/>
  </g>
  <g id="axes_1">
   <g id="patch_2">
    <path d="M 57.6 307.584 
L 414.72 307.584 
L 414.72 41.472 
L 57.6 41.472 
z
" style="fill:#ffffff;"/>
   </g>
   <g id="matplotlib.axis_1">
    <g id="xtick_1">
     <g id="line2d_1">
      <path clip-path="url(#p14ddec71d6)" d="M 73.832727 307.584 
L 73.832727 41.472 
" style="fill:none;stroke:#b0b0b0;stroke-linecap:square;stroke-width:0.8;"/>
     </g>
     <g id="line2d_2">
      <defs>
       <path d="M 0 0 
L 0 3.5 
" id="mc5a910dfb6" style="stroke:#000000;stroke-width:0.8;"/>
      </defs>
      <g>
       <use style="stroke:#000000;stroke-width:0.8;" x="73.832727" xlink:href="#mc5a910dfb6" y="307.584"/>
      </g>
     </g>
     <g id="text_1">
      <!-- 0.0 -->
      <defs>
       <path d="M 31.78125 66.40625 
Q 24.171875 66.40625 20.328125 58.90625 
Q 16.5 51.421875 16.5 36.375 
Q 16.5 21.390625 20.328125 13.890625 
Q 24.171875 6.390625 31.78125 6.390625 
Q 39.453125 6.390625 43.28125 13.890625 
Q 47.125 21.390625 47.125 36.375 
Q 47.125 51.421875 43.28125 58.90625 
Q 39.453125 66.40625 31.78125 66.40625 
z
M 31.78125 74.21875 
Q 44.046875 74.21875 50.515625 64.515625 
Q 56.984375 54.828125 56.984375 36.375 
Q 56.984375 17.96875 50.515625 8.265625 
Q 44.046875 -1.421875 31.78125 -1.421875 
Q 19.53125 -1.421875 13.0625 8.265625 
Q 6.59375 17.96875 6.59375 36.375 
Q 6.59375 54.828125 13.0625 64.515625 
Q 19.53125 74.21875 31.78125 74.21875 
z
" id="DejaVuSans-48"/>
       <path d="M 10.6875 12.40625 
L 21 12.40625 
L 21 0 
L 10.6875 0 
z
" id="DejaVuSans-46"/>
      </defs>
      <g transform="translate(65.881165 322.182437)scale(0.1 -0.1)">
       <use xlink:href="#DejaVuSans-48"/>
       <use x="63.623047" xlink:href="#DejaVuSans-46"/>
       <use x="95.410156" xlink:href="#DejaVuSans-48"/>
      </g>
     </g>
    </g>
    <g id="xtick_2">
     <g id="line2d_3">
      <path clip-path="url(#p14ddec71d6)" d="M 127.941818 307.584 
L 127.941818 41.472 
" style="fill:none;stroke:#b0b0b0;stroke-linecap:square;stroke-width:0.8;"/>
     </g>
     <g id="line2d_4">
      <g>
       <use style="stroke:#000000;stroke-width:0.8;" x="127.941818" xlink:href="#mc5a910dfb6" y="307.584"/>
      </g>
     </g>
     <g id="text_2">
      <!-- 0.5 -->
      <defs>
       <path d="M 10.796875 72.90625 
L 49.515625 72.90625 
L 49.515625 64.59375 
L 19.828125 64.59375 
L 19.828125 46.734375 
Q 21.96875 47.46875 24.109375 47.828125 
Q 26.265625 48.1875 28.421875 48.1875 
Q 40.625 48.1875 47.75 41.5 
Q 54.890625 34.8125 54.890625 23.390625 
Q 54.890625 11.625 47.5625 5.09375 
Q 40.234375 -1.421875 26.90625 -1.421875 
Q 22.3125 -1.421875 17.546875 -0.640625 
Q 12.796875 0.140625 7.71875 1.703125 
L 7.71875 11.625 
Q 12.109375 9.234375 16.796875 8.0625 
Q 21.484375 6.890625 26.703125 6.890625 
Q 35.15625 6.890625 40.078125 11.328125 
Q 45.015625 15.765625 45.015625 23.390625 
Q 45.015625 31 40.078125 35.4375 
Q 35.15625 39.890625 26.703125 39.890625 
Q 22.75 39.890625 18.8125 39.015625 
Q 14.890625 38.140625 10.796875 36.28125 
z
" id="DejaVuSans-53"/>
      </defs>
      <g transform="translate(119.990256 322.182437)scale(0.1 -0.1)">
       <use xlink:href="#DejaVuSans-48"/>
       <use x="63.623047" xlink:href="#DejaVuSans-46"/>
       <use x="95.410156" xlink:href="#DejaVuSans-53"/>
      </g>
     </g>
    </g>
    <g id="xtick_3">
     <g id="line2d_5">
      <path clip-path="url(#p14ddec71d6)" d="M 182.050909 307.584 
L 182.050909 41.472 
" style="fill:none;stroke:#b0b0b0;stroke-linecap:square;stroke-width:0.8;"/>
     </g>
     <g id="line2d_6">
      <g>
       <use style="stroke:#000000;stroke-width:0.8;" x="182.050909" xlink:href="#mc5a910dfb6" y="307.584"/>
      </g>
     </g>
     <g id="text_3">
      <!-- 1.0 -->
      <defs>
       <path d="M 12.40625 8.296875 
L 28.515625 8.296875 
L 28.515625 63.921875 
L 10.984375 60.40625 
L 10.984375 69.390625 
L 28.421875 72.90625 
L 38.28125 72.90625 
L 38.28125 8.296875 
L 54.390625 8.296875 
L 54.390625 0 
L 12.40625 0 
z
" id="DejaVuSans-49"/>
      </defs>
      <g transform="translate(174.099347 322.182437)scale(0.1 -0.1)">
       <use xlink:href="#DejaVuSans-49"/>
       <use x="63.623047" xlink:href="#DejaVuSans-46"/>
       <use x="95.410156" xlink:href="#DejaVuSans-48"/>
      </g>
     </g>
    </g>
    <g id="xtick_4">
     <g id="line2d_7">
      <path clip-path="url(#p14ddec71d6)" d="M 236.16 307.584 
L 236.16 41.472 
" style="fill:none;stroke:#b0b0b0;stroke-linecap:square;stroke-width:0.8;"/>
     </g>
     <g id="line2d_8">
      <g>
       <use style="stroke:#000000;stroke-width:0.8;" x="236.16" xlink:href="#mc5a910dfb6" y="307.584"/>
      </g>
     </g>
     <g id="text_4">
      <!-- 1.5 -->
      <g transform="translate(228.208438 322.182437)scale(0.1 -0.1)">
       <use xlink:href="#DejaVuSans-49"/>
       <use x="63.623047" xlink:href="#DejaVuSans-46"/>
       <use x="95.410156" xlink:href="#DejaVuSans-53"/>
      </g>
     </g>
    </g>
    <g id="xtick_5">
     <g id="line2d_9">
      <path clip-path="url(#p14ddec71d6)" d="M 290.269091 307.584 
L 290.269091 41.472 
" style="fill:none;stroke:#b0b0b0;stroke-linecap:square;stroke-width:0.8;"/>
     </g>
     <g id="line2d_10">
      <g>
       <use style="stroke:#000000;stroke-width:0.8;" x="290.269091" xlink:href="#mc5a910dfb6" y="307.584"/>
      </g>
     </g>
     <g id="text_5">
      <!-- 2.0 -->
      <defs>
       <path d="M 19.1875 8.296875 
L 53.609375 8.296875 
L 53.609375 0 
L 7.328125 0 
L 7.328125 8.296875 
Q 12.9375 14.109375 22.625 23.890625 
Q 32.328125 33.6875 34.8125 36.53125 
Q 39.546875 41.84375 41.421875 45.53125 
Q 43.3125 49.21875 43.3125 52.78125 
Q 43.3125 58.59375 39.234375 62.25 
Q 35.15625 65.921875 28.609375 65.921875 
Q 23.96875 65.921875 18.8125 64.3125 
Q 13.671875 62.703125 7.8125 59.421875 
L 7.8125 69.390625 
Q 13.765625 71.78125 18.9375 73 
Q 24.125 74.21875 28.421875 74.21875 
Q 39.75 74.21875 46.484375 68.546875 
Q 53.21875 62.890625 53.21875 53.421875 
Q 53.21875 48.921875 51.53125 44.890625 
Q 49.859375 40.875 45.40625 35.40625 
Q 44.1875 33.984375 37.640625 27.21875 
Q 31.109375 20.453125 19.1875 8.296875 
z
" id="DejaVuSans-50"/>
      </defs>
      <g transform="translate(282.317528 322.182437)scale(0.1 -0.1)">
       <use xlink:href="#DejaVuSans-50"/>
       <use x="63.623047" xlink:href="#DejaVuSans-46"/>
       <use x="95.410156" xlink:href="#DejaVuSans-48"/>
      </g>
     </g>
    </g>
    <g id="xtick_6">
     <g id="line2d_11">
      <path clip-path="url(#p14ddec71d6)" d="M 344.378182 307.584 
L 344.378182 41.472 
" style="fill:none;stroke:#b0b0b0;stroke-linecap:square;stroke-width:0.8;"/>
     </g>
     <g id="line2d_12">
      <g>
       <use style="stroke:#000000;stroke-width:0.8;" x="344.378182" xlink:href="#mc5a910dfb6" y="307.584"/>
      </g>
     </g>
     <g id="text_6">
      <!-- 2.5 -->
      <g transform="translate(336.426619 322.182437)scale(0.1 -0.1)">
       <use xlink:href="#DejaVuSans-50"/>
       <use x="63.623047" xlink:href="#DejaVuSans-46"/>
       <use x="95.410156" xlink:href="#DejaVuSans-53"/>
      </g>
     </g>
    </g>
    <g id="xtick_7">
     <g id="line2d_13">
      <path clip-path="url(#p14ddec71d6)" d="M 398.487273 307.584 
L 398.487273 41.472 
" style="fill:none;stroke:#b0b0b0;stroke-linecap:square;stroke-width:0.8;"/>
     </g>
     <g id="line2d_14">
      <g>
       <use style="stroke:#000000;stroke-width:0.8;" x="398.487273" xlink:href="#mc5a910dfb6" y="307.584"/>
      </g>
     </g>
     <g id="text_7">
      <!-- 3.0 -->
      <defs>
       <path d="M 40.578125 39.3125 
Q 47.65625 37.796875 51.625 33 
Q 55.609375 28.21875 55.609375 21.1875 
Q 55.609375 10.40625 48.1875 4.484375 
Q 40.765625 -1.421875 27.09375 -1.421875 
Q 22.515625 -1.421875 17.65625 -0.515625 
Q 12.796875 0.390625 7.625 2.203125 
L 7.625 11.71875 
Q 11.71875 9.328125 16.59375 8.109375 
Q 21.484375 6.890625 26.8125 6.890625 
Q 36.078125 6.890625 40.9375 10.546875 
Q 45.796875 14.203125 45.796875 21.1875 
Q 45.796875 27.640625 41.28125 31.265625 
Q 36.765625 34.90625 28.71875 34.90625 
L 20.21875 34.90625 
L 20.21875 43.015625 
L 29.109375 43.015625 
Q 36.375 43.015625 40.234375 45.921875 
Q 44.09375 48.828125 44.09375 54.296875 
Q 44.09375 59.90625 40.109375 62.90625 
Q 36.140625 65.921875 28.71875 65.921875 
Q 24.65625 65.921875 20.015625 65.03125 
Q 15.375 64.15625 9.8125 62.3125 
L 9.8125 71.09375 
Q 15.4375 72.65625 20.34375 73.4375 
Q 25.25 74.21875 29.59375 74.21875 
Q 40.828125 74.21875 47.359375 69.109375 
Q 53.90625 64.015625 53.90625 55.328125 
Q 53.90625 49.265625 50.4375 45.09375 
Q 46.96875 40.921875 40.578125 39.3125 
z
" id="DejaVuSans-51"/>
      </defs>
      <g transform="translate(390.53571 322.182437)scale(0.1 -0.1)">
       <use xlink:href="#DejaVuSans-51"/>
       <use x="63.623047" xlink:href="#DejaVuSans-46"/>
       <use x="95.410156" xlink:href="#DejaVuSans-48"/>
      </g>
     </g>
    </g>
    <g id="text_8">
     <!-- $\|\vec{r}\|$ -->
     <defs>
      <path d="M 21 76.421875 
L 21 -23.578125 
L 12.703125 -23.578125 
L 12.703125 76.421875 
z
" id="DejaVuSans-124"/>
      <path d="M -47.015625 63.53125 
L -47.015625 68.40625 
L -10.84375 68.40625 
L -17.28125 75.984375 
L -11.140625 75.984375 
L -2.59375 65.96875 
L -11.140625 55.953125 
L -17.28125 55.953125 
L -10.84375 63.53125 
z
" id="DejaVuSans-8407"/>
      <path d="M 44.578125 46.390625 
Q 43.21875 47.125 41.453125 47.515625 
Q 39.703125 47.90625 37.703125 47.90625 
Q 30.515625 47.90625 25.140625 42.453125 
Q 19.78125 37.015625 18.015625 27.875 
L 12.5 0 
L 3.515625 0 
L 14.203125 54.6875 
L 23.1875 54.6875 
L 21.484375 46.1875 
Q 25.046875 50.921875 30 53.453125 
Q 34.96875 56 40.578125 56 
Q 42.046875 56 43.453125 55.828125 
Q 44.875 55.671875 46.296875 55.28125 
z
" id="DejaVuSans-Oblique-114"/>
     </defs>
     <g transform="translate(230.71 337.162125)scale(0.1 -0.1)">
      <use transform="translate(0 0.46875)" xlink:href="#DejaVuSans-124"/>
      <use transform="translate(83.985352 13.015625)" xlink:href="#DejaVuSans-8407"/>
      <use transform="translate(33.691406 0.46875)" xlink:href="#DejaVuSans-Oblique-114"/>
      <use transform="translate(74.804688 0.46875)" xlink:href="#DejaVuSans-124"/>
     </g>
    </g>
   </g>
   <g id="matplotlib.axis_2">
    <g id="ytick_1">
     <g id="line2d_15">
      <path clip-path="url(#p14ddec71d6)" d="M 57.6 295.488 
L 414.72 295.488 
" style="fill:none;stroke:#b0b0b0;stroke-linecap:square;stroke-width:0.8;"/>
     </g>
     <g id="line2d_16">
      <defs>
       <path d="M 0 0 
L -3.5 0 
" id="mfd4c0ed5c3" style="stroke:#000000;stroke-width:0.8;"/>
      </defs>
      <g>
       <use style="stroke:#000000;stroke-width:0.8;" x="57.6" xlink:href="#mfd4c0ed5c3" y="295.488"/>
      </g>
     </g>
     <g id="text_9">
      <!-- −1.0 -->
      <defs>
       <path d="M 10.59375 35.5 
L 73.1875 35.5 
L 73.1875 27.203125 
L 10.59375 27.203125 
z
" id="DejaVuSans-8722"/>
      </defs>
      <g transform="translate(26.317187 299.287219)scale(0.1 -0.1)">
       <use xlink:href="#DejaVuSans-8722"/>
       <use x="83.789062" xlink:href="#DejaVuSans-49"/>
       <use x="147.412109" xlink:href="#DejaVuSans-46"/>
       <use x="179.199219" xlink:href="#DejaVuSans-48"/>
      </g>
     </g>
    </g>
    <g id="ytick_2">
     <g id="line2d_17">
      <path clip-path="url(#p14ddec71d6)" d="M 57.6 263.232 
L 414.72 263.232 
" style="fill:none;stroke:#b0b0b0;stroke-linecap:square;stroke-width:0.8;"/>
     </g>
     <g id="line2d_18">
      <g>
       <use style="stroke:#000000;stroke-width:0.8;" x="57.6" xlink:href="#mfd4c0ed5c3" y="263.232"/>
      </g>
     </g>
     <g id="text_10">
      <!-- −0.8 -->
      <defs>
       <path d="M 31.78125 34.625 
Q 24.75 34.625 20.71875 30.859375 
Q 16.703125 27.09375 16.703125 20.515625 
Q 16.703125 13.921875 20.71875 10.15625 
Q 24.75 6.390625 31.78125 6.390625 
Q 38.8125 6.390625 42.859375 10.171875 
Q 46.921875 13.96875 46.921875 20.515625 
Q 46.921875 27.09375 42.890625 30.859375 
Q 38.875 34.625 31.78125 34.625 
z
M 21.921875 38.8125 
Q 15.578125 40.375 12.03125 44.71875 
Q 8.5 49.078125 8.5 55.328125 
Q 8.5 64.0625 14.71875 69.140625 
Q 20.953125 74.21875 31.78125 74.21875 
Q 42.671875 74.21875 48.875 69.140625 
Q 55.078125 64.0625 55.078125 55.328125 
Q 55.078125 49.078125 51.53125 44.71875 
Q 48 40.375 41.703125 38.8125 
Q 48.828125 37.15625 52.796875 32.3125 
Q 56.78125 27.484375 56.78125 20.515625 
Q 56.78125 9.90625 50.3125 4.234375 
Q 43.84375 -1.421875 31.78125 -1.421875 
Q 19.734375 -1.421875 13.25 4.234375 
Q 6.78125 9.90625 6.78125 20.515625 
Q 6.78125 27.484375 10.78125 32.3125 
Q 14.796875 37.15625 21.921875 38.8125 
z
M 18.3125 54.390625 
Q 18.3125 48.734375 21.84375 45.5625 
Q 25.390625 42.390625 31.78125 42.390625 
Q 38.140625 42.390625 41.71875 45.5625 
Q 45.3125 48.734375 45.3125 54.390625 
Q 45.3125 60.0625 41.71875 63.234375 
Q 38.140625 66.40625 31.78125 66.40625 
Q 25.390625 66.40625 21.84375 63.234375 
Q 18.3125 60.0625 18.3125 54.390625 
z
" id="DejaVuSans-56"/>
      </defs>
      <g transform="translate(26.317187 267.031219)scale(0.1 -0.1)">
       <use xlink:href="#DejaVuSans-8722"/>
       <use x="83.789062" xlink:href="#DejaVuSans-48"/>
       <use x="147.412109" xlink:href="#DejaVuSans-46"/>
       <use x="179.199219" xlink:href="#DejaVuSans-56"/>
      </g>
     </g>
    </g>
    <g id="ytick_3">
     <g id="line2d_19">
      <path clip-path="url(#p14ddec71d6)" d="M 57.6 230.976 
L 414.72 230.976 
" style="fill:none;stroke:#b0b0b0;stroke-linecap:square;stroke-width:0.8;"/>
     </g>
     <g id="line2d_20">
      <g>
       <use style="stroke:#000000;stroke-width:0.8;" x="57.6" xlink:href="#mfd4c0ed5c3" y="230.976"/>
      </g>
     </g>
     <g id="text_11">
      <!-- −0.6 -->
      <defs>
       <path d="M 33.015625 40.375 
Q 26.375 40.375 22.484375 35.828125 
Q 18.609375 31.296875 18.609375 23.390625 
Q 18.609375 15.53125 22.484375 10.953125 
Q 26.375 6.390625 33.015625 6.390625 
Q 39.65625 6.390625 43.53125 10.953125 
Q 47.40625 15.53125 47.40625 23.390625 
Q 47.40625 31.296875 43.53125 35.828125 
Q 39.65625 40.375 33.015625 40.375 
z
M 52.59375 71.296875 
L 52.59375 62.3125 
Q 48.875 64.0625 45.09375 64.984375 
Q 41.3125 65.921875 37.59375 65.921875 
Q 27.828125 65.921875 22.671875 59.328125 
Q 17.53125 52.734375 16.796875 39.40625 
Q 19.671875 43.65625 24.015625 45.921875 
Q 28.375 48.1875 33.59375 48.1875 
Q 44.578125 48.1875 50.953125 41.515625 
Q 57.328125 34.859375 57.328125 23.390625 
Q 57.328125 12.15625 50.6875 5.359375 
Q 44.046875 -1.421875 33.015625 -1.421875 
Q 20.359375 -1.421875 13.671875 8.265625 
Q 6.984375 17.96875 6.984375 36.375 
Q 6.984375 53.65625 15.1875 63.9375 
Q 23.390625 74.21875 37.203125 74.21875 
Q 40.921875 74.21875 44.703125 73.484375 
Q 48.484375 72.75 52.59375 71.296875 
z
" id="DejaVuSans-54"/>
      </defs>
      <g transform="translate(26.317187 234.775219)scale(0.1 -0.1)">
       <use xlink:href="#DejaVuSans-8722"/>
       <use x="83.789062" xlink:href="#DejaVuSans-48"/>
       <use x="147.412109" xlink:href="#DejaVuSans-46"/>
       <use x="179.199219" xlink:href="#DejaVuSans-54"/>
      </g>
     </g>
    </g>
    <g id="ytick_4">
     <g id="line2d_21">
      <path clip-path="url(#p14ddec71d6)" d="M 57.6 198.72 
L 414.72 198.72 
" style="fill:none;stroke:#b0b0b0;stroke-linecap:square;stroke-width:0.8;"/>
     </g>
     <g id="line2d_22">
      <g>
       <use style="stroke:#000000;stroke-width:0.8;" x="57.6" xlink:href="#mfd4c0ed5c3" y="198.72"/>
      </g>
     </g>
     <g id="text_12">
      <!-- −0.4 -->
      <defs>
       <path d="M 37.796875 64.3125 
L 12.890625 25.390625 
L 37.796875 25.390625 
z
M 35.203125 72.90625 
L 47.609375 72.90625 
L 47.609375 25.390625 
L 58.015625 25.390625 
L 58.015625 17.1875 
L 47.609375 17.1875 
L 47.609375 0 
L 37.796875 0 
L 37.796875 17.1875 
L 4.890625 17.1875 
L 4.890625 26.703125 
z
" id="DejaVuSans-52"/>
      </defs>
      <g transform="translate(26.317187 202.519219)scale(0.1 -0.1)">
       <use xlink:href="#DejaVuSans-8722"/>
       <use x="83.789062" xlink:href="#DejaVuSans-48"/>
       <use x="147.412109" xlink:href="#DejaVuSans-46"/>
       <use x="179.199219" xlink:href="#DejaVuSans-52"/>
      </g>
     </g>
    </g>
    <g id="ytick_5">
     <g id="line2d_23">
      <path clip-path="url(#p14ddec71d6)" d="M 57.6 166.464 
L 414.72 166.464 
" style="fill:none;stroke:#b0b0b0;stroke-linecap:square;stroke-width:0.8;"/>
     </g>
     <g id="line2d_24">
      <g>
       <use style="stroke:#000000;stroke-width:0.8;" x="57.6" xlink:href="#mfd4c0ed5c3" y="166.464"/>
      </g>
     </g>
     <g id="text_13">
      <!-- −0.2 -->
      <g transform="translate(26.317187 170.263219)scale(0.1 -0.1)">
       <use xlink:href="#DejaVuSans-8722"/>
       <use x="83.789062" xlink:href="#DejaVuSans-48"/>
       <use x="147.412109" xlink:href="#DejaVuSans-46"/>
       <use x="179.199219" xlink:href="#DejaVuSans-50"/>
      </g>
     </g>
    </g>
    <g id="ytick_6">
     <g id="line2d_25">
      <path clip-path="url(#p14ddec71d6)" d="M 57.6 134.208 
L 414.72 134.208 
" style="fill:none;stroke:#b0b0b0;stroke-linecap:square;stroke-width:0.8;"/>
     </g>
     <g id="line2d_26">
      <g>
       <use style="stroke:#000000;stroke-width:0.8;" x="57.6" xlink:href="#mfd4c0ed5c3" y="134.208"/>
      </g>
     </g>
     <g id="text_14">
      <!-- 0.0 -->
      <g transform="translate(34.696875 138.007219)scale(0.1 -0.1)">
       <use xlink:href="#DejaVuSans-48"/>
       <use x="63.623047" xlink:href="#DejaVuSans-46"/>
       <use x="95.410156" xlink:href="#DejaVuSans-48"/>
      </g>
     </g>
    </g>
    <g id="ytick_7">
     <g id="line2d_27">
      <path clip-path="url(#p14ddec71d6)" d="M 57.6 101.952 
L 414.72 101.952 
" style="fill:none;stroke:#b0b0b0;stroke-linecap:square;stroke-width:0.8;"/>
     </g>
     <g id="line2d_28">
      <g>
       <use style="stroke:#000000;stroke-width:0.8;" x="57.6" xlink:href="#mfd4c0ed5c3" y="101.952"/>
      </g>
     </g>
     <g id="text_15">
      <!-- 0.2 -->
      <g transform="translate(34.696875 105.751219)scale(0.1 -0.1)">
       <use xlink:href="#DejaVuSans-48"/>
       <use x="63.623047" xlink:href="#DejaVuSans-46"/>
       <use x="95.410156" xlink:href="#DejaVuSans-50"/>
      </g>
     </g>
    </g>
    <g id="ytick_8">
     <g id="line2d_29">
      <path clip-path="url(#p14ddec71d6)" d="M 57.6 69.696 
L 414.72 69.696 
" style="fill:none;stroke:#b0b0b0;stroke-linecap:square;stroke-width:0.8;"/>
     </g>
     <g id="line2d_30">
      <g>
       <use style="stroke:#000000;stroke-width:0.8;" x="57.6" xlink:href="#mfd4c0ed5c3" y="69.696"/>
      </g>
     </g>
     <g id="text_16">
      <!-- 0.4 -->
      <g transform="translate(34.696875 73.495219)scale(0.1 -0.1)">
       <use xlink:href="#DejaVuSans-48"/>
       <use x="63.623047" xlink:href="#DejaVuSans-46"/>
       <use x="95.410156" xlink:href="#DejaVuSans-52"/>
      </g>
     </g>
    </g>
    <g id="text_17">
     <!-- $\operatorname{loss}''\/(\|\vec{r}\|^2)$ -->
     <defs>
      <path d="M 9.421875 75.984375 
L 18.40625 75.984375 
L 18.40625 0 
L 9.421875 0 
z
" id="DejaVuSans-108"/>
      <path d="M 30.609375 48.390625 
Q 23.390625 48.390625 19.1875 42.75 
Q 14.984375 37.109375 14.984375 27.296875 
Q 14.984375 17.484375 19.15625 11.84375 
Q 23.34375 6.203125 30.609375 6.203125 
Q 37.796875 6.203125 41.984375 11.859375 
Q 46.1875 17.53125 46.1875 27.296875 
Q 46.1875 37.015625 41.984375 42.703125 
Q 37.796875 48.390625 30.609375 48.390625 
z
M 30.609375 56 
Q 42.328125 56 49.015625 48.375 
Q 55.71875 40.765625 55.71875 27.296875 
Q 55.71875 13.875 49.015625 6.21875 
Q 42.328125 -1.421875 30.609375 -1.421875 
Q 18.84375 -1.421875 12.171875 6.21875 
Q 5.515625 13.875 5.515625 27.296875 
Q 5.515625 40.765625 12.171875 48.375 
Q 18.84375 56 30.609375 56 
z
" id="DejaVuSans-111"/>
      <path d="M 44.28125 53.078125 
L 44.28125 44.578125 
Q 40.484375 46.53125 36.375 47.5 
Q 32.28125 48.484375 27.875 48.484375 
Q 21.1875 48.484375 17.84375 46.4375 
Q 14.5 44.390625 14.5 40.28125 
Q 14.5 37.15625 16.890625 35.375 
Q 19.28125 33.59375 26.515625 31.984375 
L 29.59375 31.296875 
Q 39.15625 29.25 43.1875 25.515625 
Q 47.21875 21.78125 47.21875 15.09375 
Q 47.21875 7.46875 41.1875 3.015625 
Q 35.15625 -1.421875 24.609375 -1.421875 
Q 20.21875 -1.421875 15.453125 -0.5625 
Q 10.6875 0.296875 5.421875 2 
L 5.421875 11.28125 
Q 10.40625 8.6875 15.234375 7.390625 
Q 20.0625 6.109375 24.8125 6.109375 
Q 31.15625 6.109375 34.5625 8.28125 
Q 37.984375 10.453125 37.984375 14.40625 
Q 37.984375 18.0625 35.515625 20.015625 
Q 33.0625 21.96875 24.703125 23.78125 
L 21.578125 24.515625 
Q 13.234375 26.265625 9.515625 29.90625 
Q 5.8125 33.546875 5.8125 39.890625 
Q 5.8125 47.609375 11.28125 51.796875 
Q 16.75 56 26.8125 56 
Q 31.78125 56 36.171875 55.265625 
Q 40.578125 54.546875 44.28125 53.078125 
z
" id="DejaVuSans-115"/>
      <path d="M 3.515625 5.421875 
Q 2.875 5.609375 2.875 6.390625 
L 15.09375 51.8125 
Q 15.671875 53.65625 17.078125 54.78125 
Q 18.5 55.90625 20.3125 55.90625 
Q 22.65625 55.90625 24.4375 54.359375 
Q 26.21875 52.828125 26.21875 50.484375 
Q 26.21875 49.46875 25.6875 48.1875 
L 7.625 4.984375 
Q 7.28125 4.296875 6.6875 4.296875 
Q 6.15625 4.296875 5 4.78125 
Q 3.859375 5.28125 3.515625 5.421875 
z
" id="Cmsy10-48"/>
      <path d="M 31 75.875 
Q 24.46875 64.65625 21.28125 53.65625 
Q 18.109375 42.671875 18.109375 31.390625 
Q 18.109375 20.125 21.3125 9.0625 
Q 24.515625 -2 31 -13.1875 
L 23.1875 -13.1875 
Q 15.875 -1.703125 12.234375 9.375 
Q 8.59375 20.453125 8.59375 31.390625 
Q 8.59375 42.28125 12.203125 53.3125 
Q 15.828125 64.359375 23.1875 75.875 
z
" id="DejaVuSans-40"/>
      <path d="M 8.015625 75.875 
L 15.828125 75.875 
Q 23.140625 64.359375 26.78125 53.3125 
Q 30.421875 42.28125 30.421875 31.390625 
Q 30.421875 20.453125 26.78125 9.375 
Q 23.140625 -1.703125 15.828125 -13.1875 
L 8.015625 -13.1875 
Q 14.5 -2 17.703125 9.0625 
Q 20.90625 20.125 20.90625 31.390625 
Q 20.90625 42.671875 17.703125 53.65625 
Q 14.5 64.65625 8.015625 75.875 
z
" id="DejaVuSans-41"/>
     </defs>
     <g transform="translate(19.917187 198.878)rotate(-90)scale(0.1 -0.1)">
      <use transform="translate(0 0.765625)" xlink:href="#DejaVuSans-108"/>
      <use transform="translate(27.783203 0.765625)" xlink:href="#DejaVuSans-111"/>
      <use transform="translate(88.964844 0.765625)" xlink:href="#DejaVuSans-115"/>
      <use transform="translate(141.064453 0.765625)" xlink:href="#DejaVuSans-115"/>
      <use transform="translate(194.121094 39.046875)scale(0.7)" xlink:href="#Cmsy10-48"/>
      <use transform="translate(213.364258 39.046875)scale(0.7)" xlink:href="#Cmsy10-48"/>
      <use transform="translate(251.577473 0.765625)" xlink:href="#DejaVuSans-40"/>
      <use transform="translate(290.591145 0.765625)" xlink:href="#DejaVuSans-124"/>
      <use transform="translate(374.576497 13.3125)" xlink:href="#DejaVuSans-8407"/>
      <use transform="translate(324.282551 0.765625)" xlink:href="#DejaVuSans-Oblique-114"/>
      <use transform="translate(365.395833 0.765625)" xlink:href="#DejaVuSans-124"/>
      <use transform="translate(400.04427 39.046875)scale(0.7)" xlink:href="#DejaVuSans-50"/>
      <use transform="translate(447.314778 0.765625)" xlink:href="#DejaVuSans-41"/>
     </g>
    </g>
   </g>
   <g id="line2d_31">
    <path clip-path="url(#p14ddec71d6)" d="M 73.832727 134.208 
L 77.112066 134.208 
L 80.391405 134.208 
L 83.670744 134.208 
L 86.950083 134.208 
L 90.229421 134.208 
L 93.50876 134.208 
L 96.788099 134.208 
L 100.067438 134.208 
L 103.346777 134.208 
L 106.626116 134.208 
L 109.905455 134.208 
L 113.184793 134.208 
L 116.464132 134.208 
L 119.743471 134.208 
L 123.02281 134.208 
L 126.302149 134.208 
L 129.581488 134.208 
L 132.860826 134.208 
L 136.140165 134.208 
L 139.419504 134.208 
L 142.698843 134.208 
L 145.978182 134.208 
L 149.257521 134.208 
L 152.53686 134.208 
L 155.816198 134.208 
L 159.095537 134.208 
L 162.374876 134.208 
L 165.654215 134.208 
L 168.933554 134.208 
L 172.212893 134.208 
L 175.492231 134.208 
L 178.77157 134.208 
L 182.050909 134.208 
L 185.330248 134.208 
L 188.609587 134.208 
L 191.888926 134.208 
L 195.168264 134.208 
L 198.447603 134.208 
L 201.726942 134.208 
L 205.006281 134.208 
L 208.28562 134.208 
L 211.564959 134.208 
L 214.844298 134.208 
L 218.123636 134.208 
L 221.402975 134.208 
L 224.682314 134.208 
L 227.961653 134.208 
L 231.240992 134.208 
L 234.520331 134.208 
L 237.799669 134.208 
L 241.079008 134.208 
L 244.358347 134.208 
L 247.637686 134.208 
L 250.917025 134.208 
L 254.196364 134.208 
L 257.475702 134.208 
L 260.755041 134.208 
L 264.03438 134.208 
L 267.313719 134.208 
L 270.593058 134.208 
L 273.872397 134.208 
L 277.151736 134.208 
L 280.431074 134.208 
L 283.710413 134.208 
L 286.989752 134.208 
L 290.269091 134.208 
L 293.54843 134.208 
L 296.827769 134.208 
L 300.107107 134.208 
L 303.386446 134.208 
L 306.665785 134.208 
L 309.945124 134.208 
L 313.224463 134.208 
L 316.503802 134.208 
L 319.78314 134.208 
L 323.062479 134.208 
L 326.341818 134.208 
L 329.621157 134.208 
L 332.900496 134.208 
L 336.179835 134.208 
L 339.459174 134.208 
L 342.738512 134.208 
L 346.017851 134.208 
L 349.29719 134.208 
L 352.576529 134.208 
L 355.855868 134.208 
L 359.135207 134.208 
L 362.414545 134.208 
L 365.693884 134.208 
L 368.973223 134.208 
L 372.252562 134.208 
L 375.531901 134.208 
L 378.81124 134.208 
L 382.090579 134.208 
L 385.369917 134.208 
L 388.649256 134.208 
L 391.928595 134.208 
L 395.207934 134.208 
L 398.487273 134.208 
" style="fill:none;stroke:#ff0000;stroke-linecap:square;stroke-width:1.5;"/>
   </g>
   <g id="line2d_32">
    <path clip-path="url(#p14ddec71d6)" d="M 73.832727 100.341269 
L 77.112066 100.293878 
L 80.391405 100.151453 
L 83.670744 99.913237 
L 86.950083 99.577976 
L 90.229421 99.143935 
L 93.50876 98.608921 
L 96.788099 97.970311 
L 100.067438 97.225096 
L 103.346777 96.369944 
L 106.626116 95.401278 
L 109.905455 94.315384 
L 113.184793 93.108546 
L 116.464132 91.777227 
L 119.743471 90.318296 
L 123.02281 88.729312 
L 126.302149 87.008878 
L 129.581488 85.157072 
L 132.860826 83.175964 
L 136.140165 81.070232 
L 139.419504 78.847861 
L 142.698843 76.520944 
L 145.978182 74.106543 
L 149.257521 71.627588 
L 152.53686 69.113764 
L 155.816198 66.602291 
L 159.095537 64.138504 
L 162.374876 61.776091 
L 165.654215 59.576833 
L 168.933554 57.609678 
L 172.212893 55.948994 
L 175.492231 54.671894 
L 178.77157 53.85461 
L 182.050909 53.568 
L 185.330248 53.872473 
L 188.609587 54.812725 
L 191.888926 56.412865 
L 195.168264 58.672582 
L 198.447603 61.564955 
L 201.726942 65.036389 
L 205.006281 69.008878 
L 208.28562 73.384479 
L 211.564959 78.051534 
L 214.844298 82.891908 
L 218.123636 87.788407 
L 221.402975 92.631542 
L 224.682314 97.324968 
L 227.961653 101.78922 
L 231.240992 105.963604 
L 234.520331 109.806405 
L 237.799669 113.293699 
L 241.079008 116.417193 
L 244.358347 119.181502 
L 247.637686 121.601227 
L 250.917025 123.698132 
L 254.196364 125.498596 
L 257.475702 127.031466 
L 260.755041 128.326343 
L 264.03438 129.412285 
L 267.313719 130.316896 
L 270.593058 131.065733 
L 273.872397 131.681975 
L 277.151736 132.186284 
L 280.431074 132.596819 
L 283.710413 132.929336 
L 286.989752 133.197363 
L 290.269091 133.412403 
L 293.54843 133.584154 
L 296.827769 133.720728 
L 300.107107 133.828867 
L 303.386446 133.91413 
L 306.665785 133.981079 
L 309.945124 134.033434 
L 313.224463 134.074212 
L 316.503802 134.105846 
L 319.78314 134.13029 
L 323.062479 134.149103 
L 326.341818 134.163527 
L 329.621157 134.174542 
L 332.900496 134.182922 
L 336.179835 134.189272 
L 339.459174 134.194065 
L 342.738512 134.19767 
L 346.017851 134.20037 
L 349.29719 134.202386 
L 352.576529 134.203884 
L 355.855868 134.204993 
L 359.135207 134.205812 
L 362.414545 134.206413 
L 365.693884 134.206853 
L 368.973223 134.207175 
L 372.252562 134.207408 
L 375.531901 134.207577 
L 378.81124 134.207699 
L 382.090579 134.207786 
L 385.369917 134.207849 
L 388.649256 134.207894 
L 391.928595 134.207925 
L 395.207934 134.207948 
L 398.487273 134.207964 
" style="fill:none;stroke:#bf00bf;stroke-linecap:square;stroke-width:1.5;"/>
   </g>
   <g id="line2d_33">
    <path clip-path="url(#p14ddec71d6)" d="M 73.832727 134.208 
L 77.112066 134.208 
L 80.391405 134.208 
L 83.670744 134.208 
L 86.950083 134.208 
L 90.229421 134.208 
L 93.50876 134.208 
L 96.788099 134.208 
L 100.067438 134.208 
L 103.346777 134.208 
L 106.626116 134.208 
L 109.905455 134.208 
L 113.184793 134.208 
L 116.464132 134.208 
L 119.743471 134.208 
L 123.02281 134.208 
L 126.302149 134.208 
L 129.581488 134.208 
L 132.860826 134.208 
L 136.140165 134.208 
L 139.419504 134.208 
L 142.698843 134.208 
L 145.978182 134.208 
L 149.257521 134.208 
L 152.53686 134.208 
L 155.816198 134.208 
L 159.095537 134.208 
L 162.374876 134.208 
L 165.654215 134.208 
L 168.933554 134.208 
L 172.212893 134.208 
L 175.492231 134.208 
L 178.77157 134.208 
L 182.050909 134.208 
L 185.330248 207.939928 
L 188.609587 201.798896 
L 191.888926 196.321333 
L 195.168264 191.420005 
L 198.447603 187.021086 
L 201.726942 183.061819 
L 205.006281 179.48862 
L 208.28562 176.255557 
L 211.564959 173.323102 
L 214.844298 170.657114 
L 218.123636 168.228 
L 221.402975 166.010027 
L 224.682314 163.980743 
L 227.961653 162.120502 
L 231.240992 160.412062 
L 234.520331 158.840251 
L 237.799669 157.391677 
L 241.079008 156.054497 
L 244.358347 154.818205 
L 247.637686 153.673463 
L 250.917025 152.611951 
L 254.196364 151.62624 
L 257.475702 150.709684 
L 260.755041 149.856322 
L 264.03438 149.060801 
L 267.313719 148.318302 
L 270.593058 147.62448 
L 273.872397 146.975411 
L 277.151736 146.367543 
L 280.431074 145.79766 
L 283.710413 145.262839 
L 286.989752 144.760425 
L 290.269091 144.288 
L 293.54843 143.84336 
L 296.827769 143.424491 
L 300.107107 143.029553 
L 303.386446 142.656862 
L 306.665785 142.304872 
L 309.945124 141.972167 
L 313.224463 141.657442 
L 316.503802 141.359501 
L 319.78314 141.077238 
L 323.062479 140.809636 
L 326.341818 140.555755 
L 329.621157 140.314727 
L 332.900496 140.085749 
L 336.179835 139.868077 
L 339.459174 139.661022 
L 342.738512 139.463945 
L 346.017851 139.27625 
L 349.29719 139.097388 
L 352.576529 138.926843 
L 355.855868 138.764139 
L 359.135207 138.60883 
L 362.414545 138.4605 
L 365.693884 138.318762 
L 368.973223 138.183253 
L 372.252562 138.053636 
L 375.531901 137.929593 
L 378.81124 137.810828 
L 382.090579 137.697063 
L 385.369917 137.588038 
L 388.649256 137.483508 
L 391.928595 137.383244 
L 395.207934 137.287031 
L 398.487273 137.194667 
" style="fill:none;stroke:#0000ff;stroke-linecap:square;stroke-width:1.5;"/>
   </g>
   <g id="line2d_34">
    <path clip-path="url(#p14ddec71d6)" d="M 73.832727 214.848 
L 77.112066 214.737053 
L 80.391405 214.405734 
L 83.670744 213.858559 
L 86.950083 213.102898 
L 90.229421 212.148745 
L 93.50876 211.008413 
L 96.788099 209.696178 
L 100.067438 208.22788 
L 103.346777 206.620501 
L 106.626116 204.891746 
L 109.905455 203.059639 
L 113.184793 201.142146 
L 116.464132 199.156837 
L 119.743471 197.120602 
L 123.02281 195.049413 
L 126.302149 192.958141 
L 129.581488 190.860426 
L 132.860826 188.768595 
L 136.140165 186.69362 
L 139.419504 184.645121 
L 142.698843 182.63139 
L 145.978182 180.659448 
L 149.257521 178.735116 
L 152.53686 176.863102 
L 155.816198 175.047095 
L 159.095537 173.289864 
L 162.374876 171.593356 
L 165.654215 169.958792 
L 168.933554 168.386766 
L 172.212893 166.877325 
L 175.492231 165.43006 
L 178.77157 164.044171 
L 182.050909 162.718545 
L 185.330248 161.451809 
L 188.609587 160.242384 
L 191.888926 159.088538 
L 195.168264 157.98842 
L 198.447603 156.9401 
L 201.726942 155.941595 
L 205.006281 154.990899 
L 208.28562 154.086 
L 211.564959 153.224898 
L 214.844298 152.405622 
L 218.123636 151.62624 
L 221.402975 150.884866 
L 224.682314 150.179669 
L 227.961653 149.508878 
L 231.240992 148.870788 
L 234.520331 148.263756 
L 237.799669 147.686208 
L 241.079008 147.136638 
L 244.358347 146.613609 
L 247.637686 146.115747 
L 250.917025 145.641746 
L 254.196364 145.190366 
L 257.475702 144.760425 
L 260.755041 144.350804 
L 264.03438 143.96044 
L 267.313719 143.588328 
L 270.593058 143.233515 
L 273.872397 142.895098 
L 277.151736 142.572224 
L 280.431074 142.264086 
L 283.710413 141.969921 
L 286.989752 141.689006 
L 290.269091 141.420661 
L 293.54843 141.16424 
L 296.827769 140.919135 
L 300.107107 140.684771 
L 303.386446 140.460603 
L 306.665785 140.246118 
L 309.945124 140.040831 
L 313.224463 139.844283 
L 316.503802 139.656039 
L 319.78314 139.475692 
L 323.062479 139.302851 
L 326.341818 139.137153 
L 329.621157 138.978249 
L 332.900496 138.825813 
L 336.179835 138.679535 
L 339.459174 138.53912 
L 342.738512 138.404291 
L 346.017851 138.274786 
L 349.29719 138.150355 
L 352.576529 138.030762 
L 355.855868 137.915785 
L 359.135207 137.805211 
L 362.414545 137.69884 
L 365.693884 137.596482 
L 368.973223 137.497955 
L 372.252562 137.403089 
L 375.531901 137.311721 
L 378.81124 137.223697 
L 382.090579 137.13887 
L 385.369917 137.057101 
L 388.649256 136.978259 
L 391.928595 136.902216 
L 395.207934 136.828855 
L 398.487273 136.758061 
" style="fill:none;stroke:#000000;stroke-linecap:square;stroke-width:1.5;"/>
   </g>
   <g id="line2d_35">
    <path clip-path="url(#p14ddec71d6)" d="M 73.832727 295.488 
L 77.112066 295.192209 
L 80.391405 294.309703 
L 83.670744 292.854901 
L 86.950083 290.851262 
L 90.229421 288.330446 
L 93.50876 285.331231 
L 96.788099 281.898224 
L 100.067438 278.080457 
L 103.346777 273.929922 
L 106.626116 269.50014 
L 109.905455 264.8448 
L 113.184793 260.01654 
L 116.464132 255.065886 
L 119.743471 250.04039 
L 123.02281 244.983965 
L 126.302149 239.936411 
L 129.581488 234.933131 
L 132.860826 230.005009 
L 136.140165 225.178435 
L 139.419504 220.475434 
L 142.698843 215.913899 
L 145.978182 211.507882 
L 149.257521 207.267928 
L 152.53686 203.20144 
L 155.816198 199.313044 
L 159.095537 195.604958 
L 162.374876 192.077338 
L 165.654215 188.728612 
L 168.933554 185.555778 
L 172.212893 182.554686 
L 175.492231 179.720276 
L 178.77157 177.046798 
L 182.050909 174.528 
L 185.330248 172.157284 
L 188.609587 169.927845 
L 191.888926 167.832784 
L 195.168264 165.865201 
L 198.447603 164.018269 
L 201.726942 162.285295 
L 205.006281 160.659766 
L 208.28562 159.135386 
L 211.564959 157.706099 
L 214.844298 156.366109 
L 218.123636 155.109888 
L 221.402975 153.932185 
L 224.682314 152.828023 
L 227.961653 151.7927 
L 231.240992 150.821784 
L 234.520331 149.911101 
L 237.799669 149.056732 
L 241.079008 148.254999 
L 244.358347 147.502457 
L 247.637686 146.79588 
L 250.917025 146.132254 
L 254.196364 145.508761 
L 257.475702 144.92277 
L 260.755041 144.371825 
L 264.03438 143.853636 
L 267.313719 143.366068 
L 270.593058 142.90713 
L 273.872397 142.474965 
L 277.151736 142.067846 
L 280.431074 141.684161 
L 283.710413 141.322408 
L 286.989752 140.981189 
L 290.269091 140.6592 
L 293.54843 140.355227 
L 296.827769 140.068138 
L 300.107107 139.796877 
L 303.386446 139.540461 
L 306.665785 139.297971 
L 309.945124 139.068553 
L 313.224463 138.851408 
L 316.503802 138.645791 
L 319.78314 138.451006 
L 323.062479 138.266403 
L 326.341818 138.091377 
L 329.621157 137.92536 
L 332.900496 137.767822 
L 336.179835 137.618269 
L 339.459174 137.476236 
L 342.738512 137.34129 
L 346.017851 137.213026 
L 349.29719 137.091063 
L 352.576529 136.975045 
L 355.855868 136.864639 
L 359.135207 136.759533 
L 362.414545 136.659432 
L 365.693884 136.564062 
L 368.973223 136.473165 
L 372.252562 136.386498 
L 375.531901 136.303833 
L 378.81124 136.224957 
L 382.090579 136.149669 
L 385.369917 136.077779 
L 388.649256 136.00911 
L 391.928595 135.943494 
L 395.207934 135.880774 
L 398.487273 135.8208 
" style="fill:none;stroke:#00bfbf;stroke-linecap:square;stroke-width:1.5;"/>
   </g>
   <g id="line2d_36">
    <path clip-path="url(#p14ddec71d6)" d="M 73.832727 134.208 
L 77.112066 134.504198 
L 80.391405 135.392761 
L 83.670744 136.873421 
L 86.950083 138.945128 
L 90.229421 141.60516 
L 93.50876 144.847873 
L 96.788099 148.663128 
L 100.067438 153.034422 
L 103.346777 157.936785 
L 106.626116 163.334558 
L 109.905455 169.179184 
L 113.184793 175.407218 
L 116.464132 181.938797 
L 119.743471 188.676858 
L 123.02281 195.507385 
L 126.302149 202.300966 
L 129.581488 208.915855 
L 132.860826 215.202584 
L 136.140165 221.010026 
L 139.419504 226.192574 
L 142.698843 230.617888 
L 145.978182 234.174517 
L 149.257521 236.778602 
L 152.53686 238.378916 
L 155.816198 238.95965 
L 159.095537 238.540634 
L 162.374876 237.174981 
L 165.654215 234.94449 
L 168.933554 231.953379 
L 172.212893 228.321075 
L 175.492231 224.174818 
L 178.77157 219.64275 
L 182.050909 214.848 
L 185.330248 209.904066 
L 188.609587 204.911624 
L 191.888926 199.956691 
L 195.168264 195.109988 
L 198.447603 190.427259 
L 201.726942 185.950287 
L 205.006281 181.70836 
L 208.28562 177.719982 
L 211.564959 173.994644 
L 214.844298 170.534556 
L 218.123636 167.336229 
L 221.402975 164.391886 
L 224.682314 161.690666 
L 227.961653 159.219633 
L 231.240992 156.964579 
L 234.520331 154.910675 
L 237.799669 153.042957 
L 241.079008 151.346692 
L 244.358347 149.807645 
L 247.637686 148.412254 
L 250.917025 147.147748 
L 254.196364 146.002204 
L 257.475702 144.964578 
L 260.755041 144.024699 
L 264.03438 143.173245 
L 267.313719 142.40171 
L 270.593058 141.702354 
L 273.872397 141.068157 
L 277.151736 140.492763 
L 280.431074 139.970431 
L 283.710413 139.495979 
L 286.989752 139.064737 
L 290.269091 138.672498 
L 293.54843 138.315479 
L 296.827769 137.990273 
L 300.107107 137.693819 
L 303.386446 137.423361 
L 306.665785 137.176424 
L 309.945124 136.950778 
L 313.224463 136.744421 
L 316.503802 136.555548 
L 319.78314 136.382534 
L 323.062479 136.223919 
L 326.341818 136.078383 
L 329.621157 135.944738 
L 332.900496 135.821913 
L 336.179835 135.708939 
L 339.459174 135.604942 
L 342.738512 135.509132 
L 346.017851 135.420795 
L 349.29719 135.339283 
L 352.576529 135.264011 
L 355.855868 135.194447 
L 359.135207 135.130109 
L 362.414545 135.070559 
L 365.693884 135.015402 
L 368.973223 134.964274 
L 372.252562 134.916848 
L 375.531901 134.872823 
L 378.81124 134.831928 
L 382.090579 134.793913 
L 385.369917 134.75855 
L 388.649256 134.725634 
L 391.928595 134.694974 
L 395.207934 134.666396 
L 398.487273 134.639743 
" style="fill:none;stroke:#008000;stroke-linecap:square;stroke-width:1.5;"/>
   </g>
   <g id="line2d_37">
    <path clip-path="url(#p14ddec71d6)" d="M 73.832727 295.488 
L 77.112066 295.339901 
L 80.391405 294.895603 
L 83.670744 294.155107 
L 86.950083 293.118413 
L 90.229421 291.785521 
L 93.50876 290.15643 
L 96.788099 288.23114 
L 100.067438 286.009653 
L 103.346777 283.491967 
L 106.626116 280.678083 
L 109.905455 277.568 
L 113.184793 274.161719 
L 116.464132 270.45924 
L 119.743471 266.460562 
L 123.02281 262.165686 
L 126.302149 257.574612 
L 129.581488 252.687339 
L 132.860826 247.503868 
L 136.140165 242.024198 
L 139.419504 236.248331 
L 142.698843 230.176264 
L 145.978182 223.808 
L 149.257521 217.143537 
L 152.53686 210.182876 
L 155.816198 202.926017 
L 159.095537 195.372959 
L 162.374876 187.523702 
L 165.654215 179.378248 
L 168.933554 170.936595 
L 172.212893 162.198744 
L 175.492231 153.164694 
L 178.77157 143.834446 
L 182.050909 134.208 
L 185.330248 134.208 
L 188.609587 134.208 
L 191.888926 134.208 
L 195.168264 134.208 
L 198.447603 134.208 
L 201.726942 134.208 
L 205.006281 134.208 
L 208.28562 134.208 
L 211.564959 134.208 
L 214.844298 134.208 
L 218.123636 134.208 
L 221.402975 134.208 
L 224.682314 134.208 
L 227.961653 134.208 
L 231.240992 134.208 
L 234.520331 134.208 
L 237.799669 134.208 
L 241.079008 134.208 
L 244.358347 134.208 
L 247.637686 134.208 
L 250.917025 134.208 
L 254.196364 134.208 
L 257.475702 134.208 
L 260.755041 134.208 
L 264.03438 134.208 
L 267.313719 134.208 
L 270.593058 134.208 
L 273.872397 134.208 
L 277.151736 134.208 
L 280.431074 134.208 
L 283.710413 134.208 
L 286.989752 134.208 
L 290.269091 134.208 
L 293.54843 134.208 
L 296.827769 134.208 
L 300.107107 134.208 
L 303.386446 134.208 
L 306.665785 134.208 
L 309.945124 134.208 
L 313.224463 134.208 
L 316.503802 134.208 
L 319.78314 134.208 
L 323.062479 134.208 
L 326.341818 134.208 
L 329.621157 134.208 
L 332.900496 134.208 
L 336.179835 134.208 
L 339.459174 134.208 
L 342.738512 134.208 
L 346.017851 134.208 
L 349.29719 134.208 
L 352.576529 134.208 
L 355.855868 134.208 
L 359.135207 134.208 
L 362.414545 134.208 
L 365.693884 134.208 
L 368.973223 134.208 
L 372.252562 134.208 
L 375.531901 134.208 
L 378.81124 134.208 
L 382.090579 134.208 
L 385.369917 134.208 
L 388.649256 134.208 
L 391.928595 134.208 
L 395.207934 134.208 
L 398.487273 134.208 
" style="fill:none;stroke:#bfbf00;stroke-linecap:square;stroke-width:1.5;"/>
   </g>
   <g id="patch_3">
    <path d="M 57.6 307.584 
L 57.6 41.472 
" style="fill:none;stroke:#000000;stroke-linecap:square;stroke-linejoin:miter;stroke-width:0.8;"/>
   </g>
   <g id="patch_4">
    <path d="M 414.72 307.584 
L 414.72 41.472 
" style="fill:none;stroke:#000000;stroke-linecap:square;stroke-linejoin:miter;stroke-width:0.8;"/>
   </g>
   <g id="patch_5">
    <path d="M 57.6 307.584 
L 414.72 307.584 
" style="fill:none;stroke:#000000;stroke-linecap:square;stroke-linejoin:miter;stroke-width:0.8;"/>
   </g>
   <g id="patch_6">
    <path d="M 57.6 41.472 
L 414.72 41.472 
" style="fill:none;stroke:#000000;stroke-linecap:square;stroke-linejoin:miter;stroke-width:0.8;"/>
   </g>
   <g id="text_18">
    <!-- Second derivatives of loss functions -->
    <defs>
     <path d="M 53.515625 70.515625 
L 53.515625 60.890625 
Q 47.90625 63.578125 42.921875 64.890625 
Q 37.9375 66.21875 33.296875 66.21875 
Q 25.25 66.21875 20.875 63.09375 
Q 16.5 59.96875 16.5 54.203125 
Q 16.5 49.359375 19.40625 46.890625 
Q 22.3125 44.4375 30.421875 42.921875 
L 36.375 41.703125 
Q 47.40625 39.59375 52.65625 34.296875 
Q 57.90625 29 57.90625 20.125 
Q 57.90625 9.515625 50.796875 4.046875 
Q 43.703125 -1.421875 29.984375 -1.421875 
Q 24.8125 -1.421875 18.96875 -0.25 
Q 13.140625 0.921875 6.890625 3.21875 
L 6.890625 13.375 
Q 12.890625 10.015625 18.65625 8.296875 
Q 24.421875 6.59375 29.984375 6.59375 
Q 38.421875 6.59375 43.015625 9.90625 
Q 47.609375 13.234375 47.609375 19.390625 
Q 47.609375 24.75 44.3125 27.78125 
Q 41.015625 30.8125 33.5 32.328125 
L 27.484375 33.5 
Q 16.453125 35.6875 11.515625 40.375 
Q 6.59375 45.0625 6.59375 53.421875 
Q 6.59375 63.09375 13.40625 68.65625 
Q 20.21875 74.21875 32.171875 74.21875 
Q 37.3125 74.21875 42.625 73.28125 
Q 47.953125 72.359375 53.515625 70.515625 
z
" id="DejaVuSans-83"/>
     <path d="M 56.203125 29.59375 
L 56.203125 25.203125 
L 14.890625 25.203125 
Q 15.484375 15.921875 20.484375 11.0625 
Q 25.484375 6.203125 34.421875 6.203125 
Q 39.59375 6.203125 44.453125 7.46875 
Q 49.3125 8.734375 54.109375 11.28125 
L 54.109375 2.78125 
Q 49.265625 0.734375 44.1875 -0.34375 
Q 39.109375 -1.421875 33.890625 -1.421875 
Q 20.796875 -1.421875 13.15625 6.1875 
Q 5.515625 13.8125 5.515625 26.8125 
Q 5.515625 40.234375 12.765625 48.109375 
Q 20.015625 56 32.328125 56 
Q 43.359375 56 49.78125 48.890625 
Q 56.203125 41.796875 56.203125 29.59375 
z
M 47.21875 32.234375 
Q 47.125 39.59375 43.09375 43.984375 
Q 39.0625 48.390625 32.421875 48.390625 
Q 24.90625 48.390625 20.390625 44.140625 
Q 15.875 39.890625 15.1875 32.171875 
z
" id="DejaVuSans-101"/>
     <path d="M 48.78125 52.59375 
L 48.78125 44.1875 
Q 44.96875 46.296875 41.140625 47.34375 
Q 37.3125 48.390625 33.40625 48.390625 
Q 24.65625 48.390625 19.8125 42.84375 
Q 14.984375 37.3125 14.984375 27.296875 
Q 14.984375 17.28125 19.8125 11.734375 
Q 24.65625 6.203125 33.40625 6.203125 
Q 37.3125 6.203125 41.140625 7.25 
Q 44.96875 8.296875 48.78125 10.40625 
L 48.78125 2.09375 
Q 45.015625 0.34375 40.984375 -0.53125 
Q 36.96875 -1.421875 32.421875 -1.421875 
Q 20.0625 -1.421875 12.78125 6.34375 
Q 5.515625 14.109375 5.515625 27.296875 
Q 5.515625 40.671875 12.859375 48.328125 
Q 20.21875 56 33.015625 56 
Q 37.15625 56 41.109375 55.140625 
Q 45.0625 54.296875 48.78125 52.59375 
z
" id="DejaVuSans-99"/>
     <path d="M 54.890625 33.015625 
L 54.890625 0 
L 45.90625 0 
L 45.90625 32.71875 
Q 45.90625 40.484375 42.875 44.328125 
Q 39.84375 48.1875 33.796875 48.1875 
Q 26.515625 48.1875 22.3125 43.546875 
Q 18.109375 38.921875 18.109375 30.90625 
L 18.109375 0 
L 9.078125 0 
L 9.078125 54.6875 
L 18.109375 54.6875 
L 18.109375 46.1875 
Q 21.34375 51.125 25.703125 53.5625 
Q 30.078125 56 35.796875 56 
Q 45.21875 56 50.046875 50.171875 
Q 54.890625 44.34375 54.890625 33.015625 
z
" id="DejaVuSans-110"/>
     <path d="M 45.40625 46.390625 
L 45.40625 75.984375 
L 54.390625 75.984375 
L 54.390625 0 
L 45.40625 0 
L 45.40625 8.203125 
Q 42.578125 3.328125 38.25 0.953125 
Q 33.9375 -1.421875 27.875 -1.421875 
Q 17.96875 -1.421875 11.734375 6.484375 
Q 5.515625 14.40625 5.515625 27.296875 
Q 5.515625 40.1875 11.734375 48.09375 
Q 17.96875 56 27.875 56 
Q 33.9375 56 38.25 53.625 
Q 42.578125 51.265625 45.40625 46.390625 
z
M 14.796875 27.296875 
Q 14.796875 17.390625 18.875 11.75 
Q 22.953125 6.109375 30.078125 6.109375 
Q 37.203125 6.109375 41.296875 11.75 
Q 45.40625 17.390625 45.40625 27.296875 
Q 45.40625 37.203125 41.296875 42.84375 
Q 37.203125 48.484375 30.078125 48.484375 
Q 22.953125 48.484375 18.875 42.84375 
Q 14.796875 37.203125 14.796875 27.296875 
z
" id="DejaVuSans-100"/>
     <path id="DejaVuSans-32"/>
     <path d="M 41.109375 46.296875 
Q 39.59375 47.171875 37.8125 47.578125 
Q 36.03125 48 33.890625 48 
Q 26.265625 48 22.1875 43.046875 
Q 18.109375 38.09375 18.109375 28.8125 
L 18.109375 0 
L 9.078125 0 
L 9.078125 54.6875 
L 18.109375 54.6875 
L 18.109375 46.1875 
Q 20.953125 51.171875 25.484375 53.578125 
Q 30.03125 56 36.53125 56 
Q 37.453125 56 38.578125 55.875 
Q 39.703125 55.765625 41.0625 55.515625 
z
" id="DejaVuSans-114"/>
     <path d="M 9.421875 54.6875 
L 18.40625 54.6875 
L 18.40625 0 
L 9.421875 0 
z
M 9.421875 75.984375 
L 18.40625 75.984375 
L 18.40625 64.59375 
L 9.421875 64.59375 
z
" id="DejaVuSans-105"/>
     <path d="M 2.984375 54.6875 
L 12.5 54.6875 
L 29.59375 8.796875 
L 46.6875 54.6875 
L 56.203125 54.6875 
L 35.6875 0 
L 23.484375 0 
z
" id="DejaVuSans-118"/>
     <path d="M 34.28125 27.484375 
Q 23.390625 27.484375 19.1875 25 
Q 14.984375 22.515625 14.984375 16.5 
Q 14.984375 11.71875 18.140625 8.90625 
Q 21.296875 6.109375 26.703125 6.109375 
Q 34.1875 6.109375 38.703125 11.40625 
Q 43.21875 16.703125 43.21875 25.484375 
L 43.21875 27.484375 
z
M 52.203125 31.203125 
L 52.203125 0 
L 43.21875 0 
L 43.21875 8.296875 
Q 40.140625 3.328125 35.546875 0.953125 
Q 30.953125 -1.421875 24.3125 -1.421875 
Q 15.921875 -1.421875 10.953125 3.296875 
Q 6 8.015625 6 15.921875 
Q 6 25.140625 12.171875 29.828125 
Q 18.359375 34.515625 30.609375 34.515625 
L 43.21875 34.515625 
L 43.21875 35.40625 
Q 43.21875 41.609375 39.140625 45 
Q 35.0625 48.390625 27.6875 48.390625 
Q 23 48.390625 18.546875 47.265625 
Q 14.109375 46.140625 10.015625 43.890625 
L 10.015625 52.203125 
Q 14.9375 54.109375 19.578125 55.046875 
Q 24.21875 56 28.609375 56 
Q 40.484375 56 46.34375 49.84375 
Q 52.203125 43.703125 52.203125 31.203125 
z
" id="DejaVuSans-97"/>
     <path d="M 18.3125 70.21875 
L 18.3125 54.6875 
L 36.8125 54.6875 
L 36.8125 47.703125 
L 18.3125 47.703125 
L 18.3125 18.015625 
Q 18.3125 11.328125 20.140625 9.421875 
Q 21.96875 7.515625 27.59375 7.515625 
L 36.8125 7.515625 
L 36.8125 0 
L 27.59375 0 
Q 17.1875 0 13.234375 3.875 
Q 9.28125 7.765625 9.28125 18.015625 
L 9.28125 47.703125 
L 2.6875 47.703125 
L 2.6875 54.6875 
L 9.28125 54.6875 
L 9.28125 70.21875 
z
" id="DejaVuSans-116"/>
     <path d="M 37.109375 75.984375 
L 37.109375 68.5 
L 28.515625 68.5 
Q 23.6875 68.5 21.796875 66.546875 
Q 19.921875 64.59375 19.921875 59.515625 
L 19.921875 54.6875 
L 34.71875 54.6875 
L 34.71875 47.703125 
L 19.921875 47.703125 
L 19.921875 0 
L 10.890625 0 
L 10.890625 47.703125 
L 2.296875 47.703125 
L 2.296875 54.6875 
L 10.890625 54.6875 
L 10.890625 58.5 
Q 10.890625 67.625 15.140625 71.796875 
Q 19.390625 75.984375 28.609375 75.984375 
z
" id="DejaVuSans-102"/>
     <path d="M 8.5 21.578125 
L 8.5 54.6875 
L 17.484375 54.6875 
L 17.484375 21.921875 
Q 17.484375 14.15625 20.5 10.265625 
Q 23.53125 6.390625 29.59375 6.390625 
Q 36.859375 6.390625 41.078125 11.03125 
Q 45.3125 15.671875 45.3125 23.6875 
L 45.3125 54.6875 
L 54.296875 54.6875 
L 54.296875 0 
L 45.3125 0 
L 45.3125 8.40625 
Q 42.046875 3.421875 37.71875 1 
Q 33.40625 -1.421875 27.6875 -1.421875 
Q 18.265625 -1.421875 13.375 4.4375 
Q 8.5 10.296875 8.5 21.578125 
z
M 31.109375 56 
z
" id="DejaVuSans-117"/>
    </defs>
    <g transform="translate(128.191875 35.472)scale(0.12 -0.12)">
     <use xlink:href="#DejaVuSans-83"/>
     <use x="63.476562" xlink:href="#DejaVuSans-101"/>
     <use x="125" xlink:href="#DejaVuSans-99"/>
     <use x="179.980469" xlink:href="#DejaVuSans-111"/>
     <use x="241.162109" xlink:href="#DejaVuSans-110"/>
     <use x="304.541016" xlink:href="#DejaVuSans-100"/>
     <use x="368.017578" xlink:href="#DejaVuSans-32"/>
     <use x="399.804688" xlink:href="#DejaVuSans-100"/>
     <use x="463.28125" xlink:href="#DejaVuSans-101"/>
     <use x="524.804688" xlink:href="#DejaVuSans-114"/>
     <use x="565.917969" xlink:href="#DejaVuSans-105"/>
     <use x="593.701172" xlink:href="#DejaVuSans-118"/>
     <use x="652.880859" xlink:href="#DejaVuSans-97"/>
     <use x="714.160156" xlink:href="#DejaVuSans-116"/>
     <use x="753.369141" xlink:href="#DejaVuSans-105"/>
     <use x="781.152344" xlink:href="#DejaVuSans-118"/>
     <use x="840.332031" xlink:href="#DejaVuSans-101"/>
     <use x="901.855469" xlink:href="#DejaVuSans-115"/>
     <use x="953.955078" xlink:href="#DejaVuSans-32"/>
     <use x="985.742188" xlink:href="#DejaVuSans-111"/>
     <use x="1046.923828" xlink:href="#DejaVuSans-102"/>
     <use x="1082.128906" xlink:href="#DejaVuSans-32"/>
     <use x="1113.916016" xlink:href="#DejaVuSans-108"/>
     <use x="1141.699219" xlink:href="#DejaVuSans-111"/>
     <use x="1202.880859" xlink:href="#DejaVuSans-115"/>
     <use x="1254.980469" xlink:href="#DejaVuSans-115"/>
     <use x="1307.080078" xlink:href="#DejaVuSans-32"/>
     <use x="1338.867188" xlink:href="#DejaVuSans-102"/>
     <use x="1374.072266" xlink:href="#DejaVuSans-117"/>
     <use x="1437.451172" xlink:href="#DejaVuSans-110"/>
     <use x="1500.830078" xlink:href="#DejaVuSans-99"/>
     <use x="1555.810547" xlink:href="#DejaVuSans-116"/>
     <use x="1595.019531" xlink:href="#DejaVuSans-105"/>
     <use x="1622.802734" xlink:href="#DejaVuSans-111"/>
     <use x="1683.984375" xlink:href="#DejaVuSans-110"/>
     <use x="1747.363281" xlink:href="#DejaVuSans-115"/>
    </g>
   </g>
   <g id="legend_1">
    <g id="patch_7">
     <path d="M 292.977813 302.584 
L 407.72 302.584 
Q 409.72 302.584 409.72 300.584 
L 409.72 198.837125 
Q 409.72 196.837125 407.72 196.837125 
L 292.977813 196.837125 
Q 290.977813 196.837125 290.977813 198.837125 
L 290.977813 300.584 
Q 290.977813 302.584 292.977813 302.584 
z
" style="fill:#ffffff;opacity:0.8;stroke:#cccccc;stroke-linejoin:miter;"/>
    </g>
    <g id="line2d_38">
     <path d="M 294.977813 204.935563 
L 314.977813 204.935563 
" style="fill:none;stroke:#ff0000;stroke-linecap:square;stroke-width:1.5;"/>
    </g>
    <g id="line2d_39"/>
    <g id="text_19">
     <!-- Trivial -->
     <defs>
      <path d="M -0.296875 72.90625 
L 61.375 72.90625 
L 61.375 64.59375 
L 35.5 64.59375 
L 35.5 0 
L 25.59375 0 
L 25.59375 64.59375 
L -0.296875 64.59375 
z
" id="DejaVuSans-84"/>
     </defs>
     <g transform="translate(322.977813 208.435563)scale(0.1 -0.1)">
      <use xlink:href="#DejaVuSans-84"/>
      <use x="46.333984" xlink:href="#DejaVuSans-114"/>
      <use x="87.447266" xlink:href="#DejaVuSans-105"/>
      <use x="115.230469" xlink:href="#DejaVuSans-118"/>
      <use x="174.410156" xlink:href="#DejaVuSans-105"/>
      <use x="202.193359" xlink:href="#DejaVuSans-97"/>
      <use x="263.472656" xlink:href="#DejaVuSans-108"/>
     </g>
    </g>
    <g id="line2d_40">
     <path d="M 294.977813 219.613688 
L 314.977813 219.613688 
" style="fill:none;stroke:#bf00bf;stroke-linecap:square;stroke-width:1.5;"/>
    </g>
    <g id="line2d_41"/>
    <g id="text_20">
     <!-- Tolerant(1.0,0.5) -->
     <defs>
      <path d="M 11.71875 12.40625 
L 22.015625 12.40625 
L 22.015625 4 
L 14.015625 -11.625 
L 7.71875 -11.625 
L 11.71875 4 
z
" id="DejaVuSans-44"/>
     </defs>
     <g transform="translate(322.977813 223.113688)scale(0.1 -0.1)">
      <use xlink:href="#DejaVuSans-84"/>
      <use x="44.083984" xlink:href="#DejaVuSans-111"/>
      <use x="105.265625" xlink:href="#DejaVuSans-108"/>
      <use x="133.048828" xlink:href="#DejaVuSans-101"/>
      <use x="194.572266" xlink:href="#DejaVuSans-114"/>
      <use x="235.685547" xlink:href="#DejaVuSans-97"/>
      <use x="296.964844" xlink:href="#DejaVuSans-110"/>
      <use x="360.34375" xlink:href="#DejaVuSans-116"/>
      <use x="399.552734" xlink:href="#DejaVuSans-40"/>
      <use x="438.566406" xlink:href="#DejaVuSans-49"/>
      <use x="502.189453" xlink:href="#DejaVuSans-46"/>
      <use x="533.976562" xlink:href="#DejaVuSans-48"/>
      <use x="597.599609" xlink:href="#DejaVuSans-44"/>
      <use x="629.386719" xlink:href="#DejaVuSans-48"/>
      <use x="693.009766" xlink:href="#DejaVuSans-46"/>
      <use x="724.796875" xlink:href="#DejaVuSans-53"/>
      <use x="788.419922" xlink:href="#DejaVuSans-41"/>
     </g>
    </g>
    <g id="line2d_42">
     <path d="M 294.977813 234.291812 
L 314.977813 234.291812 
" style="fill:none;stroke:#0000ff;stroke-linecap:square;stroke-width:1.5;"/>
    </g>
    <g id="line2d_43"/>
    <g id="text_21">
     <!-- Huber(1.0) -->
     <defs>
      <path d="M 9.8125 72.90625 
L 19.671875 72.90625 
L 19.671875 43.015625 
L 55.515625 43.015625 
L 55.515625 72.90625 
L 65.375 72.90625 
L 65.375 0 
L 55.515625 0 
L 55.515625 34.71875 
L 19.671875 34.71875 
L 19.671875 0 
L 9.8125 0 
z
" id="DejaVuSans-72"/>
      <path d="M 48.6875 27.296875 
Q 48.6875 37.203125 44.609375 42.84375 
Q 40.53125 48.484375 33.40625 48.484375 
Q 26.265625 48.484375 22.1875 42.84375 
Q 18.109375 37.203125 18.109375 27.296875 
Q 18.109375 17.390625 22.1875 11.75 
Q 26.265625 6.109375 33.40625 6.109375 
Q 40.53125 6.109375 44.609375 11.75 
Q 48.6875 17.390625 48.6875 27.296875 
z
M 18.109375 46.390625 
Q 20.953125 51.265625 25.265625 53.625 
Q 29.59375 56 35.59375 56 
Q 45.5625 56 51.78125 48.09375 
Q 58.015625 40.1875 58.015625 27.296875 
Q 58.015625 14.40625 51.78125 6.484375 
Q 45.5625 -1.421875 35.59375 -1.421875 
Q 29.59375 -1.421875 25.265625 0.953125 
Q 20.953125 3.328125 18.109375 8.203125 
L 18.109375 0 
L 9.078125 0 
L 9.078125 75.984375 
L 18.109375 75.984375 
z
" id="DejaVuSans-98"/>
     </defs>
     <g transform="translate(322.977813 237.791812)scale(0.1 -0.1)">
      <use xlink:href="#DejaVuSans-72"/>
      <use x="75.195312" xlink:href="#DejaVuSans-117"/>
      <use x="138.574219" xlink:href="#DejaVuSans-98"/>
      <use x="202.050781" xlink:href="#DejaVuSans-101"/>
      <use x="263.574219" xlink:href="#DejaVuSans-114"/>
      <use x="304.6875" xlink:href="#DejaVuSans-40"/>
      <use x="343.701172" xlink:href="#DejaVuSans-49"/>
      <use x="407.324219" xlink:href="#DejaVuSans-46"/>
      <use x="439.111328" xlink:href="#DejaVuSans-48"/>
      <use x="502.734375" xlink:href="#DejaVuSans-41"/>
     </g>
    </g>
    <g id="line2d_44">
     <path d="M 294.977813 248.969938 
L 314.977813 248.969938 
" style="fill:none;stroke:#000000;stroke-linecap:square;stroke-width:1.5;"/>
    </g>
    <g id="line2d_45"/>
    <g id="text_22">
     <!-- SoftLOne(1.0) -->
     <defs>
      <path d="M 9.8125 72.90625 
L 19.671875 72.90625 
L 19.671875 8.296875 
L 55.171875 8.296875 
L 55.171875 0 
L 9.8125 0 
z
" id="DejaVuSans-76"/>
      <path d="M 39.40625 66.21875 
Q 28.65625 66.21875 22.328125 58.203125 
Q 16.015625 50.203125 16.015625 36.375 
Q 16.015625 22.609375 22.328125 14.59375 
Q 28.65625 6.59375 39.40625 6.59375 
Q 50.140625 6.59375 56.421875 14.59375 
Q 62.703125 22.609375 62.703125 36.375 
Q 62.703125 50.203125 56.421875 58.203125 
Q 50.140625 66.21875 39.40625 66.21875 
z
M 39.40625 74.21875 
Q 54.734375 74.21875 63.90625 63.9375 
Q 73.09375 53.65625 73.09375 36.375 
Q 73.09375 19.140625 63.90625 8.859375 
Q 54.734375 -1.421875 39.40625 -1.421875 
Q 24.03125 -1.421875 14.8125 8.828125 
Q 5.609375 19.09375 5.609375 36.375 
Q 5.609375 53.65625 14.8125 63.9375 
Q 24.03125 74.21875 39.40625 74.21875 
z
" id="DejaVuSans-79"/>
     </defs>
     <g transform="translate(322.977813 252.469938)scale(0.1 -0.1)">
      <use xlink:href="#DejaVuSans-83"/>
      <use x="63.476562" xlink:href="#DejaVuSans-111"/>
      <use x="124.658203" xlink:href="#DejaVuSans-102"/>
      <use x="158.113281" xlink:href="#DejaVuSans-116"/>
      <use x="197.322266" xlink:href="#DejaVuSans-76"/>
      <use x="249.410156" xlink:href="#DejaVuSans-79"/>
      <use x="328.121094" xlink:href="#DejaVuSans-110"/>
      <use x="391.5" xlink:href="#DejaVuSans-101"/>
      <use x="453.023438" xlink:href="#DejaVuSans-40"/>
      <use x="492.037109" xlink:href="#DejaVuSans-49"/>
      <use x="555.660156" xlink:href="#DejaVuSans-46"/>
      <use x="587.447266" xlink:href="#DejaVuSans-48"/>
      <use x="651.070312" xlink:href="#DejaVuSans-41"/>
     </g>
    </g>
    <g id="line2d_46">
     <path d="M 294.977813 263.648063 
L 314.977813 263.648063 
" style="fill:none;stroke:#00bfbf;stroke-linecap:square;stroke-width:1.5;"/>
    </g>
    <g id="line2d_47"/>
    <g id="text_23">
     <!-- Cauchy(1.0) -->
     <defs>
      <path d="M 64.40625 67.28125 
L 64.40625 56.890625 
Q 59.421875 61.53125 53.78125 63.8125 
Q 48.140625 66.109375 41.796875 66.109375 
Q 29.296875 66.109375 22.65625 58.46875 
Q 16.015625 50.828125 16.015625 36.375 
Q 16.015625 21.96875 22.65625 14.328125 
Q 29.296875 6.6875 41.796875 6.6875 
Q 48.140625 6.6875 53.78125 8.984375 
Q 59.421875 11.28125 64.40625 15.921875 
L 64.40625 5.609375 
Q 59.234375 2.09375 53.4375 0.328125 
Q 47.65625 -1.421875 41.21875 -1.421875 
Q 24.65625 -1.421875 15.125 8.703125 
Q 5.609375 18.84375 5.609375 36.375 
Q 5.609375 53.953125 15.125 64.078125 
Q 24.65625 74.21875 41.21875 74.21875 
Q 47.75 74.21875 53.53125 72.484375 
Q 59.328125 70.75 64.40625 67.28125 
z
" id="DejaVuSans-67"/>
      <path d="M 54.890625 33.015625 
L 54.890625 0 
L 45.90625 0 
L 45.90625 32.71875 
Q 45.90625 40.484375 42.875 44.328125 
Q 39.84375 48.1875 33.796875 48.1875 
Q 26.515625 48.1875 22.3125 43.546875 
Q 18.109375 38.921875 18.109375 30.90625 
L 18.109375 0 
L 9.078125 0 
L 9.078125 75.984375 
L 18.109375 75.984375 
L 18.109375 46.1875 
Q 21.34375 51.125 25.703125 53.5625 
Q 30.078125 56 35.796875 56 
Q 45.21875 56 50.046875 50.171875 
Q 54.890625 44.34375 54.890625 33.015625 
z
" id="DejaVuSans-104"/>
      <path d="M 32.171875 -5.078125 
Q 28.375 -14.84375 24.75 -17.8125 
Q 21.140625 -20.796875 15.09375 -20.796875 
L 7.90625 -20.796875 
L 7.90625 -13.28125 
L 13.1875 -13.28125 
Q 16.890625 -13.28125 18.9375 -11.515625 
Q 21 -9.765625 23.484375 -3.21875 
L 25.09375 0.875 
L 2.984375 54.6875 
L 12.5 54.6875 
L 29.59375 11.921875 
L 46.6875 54.6875 
L 56.203125 54.6875 
z
" id="DejaVuSans-121"/>
     </defs>
     <g transform="translate(322.977813 267.148063)scale(0.1 -0.1)">
      <use xlink:href="#DejaVuSans-67"/>
      <use x="69.824219" xlink:href="#DejaVuSans-97"/>
      <use x="131.103516" xlink:href="#DejaVuSans-117"/>
      <use x="194.482422" xlink:href="#DejaVuSans-99"/>
      <use x="249.462891" xlink:href="#DejaVuSans-104"/>
      <use x="312.841797" xlink:href="#DejaVuSans-121"/>
      <use x="372.021484" xlink:href="#DejaVuSans-40"/>
      <use x="411.035156" xlink:href="#DejaVuSans-49"/>
      <use x="474.658203" xlink:href="#DejaVuSans-46"/>
      <use x="506.445312" xlink:href="#DejaVuSans-48"/>
      <use x="570.068359" xlink:href="#DejaVuSans-41"/>
     </g>
    </g>
    <g id="line2d_48">
     <path d="M 294.977813 278.326188 
L 314.977813 278.326188 
" style="fill:none;stroke:#008000;stroke-linecap:square;stroke-width:1.5;"/>
    </g>
    <g id="line2d_49"/>
    <g id="text_24">
     <!-- Arctan(1.0) -->
     <defs>
      <path d="M 34.1875 63.1875 
L 20.796875 26.90625 
L 47.609375 26.90625 
z
M 28.609375 72.90625 
L 39.796875 72.90625 
L 67.578125 0 
L 57.328125 0 
L 50.6875 18.703125 
L 17.828125 18.703125 
L 11.1875 0 
L 0.78125 0 
z
" id="DejaVuSans-65"/>
     </defs>
     <g transform="translate(322.977813 281.826188)scale(0.1 -0.1)">
      <use xlink:href="#DejaVuSans-65"/>
      <use x="68.408203" xlink:href="#DejaVuSans-114"/>
      <use x="107.271484" xlink:href="#DejaVuSans-99"/>
      <use x="162.251953" xlink:href="#DejaVuSans-116"/>
      <use x="201.460938" xlink:href="#DejaVuSans-97"/>
      <use x="262.740234" xlink:href="#DejaVuSans-110"/>
      <use x="326.119141" xlink:href="#DejaVuSans-40"/>
      <use x="365.132812" xlink:href="#DejaVuSans-49"/>
      <use x="428.755859" xlink:href="#DejaVuSans-46"/>
      <use x="460.542969" xlink:href="#DejaVuSans-48"/>
      <use x="524.166016" xlink:href="#DejaVuSans-41"/>
     </g>
    </g>
    <g id="line2d_50">
     <path d="M 294.977813 293.004312 
L 314.977813 293.004312 
" style="fill:none;stroke:#bfbf00;stroke-linecap:square;stroke-width:1.5;"/>
    </g>
    <g id="line2d_51"/>
    <g id="text_25">
     <!-- Tukey(1.0) -->
     <defs>
      <path d="M 9.078125 75.984375 
L 18.109375 75.984375 
L 18.109375 31.109375 
L 44.921875 54.6875 
L 56.390625 54.6875 
L 27.390625 29.109375 
L 57.625 0 
L 45.90625 0 
L 18.109375 26.703125 
L 18.109375 0 
L 9.078125 0 
z
" id="DejaVuSans-107"/>
     </defs>
     <g transform="translate(322.977813 296.504312)scale(0.1 -0.1)">
      <use xlink:href="#DejaVuSans-84"/>
      <use x="45.958984" xlink:href="#DejaVuSans-117"/>
      <use x="109.337891" xlink:href="#DejaVuSans-107"/>
      <use x="163.623047" xlink:href="#DejaVuSans-101"/>
      <use x="225.146484" xlink:href="#DejaVuSans-121"/>
      <use x="284.326172" xlink:href="#DejaVuSans-40"/>
      <use x="323.339844" xlink:href="#DejaVuSans-49"/>
      <use x="386.962891" xlink:href="#DejaVuSans-46"/>
      <use x="418.75" xlink:href="#DejaVuSans-48"/>
      <use x="482.373047" xlink:href="#DejaVuSans-41"/>
     </g>
    </g>
   </g>
  </g>
 </g>
 <defs>
  <clipPath id="p14ddec71d6">
   <rect height="266.112" width="357.12" x="57.6" y="41.472"/>
  </clipPath>
 </defs>
</svg>
